<svg xmlns="http://www.w3.org/2000/svg" viewBox="0 0 320 480">
<defs>
<linearGradient id="b" x1="0" y1="0" x2="1" y2="1"><stop offset="0%" stop-color="hsl(112.5,40%,35%)"/><stop offset="100%" stop-color="hsl(112.5,40%,25%)"/></linearGradient>
<linearGradient id="g" x1=".5" y1="0" x2=".5" y2="1"><stop offset="0%" stop-color="#e94560" stop-opacity=".12"/><stop offset="100%" stop-color="#e94560" stop-opacity="0"/></linearGradient>
<pattern id="scan" width="4" height="4" patternUnits="userSpaceOnUse"><rect width="4" height="2" fill="#000" opacity=".04"/></pattern>
<pattern id="grid" width="16" height="16" patternUnits="userSpaceOnUse"><rect width="16" height="16" fill="none" stroke="#e94560" stroke-width=".3" opacity=".04"/></pattern>
</defs>
<rect width="320" height="480" rx="16" fill="url(#b)"/>
<rect width="320" height="480" rx="16" fill="url(#scan)"/>
<rect x="8" y="8" width="304" height="464" rx="12" fill="url(#grid)"/>
<rect x="8" y="8" width="304" height="464" rx="12" fill="none" stroke="#e94560" stroke-width="1" opacity=".2"/>
<rect x="0" y="0" width="320" height="240" fill="url(#g)"/>
<text x="160" y="48" text-anchor="middle" fill="#e94560" font-size="10" font-weight="700" font-family="monospace" opacity=".6" letter-spacing="3">PIXEL PLAYGROUND</text>
<g transform="translate(0,20)"><rect x="138" y="148" width="8" height="28" rx="3" fill="ACCENT" opacity=".3"/><rect x="174" y="148" width="8" height="28" rx="3" fill="ACCENT" opacity=".25"/><rect x="156" y="172" width="8" height="28" rx="3" fill="ACCENT" opacity=".2"/><circle cx="148" cy="144" r="7" fill="#fde8b0" opacity=".7"/><circle cx="162" cy="144" r="7" fill="#fde8b0" opacity=".65"/><circle cx="155" cy="168" r="9" fill="#fde8b0" opacity=".8"/><circle cx="152" cy="165" r="1.5" fill="#2b2d42"/><circle cx="158" cy="165" r="1.5" fill="#2b2d42"/></g>
<text x="160" y="290" text-anchor="middle" fill="#e94560" font-size="18" font-weight="700" font-family="monospace">Pixel Bear Merge</text>
<text x="160" y="312" text-anchor="middle" fill="#0f3460" font-size="11" font-family="monospace" letter-spacing="1">Merge</text>
<line x1="80" y1="330" x2="240" y2="330" stroke="#e94560" stroke-width=".5" opacity=".15"/>
<text x="160" y="420" text-anchor="middle" fill="#0f3460" font-size="11" font-family="monospace">Pixel Bear</text>
<text x="160" y="450" text-anchor="middle" fill="#e94560" font-size="9" font-family="monospace" opacity=".35" letter-spacing="2">MOCHI MANGO ARCADE</text>
<rect x="16" y="16" width="2" height="2" fill="#e94560" opacity=".15"/><rect x="302" y="16" width="2" height="2" fill="#e94560" opacity=".15"/>
<rect x="16" y="462" width="2" height="2" fill="#e94560" opacity=".15"/><rect x="302" y="462" width="2" height="2" fill="#e94560" opacity=".15"/>
</svg>