<svg xmlns="http://www.w3.org/2000/svg" viewBox="0 0 320 480">
<defs>
<linearGradient id="b" x1="0" y1="0" x2="1" y2="1"><stop offset="0%" stop-color="hsl(225,40%,35%)"/><stop offset="100%" stop-color="hsl(225,40%,25%)"/></linearGradient>
<linearGradient id="g" x1=".5" y1="0" x2=".5" y2="1"><stop offset="0%" stop-color="#e94560" stop-opacity=".12"/><stop offset="100%" stop-color="#e94560" stop-opacity="0"/></linearGradient>
<pattern id="scan" width="4" height="4" patternUnits="userSpaceOnUse"><rect width="4" height="2" fill="#000" opacity=".04"/></pattern>
<pattern id="grid" width="16" height="16" patternUnits="userSpaceOnUse"><rect width="16" height="16" fill="none" stroke="#e94560" stroke-width=".3" opacity=".04"/></pattern>
</defs>
<rect width="320" height="480" rx="16" fill="url(#b)"/>
<rect width="320" height="480" rx="16" fill="url(#scan)"/>
<rect x="8" y="8" width="304" height="464" rx="12" fill="url(#grid)"/>
<rect x="8" y="8" width="304" height="464" rx="12" fill="none" stroke="#e94560" stroke-width="1" opacity=".2"/>
<rect x="0" y="0" width="320" height="240" fill="url(#g)"/>
<text x="160" y="48" text-anchor="middle" fill="#e94560" font-size="10" font-weight="700" font-family="monospace" opacity=".6" letter-spacing="3">PIXEL PLAYGROUND</text>
<g transform="translate(0,20)"><ellipse cx="160" cy="140" rx="16" ry="18" fill="#fde8b0" opacity=".8"/><rect x="114" y="190" width="30" height="5" rx="2.5" fill="ACCENT" opacity=".28"/><rect x="170" y="180" width="34" height="5" rx="2.5" fill="ACCENT" opacity=".22"/><rect x="102" y="168" width="26" height="5" rx="2.5" fill="ACCENT" opacity=".18"/><rect x="192" y="162" width="24" height="5" rx="2.5" fill="ACCENT" opacity=".14"/><circle cx="156" cy="136" r="2" fill="#2b2d42"/><circle cx="164" cy="136" r="2" fill="#2b2d42"/><ellipse cx="160" cy="144" rx="3" ry="2" fill="#ff9eb5" opacity=".5"/></g>
<text x="160" y="290" text-anchor="middle" fill="#e94560" font-size="18" font-weight="700" font-family="monospace">Pixel Bear Bounce</text>
<text x="160" y="312" text-anchor="middle" fill="#0f3460" font-size="11" font-family="monospace" letter-spacing="1">Climber</text>
<line x1="80" y1="330" x2="240" y2="330" stroke="#e94560" stroke-width=".5" opacity=".15"/>
<text x="160" y="420" text-anchor="middle" fill="#0f3460" font-size="11" font-family="monospace">Pixel Bear</text>
<text x="160" y="450" text-anchor="middle" fill="#e94560" font-size="9" font-family="monospace" opacity=".35" letter-spacing="2">MOCHI MANGO ARCADE</text>
<rect x="16" y="16" width="2" height="2" fill="#e94560" opacity=".15"/><rect x="302" y="16" width="2" height="2" fill="#e94560" opacity=".15"/>
<rect x="16" y="462" width="2" height="2" fill="#e94560" opacity=".15"/><rect x="302" y="462" width="2" height="2" fill="#e94560" opacity=".15"/>
</svg>