<svg xmlns="http://www.w3.org/2000/svg" viewBox="0 0 320 480">
<defs>
<linearGradient id="b" x1="0" y1="0" x2="1" y2="1"><stop offset="0%" stop-color="hsl(60,40%,35%)"/><stop offset="100%" stop-color="hsl(60,40%,25%)"/></linearGradient>
<linearGradient id="g" x1=".5" y1="0" x2=".5" y2="1"><stop offset="0%" stop-color="#fff3e0" stop-opacity=".12"/><stop offset="100%" stop-color="#fff3e0" stop-opacity="0"/></linearGradient>
</defs>
<rect width="320" height="480" rx="16" fill="url(#b)"/>
<rect x="8" y="8" width="304" height="464" rx="12" fill="none" stroke="#fff3e0" stroke-width="1" opacity=".15"/>
<rect x="0" y="0" width="320" height="240" fill="url(#g)"/>
<text x="160" y="48" text-anchor="middle" fill="#fff3e0" font-size="11" font-weight="600" font-family="Outfit,sans-serif" opacity=".45" letter-spacing="4">MANGO ISLAND</text>
<g transform="translate(0,20)"><circle cx="160" cy="160" r="12" fill="#fff3e0" opacity=".4"/><path d="M140 130 Q160 100 180 130 Q160 145 140 130" fill="#fff3e0" opacity=".2"/><line x1="148" y1="175" x2="148" y2="195" stroke="#fff3e0" stroke-width="2" opacity=".35"/><line x1="172" y1="175" x2="172" y2="195" stroke="#fff3e0" stroke-width="2" opacity=".35"/><line x1="130" y1="195" x2="190" y2="195" stroke="#fff3e0" stroke-width="2" opacity=".3"/></g>
<text x="160" y="288" text-anchor="middle" fill="#fff3e0" font-size="19" font-weight="700" font-family="Fredoka,Outfit,sans-serif">Beach Ball Blitz</text>
<text x="160" y="312" text-anchor="middle" fill="#ffe0b2" font-size="12" font-family="Outfit,sans-serif" letter-spacing="1">Sports</text>
<line x1="80" y1="330" x2="240" y2="330" stroke="#fff3e0" stroke-width=".5" opacity=".1"/>
<text x="160" y="420" text-anchor="middle" fill="#ffe0b2" font-size="12" font-family="Outfit,sans-serif">Sandy Spiker</text>
<text x="160" y="450" text-anchor="middle" fill="#fff3e0" font-size="10" font-family="Outfit,sans-serif" opacity=".35" letter-spacing="2">MOCHI MANGO ARCADE</text>
<circle cx="16" cy="16" r="1.5" fill="#fff3e0" opacity=".1"/><circle cx="304" cy="16" r="1.5" fill="#fff3e0" opacity=".1"/>
<circle cx="16" cy="464" r="1.5" fill="#fff3e0" opacity=".1"/><circle cx="304" cy="464" r="1.5" fill="#fff3e0" opacity=".1"/>
</svg>