<svg xmlns="http://www.w3.org/2000/svg" viewBox="0 0 320 480">
<defs>
<linearGradient id="b" x1="0" y1="0" x2="1" y2="1"><stop offset="0%" stop-color="hsl(30,40%,35%)"/><stop offset="100%" stop-color="hsl(30,40%,25%)"/></linearGradient>
<linearGradient id="g" x1=".5" y1="0" x2=".5" y2="1"><stop offset="0%" stop-color="#fff3e0" stop-opacity=".12"/><stop offset="100%" stop-color="#fff3e0" stop-opacity="0"/></linearGradient>
</defs>
<rect width="320" height="480" rx="16" fill="url(#b)"/>
<rect x="8" y="8" width="304" height="464" rx="12" fill="none" stroke="#fff3e0" stroke-width="1" opacity=".15"/>
<rect x="0" y="0" width="320" height="240" fill="url(#g)"/>
<text x="160" y="48" text-anchor="middle" fill="#fff3e0" font-size="11" font-weight="600" font-family="Outfit,sans-serif" opacity=".45" letter-spacing="4">MANGO ISLAND</text>
<g transform="translate(0,20)"><path d="M150 130 Q130 150 150 180" stroke="#fff3e0" stroke-width="3" fill="none" opacity=".4" stroke-linecap="round"/><line x1="150" y1="155" x2="185" y2="155" stroke="#fff3e0" stroke-width="2" opacity=".35"/><circle cx="185" cy="155" r="3" fill="#fff3e0" opacity=".5"/><circle cx="140" cy="155" r="10" fill="#fff3e0" opacity=".1" stroke="#fff3e0" stroke-width="1" opacity=".3"/><circle cx="160" cy="155" r="2" fill="#fff3e0" opacity=".3"/></g>
<text x="160" y="288" text-anchor="middle" fill="#fff3e0" font-size="19" font-weight="700" font-family="Fredoka,Outfit,sans-serif">Coconut Cannonade</text>
<text x="160" y="312" text-anchor="middle" fill="#ffe0b2" font-size="12" font-family="Outfit,sans-serif" letter-spacing="1">Archery</text>
<line x1="80" y1="330" x2="240" y2="330" stroke="#fff3e0" stroke-width=".5" opacity=".1"/>
<text x="160" y="420" text-anchor="middle" fill="#ffe0b2" font-size="12" font-family="Outfit,sans-serif">Coconut Archer</text>
<text x="160" y="450" text-anchor="middle" fill="#fff3e0" font-size="10" font-family="Outfit,sans-serif" opacity=".35" letter-spacing="2">MOCHI MANGO ARCADE</text>
<circle cx="16" cy="16" r="1.5" fill="#fff3e0" opacity=".1"/><circle cx="304" cy="16" r="1.5" fill="#fff3e0" opacity=".1"/>
<circle cx="16" cy="464" r="1.5" fill="#fff3e0" opacity=".1"/><circle cx="304" cy="464" r="1.5" fill="#fff3e0" opacity=".1"/>
</svg>