<svg xmlns="http://www.w3.org/2000/svg" viewBox="0 0 320 480">
<defs>
<linearGradient id="b" x1="0" y1="0" x2="1" y2="1"><stop offset="0%" stop-color="hsl(180,40%,35%)"/><stop offset="100%" stop-color="hsl(180,40%,25%)"/></linearGradient>
<linearGradient id="g" x1=".5" y1="0" x2=".5" y2="1"><stop offset="0%" stop-color="#fff3e0" stop-opacity=".12"/><stop offset="100%" stop-color="#fff3e0" stop-opacity="0"/></linearGradient>
</defs>
<rect width="320" height="480" rx="16" fill="url(#b)"/>
<rect x="8" y="8" width="304" height="464" rx="12" fill="none" stroke="#fff3e0" stroke-width="1" opacity=".15"/>
<rect x="0" y="0" width="320" height="240" fill="url(#g)"/>
<text x="160" y="48" text-anchor="middle" fill="#fff3e0" font-size="11" font-weight="600" font-family="Outfit,sans-serif" opacity=".45" letter-spacing="4">MANGO ISLAND</text>
<g transform="translate(0,20)"><ellipse cx="160" cy="150" rx="20" ry="14" fill="#fff3e0" opacity=".45"/><path d="M140 145 Q125 135 135 150 Q125 148 140 155" fill="#fff3e0" opacity=".35"/><circle cx="168" cy="146" r="2" fill="#fff3e0" opacity=".7"/><path d="M145 170 Q160 165 175 170" stroke="#fff3e0" stroke-width="1.5" fill="none" opacity=".3"/><circle cx="120" cy="130" r="4" fill="#fff3e0" opacity=".25"/><circle cx="185" cy="125" r="3" fill="#fff3e0" opacity=".2"/><circle cx="195" cy="140" r="3.5" fill="#fff3e0" opacity=".15"/></g>
<text x="160" y="288" text-anchor="middle" fill="#fff3e0" font-size="19" font-weight="700" font-family="Fredoka,Outfit,sans-serif">Parrot Passage</text>
<text x="160" y="312" text-anchor="middle" fill="#ffe0b2" font-size="12" font-family="Outfit,sans-serif" letter-spacing="1">Flappy</text>
<line x1="80" y1="330" x2="240" y2="330" stroke="#fff3e0" stroke-width=".5" opacity=".1"/>
<text x="160" y="420" text-anchor="middle" fill="#ffe0b2" font-size="12" font-family="Outfit,sans-serif">Parrot Flyer</text>
<text x="160" y="450" text-anchor="middle" fill="#fff3e0" font-size="10" font-family="Outfit,sans-serif" opacity=".35" letter-spacing="2">MOCHI MANGO ARCADE</text>
<circle cx="16" cy="16" r="1.5" fill="#fff3e0" opacity=".1"/><circle cx="304" cy="16" r="1.5" fill="#fff3e0" opacity=".1"/>
<circle cx="16" cy="464" r="1.5" fill="#fff3e0" opacity=".1"/><circle cx="304" cy="464" r="1.5" fill="#fff3e0" opacity=".1"/>
</svg>