<svg xmlns="http://www.w3.org/2000/svg" viewBox="0 0 720 450" role="img" aria-labelledby="title desc">
  <title id="title">Beat Bento Breakers key art</title><desc id="desc">An original four-lane rhythm arcade with flying bento notes and Mika Marmoset.</desc>
  <defs><linearGradient id="bg" x2="0" y2="1"><stop stop-color="#17123f"/><stop offset="1" stop-color="#3a1e63"/></linearGradient><linearGradient id="lane" x2="0" y2="1"><stop stop-color="#fff" stop-opacity=".08"/><stop offset="1" stop-color="#fff" stop-opacity=".25"/></linearGradient><pattern id="scan" width="4" height="4" patternUnits="userSpaceOnUse"><path d="M0 3.5h4" stroke="#fff" stroke-opacity=".05"/></pattern><filter id="g"><feGaussianBlur stdDeviation="5" result="b"/><feMerge><feMergeNode in="b"/><feMergeNode in="SourceGraphic"/></feMerge></filter></defs>
  <rect width="720" height="450" rx="28" fill="url(#bg)"/><path d="M260 72h230l108 237H152z" fill="url(#lane)" stroke="#33d6ff" stroke-width="5"/><path d="M317 72l-34 237M374 72v237M433 72l35 237" stroke="#fff" stroke-opacity=".35" stroke-width="4"/>
  <g stroke="#fff" stroke-width="4"><rect x="243" y="196" width="47" height="34" rx="8" fill="#ff375f"/><rect x="325" y="135" width="42" height="31" rx="8" fill="#ffcc33"/><rect x="404" y="226" width="54" height="38" rx="8" fill="#33d6ff"/><rect x="459" y="105" width="37" height="28" rx="8" fill="#55ed8b"/></g><g fill="#fff"><circle cx="259" cy="209" r="4"/><circle cx="274" cy="209" r="4"/><circle cx="338" cy="147" r="4"/><circle cx="353" cy="147" r="4"/></g>
  <g transform="translate(105 197)"><circle r="57" fill="#b6865c" stroke="#ffcc33" stroke-width="7"/><circle cx="-48" cy="-42" r="22" fill="#b6865c"/><circle cx="48" cy="-42" r="22" fill="#b6865c"/><circle cx="-19" cy="-10" r="8"/><circle cx="19" cy="-10" r="8"/><path d="M-18 20q18 15 36 0" fill="none" stroke="#17123f" stroke-width="7"/><path d="M-45 52h90l15 65h-120z" fill="#ff375f" stroke="#33d6ff" stroke-width="6"/></g>
  <text x="516" y="194" transform="rotate(-8 516 194)" font-family="Arial Black,Arial,sans-serif" font-size="37" fill="#ffcc33" stroke="#ff375f" stroke-width="7" paint-order="stroke">COMBO!</text>
  <rect x="30" y="24" width="180" height="29" rx="14" fill="#ffcc33"/><text x="120" y="44" text-anchor="middle" font-family="Arial,sans-serif" font-size="15" font-weight="900" fill="#17123f" letter-spacing="2">RETRO · 90s</text>
  <text x="36" y="370" font-family="Arial Black,Arial,sans-serif" font-size="49" font-weight="900" fill="#fff">BEAT BENTO</text><text x="36" y="420" font-family="Arial Black,Arial,sans-serif" font-size="49" font-weight="900" fill="#55ed8b">BREAKERS</text>
  <rect width="720" height="450" rx="28" fill="url(#scan)"/><rect x="8" y="8" width="704" height="434" rx="23" fill="none" stroke="#33d6ff" stroke-width="4"/>
</svg>
