<svg xmlns="http://www.w3.org/2000/svg" viewBox="0 0 720 450" role="img" aria-labelledby="title desc">
  <title id="title">Bubble Byte Brigade key art</title><desc id="desc">An original CRT bubble puzzle with colorful byte bubbles and Bloop Axolotl.</desc>
  <defs><radialGradient id="bg"><stop stop-color="#24336e"/><stop offset="1" stop-color="#0b1744"/></radialGradient><radialGradient id="b1" cx=".3" cy=".25"><stop stop-color="#fff"/><stop offset=".25" stop-color="#39d9ff"/><stop offset="1" stop-color="#1674cc"/></radialGradient><radialGradient id="b2" cx=".3" cy=".25"><stop stop-color="#fff"/><stop offset=".25" stop-color="#ff69b4"/><stop offset="1" stop-color="#b52d82"/></radialGradient><radialGradient id="b3" cx=".3" cy=".25"><stop stop-color="#fff"/><stop offset=".25" stop-color="#ffe65c"/><stop offset="1" stop-color="#d58c13"/></radialGradient><pattern id="scan" width="4" height="4" patternUnits="userSpaceOnUse"><path d="M0 3.5h4" stroke="#fff" stroke-opacity=".06"/></pattern></defs>
  <rect width="720" height="450" rx="28" fill="url(#bg)"/><g stroke="#fff" stroke-opacity=".35" stroke-width="4"><circle cx="435" cy="92" r="34" fill="url(#b1)"/><circle cx="497" cy="92" r="34" fill="url(#b2)"/><circle cx="559" cy="92" r="34" fill="url(#b3)"/><circle cx="466" cy="148" r="34" fill="url(#b3)"/><circle cx="528" cy="148" r="34" fill="url(#b1)"/><circle cx="590" cy="148" r="34" fill="url(#b2)"/><circle cx="497" cy="204" r="34" fill="url(#b2)"/><circle cx="559" cy="204" r="34" fill="url(#b1)"/></g>
  <path d="M238 251L497 204" stroke="#fff" stroke-opacity=".75" stroke-width="4" stroke-dasharray="7 10"/><circle cx="238" cy="251" r="29" fill="url(#b3)"/>
  <g transform="translate(135 205)"><ellipse rx="66" ry="50" fill="#7bff8a" stroke="#ffe65c" stroke-width="6"/><path d="M-55-25l-34-24M-55 0l-42 0M55-25l34-24M55 0l42 0" stroke="#ff69b4" stroke-width="10" stroke-linecap="round"/><circle cx="-21" cy="-9" r="8" fill="#0b1744"/><circle cx="21" cy="-9" r="8" fill="#0b1744"/><path d="M-20 18q20 15 40 0" fill="none" stroke="#0b1744" stroke-width="6"/></g>
  <rect x="30" y="24" width="180" height="29" rx="4" fill="#ffe65c"/><text x="120" y="44" text-anchor="middle" font-family="monospace" font-size="15" font-weight="900" fill="#0b1744" letter-spacing="2">RETRO · 80s</text>
  <text x="36" y="369" font-family="Arial Black,Arial,sans-serif" font-size="48" font-weight="900" fill="#fff">BUBBLE BYTE</text><text x="36" y="420" font-family="Arial Black,Arial,sans-serif" font-size="48" font-weight="900" fill="#39d9ff">BRIGADE</text>
  <rect width="720" height="450" rx="28" fill="url(#scan)"/><rect x="8" y="8" width="704" height="434" rx="23" fill="none" stroke="#ff69b4" stroke-width="4"/>
</svg>
