<svg xmlns="http://www.w3.org/2000/svg" viewBox="0 0 720 450" role="img" aria-labelledby="title desc" shape-rendering="crispEdges">
  <title id="title">Byte Beetle Pipeworks key art</title><desc id="desc">An original pixel pipe puzzle carrying rainbow data dew with Bitzi Beetle.</desc>
  <defs><linearGradient id="bg" x2="1" y2="1"><stop stop-color="#07162f"/><stop offset="1" stop-color="#122f5a"/></linearGradient><pattern id="grid" width="38" height="38" patternUnits="userSpaceOnUse"><path d="M38 0H0v38" fill="none" stroke="#00e5ff" stroke-opacity=".08"/></pattern><pattern id="scan" width="4" height="4" patternUnits="userSpaceOnUse"><path d="M0 3.5h4" stroke="#fff" stroke-opacity=".055"/></pattern><filter id="g"><feGaussianBlur stdDeviation="4" result="b"/><feMerge><feMergeNode in="b"/><feMergeNode in="SourceGraphic"/></feMerge></filter></defs>
  <rect width="720" height="450" rx="28" fill="url(#bg)"/><rect x="28" y="60" width="664" height="250" fill="url(#grid)"/>
  <g fill="none" stroke="#00e5ff" stroke-width="24" stroke-linecap="square" stroke-linejoin="round" filter="url(#g)"><path d="M82 123h116v58h94v-76h110v118h95v-61h134"/><path d="M198 181v79h-80"/><path d="M402 223v58h96"/></g>
  <g fill="#90ff4f"><circle cx="108" cy="123" r="9"/><circle cx="247" cy="181" r="9"/><circle cx="356" cy="105" r="9"/><circle cx="449" cy="223" r="9"/><circle cx="566" cy="162" r="9"/></g>
  <g transform="translate(625 119)"><rect x="-31" y="-25" width="62" height="50" rx="22" fill="#ff3cac" stroke="#ffe55c" stroke-width="6"/><rect x="-10" y="-34" width="20" height="68" fill="#07162f"/><circle cx="-18" cy="-4" r="5" fill="#fff"/><circle cx="18" cy="-4" r="5" fill="#fff"/><path d="M-24-22l-17-18M24-22l17-18" stroke="#ffe55c" stroke-width="6"/></g>
  <rect x="30" y="24" width="180" height="29" rx="4" fill="#90ff4f"/><text x="120" y="44" text-anchor="middle" font-family="monospace" font-size="15" font-weight="900" fill="#07162f" letter-spacing="2">RETRO · 80s</text>
  <text x="36" y="370" font-family="Arial Black,Arial,sans-serif" font-size="49" font-weight="900" fill="#ffe55c">BYTE BEETLE</text><text x="36" y="421" font-family="Arial Black,Arial,sans-serif" font-size="49" font-weight="900" fill="#00e5ff">PIPEWORKS</text>
  <rect width="720" height="450" rx="28" fill="url(#scan)"/><rect x="8" y="8" width="704" height="434" rx="23" fill="none" stroke="#ff3cac" stroke-width="4"/>
</svg>
