<svg xmlns="http://www.w3.org/2000/svg" viewBox="0 0 720 450" role="img" aria-labelledby="title desc" shape-rendering="crispEdges">
  <title id="title">Cassette Castle Climb key art</title><desc id="desc">An original pixel rabbit climbing a tower made of colorful tape decks.</desc>
  <defs><linearGradient id="bg" x2="0" y2="1"><stop stop-color="#190d35"/><stop offset="1" stop-color="#52215f"/></linearGradient><pattern id="scan" width="4" height="4" patternUnits="userSpaceOnUse"><path d="M0 3.5h4" stroke="#fff" stroke-opacity=".06"/></pattern><filter id="g"><feGaussianBlur stdDeviation="4" result="b"/><feMerge><feMergeNode in="b"/><feMergeNode in="SourceGraphic"/></feMerge></filter></defs>
  <rect width="720" height="450" rx="28" fill="url(#bg)"/><path d="M174 296V103h54V69h58v34h50V69h58v34h52V69h58v34h54v193z" fill="#c66bff" stroke="#50e3c2" stroke-width="7"/>
  <g fill="#2a1743" stroke="#ffd166" stroke-width="5"><rect x="205" y="126" width="120" height="58"/><rect x="395" y="126" width="120" height="58"/><rect x="300" y="207" width="120" height="58"/></g><g fill="none" stroke="#ff4f9a" stroke-width="8"><circle cx="238" cy="155" r="15"/><circle cx="292" cy="155" r="15"/><circle cx="428" cy="155" r="15"/><circle cx="482" cy="155" r="15"/><circle cx="333" cy="236" r="15"/><circle cx="387" cy="236" r="15"/></g>
  <g transform="translate(561 223)"><rect x="-31" y="-36" width="62" height="72" fill="#f7fbff" stroke="#190d35" stroke-width="7"/><rect x="-24" y="-85" width="17" height="54" fill="#f7fbff" stroke="#190d35" stroke-width="7"/><rect x="7" y="-85" width="17" height="54" fill="#f7fbff" stroke="#190d35" stroke-width="7"/><rect x="-15" y="-19" width="9" height="9" fill="#190d35"/><rect x="6" y="-19" width="9" height="9" fill="#190d35"/><path d="M-16 4h32" stroke="#ff4f9a" stroke-width="6"/><path d="M-31 36l-20 30M31 36l20 30" stroke="#ffd166" stroke-width="12"/></g>
  <path d="M519 260q44-71 42-111" fill="none" stroke="#50e3c2" stroke-width="5" stroke-dasharray="8 10" filter="url(#g)"/>
  <rect x="30" y="24" width="180" height="29" rx="4" fill="#50e3c2"/><text x="120" y="44" text-anchor="middle" font-family="monospace" font-size="15" font-weight="900" fill="#190d35" letter-spacing="2">RETRO · 80s</text>
  <text x="36" y="369" font-family="Arial Black,Arial,sans-serif" font-size="45" font-weight="900" fill="#ffd166">CASSETTE CASTLE</text><text x="36" y="419" font-family="Arial Black,Arial,sans-serif" font-size="50" font-weight="900" fill="#f7fbff">CLIMB</text>
  <rect width="720" height="450" rx="28" fill="url(#scan)"/><rect x="8" y="8" width="704" height="434" rx="23" fill="none" stroke="#ff4f9a" stroke-width="4"/>
</svg>
