<svg xmlns="http://www.w3.org/2000/svg" viewBox="0 0 720 450" role="img" aria-labelledby="title desc" shape-rendering="crispEdges">
  <title id="title">Circuit Courier Rush key art</title><desc id="desc">An original pixel dingo sprinting through a neon motherboard city with a message chip.</desc>
  <defs><linearGradient id="bg" x2="0" y2="1"><stop stop-color="#101142"/><stop offset=".55" stop-color="#612264"/><stop offset="1" stop-color="#111b3b"/></linearGradient><pattern id="scan" width="4" height="4" patternUnits="userSpaceOnUse"><path d="M0 3.5h4" stroke="#fff" stroke-opacity=".06"/></pattern><filter id="g"><feGaussianBlur stdDeviation="4" result="b"/><feMerge><feMergeNode in="b"/><feMergeNode in="SourceGraphic"/></feMerge></filter></defs>
  <rect width="720" height="450" rx="28" fill="url(#bg)"/><circle cx="580" cy="110" r="70" fill="#ffb52e"/><path d="M0 250h720v63H0z" fill="#172a4c"/><path d="M0 268h720M55 250v63M120 250v63M185 250v63M250 250v63M315 250v63M380 250v63M445 250v63M510 250v63M575 250v63M640 250v63" stroke="#44e8ff" stroke-opacity=".4" stroke-width="4"/>
  <g fill="#20285b"><rect x="20" y="150" width="70" height="100"/><rect x="100" y="118" width="88" height="132"/><rect x="200" y="175" width="58" height="75"/><rect x="492" y="158" width="90" height="92"/><rect x="592" y="129" width="105" height="121"/></g><g fill="#ff4fa3"><rect x="116" y="137" width="12" height="16"/><rect x="145" y="137" width="12" height="16"/><rect x="610" y="150" width="13" height="16"/><rect x="650" y="150" width="13" height="16"/></g>
  <g transform="translate(353 205)"><rect x="-25" y="-54" width="50" height="50" fill="#ffb52e" stroke="#101142" stroke-width="7"/><path d="M-23-49l-25-24 39 8M23-49l25-24-39 8" fill="#ffb52e" stroke="#101142" stroke-width="7"/><rect x="-16" y="-41" width="10" height="10" fill="#101142"/><rect x="6" y="-41" width="10" height="10" fill="#101142"/><rect x="-18" y="-4" width="36" height="62" fill="#44e8ff" stroke="#101142" stroke-width="7"/><path d="M-17 57l-32 29M17 57l38 18M-18 12l-47 19M18 12l44-23" stroke="#ffb52e" stroke-width="15"/><rect x="48" y="-24" width="46" height="38" fill="#9cff57" stroke="#101142" stroke-width="6"/></g>
  <rect x="30" y="24" width="180" height="29" rx="4" fill="#44e8ff"/><text x="120" y="44" text-anchor="middle" font-family="monospace" font-size="15" font-weight="900" fill="#101142" letter-spacing="2">RETRO · 80s</text>
  <text x="36" y="370" font-family="Arial Black,Arial,sans-serif" font-size="46" font-weight="900" fill="#fff">CIRCUIT COURIER</text><text x="36" y="420" font-family="Arial Black,Arial,sans-serif" font-size="50" font-weight="900" fill="#9cff57">RUSH</text>
  <rect width="720" height="450" rx="28" fill="url(#scan)"/><rect x="8" y="8" width="704" height="434" rx="23" fill="none" stroke="#ff4fa3" stroke-width="4"/>
</svg>
