<svg xmlns="http://www.w3.org/2000/svg" viewBox="0 0 720 450" role="img" aria-labelledby="title desc" shape-rendering="crispEdges">
  <title id="title">Coilberry Circuit key art</title><desc id="desc">An original pixel serpent winding through a glowing circuit garden toward electric berries.</desc>
  <defs><linearGradient id="bg" x2="0" y2="1"><stop stop-color="#06120d"/><stop offset="1" stop-color="#0c2a20"/></linearGradient><pattern id="grid" width="32" height="32" patternUnits="userSpaceOnUse"><path d="M32 0H0v32" fill="none" stroke="#6dff8b" stroke-opacity=".08"/></pattern><pattern id="scan" width="4" height="4" patternUnits="userSpaceOnUse"><path d="M0 3.5h4" stroke="#fff" stroke-opacity=".05"/></pattern><filter id="g"><feGaussianBlur stdDeviation="5" result="b"/><feMerge><feMergeNode in="b"/><feMergeNode in="SourceGraphic"/></feMerge></filter></defs>
  <rect width="720" height="450" rx="28" fill="url(#bg)"/><rect x="30" y="62" width="660" height="240" fill="url(#grid)"/>
  <path d="M122 244h80v-64h64v-64h96v64h64v64h96" fill="none" stroke="#6dff8b" stroke-width="28" stroke-linecap="square" stroke-linejoin="miter" filter="url(#g)"/>
  <g fill="#06120d"><rect x="194" y="172" width="16" height="16"/><rect x="258" y="108" width="16" height="16"/><rect x="418" y="236" width="16" height="16"/></g>
  <g transform="translate(522 244)"><rect x="-20" y="-20" width="40" height="40" fill="#ffd45c"/><rect x="-12" y="-7" width="7" height="7" fill="#06120d"/><rect x="5" y="-7" width="7" height="7" fill="#06120d"/><rect x="-5" y="8" width="10" height="6" fill="#ff4f6d"/></g>
  <g fill="#ff4f6d" stroke="#ffd45c" stroke-width="4" filter="url(#g)"><circle cx="590" cy="112" r="13"/><circle cx="626" cy="162" r="13"/><circle cx="560" cy="196" r="13"/></g><path d="M590 99l7-16M626 149l8-15M560 183l-7-16" stroke="#6dff8b" stroke-width="5"/>
  <rect x="30" y="24" width="180" height="29" rx="14" fill="#ffd45c"/><text x="120" y="44" text-anchor="middle" font-family="Arial,sans-serif" font-size="15" font-weight="900" fill="#06120d" letter-spacing="2">RETRO · 70s</text>
  <text x="36" y="367" font-family="Arial Black,Arial,sans-serif" font-size="52" font-weight="900" fill="#f7fbff">COILBERRY</text><text x="36" y="420" font-family="Arial Black,Arial,sans-serif" font-size="52" font-weight="900" fill="#6dff8b">CIRCUIT</text>
  <rect width="720" height="450" rx="28" fill="url(#scan)"/><rect x="8" y="8" width="704" height="434" rx="23" fill="none" stroke="#35b7ff" stroke-width="3"/>
</svg>
