<svg xmlns="http://www.w3.org/2000/svg" viewBox="0 0 720 450" role="img" aria-labelledby="title desc">
  <title id="title">Comet Quarry Crew key art</title><desc id="desc">An original vector salvage skiff dodging faceted crystal comets in deep space.</desc>
  <defs><radialGradient id="bg"><stop stop-color="#10243d"/><stop offset="1" stop-color="#030712"/></radialGradient><pattern id="scan" width="4" height="4" patternUnits="userSpaceOnUse"><path d="M0 3.5h4" stroke="#fff" stroke-opacity=".05"/></pattern><filter id="g"><feGaussianBlur stdDeviation="3" result="b"/><feMerge><feMergeNode in="b"/><feMergeNode in="SourceGraphic"/></feMerge></filter></defs>
  <rect width="720" height="450" rx="28" fill="url(#bg)"/>
  <g fill="none" stroke="#7df9ff" stroke-width="4" filter="url(#g)"><path d="M84 115l45-27 46 17 13 43-37 40-54-8-30-35zM512 70l52-17 35 34-10 51-51 13-41-35zM525 215l34-22 41 15 8 39-30 31-45-8-22-29z"/><path d="M300 144l55 35-47 18-36 61-15-78-39-27z"/></g>
  <g stroke="#b6ff5c" stroke-width="4" fill="none"><path d="M279 167l28 26M239 161l28 20M320 185l54 42"/><circle cx="382" cy="232" r="10"/></g>
  <g transform="translate(398 169)"><circle r="38" fill="#ffb14a"/><path d="M-30-5h60v28q-30 18-60 0z" fill="#7df9ff"/><circle cx="-14" cy="5" r="6" fill="#030712"/><circle cx="14" cy="5" r="6" fill="#030712"/><path d="M-27-25l-15-22 30 10M27-25l15-22-30 10" fill="#ffb14a"/></g>
  <g fill="#f5f5ff"><circle cx="62" cy="57" r="2"/><circle cx="260" cy="82" r="3"/><circle cx="440" cy="65" r="2"/><circle cx="650" cy="189" r="3"/><circle cx="464" cy="269" r="2"/></g>
  <rect x="30" y="24" width="180" height="29" rx="14" fill="#b6ff5c"/><text x="120" y="44" text-anchor="middle" font-family="Arial,sans-serif" font-size="15" font-weight="900" fill="#030712" letter-spacing="2">RETRO · 70s</text>
  <text x="36" y="371" font-family="Arial Black,Arial,sans-serif" font-size="49" font-weight="900" fill="#f5f5ff">COMET QUARRY</text><text x="36" y="420" font-family="Arial Black,Arial,sans-serif" font-size="49" font-weight="900" fill="#7df9ff">CREW</text>
  <rect width="720" height="450" rx="28" fill="url(#scan)"/><rect x="8" y="8" width="704" height="434" rx="23" fill="none" stroke="#ffb14a" stroke-width="3"/>
</svg>
