<svg xmlns="http://www.w3.org/2000/svg" viewBox="0 0 720 450" role="img" aria-labelledby="title desc">
  <title id="title">Crystal Critter Cascade key art</title><desc id="desc">An original glossy jewel-grid puzzle with Gemma Gerbil and sparkling critter gems.</desc>
  <defs><radialGradient id="bg"><stop stop-color="#542278"/><stop offset="1" stop-color="#251052"/></radialGradient><linearGradient id="gem1" x2="0" y2="1"><stop stop-color="#fff"/><stop offset=".25" stop-color="#ff4fa3"/><stop offset="1" stop-color="#a51a68"/></linearGradient><linearGradient id="gem2" x2="0" y2="1"><stop stop-color="#fff"/><stop offset=".25" stop-color="#35e0d0"/><stop offset="1" stop-color="#087d8e"/></linearGradient><linearGradient id="gem3" x2="0" y2="1"><stop stop-color="#fff"/><stop offset=".25" stop-color="#ffd84a"/><stop offset="1" stop-color="#c66a1d"/></linearGradient><pattern id="scan" width="4" height="4" patternUnits="userSpaceOnUse"><path d="M0 3.5h4" stroke="#fff" stroke-opacity=".045"/></pattern></defs>
  <rect width="720" height="450" rx="28" fill="url(#bg)"/><g stroke="#fff" stroke-opacity=".5" stroke-width="4"><path d="M345 65l31 19 0 38-31 19-31-19V84z" fill="url(#gem1)"/><path d="M417 65l31 19v38l-31 19-31-19V84z" fill="url(#gem2)"/><path d="M489 65l31 19v38l-31 19-31-19V84z" fill="url(#gem3)"/><path d="M381 136l31 19v38l-31 19-31-19v-38z" fill="url(#gem3)"/><path d="M453 136l31 19v38l-31 19-31-19v-38z" fill="url(#gem1)"/><path d="M525 136l31 19v38l-31 19-31-19v-38z" fill="url(#gem2)"/><path d="M345 207l31 19v38l-31 19-31-19v-38z" fill="url(#gem2)"/><path d="M417 207l31 19v38l-31 19-31-19v-38z" fill="url(#gem3)"/><path d="M489 207l31 19v38l-31 19-31-19v-38z" fill="url(#gem1)"/></g>
  <g transform="translate(178 187)"><circle r="65" fill="#c89172" stroke="#ffd84a" stroke-width="7"/><circle cx="-23" cy="-13" r="10" fill="#251052"/><circle cx="23" cy="-13" r="10" fill="#251052"/><circle cy="8" r="9" fill="#ff4fa3"/><path d="M-26 25q26 20 52 0" fill="none" stroke="#251052" stroke-width="7"/><circle cx="-54" cy="-50" r="23" fill="#c89172"/><circle cx="54" cy="-50" r="23" fill="#c89172"/></g><g stroke="#fff" stroke-width="4"><path d="M253 85l8 20 21 1-16 14 5 21-18-11-18 11 5-21-16-14 21-1z" fill="#7c6cff"/></g>
  <rect x="30" y="24" width="180" height="29" rx="14" fill="#35e0d0"/><text x="120" y="44" text-anchor="middle" font-family="Arial,sans-serif" font-size="15" font-weight="900" fill="#251052" letter-spacing="2">RETRO · 90s</text>
  <text x="36" y="369" font-family="Arial Black,Arial,sans-serif" font-size="43" font-weight="900" fill="#fff">CRYSTAL CRITTER</text><text x="36" y="419" font-family="Arial Black,Arial,sans-serif" font-size="47" font-weight="900" fill="#ffd84a">CASCADE</text>
  <rect width="720" height="450" rx="28" fill="url(#scan)"/><rect x="8" y="8" width="704" height="434" rx="23" fill="none" stroke="#ff4fa3" stroke-width="4"/>
</svg>
