<svg xmlns="http://www.w3.org/2000/svg" viewBox="0 0 720 450" role="img" aria-labelledby="title desc" shape-rendering="crispEdges">
  <title id="title">8-Bit Bakery key art</title><desc id="desc">Chip the Baker runs a pixel-perfect bakery serving hungry patrons in this retro time-management game.</desc>
  <defs><linearGradient id="bg" x2="0" y2="1"><stop stop-color="#120a14"/><stop offset="1" stop-color="#201028"/></linearGradient><pattern id="scan" width="4" height="4" patternUnits="userSpaceOnUse"><path d="M0 3.5h4" stroke="#fff" stroke-opacity=".04"/></pattern><filter id="glow"><feGaussianBlur stdDeviation="3" result="b"/><feMerge><feMergeNode in="b"/><feMergeNode in="SourceGraphic"/></feMerge></filter><filter id="warmGlow"><feGaussianBlur stdDeviation="8" result="b"/><feMerge><feMergeNode in="b"/><feMergeNode in="SourceGraphic"/></feMerge></filter></defs>
  <rect width="720" height="450" fill="url(#bg)"/>
  <rect x="0" y="280" width="720" height="170" fill="#1a1022"/>
  <line x1="0" y1="280" x2="720" y2="280" stroke="#ffcf40" stroke-width="2" opacity=".3"/>
  <rect x="60" y="240" width="600" height="40" rx="4" fill="#2a1830" stroke="#ffcf40" stroke-width="1.5"/>
  <rect x="80" y="248" width="80" height="24" rx="3" fill="#3a2040"/>
  <rect x="300" y="248" width="100" height="24" rx="3" fill="#3a2040"/>
  <rect x="540" y="248" width="80" height="24" rx="3" fill="#3a2040"/>
  <g filter="url(#warmGlow)">
    <rect x="100" y="290" width="40" height="40" rx="4" fill="#ffcf40" opacity=".3"/>
    <rect x="320" y="295" width="50" height="35" rx="4" fill="#ffcf40" opacity=".25"/>
    <rect x="530" y="288" width="45" height="42" rx="4" fill="#ffcf40" opacity=".3"/>
  </g>
  <g filter="url(#glow)">
    <rect x="105" y="295" width="30" height="20" rx="3" fill="#ffcf40"/>
    <rect x="330" y="300" width="30" height="15" rx="3" fill="#ffcf40"/>
    <rect x="540" y="295" width="25" height="18" rx="3" fill="#ffcf40"/>
    <circle cx="120" cy="305" r="4" fill="#ff4f9a"/>
    <circle cx="345" cy="308" r="3" fill="#ff4f9a"/>
    <circle cx="552" cy="304" r="3" fill="#ff4f9a"/>
  </g>
  <g font-family="monospace" font-size="10" fill="#ffcf40" opacity=".6">
    <text x="120" y="274">PASTRY</text>
    <text x="350" y="274">BREAD</text>
    <text x="580" y="274">CAKE</text>
  </g>
  <g transform="translate(360 150)" filter="url(#glow)">
    <rect x="-22" y="-20" width="44" height="40" rx="6" fill="#1a0a20" stroke="#ffcf40" stroke-width="2"/>
    <circle cx="0" cy="-4" r="8" fill="#ffcf40"/>
    <circle cx="0" cy="-4" r="4" fill="#f7fbff"/>
    <path d="M-8 10l16 0" stroke="#ffcf40" stroke-width="2"/>
    <rect x="-14" y="-18" width="28" height="5" rx="2" fill="#f7fbff"/>
    <rect x="-12" y="14" width="10" height="6" rx="2" fill="#ffcf40"/>
    <rect x="2" y="14" width="10" height="6" rx="2" fill="#ffcf40"/>
  </g>
  <g opacity=".5">
    <rect x="100" y="340" width="18" height="30" rx="2" fill="#2a1830" stroke="#ffcf40" stroke-width="1"/>
    <rect x="340" y="342" width="15" height="28" rx="2" fill="#2a1830" stroke="#ffcf40" stroke-width="1"/>
    <rect x="560" y="338" width="20" height="32" rx="2" fill="#2a1830" stroke="#ffcf40" stroke-width="1"/>
  </g>
  <rect x="30" y="24" width="160" height="28" rx="14" fill="#ffcf40"/><text x="110" y="44" text-anchor="middle" font-family="Arial,sans-serif" font-size="14" font-weight="900" fill="#120a14" letter-spacing="2">RETRO · 90s</text>
  <text x="36" y="408" font-family="Arial Black,Arial,sans-serif" font-size="34" font-weight="900" fill="#f7fbff" letter-spacing="1">8-BIT</text><text x="36" y="444" font-family="Arial Black,Arial,sans-serif" font-size="34" font-weight="900" fill="#ffcf40" letter-spacing="1">BAKERY</text>
  <rect width="720" height="450" rx="28" fill="url(#scan)"/><rect x="8" y="8" width="704" height="434" rx="23" fill="none" stroke="#ff4f9a" stroke-width="3"/>
</svg>
