<svg xmlns="http://www.w3.org/2000/svg" viewBox="0 0 720 450" role="img" aria-labelledby="title desc" shape-rendering="crispEdges">
  <title id="title">Glitch Guardian key art</title><desc id="desc">Debug Duck patrols a glitched CRT monitor with pixel-perfect aim in this retro light-gun gallery.</desc>
  <defs><linearGradient id="bg" x2="0" y2="1"><stop stop-color="#0a0a14"/><stop offset="1" stop-color="#1a0a2e"/></linearGradient><pattern id="scan" width="4" height="4" patternUnits="userSpaceOnUse"><path d="M0 3.5h4" stroke="#fff" stroke-opacity=".05"/></pattern><filter id="glow"><feGaussianBlur stdDeviation="3" result="b"/><feMerge><feMergeNode in="b"/><feMergeNode in="SourceGraphic"/></feMerge></filter><filter id="heavyGlow"><feGaussianBlur stdDeviation="6" result="b"/><feMerge><feMergeNode in="b"/><feMergeNode in="SourceGraphic"/></feMerge></filter></defs>
  <rect width="720" height="450" fill="url(#bg)"/>
  <rect x="80" y="40" width="560" height="340" rx="18" fill="#0d0d1a" stroke="#39ffde" stroke-width="3"/>
  <rect x="95" y="55" width="530" height="310" rx="4" fill="#111128"/>
  <line x1="95" y1="55" x2="625" y2="55" stroke="#39ffde" stroke-opacity=".3" stroke-width="1"/>
  <line x1="95" y1="365" x2="625" y2="365" stroke="#39ffde" stroke-opacity=".3" stroke-width="1"/>
  <line x1="95" y1="55" x2="95" y2="365" stroke="#39ffde" stroke-opacity=".3" stroke-width="1"/>
  <line x1="625" y1="55" x2="625" y2="365" stroke="#39ffde" stroke-opacity=".3" stroke-width="1"/>
  <g filter="url(#heavyGlow)">
    <rect x="120" y="120" width="60" height="40" fill="#ff4f9a" opacity=".7"/>
    <rect x="180" y="160" width="40" height="80" fill="#ff4f9a" opacity=".5"/>
    <rect x="350" y="100" width="50" height="30" fill="#ffcf40" opacity=".6"/>
    <rect x="420" y="200" width="70" height="50" fill="#ff4f9a" opacity=".4"/>
    <rect x="280" y="250" width="30" height="60" fill="#39ffde" opacity=".5"/>
  </g>
  <g filter="url(#glow)">
    <circle cx="200" cy="180" r="12" fill="none" stroke="#ffcf40" stroke-width="3"/>
    <circle cx="450" cy="130" r="8" fill="none" stroke="#ffcf40" stroke-width="2"/>
    <path d="M100 300l15-10 15 10-15 30z" fill="#ff4f9a" stroke="#fff" stroke-width="2"/>
    <path d="M500 80l10-6 10 6-10 20z" fill="#ff4f9a" stroke="#fff" stroke-width="2"/>
    <path d="M300 310l-8-5-8 5 8-18 8 18z" fill="#ffcf40" stroke="#fff" stroke-width="1.5"/>
    <path d="M550 280l12-8 12 8-12 24z" fill="#ff4f9a" stroke="#fff" stroke-width="2"/>
  </g>
  <g transform="translate(360 210)" filter="url(#heavyGlow)">
    <rect x="-24" y="-20" width="48" height="40" rx="6" fill="#191034" stroke="#39ffde" stroke-width="3"/>
    <circle cx="0" cy="0" r="8" fill="#39ffde"/>
    <circle cx="0" cy="0" r="4" fill="#fff"/>
    <line x1="-16" y1="-14" x2="-8" y2="-6" stroke="#39ffde" stroke-width="2"/>
    <line x1="16" y1="-14" x2="8" y2="-6" stroke="#39ffde" stroke-width="2"/>
  </g>
  <rect x="95" y="55" width="530" height="310" rx="4" fill="url(#scan)" opacity=".4"/>
  <g filter="url(#glow)">
    <rect x="140" y="240" width="20" height="4" fill="#ff4f9a" opacity=".8"/>
    <rect x="145" y="248" width="10" height="4" fill="#ff4f9a" opacity=".8"/>
    <rect x="480" y="300" width="30" height="4" fill="#ffcf40" opacity=".8"/>
    <rect x="485" y="308" width="20" height="4" fill="#ffcf40" opacity=".8"/>
  </g>
  <text x="360" y="56" text-anchor="middle" font-family="monospace" font-size="10" fill="#39ffde" opacity=".6">CRT-MONITOR v2.1 — DEBUG MODE</text>
  <rect x="30" y="24" width="160" height="28" rx="14" fill="#ff4f9a"/><text x="110" y="44" text-anchor="middle" font-family="Arial,sans-serif" font-size="14" font-weight="900" fill="#fff" letter-spacing="2">RETRO · 90s</text>
  <text x="36" y="408" font-family="Arial Black,Arial,sans-serif" font-size="36" font-weight="900" fill="#f7fbff" letter-spacing="1">GLITCH</text><text x="36" y="444" font-family="Arial Black,Arial,sans-serif" font-size="36" font-weight="900" fill="#ff4f9a" letter-spacing="1">GUARDIAN</text>
  <rect width="720" height="450" rx="28" fill="url(#scan)"/><rect x="8" y="8" width="704" height="434" rx="23" fill="none" stroke="#39ffde" stroke-width="3"/>
</svg>
