<svg xmlns="http://www.w3.org/2000/svg" viewBox="0 0 720 450" role="img" aria-labelledby="title desc">
  <title id="title">Mecha Mochi Arena key art</title><desc id="desc">An original round mochi rescue mech battling training drones in a hologram arena.</desc>
  <defs><radialGradient id="bg"><stop stop-color="#263273"/><stop offset="1" stop-color="#080f29"/></radialGradient><radialGradient id="floor" cy="0"><stop stop-color="#35e7ff" stop-opacity=".35"/><stop offset="1" stop-color="#35e7ff" stop-opacity="0"/></radialGradient><pattern id="scan" width="4" height="4" patternUnits="userSpaceOnUse"><path d="M0 3.5h4" stroke="#fff" stroke-opacity=".05"/></pattern><filter id="g"><feGaussianBlur stdDeviation="5" result="b"/><feMerge><feMergeNode in="b"/><feMergeNode in="SourceGraphic"/></feMerge></filter></defs>
  <rect width="720" height="450" rx="28" fill="url(#bg)"/><ellipse cx="360" cy="264" rx="302" ry="100" fill="url(#floor)" stroke="#35e7ff" stroke-width="5"/><ellipse cx="360" cy="264" rx="220" ry="66" fill="none" stroke="#8c6cff" stroke-width="4"/><path d="M360 166v196M85 264h550M161 202l398 124M559 202L161 326" stroke="#35e7ff" stroke-opacity=".2" stroke-width="3"/>
  <g transform="translate(360 205)" filter="url(#g)"><path d="M-87 56l20-115 67-39 67 39 20 115-43 54h-88z" fill="#f5f1ff" stroke="#35e7ff" stroke-width="8"/><circle cy="-37" r="48" fill="#ff4f9a" stroke="#ffe04a" stroke-width="7"/><circle cx="-17" cy="-42" r="8" fill="#080f29"/><circle cx="17" cy="-42" r="8" fill="#080f29"/><path d="M-16-16q16 13 32 0" fill="none" stroke="#080f29" stroke-width="7"/><path d="M-87-2l-70 37 49 28M87-2l70 37-49 28" fill="#8c6cff" stroke="#35e7ff" stroke-width="8"/><path d="M-44 106l-35 44M44 106l35 44" stroke="#ffe04a" stroke-width="17"/></g>
  <g fill="#8c6cff" stroke="#ff4f9a" stroke-width="6"><path d="M112 123l27-20 31 12 5 32-26 21-32-10z"/><path d="M552 108l27-20 31 12 5 32-26 21-32-10z"/><path d="M581 221l23-17 27 10 4 28-22 18-28-9z"/></g>
  <rect x="30" y="24" width="180" height="29" rx="14" fill="#ffe04a"/><text x="120" y="44" text-anchor="middle" font-family="Arial,sans-serif" font-size="15" font-weight="900" fill="#080f29" letter-spacing="2">RETRO · 90s</text>
  <text x="36" y="371" font-family="Arial Black,Arial,sans-serif" font-size="51" font-weight="900" fill="#fff">MECHA MOCHI</text><text x="36" y="421" font-family="Arial Black,Arial,sans-serif" font-size="51" font-weight="900" fill="#35e7ff">ARENA</text>
  <rect width="720" height="450" rx="28" fill="url(#scan)"/><rect x="8" y="8" width="704" height="434" rx="23" fill="none" stroke="#ff4f9a" stroke-width="4"/>
</svg>
