<svg xmlns="http://www.w3.org/2000/svg" viewBox="0 0 720 450" role="img" aria-labelledby="title desc">
  <title id="title">Moonbell Pin Parade key art</title><desc id="desc">An original illustrated moon pinball table with bell bumpers and Bim Bellbird.</desc>
  <defs><linearGradient id="bg" x2="0" y2="1"><stop stop-color="#14072b"/><stop offset="1" stop-color="#3b1557"/></linearGradient><radialGradient id="ball"><stop stop-color="#fff"/><stop offset=".35" stop-color="#66e3ff"/><stop offset="1" stop-color="#8a5cff"/></radialGradient><pattern id="scan" width="4" height="4" patternUnits="userSpaceOnUse"><path d="M0 3.5h4" stroke="#fff" stroke-opacity=".05"/></pattern><filter id="g"><feGaussianBlur stdDeviation="4" result="b"/><feMerge><feMergeNode in="b"/><feMergeNode in="SourceGraphic"/></feMerge></filter></defs>
  <rect width="720" height="450" rx="28" fill="url(#bg)"/><path d="M168 64h384l70 250H98z" fill="#241044" stroke="#ffe66d" stroke-width="6"/>
  <g fill="#ff6aa9" stroke="#f8f1ff" stroke-width="5" filter="url(#g)"><circle cx="270" cy="145" r="34"/><circle cx="450" cy="145" r="34"/><circle cx="360" cy="218" r="38"/></g><g fill="#ffe66d"><path d="M264 145l6-15 6 15-6 15zM444 145l6-15 6 15-6 15z"/><path d="M340 217a28 28 0 1 0 40-25 24 24 0 1 1-40 25z"/></g>
  <path d="M205 277l105 31M515 277l-105 31" stroke="#66e3ff" stroke-width="14" stroke-linecap="round"/><circle cx="512" cy="217" r="14" fill="url(#ball)" filter="url(#g)"/><path d="M512 217Q600 180 565 96" fill="none" stroke="#f8f1ff" stroke-opacity=".5" stroke-width="4" stroke-dasharray="7 9"/>
  <g transform="translate(112 130)"><circle r="39" fill="#ffe66d"/><path d="M-35-22l-17-28 31 15M35-22l17-28-31 15" fill="#ff6aa9"/><circle cx="-13" cy="-4" r="6" fill="#14072b"/><circle cx="13" cy="-4" r="6" fill="#14072b"/><path d="M0 5l10 9-10 8-10-8z" fill="#ff6aa9"/></g>
  <rect x="30" y="24" width="180" height="29" rx="14" fill="#66e3ff"/><text x="120" y="44" text-anchor="middle" font-family="Arial,sans-serif" font-size="15" font-weight="900" fill="#14072b" letter-spacing="2">RETRO · 70s</text>
  <text x="36" y="372" font-family="Arial Black,Arial,sans-serif" font-size="47" font-weight="900" fill="#ffe66d">MOONBELL PIN</text><text x="36" y="420" font-family="Arial Black,Arial,sans-serif" font-size="47" font-weight="900" fill="#f8f1ff">PARADE</text>
  <rect width="720" height="450" rx="28" fill="url(#scan)"/><rect x="8" y="8" width="704" height="434" rx="23" fill="none" stroke="#66e3ff" stroke-width="3"/>
</svg>
