<svg xmlns="http://www.w3.org/2000/svg" viewBox="0 0 720 450" role="img" aria-labelledby="title desc" shape-rendering="crispEdges">
  <title id="title">Neon Brickworks key art</title><desc id="desc">An original neon brick wall, spark ball, paddle, and cheerful builder beaver.</desc>
  <defs><linearGradient id="bg" x2="1" y2="1"><stop stop-color="#12061f"/><stop offset="1" stop-color="#32104b"/></linearGradient><linearGradient id="br" x2="1"><stop stop-color="#ff3cac"/><stop offset=".5" stop-color="#ff9f1c"/><stop offset="1" stop-color="#39ffde"/></linearGradient><pattern id="scan" width="4" height="4" patternUnits="userSpaceOnUse"><path d="M0 3.5h4" stroke="#fff" stroke-opacity=".055"/></pattern><filter id="g"><feGaussianBlur stdDeviation="5" result="b"/><feMerge><feMergeNode in="b"/><feMergeNode in="SourceGraphic"/></feMerge></filter></defs>
  <rect width="720" height="450" rx="28" fill="url(#bg)"/>
  <g fill="url(#br)" stroke="#12061f" stroke-width="5"><rect x="72" y="72" width="92" height="34"/><rect x="169" y="72" width="92" height="34"/><rect x="266" y="72" width="92" height="34"/><rect x="363" y="72" width="92" height="34"/><rect x="460" y="72" width="92" height="34"/><rect x="120" y="111" width="92" height="34"/><rect x="217" y="111" width="92" height="34"/><rect x="314" y="111" width="92" height="34"/><rect x="411" y="111" width="92" height="34"/><rect x="508" y="111" width="92" height="34"/><rect x="72" y="150" width="92" height="34"/><rect x="169" y="150" width="92" height="34"/><rect x="363" y="150" width="92" height="34"/><rect x="460" y="150" width="92" height="34"/></g>
  <path d="M326 172L248 270" stroke="#fff07a" stroke-width="6" stroke-dasharray="8 11" filter="url(#g)"/><circle cx="326" cy="172" r="15" fill="#fff07a" filter="url(#g)"/><rect x="190" y="276" width="150" height="22" rx="11" fill="#39ffde" filter="url(#g)"/>
  <g transform="translate(577 229)"><circle r="52" fill="#a66c42" stroke="#fff07a" stroke-width="5"/><path d="M-47-25h94l-13-28h-68z" fill="#ff9f1c"/><rect x="-26" y="-55" width="52" height="13" fill="#fff07a"/><circle cx="-18" cy="-5" r="7"/><circle cx="18" cy="-5" r="7"/><path d="M-20 20q20 14 40 0" fill="none" stroke="#12061f" stroke-width="6"/></g>
  <rect x="30" y="24" width="180" height="29" rx="14" fill="#39ffde"/><text x="120" y="44" text-anchor="middle" font-family="Arial,sans-serif" font-size="15" font-weight="900" fill="#12061f" letter-spacing="2">RETRO · 70s</text>
  <text x="36" y="378" font-family="Arial Black,Arial,sans-serif" font-size="58" font-weight="900" fill="#fff">NEON</text><text x="230" y="378" font-family="Arial Black,Arial,sans-serif" font-size="58" font-weight="900" fill="#ff9f1c">BRICKWORKS</text>
  <rect width="720" height="450" rx="28" fill="url(#scan)"/><rect x="8" y="8" width="704" height="434" rx="23" fill="none" stroke="#ff3cac" stroke-width="3"/>
</svg>
