<svg xmlns="http://www.w3.org/2000/svg" viewBox="0 0 720 450" role="img" aria-labelledby="title desc" shape-rendering="crispEdges">
  <title id="title">Orbit Owl Starstorm key art</title><desc id="desc">An original wing-shaped scout ship flying through a bright pixel meteor storm.</desc>
  <defs><linearGradient id="bg" x2="0" y2="1"><stop stop-color="#050a26"/><stop offset="1" stop-color="#271358"/></linearGradient><pattern id="stars" width="63" height="47" patternUnits="userSpaceOnUse"><rect x="7" y="8" width="3" height="3" fill="#fff"/><rect x="41" y="28" width="2" height="2" fill="#55d6ff"/></pattern><pattern id="scan" width="4" height="4" patternUnits="userSpaceOnUse"><path d="M0 3.5h4" stroke="#fff" stroke-opacity=".055"/></pattern><filter id="g"><feGaussianBlur stdDeviation="5" result="b"/><feMerge><feMergeNode in="b"/><feMergeNode in="SourceGraphic"/></feMerge></filter></defs>
  <rect width="720" height="450" rx="28" fill="url(#bg)"/><rect width="720" height="315" fill="url(#stars)"/>
  <g fill="#a36bff" stroke="#55d6ff" stroke-width="5"><path d="M570 82l28 15 10 31-25 24-33-7-13-29zM489 162l22 12 8 25-20 19-26-6-10-23zM630 215l24 13 8 27-21 20-29-6-9-25z"/></g>
  <g transform="translate(304 187)" filter="url(#g)"><path d="M0-62L33-20 111 26 37 18 0 61-37 18-111 26-33-20z" fill="#55d6ff" stroke="#fff" stroke-width="6"/><circle cy="-5" r="30" fill="#ff557f"/><circle cx="-11" cy="-9" r="7" fill="#050a26"/><circle cx="11" cy="-9" r="7" fill="#050a26"/><path d="M0 0l12 9-12 10-12-10z" fill="#ffd166"/><path d="M-35 32l-21 48M35 32l21 48" stroke="#ffd166" stroke-width="8"/></g>
  <g fill="#ff557f"><rect x="401" y="106" width="9" height="30"/><rect x="430" y="87" width="9" height="30"/><rect x="459" y="115" width="9" height="30"/></g>
  <rect x="30" y="24" width="180" height="29" rx="4" fill="#ffd166"/><text x="120" y="44" text-anchor="middle" font-family="monospace" font-size="15" font-weight="900" fill="#050a26" letter-spacing="2">RETRO · 80s</text>
  <text x="36" y="370" font-family="Arial Black,Arial,sans-serif" font-size="50" font-weight="900" fill="#fff">ORBIT OWL</text><text x="36" y="420" font-family="Arial Black,Arial,sans-serif" font-size="50" font-weight="900" fill="#55d6ff">STARSTORM</text>
  <rect width="720" height="450" rx="28" fill="url(#scan)"/><rect x="8" y="8" width="704" height="434" rx="23" fill="none" stroke="#a36bff" stroke-width="4"/>
</svg>
