<svg xmlns="http://www.w3.org/2000/svg" viewBox="0 0 720 450" role="img" aria-labelledby="title desc" shape-rendering="crispEdges">
  <title id="title">Pixel Pogo Peak key art</title><desc id="desc">An original 16-color puffin bouncing between pixel platforms on a data mountain.</desc>
  <defs><linearGradient id="bg" x2="0" y2="1"><stop stop-color="#15103a"/><stop offset="1" stop-color="#5a257e"/></linearGradient><pattern id="dither" width="8" height="8" patternUnits="userSpaceOnUse"><rect width="4" height="4" fill="#fff" fill-opacity=".05"/><rect x="4" y="4" width="4" height="4" fill="#fff" fill-opacity=".05"/></pattern><pattern id="scan" width="4" height="4" patternUnits="userSpaceOnUse"><path d="M0 3.5h4" stroke="#fff" stroke-opacity=".06"/></pattern></defs>
  <rect width="720" height="450" rx="28" fill="url(#bg)"/><path d="M0 272L98 150l78 71 80-135 91 137 90-97 75 91 93-143 115 198z" fill="#5ad8ff" opacity=".22"/><rect width="720" height="320" fill="url(#dither)"/>
  <g fill="#7cff72" stroke="#15103a" stroke-width="6"><rect x="84" y="248" width="170" height="22"/><rect x="290" y="200" width="120" height="22"/><rect x="457" y="145" width="148" height="22"/><rect x="205" y="99" width="105" height="22"/></g>
  <g transform="translate(356 167)"><rect x="-28" y="-35" width="56" height="70" fill="#f7fbff" stroke="#15103a" stroke-width="7"/><rect x="-36" y="-18" width="18" height="36" fill="#15103a"/><rect x="18" y="-18" width="18" height="36" fill="#15103a"/><rect x="-18" y="-27" width="12" height="12" fill="#15103a"/><rect x="6" y="-27" width="12" height="12" fill="#15103a"/><rect x="-8" y="-7" width="24" height="13" fill="#ff5ab3"/><rect x="-22" y="35" width="16" height="14" fill="#ffd95a"/><rect x="7" y="35" width="16" height="14" fill="#ffd95a"/></g>
  <g fill="#ffd95a"><rect x="480" y="98" width="13" height="13"/><rect x="525" y="113" width="13" height="13"/><rect x="247" y="61" width="13" height="13"/></g>
  <rect x="30" y="24" width="180" height="29" rx="4" fill="#ff5ab3"/><text x="120" y="44" text-anchor="middle" font-family="monospace" font-size="15" font-weight="900" fill="#15103a" letter-spacing="2">RETRO · 80s</text>
  <text x="36" y="370" font-family="Arial Black,Arial,sans-serif" font-size="56" font-weight="900" fill="#f7fbff">PIXEL POGO</text><text x="36" y="422" font-family="Arial Black,Arial,sans-serif" font-size="56" font-weight="900" fill="#ffd95a">PEAK</text>
  <rect width="720" height="450" rx="28" fill="url(#scan)"/><rect x="8" y="8" width="704" height="434" rx="23" fill="none" stroke="#5ad8ff" stroke-width="4"/>
</svg>
