<svg xmlns="http://www.w3.org/2000/svg" viewBox="0 0 720 450" role="img" aria-labelledby="title desc" shape-rendering="crispEdges">
  <title id="title">Pixel Plumber key art</title><desc id="desc">Piper Penguin connects leaking pixel pipes as water rises in this retro pipe-dream puzzle.</desc>
  <defs><linearGradient id="bg" x2="0" y2="1"><stop stop-color="#0a0f1a"/><stop offset="1" stop-color="#0f1a2e"/></linearGradient><pattern id="scan" width="4" height="4" patternUnits="userSpaceOnUse"><path d="M0 3.5h4" stroke="#fff" stroke-opacity=".04"/></pattern><filter id="glow"><feGaussianBlur stdDeviation="3" result="b"/><feMerge><feMergeNode in="b"/><feMergeNode in="SourceGraphic"/></feMerge></filter><filter id="waterGlow"><feGaussianBlur stdDeviation="5" result="b"/><feMerge><feMergeNode in="b"/><feMergeNode in="SourceGraphic"/></feMerge></filter></defs>
  <rect width="720" height="450" fill="url(#bg)"/>
  <rect x="0" y="300" width="720" height="150" fill="#0a1525"/>
  <line x1="0" y1="300" x2="720" y2="300" stroke="#39ffde" stroke-width="1" opacity=".3"/>
  <g filter="url(#glow)">
    <rect x="120" y="80" width="30" height="30" rx="2" fill="none" stroke="#ff4f9a" stroke-width="3"/>
    <rect x="180" y="150" width="30" height="30" rx="2" fill="none" stroke="#ffcf40" stroke-width="3"/>
    <rect x="250" y="80" width="30" height="30" rx="2" fill="none" stroke="#39ffde" stroke-width="3"/>
    <rect x="350" y="180" width="30" height="30" rx="2" fill="none" stroke="#ff4f9a" stroke-width="3"/>
    <rect x="420" y="100" width="30" height="30" rx="2" fill="none" stroke="#ffcf40" stroke-width="3"/>
    <rect x="500" y="160" width="30" height="30" rx="2" fill="none" stroke="#39ffde" stroke-width="3"/>
    <rect x="550" y="80" width="30" height="30" rx="2" fill="none" stroke="#ff4f9a" stroke-width="3"/>
  </g>
  <g filter="url(#glow)">
    <line x1="135" y1="110" x2="135" y2="180" stroke="#39ffde" stroke-width="4"/>
    <line x1="135" y1="180" x2="195" y2="180" stroke="#39ffde" stroke-width="4"/>
    <line x1="195" y1="180" x2="195" y2="150" stroke="#39ffde" stroke-width="4"/>
    <line x1="265" y1="110" x2="265" y2="150" stroke="#ffcf40" stroke-width="4"/>
    <line x1="265" y1="150" x2="350" y2="150" stroke="#ffcf40" stroke-width="4"/>
    <line x1="350" y1="150" x2="350" y2="180" stroke="#ffcf40" stroke-width="4"/>
    <line x1="435" y1="130" x2="435" y2="160" stroke="#39ffde" stroke-width="4"/>
    <line x1="435" y1="160" x2="500" y2="160" stroke="#39ffde" stroke-width="4"/>
    <line x1="565" y1="110" x2="565" y2="160" stroke="#ff4f9a" stroke-width="4"/>
    <line x1="565" y1="160" x2="500" y2="160" stroke="#ff4f9a" stroke-width="4"/>
  </g>
  <g fill="#39ffde" filter="url(#waterGlow)" opacity=".7">
    <circle cx="135" cy="195" r="3"/>
    <circle cx="140" cy="205" r="2"/>
    <circle cx="130" cy="210" r="2"/>
    <circle cx="350" cy="195" r="3"/>
    <circle cx="355" cy="203" r="2"/>
    <circle cx="435" cy="175" r="3"/>
  </g>
  <g transform="translate(360 230)" filter="url(#glow)">
    <ellipse cx="0" cy="0" rx="22" ry="18" fill="#1a0a20" stroke="#ffcf40" stroke-width="2"/>
    <ellipse cx="0" cy="2" rx="14" ry="10" fill="#f7fbff" opacity=".9"/>
    <circle cx="-6" cy="-4" r="2" fill="#0a0f1a"/>
    <circle cx="6" cy="-4" r="2" fill="#0a0f1a"/>
    <path d="M-5 4 Q0 8 5 4" fill="none" stroke="#ffcf40" stroke-width="1.5"/>
    <rect x="-10" y="-18" width="20" height="4" rx="2" fill="#ffcf40"/>
  </g>
  <g fill="#ff4f9a" opacity=".8" filter="url(#glow)">
    <rect x="80" y="310" width="60" height="8" rx="2"/>
    <rect x="300" y="315" width="80" height="6" rx="2"/>
    <rect x="520" y="312" width="50" height="8" rx="2"/>
  </g>
  <rect x="30" y="24" width="160" height="28" rx="14" fill="#39ffde"/><text x="110" y="44" text-anchor="middle" font-family="Arial,sans-serif" font-size="14" font-weight="900" fill="#0a0f1a" letter-spacing="2">RETRO · 90s</text>
  <text x="36" y="408" font-family="Arial Black,Arial,sans-serif" font-size="36" font-weight="900" fill="#f7fbff" letter-spacing="1">PIXEL</text><text x="36" y="444" font-family="Arial Black,Arial,sans-serif" font-size="36" font-weight="900" fill="#39ffde" letter-spacing="1">PLUMBER</text>
  <rect width="720" height="450" rx="28" fill="url(#scan)"/><rect x="8" y="8" width="704" height="434" rx="23" fill="none" stroke="#ffcf40" stroke-width="3"/>
</svg>
