<svg xmlns="http://www.w3.org/2000/svg" viewBox="0 0 720 450" role="img" aria-labelledby="title desc">
  <title id="title">Pocket Planet Poppers key art</title><desc id="desc">An original sparkling pocket-space puzzle with toy planets, orbit trails, and Pippa Pika.</desc>
  <defs><radialGradient id="bg"><stop stop-color="#342063"/><stop offset="1" stop-color="#100a38"/></radialGradient><radialGradient id="p1" cx=".3" cy=".25"><stop stop-color="#fff"/><stop offset=".2" stop-color="#57d7ff"/><stop offset="1" stop-color="#3150be"/></radialGradient><radialGradient id="p2" cx=".3" cy=".25"><stop stop-color="#fff"/><stop offset=".2" stop-color="#ff72bc"/><stop offset="1" stop-color="#ad2b87"/></radialGradient><radialGradient id="p3" cx=".3" cy=".25"><stop stop-color="#fff"/><stop offset=".2" stop-color="#ffe66d"/><stop offset="1" stop-color="#d27624"/></radialGradient><pattern id="scan" width="4" height="4" patternUnits="userSpaceOnUse"><path d="M0 3.5h4" stroke="#fff" stroke-opacity=".045"/></pattern><filter id="g"><feGaussianBlur stdDeviation="4" result="b"/><feMerge><feMergeNode in="b"/><feMergeNode in="SourceGraphic"/></feMerge></filter></defs>
  <rect width="720" height="450" rx="28" fill="url(#bg)"/><g fill="#fff"><circle cx="67" cy="86" r="3"/><circle cx="286" cy="67" r="4"/><circle cx="649" cy="70" r="3"/><circle cx="615" cy="258" r="4"/></g>
  <g stroke="#fff" stroke-opacity=".5" stroke-width="4" filter="url(#g)"><circle cx="410" cy="95" r="39" fill="url(#p1)"/><circle cx="478" cy="98" r="39" fill="url(#p2)"/><circle cx="546" cy="95" r="39" fill="url(#p3)"/><circle cx="444" cy="161" r="39" fill="url(#p3)"/><circle cx="512" cy="164" r="39" fill="url(#p1)"/><circle cx="580" cy="161" r="39" fill="url(#p2)"/><circle cx="478" cy="227" r="39" fill="url(#p2)"/><circle cx="546" cy="230" r="39" fill="url(#p3)"/></g><path d="M371 95c18-24 62-24 79 0M505 164c18-24 62-24 79 0" fill="none" stroke="#72f0a8" stroke-width="6"/>
  <g transform="translate(171 180)"><circle r="61" fill="#d5a46f" stroke="#72f0a8" stroke-width="7"/><path d="M-53-28l-35-38 52 13M53-28l35-38-52 13" fill="#d5a46f" stroke="#72f0a8" stroke-width="7"/><circle cx="-20" cy="-10" r="8"/><circle cx="20" cy="-10" r="8"/><path d="M-20 19q20 17 40 0" fill="none" stroke="#100a38" stroke-width="7"/><path d="M-44 50h88v65h-88z" fill="#ff72bc"/><circle cy="78" r="21" fill="url(#p1)"/></g>
  <rect x="30" y="24" width="180" height="29" rx="14" fill="#72f0a8"/><text x="120" y="44" text-anchor="middle" font-family="Arial,sans-serif" font-size="15" font-weight="900" fill="#100a38" letter-spacing="2">RETRO · 90s</text>
  <text x="36" y="369" font-family="Arial Black,Arial,sans-serif" font-size="43" font-weight="900" fill="#fff">POCKET PLANET</text><text x="36" y="419" font-family="Arial Black,Arial,sans-serif" font-size="50" font-weight="900" fill="#ffe66d">POPPERS</text>
  <rect width="720" height="450" rx="28" fill="url(#scan)"/><rect x="8" y="8" width="704" height="434" rx="23" fill="none" stroke="#57d7ff" stroke-width="4"/>
</svg>
