<svg xmlns="http://www.w3.org/2000/svg" viewBox="0 0 720 450" role="img" aria-labelledby="title desc">
  <title id="title">Polygon Penguin Grand Prix key art</title><desc id="desc">An original low-poly penguin kart racing through a faceted prism glacier.</desc>
  <defs><linearGradient id="sky" x2="0" y2="1"><stop stop-color="#11265c"/><stop offset="1" stop-color="#9b7bff"/></linearGradient><linearGradient id="road" x2="0" y2="1"><stop stop-color="#3c4b7d"/><stop offset="1" stop-color="#151a3c"/></linearGradient><pattern id="scan" width="4" height="4" patternUnits="userSpaceOnUse"><path d="M0 3.5h4" stroke="#fff" stroke-opacity=".05"/></pattern></defs>
  <rect width="720" height="450" rx="28" fill="url(#sky)"/><g stroke="#5ce1ff" stroke-width="3"><path d="M0 232L86 116l70 116z" fill="#5ce1ff"/><path d="M86 116l24 116H0z" fill="#9b7bff"/><path d="M548 232l88-139 84 139z" fill="#5ce1ff"/><path d="M636 93l28 139H548z" fill="#9b7bff"/><path d="M142 232l90-94 78 94z" fill="#ff6fae" opacity=".55"/></g>
  <path d="M295 209h130l202 124H93z" fill="url(#road)"/><path d="M351 211h22l40 122H307z" fill="#ffef6b"/><path d="M252 236h216M190 273h340" stroke="#fff" stroke-opacity=".35" stroke-width="5"/>
  <g transform="translate(360 267)"><path d="M-97 47l27-76H70l27 76z" fill="#ff6fae" stroke="#5ce1ff" stroke-width="7"/><circle cx="-58" cy="49" r="24" fill="#12162e" stroke="#ffef6b" stroke-width="6"/><circle cx="58" cy="49" r="24" fill="#12162e" stroke="#ffef6b" stroke-width="6"/><path d="M-43-28Q0-83 43-28L30 13h-60z" fill="#172342" stroke="#fff" stroke-width="6"/><path d="M-24-23l24-33 24 33-8 32h-32z" fill="#fff"/><circle cx="-10" cy="-20" r="5"/><circle cx="10" cy="-20" r="5"/><path d="M0-10l13 8-13 9-13-9z" fill="#ffef6b"/></g>
  <g fill="#5ce1ff"><polygon points="136,195 148,175 160,195 148,215"/><polygon points="565,191 578,168 591,191 578,214"/></g>
  <rect x="30" y="24" width="180" height="29" rx="14" fill="#ffef6b"/><text x="120" y="44" text-anchor="middle" font-family="Arial,sans-serif" font-size="15" font-weight="900" fill="#11265c" letter-spacing="2">RETRO · 90s</text>
  <text x="36" y="369" font-family="Arial Black,Arial,sans-serif" font-size="42" font-weight="900" fill="#fff">POLYGON PENGUIN</text><text x="36" y="419" font-family="Arial Black,Arial,sans-serif" font-size="47" font-weight="900" fill="#5ce1ff">GRAND PRIX</text>
  <rect width="720" height="450" rx="28" fill="url(#scan)"/><rect x="8" y="8" width="704" height="434" rx="23" fill="none" stroke="#ff6fae" stroke-width="4"/>
</svg>
