<svg xmlns="http://www.w3.org/2000/svg" viewBox="0 0 720 450" role="img" aria-labelledby="title desc">
  <title id="title">Prism Paddle Rally key art</title><desc id="desc">An original neon paddle court with a rainbow prism puck and Rally Raccoon.</desc>
  <defs><radialGradient id="bg"><stop stop-color="#22223f"/><stop offset="1" stop-color="#05050c"/></radialGradient><linearGradient id="trail"><stop stop-color="#39ffde"/><stop offset=".5" stop-color="#ffe66d"/><stop offset="1" stop-color="#ff3cac"/></linearGradient><pattern id="scan" width="4" height="4" patternUnits="userSpaceOnUse"><path d="M0 3.5h4" stroke="#fff" stroke-opacity=".05"/></pattern><filter id="g"><feGaussianBlur stdDeviation="5" result="b"/><feMerge><feMergeNode in="b"/><feMergeNode in="SourceGraphic"/></feMerge></filter></defs>
  <rect width="720" height="450" rx="28" fill="url(#bg)"/><rect x="62" y="67" width="596" height="225" rx="16" fill="none" stroke="#fff" stroke-opacity=".4" stroke-width="3"/><path d="M360 67v225" stroke="#fff" stroke-dasharray="10 12" stroke-opacity=".38"/>
  <rect x="92" y="120" width="18" height="106" rx="9" fill="#39ffde" filter="url(#g)"/><rect x="610" y="95" width="18" height="106" rx="9" fill="#ff3cac" filter="url(#g)"/>
  <path d="M122 199Q235 84 350 172T598 130" fill="none" stroke="url(#trail)" stroke-width="9" stroke-dasharray="2 12" stroke-linecap="round" filter="url(#g)"/><polygon points="350,148 372,171 350,194 328,171" fill="#fff" stroke="#ffe66d" stroke-width="5" filter="url(#g)"/>
  <g transform="translate(548 240)"><circle r="43" fill="#26263f" stroke="#ffe66d" stroke-width="5"/><path d="M-37-20l-18-24 30 4M37-20l18-24-30 4" fill="#77788f"/><path d="M-30-10q30-25 60 0v27q-30 22-60 0z" fill="#a0a2b5"/><path d="M-31-5h62M-17 16h34" stroke="#26263f" stroke-width="9"/><circle cx="-16" cy="-4" r="5" fill="#fff"/><circle cx="16" cy="-4" r="5" fill="#fff"/></g>
  <rect x="30" y="24" width="180" height="29" rx="14" fill="#ffe66d"/><text x="120" y="44" text-anchor="middle" font-family="Arial,sans-serif" font-size="15" font-weight="900" fill="#05050c" letter-spacing="2">RETRO · 70s</text>
  <text x="36" y="365" font-family="Arial Black,Arial,sans-serif" font-size="50" font-weight="900" fill="#fff">PRISM PADDLE</text><text x="36" y="417" font-family="Arial Black,Arial,sans-serif" font-size="50" font-weight="900" fill="#39ffde">RALLY</text>
  <rect width="720" height="450" rx="28" fill="url(#scan)"/><rect x="8" y="8" width="704" height="434" rx="23" fill="none" stroke="#ff3cac" stroke-width="3"/>
</svg>
