<svg xmlns="http://www.w3.org/2000/svg" viewBox="0 0 720 450" role="img" aria-labelledby="title desc">
  <title id="title">Radish Rally Overdrive key art</title><desc id="desc">An original pseudo-3D sunset road with Roxy Radish's sprout-powered roadster.</desc>
  <defs><linearGradient id="sky" x2="0" y2="1"><stop stop-color="#160b3d"/><stop offset=".55" stop-color="#ff477e"/><stop offset="1" stop-color="#ffcf56"/></linearGradient><linearGradient id="road" x2="0" y2="1"><stop stop-color="#42405f"/><stop offset="1" stop-color="#10111d"/></linearGradient><pattern id="scan" width="4" height="4" patternUnits="userSpaceOnUse"><path d="M0 3.5h4" stroke="#fff" stroke-opacity=".055"/></pattern><filter id="g"><feGaussianBlur stdDeviation="5" result="b"/><feMerge><feMergeNode in="b"/><feMergeNode in="SourceGraphic"/></feMerge></filter></defs>
  <rect width="720" height="450" rx="28" fill="url(#sky)"/><circle cx="540" cy="126" r="74" fill="#ffcf56"/><path d="M0 229h720v88H0z" fill="#21324b"/><path d="M304 218h112l210 105H94z" fill="url(#road)"/><path d="M348 219h24l49 104H299z" fill="#ffcf56"/><path d="M317 236h86M278 270h164" stroke="#fff" stroke-opacity=".42" stroke-width="5"/>
  <g transform="translate(360 267)" filter="url(#g)"><path d="M-98 44l22-78h152l22 78z" fill="#ff477e" stroke="#25d8ff" stroke-width="7"/><path d="M-49-34l21-45h56l21 45z" fill="#25d8ff"/><circle cx="-58" cy="46" r="24" fill="#111" stroke="#66ff9a" stroke-width="6"/><circle cx="58" cy="46" r="24" fill="#111" stroke="#66ff9a" stroke-width="6"/><circle cy="-57" r="33" fill="#f7f2e8"/><path d="M0-87c-13-24-34-26-49-18 12 3 22 12 27 25M0-87c13-24 34-26 49-18-12 3-22 12-27 25" fill="#66ff9a"/><circle cx="-11" cy="-61" r="5"/><circle cx="11" cy="-61" r="5"/></g>
  <g fill="#66ff9a"><rect x="110" y="185" width="12" height="44"/><rect x="154" y="175" width="12" height="54"/><rect x="594" y="179" width="12" height="50"/></g>
  <rect x="30" y="24" width="180" height="29" rx="4" fill="#25d8ff"/><text x="120" y="44" text-anchor="middle" font-family="monospace" font-size="15" font-weight="900" fill="#160b3d" letter-spacing="2">RETRO · 80s</text>
  <text x="36" y="372" font-family="Arial Black,Arial,sans-serif" font-size="47" font-weight="900" fill="#fff">RADISH RALLY</text><text x="36" y="421" font-family="Arial Black,Arial,sans-serif" font-size="47" font-weight="900" fill="#66ff9a">OVERDRIVE</text>
  <rect width="720" height="450" rx="28" fill="url(#scan)"/><rect x="8" y="8" width="704" height="434" rx="23" fill="none" stroke="#25d8ff" stroke-width="4"/>
</svg>
