<svg xmlns="http://www.w3.org/2000/svg" viewBox="0 0 720 450" role="img" aria-labelledby="title desc">
  <title id="title">Rooftop Rocket Rumble key art</title><desc id="desc">An original red panda rocket runner leaping over a neon rain-city rooftop.</desc>
  <defs><linearGradient id="bg" x2="0" y2="1"><stop stop-color="#101540"/><stop offset=".55" stop-color="#57366f"/><stop offset="1" stop-color="#132b4c"/></linearGradient><pattern id="rain" width="46" height="52" patternUnits="userSpaceOnUse"><path d="M10 4L3 24M39 28l-7 20" stroke="#45d7ff" stroke-opacity=".25" stroke-width="3"/></pattern><pattern id="scan" width="4" height="4" patternUnits="userSpaceOnUse"><path d="M0 3.5h4" stroke="#fff" stroke-opacity=".05"/></pattern><filter id="g"><feGaussianBlur stdDeviation="5" result="b"/><feMerge><feMergeNode in="b"/><feMergeNode in="SourceGraphic"/></feMerge></filter></defs>
  <rect width="720" height="450" rx="28" fill="url(#bg)"/><rect width="720" height="315" fill="url(#rain)"/><g fill="#17284c"><rect x="0" y="160" width="98" height="150"/><rect x="108" y="110" width="125" height="200"/><rect x="244" y="184" width="82" height="126"/><rect x="510" y="130" width="96" height="180"/><rect x="615" y="88" width="105" height="222"/></g><g fill="#ffb347"><rect x="131" y="137" width="18" height="24"/><rect x="176" y="137" width="18" height="24"/><rect x="642" y="121" width="18" height="24"/><rect x="683" y="121" width="18" height="24"/></g>
  <path d="M0 282h270l45-32h172l48 32h185v45H0z" fill="#0b132d" stroke="#45d7ff" stroke-width="5"/><g transform="translate(407 185) rotate(-8)"><circle cy="-38" r="43" fill="#ff7f50" stroke="#101540" stroke-width="7"/><path d="M-36-55l-21-39 44 20M36-55l21-39-44 20" fill="#ff4f7b" stroke="#101540" stroke-width="7"/><path d="M-31-45h62v31q-31 21-62 0z" fill="#f7f0df"/><circle cx="-14" cy="-35" r="6"/><circle cx="14" cy="-35" r="6"/><path d="M-16-2h32l23 77h-78z" fill="#45d7ff" stroke="#101540" stroke-width="7"/><path d="M-25 72l-30 38M25 72l37 27" stroke="#ffb347" stroke-width="15"/><path d="M-58 111l-22 35M62 101l22 35" stroke="#b7ff5a" stroke-width="10" filter="url(#g)"/></g>
  <rect x="30" y="24" width="180" height="29" rx="14" fill="#b7ff5a"/><text x="120" y="44" text-anchor="middle" font-family="Arial,sans-serif" font-size="15" font-weight="900" fill="#101540" letter-spacing="2">RETRO · 90s</text>
  <text x="36" y="371" font-family="Arial Black,Arial,sans-serif" font-size="45" font-weight="900" fill="#fff">ROOFTOP ROCKET</text><text x="36" y="420" font-family="Arial Black,Arial,sans-serif" font-size="50" font-weight="900" fill="#ffb347">RUMBLE</text>
  <rect width="720" height="450" rx="28" fill="url(#scan)"/><rect x="8" y="8" width="704" height="434" rx="23" fill="none" stroke="#ff4f7b" stroke-width="4"/>
</svg>
