<svg xmlns="http://www.w3.org/2000/svg" viewBox="0 0 720 450" role="img" aria-labelledby="title desc" shape-rendering="crispEdges">
  <title id="title">Scanline Sprint key art</title><desc id="desc">Scan Sam falls through CRT scanlines dodging static interference in this retro helix drop.</desc>
  <defs><linearGradient id="bg" x2="0" y2="1"><stop stop-color="#050510"/><stop offset="1" stop-color="#150828"/></linearGradient><pattern id="scan" width="4" height="4" patternUnits="userSpaceOnUse"><path d="M0 3.5h4" stroke="#fff" stroke-opacity=".06"/></pattern><filter id="glow"><feGaussianBlur stdDeviation="3" result="b"/><feMerge><feMergeNode in="b"/><feMergeNode in="SourceGraphic"/></feMerge></filter><filter id="staticGlow"><feGaussianBlur stdDeviation="6" result="b"/><feMerge><feMergeNode in="b"/><feMergeNode in="SourceGraphic"/></feMerge></filter></defs>
  <rect width="720" height="450" fill="url(#bg)"/>
  <rect x="60" y="30" width="600" height="400" rx="20" fill="#0a0a18" stroke="#39ffde" stroke-width="2"/>
  <rect x="75" y="45" width="570" height="370" rx="4" fill="#0f0f20"/>
  <g opacity=".15">
    <line x1="75" y1="60" x2="645" y2="60" stroke="#39ffde" stroke-width="1"/>
    <line x1="75" y1="110" x2="645" y2="110" stroke="#39ffde" stroke-width="1"/>
    <line x1="75" y1="160" x2="645" y2="160" stroke="#39ffde" stroke-width="1"/>
    <line x1="75" y1="210" x2="645" y2="210" stroke="#39ffde" stroke-width="1"/>
    <line x1="75" y1="260" x2="645" y2="260" stroke="#39ffde" stroke-width="1"/>
    <line x1="75" y1="310" x2="645" y2="310" stroke="#39ffde" stroke-width="1"/>
    <line x1="75" y1="360" x2="645" y2="360" stroke="#39ffde" stroke-width="1"/>
  </g>
  <g opacity=".08">
    <line x1="230" y1="45" x2="230" y2="415" stroke="#ff4f9a" stroke-width="1"/>
    <line x1="360" y1="45" x2="360" y2="415" stroke="#ff4f9a" stroke-width="1"/>
    <line x1="490" y1="45" x2="490" y2="415" stroke="#ff4f9a" stroke-width="1"/>
  </g>
  <g filter="url(#staticGlow)">
    <rect x="100" y="100" width="20" height="30" fill="#ff4f9a" opacity=".5"/>
    <rect x="450" y="150" width="25" height="20" fill="#ff4f9a" opacity=".4"/>
    <rect x="350" y="300" width="15" height="40" fill="#ff4f9a" opacity=".35"/>
    <rect x="200" y="280" width="30" height="15" fill="#ff4f9a" opacity=".45"/>
    <rect x="520" y="250" width="18" height="25" fill="#ff4f9a" opacity=".4"/>
    <rect x="150" y="350" width="22" height="18" fill="#ff4f9a" opacity=".35"/>
  </g>
  <g filter="url(#glow)">
    <rect x="280" y="130" width="8" height="8" fill="#39ffde"/>
    <rect x="420" y="190" width="8" height="8" fill="#39ffde"/>
    <rect x="320" y="330" width="8" height="8" fill="#39ffde"/>
    <rect x="500" y="120" width="8" height="8" fill="#39ffde"/>
    <rect x="180" y="220" width="8" height="8" fill="#39ffde"/>
    <rect x="550" y="320" width="8" height="8" fill="#39ffde"/>
  </g>
  <g filter="url(#glow)">
    <circle cx="300" cy="200" r="3" fill="#ffcf40"/>
    <circle cx="500" cy="300" r="3" fill="#ffcf40"/>
    <circle cx="180" cy="150" r="3" fill="#ffcf40"/>
    <circle cx="400" cy="370" r="3" fill="#ffcf40"/>
    <circle cx="600" cy="180" r="3" fill="#ffcf40"/>
    <circle cx="120" cy="290" r="3" fill="#ffcf40"/>
  </g>
  <g transform="translate(360 220)" filter="url(#glow)">
    <circle cx="0" cy="0" r="18" fill="#1a0a20" stroke="#39ffde" stroke-width="2"/>
    <circle cx="0" cy="0" r="10" fill="#39ffde" opacity=".3"/>
    <circle cx="0" cy="0" r="4" fill="#f7fbff"/>
    <line x1="-14" y1="-8" x2="-6" y2="-4" stroke="#39ffde" stroke-width="2"/>
    <line x1="14" y1="-8" x2="6" y2="-4" stroke="#39ffde" stroke-width="2"/>
    <path d="M-8 10l16 0" stroke="#39ffde" stroke-width="1.5" opacity=".5"/>
  </g>
  <text x="360" y="56" text-anchor="middle" font-family="monospace" font-size="10" fill="#39ffde" opacity=".5">CH-03 · CRT FALL-THROUGH</text>
  <rect x="30" y="24" width="160" height="28" rx="14" fill="#39ffde"/><text x="110" y="44" text-anchor="middle" font-family="Arial,sans-serif" font-size="14" font-weight="900" fill="#050510" letter-spacing="2">RETRO · 80s</text>
  <text x="36" y="408" font-family="Arial Black,Arial,sans-serif" font-size="36" font-weight="900" fill="#f7fbff" letter-spacing="1">SCANLINE</text><text x="36" y="444" font-family="Arial Black,Arial,sans-serif" font-size="36" font-weight="900" fill="#39ffde" letter-spacing="1">SPRINT</text>
  <rect width="720" height="450" rx="28" fill="url(#scan)"/><rect x="8" y="8" width="704" height="434" rx="23" fill="none" stroke="#ff4f9a" stroke-width="3"/>
</svg>
