<svg xmlns="http://www.w3.org/2000/svg" viewBox="0 0 720 450" role="img" aria-labelledby="title desc">
  <title id="title">Skyrail Stunt Squad key art</title><desc id="desc">An original sugar glider grinding a magnetic board along a neon floating-city rail.</desc>
  <defs><linearGradient id="bg" x2="0" y2="1"><stop stop-color="#171044"/><stop offset=".55" stop-color="#52418c"/><stop offset="1" stop-color="#132f55"/></linearGradient><pattern id="scan" width="4" height="4" patternUnits="userSpaceOnUse"><path d="M0 3.5h4" stroke="#fff" stroke-opacity=".05"/></pattern><filter id="g"><feGaussianBlur stdDeviation="5" result="b"/><feMerge><feMergeNode in="b"/><feMergeNode in="SourceGraphic"/></feMerge></filter></defs>
  <rect width="720" height="450" rx="28" fill="url(#bg)"/><circle cx="568" cy="105" r="67" fill="#ffb52e"/><g fill="#24255d"><path d="M0 247h134l30-99 55 99h103l43-77 45 77h96l27-112 72 112h85v68H0z"/></g><g fill="#25d8ff"><rect x="184" y="192" width="16" height="25"/><rect x="380" y="194" width="16" height="25"/><rect x="556" y="173" width="16" height="25"/></g>
  <path d="M33 287Q238 223 360 266T687 225" fill="none" stroke="#c7ff44" stroke-width="13" filter="url(#g)"/><path d="M33 305Q238 241 360 284T687 243" fill="none" stroke="#25d8ff" stroke-width="5"/>
  <g transform="translate(370 201) rotate(13)"><ellipse cy="-18" rx="58" ry="48" fill="#c58b65" stroke="#171044" stroke-width="7"/><path d="M-49-40l-37-29 50 8M49-40l37-29-50 8" fill="#c58b65" stroke="#171044" stroke-width="7"/><circle cx="-18" cy="-24" r="7"/><circle cx="18" cy="-24" r="7"/><path d="M-47 5L-91 55 0 29 91 55 47 5z" fill="#ff3cac" stroke="#171044" stroke-width="7"/><path d="M-32 35l-18 40M32 35l18 40" stroke="#ffb52e" stroke-width="13"/><rect x="-75" y="70" width="150" height="16" rx="8" fill="#25d8ff" stroke="#171044" stroke-width="6"/></g>
  <text x="495" y="288" transform="rotate(-10 495 288)" font-family="Arial Black,Arial,sans-serif" font-size="32" fill="#c7ff44" stroke="#ff3cac" stroke-width="7" paint-order="stroke">+360!</text>
  <rect x="30" y="24" width="180" height="29" rx="14" fill="#c7ff44"/><text x="120" y="44" text-anchor="middle" font-family="Arial,sans-serif" font-size="15" font-weight="900" fill="#171044" letter-spacing="2">RETRO · 90s</text>
  <text x="36" y="370" font-family="Arial Black,Arial,sans-serif" font-size="48" font-weight="900" fill="#fff">SKYRAIL STUNT</text><text x="36" y="420" font-family="Arial Black,Arial,sans-serif" font-size="50" font-weight="900" fill="#25d8ff">SQUAD</text>
  <rect width="720" height="450" rx="28" fill="url(#scan)"/><rect x="8" y="8" width="704" height="434" rx="23" fill="none" stroke="#ff3cac" stroke-width="4"/>
</svg>
