<svg xmlns="http://www.w3.org/2000/svg" viewBox="0 0 720 450" role="img" aria-labelledby="title desc">
  <title id="title">Synth Snack Soundcheck key art</title><desc id="desc">An original neon rooftop synth performance with Cassie Cassowary and snack-shaped notes.</desc>
  <defs><linearGradient id="bg" x2="0" y2="1"><stop stop-color="#12042f"/><stop offset=".55" stop-color="#4a135d"/><stop offset="1" stop-color="#121037"/></linearGradient><linearGradient id="sun" x2="0" y2="1"><stop stop-color="#fff36c"/><stop offset="1" stop-color="#ff3cac"/></linearGradient><pattern id="scan" width="4" height="4" patternUnits="userSpaceOnUse"><path d="M0 3.5h4" stroke="#fff" stroke-opacity=".06"/></pattern><filter id="g"><feGaussianBlur stdDeviation="5" result="b"/><feMerge><feMergeNode in="b"/><feMergeNode in="SourceGraphic"/></feMerge></filter></defs>
  <rect width="720" height="450" rx="28" fill="url(#bg)"/><circle cx="520" cy="132" r="78" fill="url(#sun)"/><path d="M0 257h720M30 225l330 32 330-32M95 197l265 60 265-60M180 168l180 89 180-89M360 150v150" fill="none" stroke="#00f5d4" stroke-opacity=".38" stroke-width="3"/>
  <g transform="translate(242 190)"><circle cx="0" cy="-38" r="39" fill="#253161" stroke="#fff36c" stroke-width="5"/><path d="M-33-52l-15-35 38 20M33-52l15-35-38 20" fill="#ff3cac"/><circle cx="-13" cy="-43" r="6" fill="#fff"/><circle cx="13" cy="-43" r="6" fill="#fff"/><path d="M0-28l13 9-13 10-13-10z" fill="#ff3cac"/><path d="M-55 5h110l26 66H-81z" fill="#7b61ff" stroke="#00f5d4" stroke-width="5"/><g fill="#fff36c"><rect x="-60" y="23" width="18" height="40"/><rect x="-36" y="23" width="18" height="40"/><rect x="-12" y="23" width="18" height="40"/><rect x="12" y="23" width="18" height="40"/><rect x="36" y="23" width="18" height="40"/></g></g>
  <g fill="#00f5d4" filter="url(#g)"><rect x="400" y="220" width="18" height="48"/><rect x="426" y="194" width="18" height="74"/><rect x="452" y="232" width="18" height="36"/><rect x="478" y="178" width="18" height="90"/><rect x="504" y="208" width="18" height="60"/></g><g fill="#fff36c"><path d="M586 202v-54h36v14h-23v40a17 17 0 1 1-13 0z"/><circle cx="563" cy="122" r="13"/></g>
  <rect x="30" y="24" width="180" height="29" rx="4" fill="#00f5d4"/><text x="120" y="44" text-anchor="middle" font-family="monospace" font-size="15" font-weight="900" fill="#12042f" letter-spacing="2">RETRO · 80s</text>
  <text x="36" y="369" font-family="Arial Black,Arial,sans-serif" font-size="46" font-weight="900" fill="#fff36c">SYNTH SNACK</text><text x="36" y="419" font-family="Arial Black,Arial,sans-serif" font-size="46" font-weight="900" fill="#fff">SOUNDCHECK</text>
  <rect width="720" height="450" rx="28" fill="url(#scan)"/><rect x="8" y="8" width="704" height="434" rx="23" fill="none" stroke="#ff3cac" stroke-width="4"/>
</svg>
