<svg xmlns="http://www.w3.org/2000/svg" viewBox="0 0 720 450" role="img" aria-labelledby="title desc" shape-rendering="geometricPrecision">
  <title id="title">Turbo Toad Trackline key art</title><desc id="desc">An original overhead night circuit with Tavi Turbo Toad's yellow roadster.</desc>
  <defs><linearGradient id="bg" x2="0" y2="1"><stop stop-color="#08111f"/><stop offset="1" stop-color="#112f2d"/></linearGradient><linearGradient id="road" x2="0" y2="1"><stop stop-color="#253344"/><stop offset="1" stop-color="#101723"/></linearGradient><pattern id="scan" width="4" height="4" patternUnits="userSpaceOnUse"><path d="M0 3.5h4" stroke="#fff" stroke-opacity=".05"/></pattern><filter id="g"><feGaussianBlur stdDeviation="5" result="b"/><feMerge><feMergeNode in="b"/><feMergeNode in="SourceGraphic"/></feMerge></filter></defs>
  <rect width="720" height="450" rx="28" fill="url(#bg)"/><path d="M172 68C71 120 111 194 220 214s128 97 13 112h254c101-27 111-105 5-125S390 96 509 68z" fill="url(#road)" stroke="#f7f04a" stroke-width="7"/>
  <path d="M340 72c-72 58-49 101 45 131s85 87 12 120" fill="none" stroke="#f7fbff" stroke-opacity=".75" stroke-width="5" stroke-dasharray="17 15"/>
  <g transform="translate(386 231) rotate(18)" filter="url(#g)"><rect x="-28" y="-46" width="56" height="92" rx="18" fill="#f7f04a" stroke="#ff5a5f" stroke-width="6"/><rect x="-19" y="-22" width="38" height="32" rx="8" fill="#4fe0a0"/><rect x="-35" y="-29" width="9" height="25" fill="#f7fbff"/><rect x="26" y="-29" width="9" height="25" fill="#f7fbff"/><circle cx="-10" cy="-5" r="5"/><circle cx="10" cy="-5" r="5"/></g>
  <g fill="#ff5a5f"><path d="M133 124l18-31 18 31zM540 183l18-31 18 31zM190 285l18-31 18 31z"/></g><g fill="#4fe0a0"><circle cx="126" cy="177" r="12"/><circle cx="532" cy="116" r="12"/><circle cx="502" cy="286" r="12"/></g>
  <rect x="30" y="24" width="180" height="29" rx="14" fill="#f7f04a"/><text x="120" y="44" text-anchor="middle" font-family="Arial,sans-serif" font-size="15" font-weight="900" fill="#08111f" letter-spacing="2">RETRO · 70s</text>
  <text x="36" y="372" font-family="Arial Black,Arial,sans-serif" font-size="50" font-weight="900" fill="#f7fbff">TURBO TOAD</text><text x="36" y="421" font-family="Arial Black,Arial,sans-serif" font-size="50" font-weight="900" fill="#4fe0a0">TRACKLINE</text>
  <rect width="720" height="450" rx="28" fill="url(#scan)"/><rect x="8" y="8" width="704" height="434" rx="23" fill="none" stroke="#ff5a5f" stroke-width="3"/>
</svg>
