<svg xmlns="http://www.w3.org/2000/svg" viewBox="0 0 720 450" role="img" aria-labelledby="title desc">
  <title id="title">Turbo Tern Target Zone key art</title><desc id="desc">An original seaside neon target gallery with clockwork bullseyes and Tess Turbo Tern.</desc>
  <defs><linearGradient id="bg" x2="0" y2="1"><stop stop-color="#11154a"/><stop offset=".5" stop-color="#7d67ff"/><stop offset="1" stop-color="#233f71"/></linearGradient><pattern id="dots" width="26" height="26" patternUnits="userSpaceOnUse"><circle cx="4" cy="4" r="2" fill="#fff" fill-opacity=".12"/></pattern><pattern id="scan" width="4" height="4" patternUnits="userSpaceOnUse"><path d="M0 3.5h4" stroke="#fff" stroke-opacity=".05"/></pattern><filter id="g"><feGaussianBlur stdDeviation="5" result="b"/><feMerge><feMergeNode in="b"/><feMergeNode in="SourceGraphic"/></feMerge></filter></defs>
  <rect width="720" height="450" rx="28" fill="url(#bg)"/><rect width="720" height="320" fill="url(#dots)"/><path d="M0 248q90-52 180 0t180 0 180 0 180 0v69H0z" fill="#2ee8cc"/><path d="M67 249l45-111 45 111M563 249l45-111 45 111" fill="#ffd43b" stroke="#ff486d" stroke-width="6"/><path d="M112 139l-28 25h56zM608 139l-28 25h56z" fill="#ff486d"/>
  <g stroke="#fff" stroke-width="6"><g transform="translate(252 154)"><circle r="51" fill="#ff486d"/><circle r="32" fill="#ffd43b"/><circle r="14" fill="#11154a"/></g><g transform="translate(460 198)"><circle r="43" fill="#ffd43b"/><circle r="27" fill="#2ee8cc"/><circle r="12" fill="#11154a"/></g></g>
  <g transform="translate(125 210)"><ellipse rx="55" ry="47" fill="#f7f4ed" stroke="#11154a" stroke-width="7"/><path d="M-45-35l-33-22 45 1" fill="#ff486d"/><path d="M45-35l33-22-45 1" fill="#ff486d"/><circle cx="-16" cy="-8" r="7"/><circle cx="16" cy="-8" r="7"/><path d="M0 3l18 10-18 11-18-11z" fill="#ffd43b"/><path d="M-39 42h78l22 54h-122z" fill="#2ee8cc"/><path d="M-33 52h66" stroke="#11154a" stroke-width="13"/></g>
  <g stroke="#fff" stroke-width="4" filter="url(#g)"><circle cx="252" cy="154" r="72" fill="none"/><path d="M252 70v168M168 154h168"/></g>
  <rect x="30" y="24" width="180" height="29" rx="14" fill="#ffd43b"/><text x="120" y="44" text-anchor="middle" font-family="Arial,sans-serif" font-size="15" font-weight="900" fill="#11154a" letter-spacing="2">RETRO · 90s</text>
  <text x="36" y="369" font-family="Arial Black,Arial,sans-serif" font-size="45" font-weight="900" fill="#fff">TURBO TERN</text><text x="36" y="419" font-family="Arial Black,Arial,sans-serif" font-size="48" font-weight="900" fill="#ffd43b">TARGET ZONE</text>
  <rect width="720" height="450" rx="28" fill="url(#scan)"/><rect x="8" y="8" width="704" height="434" rx="23" fill="none" stroke="#2ee8cc" stroke-width="4"/>
</svg>
