<svg xmlns="http://www.w3.org/2000/svg" width="1200" height="400" viewBox="0 0 1200 400" fill="none">
  <defs>
    <linearGradient id="bg" x1="0" y1="0" x2="1200" y2="400" gradientUnits="userSpaceOnUse">
      <stop stop-color="#FFCE62"/>
      <stop offset="0.55" stop-color="#FF7BC1"/>
      <stop offset="1" stop-color="#7B63FF"/>
    </linearGradient>
    <linearGradient id="mango" x1="0" y1="0" x2="1" y2="1">
      <stop stop-color="#FFB22B"/>
      <stop offset="1" stop-color="#FFD85B"/>
    </linearGradient>
    <filter id="shadow" x="-20%" y="-20%" width="140%" height="160%">
      <feDropShadow dx="0" dy="12" stdDeviation="14" flood-color="#4C266C" flood-opacity="0.28"/>
    </filter>
  </defs>
  <rect x="30" y="40" width="1140" height="320" rx="48" fill="url(#bg)"/>
  <g filter="url(#shadow)">
    <rect x="55" y="65" width="1090" height="270" rx="42" fill="rgba(255,255,255,0.18)"/>
    <rect x="85" y="95" width="250" height="210" rx="36" fill="#FFF5FD" fill-opacity="0.75" stroke="#FFFFFF" stroke-opacity="0.75" stroke-width="4"/>
    <ellipse cx="210" cy="205" rx="80" ry="76" fill="#D7B08B" stroke="#FFF8F0" stroke-width="5"/>
    <rect x="160" y="195" width="100" height="82" rx="22" fill="#FFF7FB" stroke="#E8DCEE" stroke-width="3"/>
    <rect x="186" y="222" width="48" height="56" rx="14" fill="#FFD76E" stroke="#FFF5CE" stroke-width="3"/>
    <ellipse cx="181" cy="192" rx="12" ry="14" fill="#4A372D"/>
    <ellipse cx="239" cy="192" rx="12" ry="14" fill="#4A372D"/>
    <ellipse cx="181" cy="189" rx="4" ry="6" fill="#221728"/>
    <ellipse cx="239" cy="189" rx="4" ry="6" fill="#221728"/>
    <path d="M190 221C198 239 222 239 230 221" stroke="#7D5137" stroke-width="6" stroke-linecap="round"/>
    <ellipse cx="210" cy="210" rx="10" ry="7" fill="#FFB3C6"/>
    <ellipse cx="210" cy="120" rx="64" ry="34" fill="#FFFFFF" stroke="#EADBEF" stroke-width="4"/>
    <rect x="165" y="132" width="90" height="22" rx="10" fill="#FFFFFF" stroke="#EADBEF" stroke-width="3"/>
    <ellipse cx="295" cy="112" rx="30" ry="26" fill="#78E5FF" stroke="#FFFFFF" stroke-width="3"/>
    <ellipse cx="312" cy="104" rx="16" ry="14" fill="#FFE961"/>
    <ellipse cx="287" cy="112" rx="24" ry="9" fill="#94F0FF" stroke="#D6FFFF" stroke-width="2" transform="rotate(-16 287 112)"/>
    <ellipse cx="302" cy="118" rx="24" ry="9" fill="#94F0FF" stroke="#D6FFFF" stroke-width="2" transform="rotate(14 302 118)"/>
    <ellipse cx="322" cy="116" rx="10" ry="7" fill="#FFAC2F"/>
  </g>
  <g filter="url(#shadow)">
    <text x="390" y="170" fill="#FFF8FF" style="font: 900 74px Inter, Arial, sans-serif; letter-spacing:1px">PUDDLE'S</text>
    <text x="390" y="250" fill="#5B2E79" style="font: 1000 86px Inter, Arial, sans-serif; letter-spacing:1px">PANCAKE PANIC</text>
    <text x="392" y="300" fill="#FFF8FF" style="font: 800 30px Inter, Arial, sans-serif">ULTIMATE EDITION · MOCHI MANGO ARCADE</text>
  </g>
  <g transform="translate(1060 110) rotate(-18)">
    <ellipse rx="42" ry="56" fill="url(#mango)" stroke="#FFF3C9" stroke-width="5"/>
    <ellipse cx="14" cy="-10" rx="24" ry="38" fill="#FFE15B"/>
    <ellipse cx="24" cy="-56" rx="28" ry="10" fill="#45CB76" stroke="#FFF4D5" stroke-width="3" transform="rotate(34)"/>
  </g>
</svg>
