<svg xmlns="http://www.w3.org/2000/svg" width="1200" height="675" viewBox="0 0 1200 675" fill="none">
  <defs>
    <linearGradient id="sky" x1="600" y1="0" x2="600" y2="675" gradientUnits="userSpaceOnUse">
      <stop stop-color="#8DE6FF"/>
      <stop offset="0.38" stop-color="#FFF4A2"/>
      <stop offset="0.62" stop-color="#8EE47F"/>
      <stop offset="1" stop-color="#59C56E"/>
    </linearGradient>
    <linearGradient id="panel" x1="0" y1="0" x2="1" y2="1">
      <stop stop-color="#FFB12B"/>
      <stop offset="1" stop-color="#FF6BB7"/>
    </linearGradient>
    <filter id="sh" x="-20%" y="-20%" width="140%" height="160%"><feDropShadow dx="0" dy="18" stdDeviation="18" flood-color="#3A1957" flood-opacity="0.25"/></filter>
  </defs>
  <rect width="1200" height="675" fill="url(#sky)"/>
  <circle cx="970" cy="110" r="90" fill="#FFF3A8" opacity="0.8"/>
  <path d="M0 350C110 320 155 305 260 324C360 341 395 373 500 368C630 363 710 301 840 314C976 327 1058 395 1200 365V675H0V350Z" fill="#73DB78"/>
  <path d="M0 450C110 424 178 402 283 423C384 443 445 497 560 491C690 485 785 429 914 440C1047 451 1112 500 1200 482V675H0V450Z" fill="#54C46F"/>
  <g filter="url(#sh)">
    <rect x="120" y="120" width="660" height="420" rx="42" fill="rgba(255,255,255,0.56)" stroke="rgba(255,255,255,0.85)" stroke-width="4"/>
    <rect x="150" y="150" width="600" height="76" rx="28" fill="#FF74B7" stroke="#FFF5D0" stroke-width="4"/>
    <text x="450" y="198" text-anchor="middle" fill="#FFF3D8" style="font: 1000 34px Inter, Arial, sans-serif">PUDDLE PANCAKE CART</text>
    <rect x="150" y="230" width="600" height="260" rx="36" fill="#D88442"/>
    <rect x="185" y="258" width="162" height="110" rx="22" fill="#2E2A36"/>
    <ellipse cx="265" cy="312" rx="62" ry="34" fill="#FFD98D"/>
    <rect x="390" y="258" width="162" height="110" rx="22" fill="#2E2A36"/>
    <ellipse cx="470" cy="312" rx="62" ry="34" fill="#D0914B"/>
    <rect x="595" y="258" width="122" height="110" rx="22" fill="#FFF7FD" stroke="#E8DBEE" stroke-width="4"/>
    <ellipse cx="656" cy="314" rx="56" ry="24" fill="#FFFFFF" stroke="#E8DBEE" stroke-width="3"/>
    <ellipse cx="656" cy="295" rx="46" ry="20" fill="#FFD98D"/>
    <path d="M620 292C645 270 676 324 693 294" stroke="#7D3D19" stroke-width="7" stroke-linecap="round"/>
  </g>
  <g filter="url(#sh)">
    <ellipse cx="920" cy="430" rx="120" ry="26" fill="rgba(30,18,36,0.15)"/>
    <ellipse cx="918" cy="298" rx="106" ry="110" fill="#D7B08B" stroke="#FFF8EE" stroke-width="5"/>
    <rect x="848" y="285" width="140" height="114" rx="26" fill="#FFF7FC" stroke="#E9DCEE" stroke-width="3"/>
    <rect x="882" y="322" width="72" height="84" rx="18" fill="#FFD76E" stroke="#FFF5CF" stroke-width="3"/>
    <ellipse cx="878" cy="279" rx="18" ry="22" fill="#4A372D"/>
    <ellipse cx="958" cy="279" rx="18" ry="22" fill="#4A372D"/>
    <ellipse cx="878" cy="274" rx="5" ry="8" fill="#201728"/>
    <ellipse cx="958" cy="274" rx="5" ry="8" fill="#201728"/>
    <path d="M888 318C902 340 934 340 948 318" stroke="#7D5137" stroke-width="7" stroke-linecap="round"/>
    <ellipse cx="918" cy="302" rx="12" ry="9" fill="#FFB4C7"/>
    <ellipse cx="918" cy="174" rx="78" ry="42" fill="#FFFFFF" stroke="#EADBEF" stroke-width="4"/>
    <rect x="866" y="190" width="104" height="24" rx="12" fill="#FFFFFF" stroke="#EADBEF" stroke-width="3"/>
    <ellipse cx="1042" cy="174" rx="36" ry="30" fill="#78E5FF" stroke="#FFFFFF" stroke-width="3"/>
    <ellipse cx="1060" cy="166" rx="18" ry="16" fill="#FFE961"/>
    <ellipse cx="1032" cy="176" rx="28" ry="10" fill="#94F0FF" stroke="#D6FFFF" stroke-width="2" transform="rotate(-16 1032 176)"/>
    <ellipse cx="1049" cy="182" rx="28" ry="10" fill="#94F0FF" stroke="#D6FFFF" stroke-width="2" transform="rotate(14 1049 182)"/>
  </g>
  <g filter="url(#sh)">
    <rect x="780" y="505" width="350" height="104" rx="32" fill="url(#panel)"/>
    <text x="955" y="553" text-anchor="middle" fill="#FFFFFF" style="font: 1000 38px Inter, Arial, sans-serif">ULTIMATE EDITION</text>
    <text x="955" y="588" text-anchor="middle" fill="#FFF8FE" style="font: 800 18px Inter, Arial, sans-serif">High-detail breakfast rush · Combo & Fever mode</text>
  </g>
</svg>
