<svg xmlns="http://www.w3.org/2000/svg" viewBox="0 0 320 480">
<defs>
<linearGradient id="b" x1="0" y1="0" x2="1" y2="1"><stop offset="0%" stop-color="hsl(270,40%,35%)"/><stop offset="100%" stop-color="hsl(270,40%,25%)"/></linearGradient>
<linearGradient id="g" x1=".5" y1="0" x2=".5" y2="1"><stop offset="0%" stop-color="#b8a9e8" stop-opacity=".12"/><stop offset="100%" stop-color="#b8a9e8" stop-opacity="0"/></linearGradient>
</defs>
<rect width="320" height="480" rx="16" fill="url(#b)"/>
<rect x="8" y="8" width="304" height="464" rx="12" fill="none" stroke="#b8a9e8" stroke-width="1" opacity=".15"/>
<rect x="0" y="0" width="320" height="240" fill="url(#g)"/>
<text x="160" y="48" text-anchor="middle" fill="#b8a9e8" font-size="11" font-weight="600" font-family="Outfit,sans-serif" opacity=".45" letter-spacing="4">PUZZLE REALM</text>
<g transform="translate(0,20)"><ellipse cx="160" cy="140" rx="16" ry="20" fill="#b8a9e8" opacity=".5"/><rect x="120" y="190" width="30" height="6" rx="3" fill="#b8a9e8" opacity=".35"/><rect x="170" y="180" width="35" height="6" rx="3" fill="#b8a9e8" opacity=".3"/><rect x="105" y="170" width="25" height="6" rx="3" fill="#b8a9e8" opacity=".25"/><rect x="195" y="165" width="25" height="6" rx="3" fill="#b8a9e8" opacity=".2"/><circle cx="155" cy="135" r="2" fill="#b8a9e8" opacity=".7"/><circle cx="165" cy="135" r="2" fill="#b8a9e8" opacity=".7"/></g>
<text x="160" y="288" text-anchor="middle" fill="#b8a9e8" font-size="19" font-weight="700" font-family="Fredoka,Outfit,sans-serif">Cloud Climb</text>
<text x="160" y="312" text-anchor="middle" fill="#d4c9f0" font-size="12" font-family="Outfit,sans-serif" letter-spacing="1">Climber</text>
<line x1="80" y1="330" x2="240" y2="330" stroke="#b8a9e8" stroke-width=".5" opacity=".1"/>
<text x="160" y="420" text-anchor="middle" fill="#d4c9f0" font-size="12" font-family="Outfit,sans-serif">Cloud Hopper</text>
<text x="160" y="450" text-anchor="middle" fill="#b8a9e8" font-size="10" font-family="Outfit,sans-serif" opacity=".35" letter-spacing="2">MOCHI MANGO ARCADE</text>
<circle cx="16" cy="16" r="1.5" fill="#b8a9e8" opacity=".1"/><circle cx="304" cy="16" r="1.5" fill="#b8a9e8" opacity=".1"/>
<circle cx="16" cy="464" r="1.5" fill="#b8a9e8" opacity=".1"/><circle cx="304" cy="464" r="1.5" fill="#b8a9e8" opacity=".1"/>
</svg>