<svg xmlns="http://www.w3.org/2000/svg" viewBox="0 0 320 480">
<defs>
<linearGradient id="b" x1="0" y1="0" x2="1" y2="1"><stop offset="0%" stop-color="hsl(90,40%,35%)"/><stop offset="100%" stop-color="hsl(90,40%,25%)"/></linearGradient>
<linearGradient id="g" x1=".5" y1="0" x2=".5" y2="1"><stop offset="0%" stop-color="#b8a9e8" stop-opacity=".12"/><stop offset="100%" stop-color="#b8a9e8" stop-opacity="0"/></linearGradient>
<pattern id="scan" width="4" height="4" patternUnits="userSpaceOnUse"><rect width="4" height="2" fill="#000" opacity=".04"/></pattern>
<pattern id="grid" width="16" height="16" patternUnits="userSpaceOnUse"><rect width="16" height="16" fill="none" stroke="#b8a9e8" stroke-width=".3" opacity=".04"/></pattern>
</defs>
<rect width="320" height="480" rx="16" fill="url(#b)"/>
<rect width="320" height="480" rx="16" fill="url(#scan)"/>
<rect x="8" y="8" width="304" height="464" rx="12" fill="url(#grid)"/>
<rect x="8" y="8" width="304" height="464" rx="12" fill="none" stroke="#b8a9e8" stroke-width="1" opacity=".2"/>
<rect x="0" y="0" width="320" height="240" fill="url(#g)"/>
<text x="160" y="48" text-anchor="middle" fill="#b8a9e8" font-size="10" font-weight="700" font-family="monospace" opacity=".6" letter-spacing="3">PUZZLE REALM</text>
<g transform="translate(0,20)"><rect x="128" y="132" width="64" height="64" fill="#b8a9e8" opacity="0.03"/><rect x="148" y="132" width="2" height="22" fill="#b8a9e8" opacity="0.3"/><rect x="168" y="156" width="2" height="20" fill="#b8a9e8" opacity="0.25"/><rect x="128" y="166" width="20" height="2" fill="#b8a9e8" opacity="0.2"/><rect x="190" y="186" width="3" height="3" fill="#b8a9e8" opacity="0.55"/><rect x="136" y="140" width="3" height="3" fill="#b8a9e8" opacity="0.5"/></g>
<text x="160" y="290" text-anchor="middle" fill="#b8a9e8" font-size="18" font-weight="700" font-family="monospace">Labyrinth of Light</text>
<text x="160" y="312" text-anchor="middle" fill="#d4c9f0" font-size="11" font-family="monospace" letter-spacing="1">Maze</text>
<line x1="80" y1="330" x2="240" y2="330" stroke="#b8a9e8" stroke-width=".5" opacity=".15"/>
<text x="160" y="420" text-anchor="middle" fill="#d4c9f0" font-size="11" font-family="monospace">Lantern Hare</text>
<text x="160" y="450" text-anchor="middle" fill="#b8a9e8" font-size="9" font-family="monospace" opacity=".35" letter-spacing="2">MOCHI MANGO ARCADE</text>
<rect x="16" y="16" width="2" height="2" fill="#b8a9e8" opacity=".15"/><rect x="302" y="16" width="2" height="2" fill="#b8a9e8" opacity=".15"/>
<rect x="16" y="462" width="2" height="2" fill="#b8a9e8" opacity=".15"/><rect x="302" y="462" width="2" height="2" fill="#b8a9e8" opacity=".15"/>
</svg>