<svg xmlns="http://www.w3.org/2000/svg" viewBox="0 0 320 480">
<defs>
<linearGradient id="b" x1="0" y1="0" x2="1" y2="1"><stop offset="0%" stop-color="hsl(90,40%,35%)"/><stop offset="100%" stop-color="hsl(90,40%,25%)"/></linearGradient>
<linearGradient id="g" x1=".5" y1="0" x2=".5" y2="1"><stop offset="0%" stop-color="#b8a9e8" stop-opacity=".12"/><stop offset="100%" stop-color="#b8a9e8" stop-opacity="0"/></linearGradient>
</defs>
<rect width="320" height="480" rx="16" fill="url(#b)"/>
<rect x="8" y="8" width="304" height="464" rx="12" fill="none" stroke="#b8a9e8" stroke-width="1" opacity=".15"/>
<rect x="0" y="0" width="320" height="240" fill="url(#g)"/>
<text x="160" y="48" text-anchor="middle" fill="#b8a9e8" font-size="11" font-weight="600" font-family="Outfit,sans-serif" opacity=".45" letter-spacing="4">PUZZLE REALM</text>
<g transform="translate(0,20)"><rect x="130" y="130" width="60" height="60" rx="4" fill="#b8a9e8" opacity=".05" stroke="#b8a9e8" stroke-width="1.5" opacity=".3"/><line x1="150" y1="130" x2="150" y2="150" stroke="#b8a9e8" stroke-width="2" opacity=".4"/><line x1="170" y1="150" x2="170" y2="170" stroke="#b8a9e8" stroke-width="2" opacity=".35"/><line x1="130" y1="160" x2="150" y2="160" stroke="#b8a9e8" stroke-width="2" opacity=".3"/><circle cx="190" cy="180" r="4" fill="#b8a9e8" opacity=".6"/><circle cx="135" cy="140" r="3" fill="#b8a9e8" opacity=".5"/></g>
<text x="160" y="288" text-anchor="middle" fill="#b8a9e8" font-size="19" font-weight="700" font-family="Fredoka,Outfit,sans-serif">Labyrinth of Light</text>
<text x="160" y="312" text-anchor="middle" fill="#d4c9f0" font-size="12" font-family="Outfit,sans-serif" letter-spacing="1">Maze</text>
<line x1="80" y1="330" x2="240" y2="330" stroke="#b8a9e8" stroke-width=".5" opacity=".1"/>
<text x="160" y="420" text-anchor="middle" fill="#d4c9f0" font-size="12" font-family="Outfit,sans-serif">Lantern Hare</text>
<text x="160" y="450" text-anchor="middle" fill="#b8a9e8" font-size="10" font-family="Outfit,sans-serif" opacity=".35" letter-spacing="2">MOCHI MANGO ARCADE</text>
<circle cx="16" cy="16" r="1.5" fill="#b8a9e8" opacity=".1"/><circle cx="304" cy="16" r="1.5" fill="#b8a9e8" opacity=".1"/>
<circle cx="16" cy="464" r="1.5" fill="#b8a9e8" opacity=".1"/><circle cx="304" cy="464" r="1.5" fill="#b8a9e8" opacity=".1"/>
</svg>