<svg xmlns="http://www.w3.org/2000/svg" viewBox="0 0 320 480">
<defs>
<linearGradient id="b" x1="0" y1="0" x2="1" y2="1"><stop offset="0%" stop-color="hsl(120,40%,35%)"/><stop offset="100%" stop-color="hsl(120,40%,25%)"/></linearGradient>
<linearGradient id="g" x1=".5" y1="0" x2=".5" y2="1"><stop offset="0%" stop-color="#b8a9e8" stop-opacity=".12"/><stop offset="100%" stop-color="#b8a9e8" stop-opacity="0"/></linearGradient>
</defs>
<rect width="320" height="480" rx="16" fill="url(#b)"/>
<rect x="8" y="8" width="304" height="464" rx="12" fill="none" stroke="#b8a9e8" stroke-width="1" opacity=".15"/>
<rect x="0" y="0" width="320" height="240" fill="url(#g)"/>
<text x="160" y="48" text-anchor="middle" fill="#b8a9e8" font-size="11" font-weight="600" font-family="Outfit,sans-serif" opacity=".45" letter-spacing="4">PUZZLE REALM</text>
<g transform="translate(0,20)"><circle cx="130" cy="150" r="10" fill="#b8a9e8" opacity=".3"/><circle cx="160" cy="135" r="10" fill="#b8a9e8" opacity=".4"/><circle cx="185" cy="150" r="10" fill="#b8a9e8" opacity=".25"/><circle cx="145" cy="170" r="10" fill="#b8a9e8" opacity=".35"/><circle cx="172" cy="170" r="10" fill="#b8a9e8" opacity=".2"/><circle cx="158" cy="155" r="4" fill="#fff" opacity=".5"/></g>
<text x="160" y="288" text-anchor="middle" fill="#b8a9e8" font-size="19" font-weight="700" font-family="Fredoka,Outfit,sans-serif">Orbit Popper</text>
<text x="160" y="312" text-anchor="middle" fill="#d4c9f0" font-size="12" font-family="Outfit,sans-serif" letter-spacing="1">Bubble Shooter</text>
<line x1="80" y1="330" x2="240" y2="330" stroke="#b8a9e8" stroke-width=".5" opacity=".1"/>
<text x="160" y="420" text-anchor="middle" fill="#d4c9f0" font-size="12" font-family="Outfit,sans-serif">Orbit Orb</text>
<text x="160" y="450" text-anchor="middle" fill="#b8a9e8" font-size="10" font-family="Outfit,sans-serif" opacity=".35" letter-spacing="2">MOCHI MANGO ARCADE</text>
<circle cx="16" cy="16" r="1.5" fill="#b8a9e8" opacity=".1"/><circle cx="304" cy="16" r="1.5" fill="#b8a9e8" opacity=".1"/>
<circle cx="16" cy="464" r="1.5" fill="#b8a9e8" opacity=".1"/><circle cx="304" cy="464" r="1.5" fill="#b8a9e8" opacity=".1"/>
</svg>