<svg xmlns="http://www.w3.org/2000/svg" viewBox="0 0 320 480">
<defs>
<linearGradient id="b" x1="0" y1="0" x2="1" y2="1"><stop offset="0%" stop-color="hsl(90,40%,35%)"/><stop offset="100%" stop-color="hsl(90,40%,25%)"/></linearGradient>
<linearGradient id="g" x1=".5" y1="0" x2=".5" y2="1"><stop offset="0%" stop-color="#fff0f5" stop-opacity=".12"/><stop offset="100%" stop-color="#fff0f5" stop-opacity="0"/></linearGradient>
</defs>
<rect width="320" height="480" rx="16" fill="url(#b)"/>
<rect x="8" y="8" width="304" height="464" rx="12" fill="none" stroke="#fff0f5" stroke-width="1" opacity=".15"/>
<rect x="0" y="0" width="320" height="240" fill="url(#g)"/>
<text x="160" y="48" text-anchor="middle" fill="#fff0f5" font-size="11" font-weight="600" font-family="Outfit,sans-serif" opacity=".45" letter-spacing="4">MOCHI WORLD</text>
<g transform="translate(0,20)"><circle cx="160" cy="155" r="24" fill="#fff0f5" opacity=".1"/><ellipse cx="160" cy="170" rx="20" ry="14" fill="#fff0f5" opacity=".3"/><circle cx="160" cy="140" r="18" fill="#fff0f5" opacity.35"/><circle cx="153" cy="135" r="2.5" fill="#fff0f5" opacity=".6"/><circle cx="167" cy="135" r="2.5" fill="#fff0f5" opacity=".6"/><ellipse cx="160" cy="145" rx="5" ry="2.5" fill="#fff0f5" opacity=".4"/><path d="M140 130 Q130 115 120 125" stroke="#fff0f5" stroke-width="2.5" fill="none" opacity=".4" stroke-linecap="round"/><path d="M180 130 Q190 115 200 125" stroke="#fff0f5" stroke-width="2.5" fill="none" opacity=".4" stroke-linecap="round"/></g>
<text x="160" y="288" text-anchor="middle" fill="#fff0f5" font-size="19" font-weight="700" font-family="Fredoka,Outfit,sans-serif">Mochi Pop</text>
<text x="160" y="312" text-anchor="middle" fill="#fce4ec" font-size="12" font-family="Outfit,sans-serif" letter-spacing="1">Whack</text>
<line x1="80" y1="330" x2="240" y2="330" stroke="#fff0f5" stroke-width=".5" opacity=".1"/>
<text x="160" y="420" text-anchor="middle" fill="#fce4ec" font-size="12" font-family="Outfit,sans-serif">Mochi Sprite</text>
<text x="160" y="450" text-anchor="middle" fill="#fff0f5" font-size="10" font-family="Outfit,sans-serif" opacity=".35" letter-spacing="2">MOCHI MANGO ARCADE</text>
<circle cx="16" cy="16" r="1.5" fill="#fff0f5" opacity=".1"/><circle cx="304" cy="16" r="1.5" fill="#fff0f5" opacity=".1"/>
<circle cx="16" cy="464" r="1.5" fill="#fff0f5" opacity=".1"/><circle cx="304" cy="464" r="1.5" fill="#fff0f5" opacity=".1"/>
</svg>