<svg xmlns="http://www.w3.org/2000/svg" viewBox="0 0 320 480">
<defs>
<linearGradient id="b" x1="0" y1="0" x2="1" y2="1"><stop offset="0%" stop-color="hsl(90,45%,40%)"/><stop offset="100%" stop-color="hsl(90,45%,28%)"/></linearGradient>
<linearGradient id="g" x1=".5" y1="0" x2=".5" y2="1"><stop offset="0%" stop-color="#fff0f5" stop-opacity=".12"/><stop offset="100%" stop-color="#fff0f5" stop-opacity="0"/></linearGradient>
</defs>
<rect width="320" height="480" rx="16" fill="url(#b)"/>
<rect x="8" y="8" width="304" height="464" rx="12" fill="none" stroke="#fff0f5" stroke-width="1" opacity=".15"/>
<rect x="0" y="0" width="320" height="240" fill="url(#g)"/>
<text x="160" y="48" text-anchor="middle" fill="#fff0f5" font-size="11" font-weight="600" font-family="Outfit,sans-serif" opacity=".5" letter-spacing="4">MOCHI WORLD</text>
<g transform="translate(0,20)"><ellipse cx="160" cy="190" rx="40" ry="14" fill="#fff0f5" opacity=".12"/>
<rect x="145" y="174" width="30" height="8" rx="4" fill="#fff0f5" opacity=".2"/>
<circle cx="160" cy="140" r="28" fill="#fff" opacity=".8"/>
<circle cx="152" cy="134" r="3" fill="#555"/>
<circle cx="168" cy="134" r="3" fill="#555"/>
<ellipse cx="160" cy="146" rx="6" ry="3" fill="#e88" opacity=".6"/>
<circle cx="130" cy="120" r="2" fill="#fff0f5" opacity=".4"/>
<circle cx="190" cy="115" r="2" fill="#fff0f5" opacity=".3"/>
<circle cx="145" cy="105" r="1.5" fill="#fff0f5" opacity=".2"/></g>
<text x="160" y="288" text-anchor="middle" fill="#fff0f5" font-size="20" font-weight="700" font-family="Fredoka,Outfit,sans-serif">Mochi Pop</text>
<text x="160" y="312" text-anchor="middle" fill="#fce4ec" font-size="12" font-family="Outfit,sans-serif" letter-spacing="1">Whack</text>
<line x1="80" y1="330" x2="240" y2="330" stroke="#fff0f5" stroke-width=".5" opacity=".12"/>
<text x="160" y="420" text-anchor="middle" fill="#fce4ec" font-size="12" font-family="Outfit,sans-serif">Mochi Sprite</text>
<text x="160" y="450" text-anchor="middle" fill="#fff0f5" font-size="10" font-family="Outfit,sans-serif" opacity=".35" letter-spacing="2">MOCHI MANGO ARCADE</text>
<circle cx="16" cy="16" r="1.5" fill="#fff0f5" opacity=".1"/><circle cx="304" cy="16" r="1.5" fill="#fff0f5" opacity=".1"/>
<circle cx="16" cy="464" r="1.5" fill="#fff0f5" opacity=".1"/><circle cx="304" cy="464" r="1.5" fill="#fff0f5" opacity=".1"/>
</svg>