<svg xmlns="http://www.w3.org/2000/svg" viewBox="0 0 320 480">
<defs>
<linearGradient id="b" x1="0" y1="0" x2="1" y2="1"><stop offset="0%" stop-color="hsl(180,40%,35%)"/><stop offset="100%" stop-color="hsl(180,40%,25%)"/></linearGradient>
<linearGradient id="g" x1=".5" y1="0" x2=".5" y2="1"><stop offset="0%" stop-color="#fff0f5" stop-opacity=".12"/><stop offset="100%" stop-color="#fff0f5" stop-opacity="0"/></linearGradient>
</defs>
<rect width="320" height="480" rx="16" fill="url(#b)"/>
<rect x="8" y="8" width="304" height="464" rx="12" fill="none" stroke="#fff0f5" stroke-width="1" opacity=".15"/>
<rect x="0" y="0" width="320" height="240" fill="url(#g)"/>
<text x="160" y="48" text-anchor="middle" fill="#fff0f5" font-size="11" font-weight="600" font-family="Outfit,sans-serif" opacity=".45" letter-spacing="4">MOCHI WORLD</text>
<g transform="translate(0,20)"><rect x="150" y="100" width="20" height="100" rx="4" fill="#fff0f5" opacity=".25"/><polygon points="140,200 160,100 180,200" fill="#fff0f5" opacity=".1"/><polygon points="147,185 160,120 173,185" fill="#fff0f5" opacity=".15"/><circle cx="160" cy="108" r="5" fill="#fff0f5" opacity.5/><rect x="153" y="130" width="14" height="4" rx="2" fill="#fff0f5" opacity=".35"/><rect x="153" y="150" width="14" height="4" rx="2" fill="#fff0f5" opacity=".3"/><rect x="153" y="170" width="14" height="4" rx="2" fill="#fff0f5" opacity=".25"/></g>
<text x="160" y="288" text-anchor="middle" fill="#fff0f5" font-size="19" font-weight="700" font-family="Fredoka,Outfit,sans-serif">Mochi Tower</text>
<text x="160" y="312" text-anchor="middle" fill="#fce4ec" font-size="12" font-family="Outfit,sans-serif" letter-spacing="1">Tower Defense</text>
<line x1="80" y1="330" x2="240" y2="330" stroke="#fff0f5" stroke-width=".5" opacity=".1"/>
<text x="160" y="420" text-anchor="middle" fill="#fce4ec" font-size="12" font-family="Outfit,sans-serif">Mochi Guardian</text>
<text x="160" y="450" text-anchor="middle" fill="#fff0f5" font-size="10" font-family="Outfit,sans-serif" opacity=".35" letter-spacing="2">MOCHI MANGO ARCADE</text>
<circle cx="16" cy="16" r="1.5" fill="#fff0f5" opacity=".1"/><circle cx="304" cy="16" r="1.5" fill="#fff0f5" opacity=".1"/>
<circle cx="16" cy="464" r="1.5" fill="#fff0f5" opacity=".1"/><circle cx="304" cy="464" r="1.5" fill="#fff0f5" opacity=".1"/>
</svg>