<svg xmlns="http://www.w3.org/2000/svg" viewBox="0 0 320 480">
<defs>
<linearGradient id="b" x1="0" y1="0" x2="1" y2="1"><stop offset="0%" stop-color="hsl(120,45%,40%)"/><stop offset="100%" stop-color="hsl(120,45%,28%)"/></linearGradient>
<linearGradient id="g" x1=".5" y1="0" x2=".5" y2="1"><stop offset="0%" stop-color="#fff0f5" stop-opacity=".12"/><stop offset="100%" stop-color="#fff0f5" stop-opacity="0"/></linearGradient>
</defs>
<rect width="320" height="480" rx="16" fill="url(#b)"/>
<rect x="8" y="8" width="304" height="464" rx="12" fill="none" stroke="#fff0f5" stroke-width="1" opacity=".15"/>
<rect x="0" y="0" width="320" height="240" fill="url(#g)"/>
<text x="160" y="48" text-anchor="middle" fill="#fff0f5" font-size="11" font-weight="600" font-family="Outfit,sans-serif" opacity=".5" letter-spacing="4">MOCHI WORLD</text>
<g transform="translate(0,20)"><circle cx="130" cy="150" r="14" fill="#f8bbd0" opacity=".8"/>
<circle cx="160" cy="130" r="14" fill="#fff" opacity=".8"/>
<circle cx="190" cy="150" r="14" fill="#c8e6c9" opacity=".8"/>
<circle cx="145" cy="180" r="14" fill="#ffe082" opacity=".8"/>
<circle cx="175" cy="180" r="14" fill="#b3e5fc" opacity=".8"/>
<circle cx="160" cy="155" r="6" fill="#fff0f5" opacity=".3"/></g>
<text x="160" y="288" text-anchor="middle" fill="#fff0f5" font-size="20" font-weight="700" font-family="Fredoka,Outfit,sans-serif">Mochi Match</text>
<text x="160" y="312" text-anchor="middle" fill="#fce4ec" font-size="12" font-family="Outfit,sans-serif" letter-spacing="1">Match-3</text>
<line x1="80" y1="330" x2="240" y2="330" stroke="#fff0f5" stroke-width=".5" opacity=".12"/>
<text x="160" y="420" text-anchor="middle" fill="#fce4ec" font-size="12" font-family="Outfit,sans-serif">Mochi Panda</text>
<text x="160" y="450" text-anchor="middle" fill="#fff0f5" font-size="10" font-family="Outfit,sans-serif" opacity=".35" letter-spacing="2">MOCHI MANGO ARCADE</text>
<circle cx="16" cy="16" r="1.5" fill="#fff0f5" opacity=".1"/><circle cx="304" cy="16" r="1.5" fill="#fff0f5" opacity=".1"/>
<circle cx="16" cy="464" r="1.5" fill="#fff0f5" opacity=".1"/><circle cx="304" cy="464" r="1.5" fill="#fff0f5" opacity=".1"/>
</svg>