<svg xmlns="http://www.w3.org/2000/svg" viewBox="0 0 1600 680"><defs><linearGradient id="sky" x1="0" x2="0" y1="0" y2="1"><stop stop-color="#87e8ff"/><stop offset=".58" stop-color="#b7f0ff"/><stop offset="1" stop-color="#ffeab6"/></linearGradient><filter id="s"><feDropShadow dx="0" dy="14" stdDeviation="14" flood-color="#5621a6" flood-opacity=".25"/></filter></defs><rect width="1600" height="680" rx="44" fill="url(#sky)"/><circle cx="1250" cy="110" r="44" fill="#fff" opacity=".5"/><circle cx="1340" cy="110" r="66" fill="#fff" opacity=".45"/><path d="M0 520C220 420 370 520 520 475c210-62 360-50 538-8 237 56 380-22 542 42v171H0z" fill="#79d45d"/><path d="M0 575c260-93 510-30 760-39 350-14 540-72 840 8v136H0z" fill="#4abd67" opacity=".85"/><g opacity=".9"><path d="M890 245c45-135 201-128 238 0z" fill="#85df91"/><rect x="960" y="230" width="100" height="120" rx="14" fill="#ffc7e0"/><path d="M936 230h148l-74-76z" fill="#8a5cff"/><path d="M1190 285c35-105 156-99 185 0z" fill="#85df91"/><rect x="1252" y="270" width="73" height="90" rx="12" fill="#ffd166"/><path d="M1235 270h108l-54-56z" fill="#ff4f9a"/></g><g filter="url(#s)"><circle cx="890" cy="390" r="118" fill="#fff2df" stroke="#ffb86b" stroke-width="12"/><path d="M842 280c38-48 95-39 121-10-64 5-88 25-105 78z" fill="#49c873" stroke="#178a42" stroke-width="8"/><circle cx="850" cy="380" r="13" fill="#292347"/><circle cx="930" cy="380" r="13" fill="#292347"/><path d="M870 420c27 26 58 24 82 0" fill="none" stroke="#292347" stroke-width="12" stroke-linecap="round"/><circle cx="1078" cy="420" r="66" fill="#ffca3a" stroke="#ff9f1c" stroke-width="10"/><circle cx="1210" cy="414" r="75" fill="#ff90b7" stroke="#ff4f9a" stroke-width="10"/><circle cx="1360" cy="420" r="70" fill="#80e6c4" stroke="#3fc79b" stroke-width="10"/></g><text x="95" y="160" font-family="Arial Rounded MT Bold,Arial" font-weight="900" font-size="98" fill="#ff4f9a" stroke="#fff" stroke-width="8" paint-order="stroke">200+</text><text x="95" y="245" font-family="Arial Rounded MT Bold,Arial" font-weight="900" font-size="58" fill="#4d277e" stroke="#fff" stroke-width="5" paint-order="stroke">Playful HTML5 Games</text><text x="100" y="312" font-family="Arial" font-size="36" font-weight="800" fill="#4d277e">Games, plushies & collectible merch</text></svg>