<svg xmlns="http://www.w3.org/2000/svg" viewBox="0 0 560 210"><defs><linearGradient id="r" x1="0" x2="1"><stop stop-color="#ff4f9a"/><stop offset=".55" stop-color="#ff9f1c"/><stop offset="1" stop-color="#8a5cff"/></linearGradient><filter id="s"><feDropShadow dx="0" dy="8" stdDeviation="8" flood-color="#6d35cf" flood-opacity=".28"/></filter></defs><g filter="url(#s)"><circle cx="82" cy="88" r="58" fill="#fff2df" stroke="#ffb86b" stroke-width="8"/><path d="M68 28c18-22 45-18 57-4-28 2-43 11-57 34z" fill="#49c873" stroke="#178a42" stroke-width="5"/><circle cx="62" cy="87" r="6" fill="#292347"/><circle cx="105" cy="87" r="6" fill="#292347"/><path d="M75 106c10 12 26 12 36 0" fill="none" stroke="#292347" stroke-width="7" stroke-linecap="round"/><circle cx="153" cy="108" r="34" fill="#ffca3a" stroke="#ff9f1c" stroke-width="7"/><path d="M147 71c12-12 28-9 34-1-18 2-25 8-31 21z" fill="#57c95a" stroke="#179245" stroke-width="4"/><circle cx="143" cy="106" r="4" fill="#292347"/><circle cx="164" cy="106" r="4" fill="#292347"/></g><text x="205" y="70" font-family="Arial Rounded MT Bold,Arial,sans-serif" font-weight="900" font-size="48" fill="#ff4f9a">Mochi</text><text x="205" y="118" font-family="Arial Rounded MT Bold,Arial,sans-serif" font-weight="900" font-size="48" fill="#ff9f1c">Mango</text><path d="M200 132h240c15 0 24 16 16 29l-16 25H223l-31-32c-10-11-2-22 8-22z" fill="#8a5cff"/><text x="228" y="172" font-family="Arial Rounded MT Bold,Arial,sans-serif" font-weight="900" font-size="38" fill="#fff">Arcade</text></svg>