<svg width="1280" height="720" viewBox="0 0 1280 720" fill="none" xmlns="http://www.w3.org/2000/svg">
  <defs>
    <linearGradient id="sky" x1="0" y1="0" x2="1280" y2="720" gradientUnits="userSpaceOnUse"><stop stop-color="#7de2ff"/><stop offset=".42" stop-color="#fff4b0"/><stop offset="1" stop-color="#ff9bb8"/></linearGradient>
    <linearGradient id="grass" x1="0" y1="373" x2="1280" y2="720" gradientUnits="userSpaceOnUse"><stop stop-color="#86f083"/><stop offset="1" stop-color="#11b56b"/></linearGradient>
    <radialGradient id="pud" cx=".35" cy=".25" r=".75"><stop stop-color="#fff3d0"/><stop offset=".56" stop-color="#d99d58"/><stop offset="1" stop-color="#8e552b"/></radialGradient>
    <filter id="blur"><feGaussianBlur stdDeviation="20"/></filter>
    <filter id="ds"><feDropShadow dx="0" dy="24" stdDeviation="18" flood-color="#302010" flood-opacity=".28"/></filter>
  </defs>
  <rect width="1280" height="720" fill="url(#sky)"/>
  <circle cx="222" cy="125" r="83" fill="#fff9a8"/>
  <circle cx="894" cy="106" r="34" fill="#fff" opacity=".5"/>
  <circle cx="984" cy="144" r="56" fill="#fff" opacity=".35"/>
  <path d="M0 392C133 286 257 335 362 391C496 462 634 328 790 382C957 440 1040 322 1280 397V720H0V392Z" fill="#2bbf8d" opacity=".33"/>
  <path d="M0 470C114 399 240 427 373 479C532 541 652 411 795 459C959 513 1040 417 1280 475V720H0V470Z" fill="#3acc76" opacity=".75"/>
  <rect y="523" width="1280" height="197" fill="url(#grass)"/>
  <g filter="url(#blur)" opacity=".55"><circle cx="153" cy="596" r="45" fill="#fff173"/><circle cx="1105" cy="615" r="60" fill="#ff78b0"/><circle cx="962" cy="542" r="38" fill="#a46cff"/></g>
  <g filter="url(#ds)">
    <ellipse cx="454" cy="448" rx="121" ry="98" fill="url(#pud)"/>
    <circle cx="411" cy="425" r="15" fill="#342315"/><circle cx="498" cy="425" r="15" fill="#342315"/>
    <circle cx="416" cy="420" r="5" fill="#fff"/><circle cx="503" cy="420" r="5" fill="#fff"/>
    <path d="M407 479c29 28 67 27 94 0" stroke="#5a351d" stroke-width="13" stroke-linecap="round"/>
    <circle cx="366" cy="461" r="23" fill="#ff8eaa" opacity=".75"/><circle cx="543" cy="461" r="23" fill="#ff8eaa" opacity=".75"/>
    <path d="M322 397c-60-14-97-48-113-104c67 13 111 47 132 103" fill="#50db6f"/>
    <path d="M578 405c56-4 104 12 143 49c-56 22-105 15-148-23" fill="#38c86e"/>
    <path d="M620 314c41-61 121-41 125 28c3 74-82 102-126 55c-21-22-20-59 1-83Z" fill="#2ec7ff"/>
    <path d="M719 346l65-25l-34 55" fill="#ffd166"/>
    <circle cx="670" cy="340" r="13" fill="#1e2e4d"/><circle cx="674" cy="336" r="4" fill="#fff"/>
  </g>
  <text x="96" y="120" font-family="Trebuchet MS, Arial, sans-serif" font-size="58" font-weight="900" fill="#24304a">Puddle &amp; Pip</text>
  <text x="96" y="186" font-family="Trebuchet MS, Arial, sans-serif" font-size="94" font-weight="900" fill="#fff" stroke="#ff7e2f" stroke-width="10" paint-order="stroke">Meadow Dash</text>
</svg>
