<svg xmlns="http://www.w3.org/2000/svg" viewBox="0 0 320 480">
<defs>
<linearGradient id="b" x1="0" y1="0" x2="1" y2="1"><stop offset="0%" stop-color="hsl(300,40%,35%)"/><stop offset="100%" stop-color="hsl(300,40%,25%)"/></linearGradient>
<linearGradient id="g" x1=".5" y1="0" x2=".5" y2="1"><stop offset="0%" stop-color="#fce4ec" stop-opacity=".12"/><stop offset="100%" stop-color="#fce4ec" stop-opacity="0"/></linearGradient>
</defs>
<rect width="320" height="480" rx="16" fill="url(#b)"/>
<rect x="8" y="8" width="304" height="464" rx="12" fill="none" stroke="#fce4ec" stroke-width="1" opacity=".15"/>
<rect x="0" y="0" width="320" height="240" fill="url(#g)"/>
<text x="160" y="48" text-anchor="middle" fill="#fce4ec" font-size="11" font-weight="600" font-family="Outfit,sans-serif" opacity=".45" letter-spacing="4">CANDY GALAXY</text>
<g transform="translate(0,20)"><rect x="115" y="115" width="16" height="8" rx="2" fill="#fce4ec" opacity=".4"/><rect x="135" y="115" width="16" height="8" rx="2" fill="#fce4ec" opacity=".35"/><rect x="155" y="115" width="16" height="8" rx="2" fill="#fce4ec" opacity=".3"/><rect x="175" y="115" width="16" height="8" rx="2" fill="#fce4ec" opacity=".25"/><rect x="125" y="127" width="16" height="8" rx="2" fill="#fce4ec" opacity=".35"/><rect x="145" y="127" width="16" height="8" rx="2" fill="#fce4ec" opacity=".3"/><rect x="165" y="127" width="16" height="8" rx="2" fill="#fce4ec" opacity=".25"/><rect x="135" y="200" width="50" height="10" rx="5" fill="#fce4ec" opacity=".5"/><circle cx="160" cy="185" r="6" fill="#fce4ec" opacity=".7"/></g>
<text x="160" y="288" text-anchor="middle" fill="#fce4ec" font-size="19" font-weight="700" font-family="Fredoka,Outfit,sans-serif">Licorice Break</text>
<text x="160" y="312" text-anchor="middle" fill="#ffcdd2" font-size="12" font-family="Outfit,sans-serif" letter-spacing="1">Breakout</text>
<line x1="80" y1="330" x2="240" y2="330" stroke="#fce4ec" stroke-width=".5" opacity=".1"/>
<text x="160" y="420" text-anchor="middle" fill="#ffcdd2" font-size="12" font-family="Outfit,sans-serif">Licorice Lynx</text>
<text x="160" y="450" text-anchor="middle" fill="#fce4ec" font-size="10" font-family="Outfit,sans-serif" opacity=".35" letter-spacing="2">MOCHI MANGO ARCADE</text>
<circle cx="16" cy="16" r="1.5" fill="#fce4ec" opacity=".1"/><circle cx="304" cy="16" r="1.5" fill="#fce4ec" opacity=".1"/>
<circle cx="16" cy="464" r="1.5" fill="#fce4ec" opacity=".1"/><circle cx="304" cy="464" r="1.5" fill="#fce4ec" opacity=".1"/>
</svg>