<svg xmlns="http://www.w3.org/2000/svg" viewBox="0 0 320 480">
<defs>
<linearGradient id="b" x1="0" y1="0" x2="1" y2="1"><stop offset="0%" stop-color="hsl(210,40%,35%)"/><stop offset="100%" stop-color="hsl(210,40%,25%)"/></linearGradient>
<linearGradient id="g" x1=".5" y1="0" x2=".5" y2="1"><stop offset="0%" stop-color="#fce4ec" stop-opacity=".12"/><stop offset="100%" stop-color="#fce4ec" stop-opacity="0"/></linearGradient>
</defs>
<rect width="320" height="480" rx="16" fill="url(#b)"/>
<rect x="8" y="8" width="304" height="464" rx="12" fill="none" stroke="#fce4ec" stroke-width="1" opacity=".15"/>
<rect x="0" y="0" width="320" height="240" fill="url(#g)"/>
<text x="160" y="48" text-anchor="middle" fill="#fce4ec" font-size="11" font-weight="600" font-family="Outfit,sans-serif" opacity=".45" letter-spacing="4">CANDY GALAXY</text>
<g transform="translate(0,20)"><rect x="120" y="180" width="80" height="8" rx="4" fill="#fce4ec" opacity=".2"/><rect x="128" y="166" width="64" height="8" rx="4" fill="#fce4ec" opacity=".28"/><rect x="136" y="152" width="48" height="8" rx="4" fill="#fce4ec" opacity=".36"/><rect x="144" y="138" width="32" height="8" rx="4" fill="#fce4ec" opacity=".44"/><rect x="152" y="124" width="16" height="8" rx="4" fill="#fce4ec" opacity=".55"/><circle cx="160" cy="113" r="5" fill="#fce4ec" opacity=".6"/></g>
<text x="160" y="288" text-anchor="middle" fill="#fce4ec" font-size="19" font-weight="700" font-family="Fredoka,Outfit,sans-serif">Lollipop Stack</text>
<text x="160" y="312" text-anchor="middle" fill="#ffcdd2" font-size="12" font-family="Outfit,sans-serif" letter-spacing="1">Stacker</text>
<line x1="80" y1="330" x2="240" y2="330" stroke="#fce4ec" stroke-width=".5" opacity=".1"/>
<text x="160" y="420" text-anchor="middle" fill="#ffcdd2" font-size="12" font-family="Outfit,sans-serif">Lolli Hopper</text>
<text x="160" y="450" text-anchor="middle" fill="#fce4ec" font-size="10" font-family="Outfit,sans-serif" opacity=".35" letter-spacing="2">MOCHI MANGO ARCADE</text>
<circle cx="16" cy="16" r="1.5" fill="#fce4ec" opacity=".1"/><circle cx="304" cy="16" r="1.5" fill="#fce4ec" opacity=".1"/>
<circle cx="16" cy="464" r="1.5" fill="#fce4ec" opacity=".1"/><circle cx="304" cy="464" r="1.5" fill="#fce4ec" opacity=".1"/>
</svg>