<svg xmlns="http://www.w3.org/2000/svg" viewBox="0 0 320 480">
<defs>
<linearGradient id="b" x1="0" y1="0" x2="1" y2="1"><stop offset="0%" stop-color="hsl(90,40%,35%)"/><stop offset="100%" stop-color="hsl(90,40%,25%)"/></linearGradient>
<linearGradient id="g" x1=".5" y1="0" x2=".5" y2="1"><stop offset="0%" stop-color="#fce4ec" stop-opacity=".12"/><stop offset="100%" stop-color="#fce4ec" stop-opacity="0"/></linearGradient>
</defs>
<rect width="320" height="480" rx="16" fill="url(#b)"/>
<rect x="8" y="8" width="304" height="464" rx="12" fill="none" stroke="#fce4ec" stroke-width="1" opacity=".15"/>
<rect x="0" y="0" width="320" height="240" fill="url(#g)"/>
<text x="160" y="48" text-anchor="middle" fill="#fce4ec" font-size="11" font-weight="600" font-family="Outfit,sans-serif" opacity=".45" letter-spacing="4">CANDY GALAXY</text>
<g transform="translate(0,20)"><circle cx="160" cy="155" r="8" fill="#fce4ec" opacity=".5"/><rect x="156" y="115" width="8" height="35" rx="3" fill="#fce4ec" opacity=".4"/><polygon points="160,112 154,120 166,120" fill="#fce4ec" opacity=".5"/><circle cx="120" cy="140" r="10" fill="#fce4ec" opacity=".2"/><circle cx="195" cy="130" r="8" fill="#fce4ec" opacity=".18"/><circle cx="185" cy="170" r="6" fill="#fce4ec" opacity=".15"/><circle cx="135" cy="180" r="7" fill="#fce4ec" opacity=".12"/></g>
<text x="160" y="288" text-anchor="middle" fill="#fce4ec" font-size="19" font-weight="700" font-family="Fredoka,Outfit,sans-serif">Nebula Nugget Blast</text>
<text x="160" y="312" text-anchor="middle" fill="#ffcdd2" font-size="12" font-family="Outfit,sans-serif" letter-spacing="1">Shooter</text>
<line x1="80" y1="330" x2="240" y2="330" stroke="#fce4ec" stroke-width=".5" opacity=".1"/>
<text x="160" y="420" text-anchor="middle" fill="#ffcdd2" font-size="12" font-family="Outfit,sans-serif">Nebula Nibbler</text>
<text x="160" y="450" text-anchor="middle" fill="#fce4ec" font-size="10" font-family="Outfit,sans-serif" opacity=".35" letter-spacing="2">MOCHI MANGO ARCADE</text>
<circle cx="16" cy="16" r="1.5" fill="#fce4ec" opacity=".1"/><circle cx="304" cy="16" r="1.5" fill="#fce4ec" opacity=".1"/>
<circle cx="16" cy="464" r="1.5" fill="#fce4ec" opacity=".1"/><circle cx="304" cy="464" r="1.5" fill="#fce4ec" opacity=".1"/>
</svg>