<svg xmlns="http://www.w3.org/2000/svg" width="640" height="400" viewBox="0 0 640 400">
<defs><linearGradient id="bgalchemymerge" x1="0" y1="0" x2="1" y2="1"><stop offset="0" stop-color="#0d1b2a"/><stop offset=".6" stop-color="#1b3a5c"/><stop offset="1" stop-color="#e0f7fa"/></linearGradient><filter id="ds"><feDropShadow dx="0" dy="2" stdDeviation="3" flood-opacity=".6"/></filter></defs>
<rect width="640" height="400" fill="url(#bgalchemymerge)" rx="12"/>
<circle cx="580" cy="350" r="80" fill="#4fc3f7" opacity="0.08"/><circle cx="60" cy="360" r="50" fill="#4fc3f7" opacity="0.08"/><circle cx="320" cy="380" r="60" fill="#4fc3f7" opacity="0.08"/><circle cx="500" cy="50" r="40" fill="#4fc3f7" opacity="0.08"/><circle cx="140" cy="30" r="30" fill="#4fc3f7" opacity="0.08"/><circle cx="640" cy="0" r="90" fill="#4fc3f7" opacity="0.08"/>
<circle cx="341" cy="113" r="2.5" fill="#81d4fa" opacity="0.77"/><circle cx="235" cy="86" r="1.3" fill="#81d4fa" opacity="0.86"/><circle cx="197" cy="122" r="1.2" fill="#81d4fa" opacity="0.31"/><circle cx="465" cy="118" r="2.4" fill="#81d4fa" opacity="0.38"/><circle cx="443" cy="43" r="2.2" fill="#81d4fa" opacity="0.56"/><circle cx="604" cy="51" r="1.8" fill="#81d4fa" opacity="0.53"/><circle cx="96" cy="146" r="2.8" fill="#81d4fa" opacity="0.32"/><circle cx="183" cy="107" r="1.1" fill="#81d4fa" opacity="0.43"/><circle cx="248" cy="139" r="2.2" fill="#81d4fa" opacity="0.35"/><circle cx="403" cy="57" r="1.8" fill="#81d4fa" opacity="0.33"/><circle cx="404" cy="145" r="2.5" fill="#81d4fa" opacity="0.89"/><circle cx="256" cy="122" r="1.7" fill="#81d4fa" opacity="0.66"/><circle cx="421" cy="37" r="2.5" fill="#81d4fa" opacity="0.71"/><circle cx="485" cy="124" r="1.1" fill="#81d4fa" opacity="0.52"/><circle cx="32" cy="91" r="2.2" fill="#81d4fa" opacity="0.55"/>
<rect x="12" y="12" width="100" height="24" rx="12" fill="#01579b" opacity="0.9"/><text x="62" y="28" fill="#fff" font-size="11" font-weight="700" text-anchor="middle" font-family="Arial,sans-serif">MERGE</text>
<rect x="100" y="60" width="440" height="280" rx="8" fill="#0d1b2a" opacity="0.5"/><circle cx="137" cy="94" r="16" fill="#ff5252" opacity="0.8" filter="url(#ds)"/><rect x="189" y="78" width="32" height="32" rx="4" fill="#448aff" opacity="0.8" filter="url(#ds)"/><polygon points="273,76 287,112 259,112" fill="#69f0ae" opacity="0.8" filter="url(#ds)"/><circle cx="341" cy="94" r="16" fill="#ffd740" opacity="0.8" filter="url(#ds)"/><rect x="393" y="78" width="32" height="32" rx="4" fill="#e040fb" opacity="0.8" filter="url(#ds)"/><polygon points="477,76 491,112 463,112" fill="#ff8a80" opacity="0.8" filter="url(#ds)"/><rect x="121" y="122" width="32" height="32" rx="4" fill="#448aff" opacity="0.8" filter="url(#ds)"/><polygon points="205,120 219,156 191,156" fill="#69f0ae" opacity="0.8" filter="url(#ds)"/><circle cx="273" cy="138" r="16" fill="#ffd740" opacity="0.8" filter="url(#ds)"/><rect x="325" y="122" width="32" height="32" rx="4" fill="#e040fb" opacity="0.8" filter="url(#ds)"/><polygon points="409,120 423,156 395,156" fill="#ff8a80" opacity="0.8" filter="url(#ds)"/><circle cx="477" cy="138" r="16" fill="#ff5252" opacity="0.8" filter="url(#ds)"/><polygon points="137,164 151,200 123,200" fill="#69f0ae" opacity="0.8" filter="url(#ds)"/><circle cx="205" cy="182" r="16" fill="#ffd740" opacity="0.8" filter="url(#ds)"/><rect x="257" y="166" width="32" height="32" rx="4" fill="#e040fb" opacity="0.8" filter="url(#ds)"/><polygon points="341,164 355,200 327,200" fill="#ff8a80" opacity="0.8" filter="url(#ds)"/><circle cx="409" cy="182" r="16" fill="#ff5252" opacity="0.8" filter="url(#ds)"/><rect x="461" y="166" width="32" height="32" rx="4" fill="#448aff" opacity="0.8" filter="url(#ds)"/><circle cx="137" cy="226" r="16" fill="#ffd740" opacity="0.8" filter="url(#ds)"/><rect x="189" y="210" width="32" height="32" rx="4" fill="#e040fb" opacity="0.8" filter="url(#ds)"/><polygon points="273,208 287,244 259,244" fill="#ff8a80" opacity="0.8" filter="url(#ds)"/><circle cx="341" cy="226" r="16" fill="#ff5252" opacity="0.8" filter="url(#ds)"/><rect x="393" y="210" width="32" height="32" rx="4" fill="#448aff" opacity="0.8" filter="url(#ds)"/><polygon points="477,208 491,244 463,244" fill="#69f0ae" opacity="0.8" filter="url(#ds)"/><rect x="121" y="254" width="32" height="32" rx="4" fill="#e040fb" opacity="0.8" filter="url(#ds)"/><polygon points="205,252 219,288 191,288" fill="#ff8a80" opacity="0.8" filter="url(#ds)"/><circle cx="273" cy="270" r="16" fill="#ff5252" opacity="0.8" filter="url(#ds)"/><rect x="325" y="254" width="32" height="32" rx="4" fill="#448aff" opacity="0.8" filter="url(#ds)"/><polygon points="409,252 423,288 395,288" fill="#69f0ae" opacity="0.8" filter="url(#ds)"/><circle cx="477" cy="270" r="16" fill="#ffd740" opacity="0.8" filter="url(#ds)"/><polygon points="137,296 151,332 123,332" fill="#ff8a80" opacity="0.8" filter="url(#ds)"/><circle cx="205" cy="314" r="16" fill="#ff5252" opacity="0.8" filter="url(#ds)"/><rect x="257" y="298" width="32" height="32" rx="4" fill="#448aff" opacity="0.8" filter="url(#ds)"/><polygon points="341,296 355,332 327,332" fill="#69f0ae" opacity="0.8" filter="url(#ds)"/><circle cx="409" cy="314" r="16" fill="#ffd740" opacity="0.8" filter="url(#ds)"/><rect x="461" y="298" width="32" height="32" rx="4" fill="#e040fb" opacity="0.8" filter="url(#ds)"/>
<text x="320" y="340" fill="#fff" font-size="22" font-weight="800" text-anchor="middle" font-family="Arial,sans-serif" filter="url(#ds)">Alchemy</text><text x="320" y="366" fill="#fff" font-size="22" font-weight="800" text-anchor="middle" font-family="Arial,sans-serif" filter="url(#ds)">Merge</text>
</svg>