<svg xmlns="http://www.w3.org/2000/svg" width="640" height="400" viewBox="0 0 640 400">
<defs><linearGradient id="bgbamboopop" x1="0" y1="0" x2="1" y2="1"><stop offset="0" stop-color="#1b5e20"/><stop offset=".6" stop-color="#2e7d32"/><stop offset="1" stop-color="#c8e6c9"/></linearGradient><filter id="ds"><feDropShadow dx="0" dy="2" stdDeviation="3" flood-opacity=".6"/></filter></defs>
<rect width="640" height="400" fill="url(#bgbamboopop)" rx="12"/>
<circle cx="580" cy="350" r="80" fill="#66bb6a" opacity="0.08"/><circle cx="60" cy="360" r="50" fill="#66bb6a" opacity="0.08"/><circle cx="320" cy="380" r="60" fill="#66bb6a" opacity="0.08"/><circle cx="500" cy="50" r="40" fill="#66bb6a" opacity="0.08"/><circle cx="140" cy="30" r="30" fill="#66bb6a" opacity="0.08"/><circle cx="640" cy="0" r="90" fill="#66bb6a" opacity="0.08"/>
<circle cx="468" cy="131" r="1.3" fill="#a5d6a7" opacity="0.81"/><circle cx="301" cy="105" r="1.4" fill="#a5d6a7" opacity="0.67"/><circle cx="419" cy="10" r="2.6" fill="#a5d6a7" opacity="0.41"/><circle cx="472" cy="49" r="2.5" fill="#a5d6a7" opacity="0.35"/><circle cx="344" cy="67" r="1.7" fill="#a5d6a7" opacity="0.43"/><circle cx="71" cy="91" r="2.6" fill="#a5d6a7" opacity="0.44"/><circle cx="604" cy="18" r="1.4" fill="#a5d6a7" opacity="0.75"/><circle cx="146" cy="19" r="1.9" fill="#a5d6a7" opacity="0.42"/><circle cx="233" cy="147" r="2.3" fill="#a5d6a7" opacity="0.44"/><circle cx="570" cy="95" r="2.1" fill="#a5d6a7" opacity="0.37"/><circle cx="381" cy="63" r="1.6" fill="#a5d6a7" opacity="0.87"/><circle cx="489" cy="92" r="1.8" fill="#a5d6a7" opacity="0.89"/><circle cx="331" cy="23" r="1.8" fill="#a5d6a7" opacity="0.71"/><circle cx="442" cy="91" r="2.1" fill="#a5d6a7" opacity="0.42"/><circle cx="64" cy="97" r="1.6" fill="#a5d6a7" opacity="0.68"/><circle cx="333" cy="15" r="2.2" fill="#a5d6a7" opacity="0.84"/>
<rect x="12" y="12" width="100" height="24" rx="12" fill="#37474f" opacity="0.9"/><text x="62" y="28" fill="#fff" font-size="11" font-weight="700" text-anchor="middle" font-family="Arial,sans-serif">WHACK</text>
<ellipse cx="150" cy="280" rx="60" ry="30" fill="#1a1a2e" opacity="0.7"/><ellipse cx="320" cy="260" rx="60" ry="30" fill="#1a1a2e" opacity="0.7"/><ellipse cx="490" cy="280" rx="60" ry="30" fill="#1a1a2e" opacity="0.7"/><ellipse cx="235" cy="320" rx="55" ry="27.5" fill="#1a1a2e" opacity="0.7"/><ellipse cx="405" cy="320" rx="55" ry="27.5" fill="#1a1a2e" opacity="0.7"/><circle cx="320" cy="230" r="25" fill="#fff" opacity="0.9" filter="url(#ds)"/><circle cx="312" cy="225" r="6" fill="#1a1a2e"/><circle cx="328" cy="225" r="6" fill="#1a1a2e"/><line x1="290" y1="210" x2="250" y2="190" stroke="#e94560" stroke-width="4" stroke-linecap="round" opacity="0.8"/>
<text x="320" y="340" fill="#fff" font-size="22" font-weight="800" text-anchor="middle" font-family="Arial,sans-serif" filter="url(#ds)">Bamboo</text><text x="320" y="366" fill="#fff" font-size="22" font-weight="800" text-anchor="middle" font-family="Arial,sans-serif" filter="url(#ds)">Pop</text>
</svg>