<svg xmlns="http://www.w3.org/2000/svg" width="640" height="400" viewBox="0 0 640 400">
<defs><linearGradient id="bgbambootower" x1="0" y1="0" x2="1" y2="1"><stop offset="0" stop-color="#1b5e20"/><stop offset=".6" stop-color="#2e7d32"/><stop offset="1" stop-color="#c8e6c9"/></linearGradient><filter id="ds"><feDropShadow dx="0" dy="2" stdDeviation="3" flood-opacity=".6"/></filter></defs>
<rect width="640" height="400" fill="url(#bgbambootower)" rx="12"/>
<circle cx="580" cy="350" r="80" fill="#66bb6a" opacity="0.08"/><circle cx="60" cy="360" r="50" fill="#66bb6a" opacity="0.08"/><circle cx="320" cy="380" r="60" fill="#66bb6a" opacity="0.08"/><circle cx="500" cy="50" r="40" fill="#66bb6a" opacity="0.08"/><circle cx="140" cy="30" r="30" fill="#66bb6a" opacity="0.08"/><circle cx="640" cy="0" r="90" fill="#66bb6a" opacity="0.08"/>
<circle cx="425" cy="115" r="2.1" fill="#a5d6a7" opacity="0.32"/><circle cx="283" cy="144" r="1.0" fill="#a5d6a7" opacity="0.40"/><circle cx="371" cy="77" r="2.9" fill="#a5d6a7" opacity="0.51"/><circle cx="561" cy="142" r="1.3" fill="#a5d6a7" opacity="0.86"/><circle cx="617" cy="147" r="1.8" fill="#a5d6a7" opacity="0.71"/><circle cx="222" cy="19" r="1.6" fill="#a5d6a7" opacity="0.61"/><circle cx="168" cy="70" r="2.3" fill="#a5d6a7" opacity="0.45"/><circle cx="67" cy="13" r="2.5" fill="#a5d6a7" opacity="0.84"/><circle cx="68" cy="141" r="2.7" fill="#a5d6a7" opacity="0.47"/><circle cx="543" cy="75" r="1.9" fill="#a5d6a7" opacity="0.53"/><circle cx="55" cy="93" r="2.7" fill="#a5d6a7" opacity="0.63"/><circle cx="90" cy="41" r="1.0" fill="#a5d6a7" opacity="0.73"/><circle cx="108" cy="130" r="1.1" fill="#a5d6a7" opacity="0.75"/><circle cx="62" cy="134" r="2.9" fill="#a5d6a7" opacity="0.63"/><circle cx="486" cy="40" r="1.2" fill="#a5d6a7" opacity="0.85"/>
<rect x="12" y="12" width="100" height="24" rx="12" fill="#37474f" opacity="0.9"/><text x="62" y="28" fill="#fff" font-size="11" font-weight="700" text-anchor="middle" font-family="Arial,sans-serif">TOWER DEFENSE</text>
<rect x="100" y="60" width="440" height="280" rx="8" fill="#0d1b2a" opacity="0.5"/><rect x="170" y="60" width="300" height="16" rx="4" fill="#4fc3f7" opacity="0.90" filter="url(#ds)"/><rect x="180" y="88" width="280" height="16" rx="4" fill="#ff5252" opacity="0.85" filter="url(#ds)"/><rect x="190" y="116" width="260" height="16" rx="4" fill="#4fc3f7" opacity="0.80" filter="url(#ds)"/><rect x="200" y="144" width="240" height="16" rx="4" fill="#ff5252" opacity="0.75" filter="url(#ds)"/><rect x="210" y="172" width="220" height="16" rx="4" fill="#4fc3f7" opacity="0.70" filter="url(#ds)"/><rect x="220" y="200" width="200" height="16" rx="4" fill="#ff5252" opacity="0.65" filter="url(#ds)"/><rect x="230" y="228" width="180" height="16" rx="4" fill="#4fc3f7" opacity="0.60" filter="url(#ds)"/><rect x="240" y="256" width="160" height="16" rx="4" fill="#ff5252" opacity="0.55" filter="url(#ds)"/><rect x="250" y="284" width="140" height="16" rx="4" fill="#4fc3f7" opacity="0.50" filter="url(#ds)"/><rect x="260" y="312" width="120" height="16" rx="4" fill="#ff5252" opacity="0.45" filter="url(#ds)"/><rect x="270" y="340" width="100" height="16" rx="4" fill="#4fc3f7" opacity="0.40" filter="url(#ds)"/><rect x="280" y="368" width="80" height="16" rx="4" fill="#ff5252" opacity="0.35" filter="url(#ds)"/><circle cx="320" cy="56" r="10" fill="#ffd740" opacity="0.9" filter="url(#ds)"/>
<text x="320" y="340" fill="#fff" font-size="22" font-weight="800" text-anchor="middle" font-family="Arial,sans-serif" filter="url(#ds)">Bamboo</text><text x="320" y="366" fill="#fff" font-size="22" font-weight="800" text-anchor="middle" font-family="Arial,sans-serif" filter="url(#ds)">Tower</text>
</svg>