<svg xmlns="http://www.w3.org/2000/svg" width="640" height="400" viewBox="0 0 640 400">
<defs><linearGradient id="bgbamboosprint" x1="0" y1="0" x2="1" y2="1"><stop offset="0" stop-color="#1b5e20"/><stop offset=".6" stop-color="#2e7d32"/><stop offset="1" stop-color="#c8e6c9"/></linearGradient><filter id="ds"><feDropShadow dx="0" dy="2" stdDeviation="3" flood-opacity=".6"/></filter></defs>
<rect width="640" height="400" fill="url(#bgbamboosprint)" rx="12"/>
<circle cx="580" cy="350" r="80" fill="#66bb6a" opacity="0.08"/><circle cx="60" cy="360" r="50" fill="#66bb6a" opacity="0.08"/><circle cx="320" cy="380" r="60" fill="#66bb6a" opacity="0.08"/><circle cx="500" cy="50" r="40" fill="#66bb6a" opacity="0.08"/><circle cx="140" cy="30" r="30" fill="#66bb6a" opacity="0.08"/><circle cx="640" cy="0" r="90" fill="#66bb6a" opacity="0.08"/>
<circle cx="413" cy="131" r="2.1" fill="#a5d6a7" opacity="0.75"/><circle cx="98" cy="65" r="2.8" fill="#a5d6a7" opacity="0.57"/><circle cx="302" cy="141" r="1.9" fill="#a5d6a7" opacity="0.37"/><circle cx="113" cy="64" r="2.3" fill="#a5d6a7" opacity="0.35"/><circle cx="53" cy="47" r="1.3" fill="#a5d6a7" opacity="0.46"/><circle cx="128" cy="11" r="1.7" fill="#a5d6a7" opacity="0.58"/><circle cx="427" cy="83" r="2.4" fill="#a5d6a7" opacity="0.88"/><circle cx="472" cy="106" r="1.0" fill="#a5d6a7" opacity="0.61"/><circle cx="459" cy="140" r="1.5" fill="#a5d6a7" opacity="0.62"/><circle cx="181" cy="65" r="2.6" fill="#a5d6a7" opacity="0.44"/><circle cx="168" cy="56" r="2.2" fill="#a5d6a7" opacity="0.57"/><circle cx="248" cy="53" r="2.3" fill="#a5d6a7" opacity="0.61"/><circle cx="123" cy="141" r="2.2" fill="#a5d6a7" opacity="0.85"/><circle cx="153" cy="24" r="2.1" fill="#a5d6a7" opacity="0.78"/><circle cx="493" cy="55" r="2.0" fill="#a5d6a7" opacity="0.39"/>
<rect x="12" y="12" width="100" height="24" rx="12" fill="#e65100" opacity="0.9"/><text x="62" y="28" fill="#fff" font-size="11" font-weight="700" text-anchor="middle" font-family="Arial,sans-serif">RUNNER</text>
<rect x="0" y="320" width="640" height="60" fill="#1a1a2e" opacity="0.6"/><line x1="0" y1="320" x2="640" y2="320" stroke="#e94560" stroke-width="2" opacity="0.5"/><rect x="180" y="280" width="20" height="40" rx="3" fill="#e94560" opacity="0.8" filter="url(#ds)"/><rect x="320" y="265" width="18" height="55" rx="3" fill="#f5c518" opacity="0.8" filter="url(#ds)"/><rect x="480" y="290" width="22" height="30" rx="3" fill="#e94560" opacity="0.8" filter="url(#ds)"/><rect x="550" y="275" width="16" height="45" rx="3" fill="#f5c518" opacity="0.8" filter="url(#ds)"/><circle cx="120" cy="295" r="20" fill="#fff" opacity="0.9" filter="url(#ds)"/><circle cx="115" cy="290" r="5" fill="#1a1a2e"/><circle cx="125" cy="290" r="5" fill="#1a1a2e"/><ellipse cx="120" cy="298" rx="4" ry="2" fill="#1a1a2e"/><text x="620" y="40" fill="#fff" font-size="14" text-anchor="end" font-family="Arial" opacity="0.8">HIGH 1337</text>
<text x="320" y="340" fill="#fff" font-size="22" font-weight="800" text-anchor="middle" font-family="Arial,sans-serif" filter="url(#ds)">Bamboo</text><text x="320" y="366" fill="#fff" font-size="22" font-weight="800" text-anchor="middle" font-family="Arial,sans-serif" filter="url(#ds)">Sprint</text>
</svg>