<svg xmlns="http://www.w3.org/2000/svg" width="640" height="400" viewBox="0 0 640 400">
<defs><linearGradient id="bgbamboobreak" x1="0" y1="0" x2="1" y2="1"><stop offset="0" stop-color="#1b5e20"/><stop offset=".6" stop-color="#2e7d32"/><stop offset="1" stop-color="#c8e6c9"/></linearGradient><filter id="ds"><feDropShadow dx="0" dy="2" stdDeviation="3" flood-opacity=".6"/></filter></defs>
<rect width="640" height="400" fill="url(#bgbamboobreak)" rx="12"/>
<circle cx="580" cy="350" r="80" fill="#66bb6a" opacity="0.08"/><circle cx="60" cy="360" r="50" fill="#66bb6a" opacity="0.08"/><circle cx="320" cy="380" r="60" fill="#66bb6a" opacity="0.08"/><circle cx="500" cy="50" r="40" fill="#66bb6a" opacity="0.08"/><circle cx="140" cy="30" r="30" fill="#66bb6a" opacity="0.08"/><circle cx="640" cy="0" r="90" fill="#66bb6a" opacity="0.08"/>
<circle cx="431" cy="119" r="1.8" fill="#a5d6a7" opacity="0.30"/><circle cx="427" cy="30" r="1.5" fill="#a5d6a7" opacity="0.43"/><circle cx="399" cy="54" r="1.2" fill="#a5d6a7" opacity="0.36"/><circle cx="48" cy="24" r="1.0" fill="#a5d6a7" opacity="0.69"/><circle cx="550" cy="104" r="1.9" fill="#a5d6a7" opacity="0.69"/><circle cx="377" cy="25" r="2.5" fill="#a5d6a7" opacity="0.73"/><circle cx="520" cy="27" r="2.5" fill="#a5d6a7" opacity="0.67"/><circle cx="355" cy="107" r="2.4" fill="#a5d6a7" opacity="0.61"/><circle cx="409" cy="37" r="1.6" fill="#a5d6a7" opacity="0.85"/><circle cx="33" cy="58" r="2.7" fill="#a5d6a7" opacity="0.31"/><circle cx="96" cy="143" r="1.1" fill="#a5d6a7" opacity="0.88"/><circle cx="59" cy="151" r="1.0" fill="#a5d6a7" opacity="0.62"/>
<rect x="12" y="12" width="100" height="24" rx="12" fill="#37474f" opacity="0.9"/><text x="62" y="28" fill="#fff" font-size="11" font-weight="700" text-anchor="middle" font-family="Arial,sans-serif">BREAKOUT</text>
<rect x="100" y="60" width="440" height="280" rx="8" fill="#0d1b2a" opacity="0.5"/><rect x="80" y="65" width="44" height="18" rx="3" fill="#ff5252" opacity="0.8"/><rect x="129" y="65" width="44" height="18" rx="3" fill="#ff5252" opacity="0.8"/><rect x="178" y="65" width="44" height="18" rx="3" fill="#ff5252" opacity="0.8"/><rect x="227" y="65" width="44" height="18" rx="3" fill="#ff5252" opacity="0.8"/><rect x="276" y="65" width="44" height="18" rx="3" fill="#ff5252" opacity="0.8"/><rect x="325" y="65" width="44" height="18" rx="3" fill="#ff5252" opacity="0.8"/><rect x="374" y="65" width="44" height="18" rx="3" fill="#ff5252" opacity="0.8"/><rect x="423" y="65" width="44" height="18" rx="3" fill="#ff5252" opacity="0.8"/><rect x="472" y="65" width="44" height="18" rx="3" fill="#ff5252" opacity="0.8"/><rect x="521" y="65" width="44" height="18" rx="3" fill="#ff5252" opacity="0.8"/><rect x="80" y="87" width="44" height="18" rx="3" fill="#ffd740" opacity="0.8"/><rect x="129" y="87" width="44" height="18" rx="3" fill="#ffd740" opacity="0.8"/><rect x="178" y="87" width="44" height="18" rx="3" fill="#ffd740" opacity="0.8"/><rect x="227" y="87" width="44" height="18" rx="3" fill="#ffd740" opacity="0.8"/><rect x="276" y="87" width="44" height="18" rx="3" fill="#ffd740" opacity="0.8"/><rect x="325" y="87" width="44" height="18" rx="3" fill="#ffd740" opacity="0.8"/><rect x="374" y="87" width="44" height="18" rx="3" fill="#ffd740" opacity="0.8"/><rect x="423" y="87" width="44" height="18" rx="3" fill="#ffd740" opacity="0.8"/><rect x="472" y="87" width="44" height="18" rx="3" fill="#ffd740" opacity="0.8"/><rect x="521" y="87" width="44" height="18" rx="3" fill="#ffd740" opacity="0.8"/><rect x="80" y="109" width="44" height="18" rx="3" fill="#448aff" opacity="0.8"/><rect x="129" y="109" width="44" height="18" rx="3" fill="#448aff" opacity="0.8"/><rect x="178" y="109" width="44" height="18" rx="3" fill="#448aff" opacity="0.8"/><rect x="227" y="109" width="44" height="18" rx="3" fill="#448aff" opacity="0.8"/><rect x="276" y="109" width="44" height="18" rx="3" fill="#448aff" opacity="0.8"/><rect x="325" y="109" width="44" height="18" rx="3" fill="#448aff" opacity="0.8"/><rect x="374" y="109" width="44" height="18" rx="3" fill="#448aff" opacity="0.8"/><rect x="423" y="109" width="44" height="18" rx="3" fill="#448aff" opacity="0.8"/><rect x="472" y="109" width="44" height="18" rx="3" fill="#448aff" opacity="0.8"/><rect x="521" y="109" width="44" height="18" rx="3" fill="#448aff" opacity="0.8"/><rect x="270" y="350" width="100" height="12" rx="4" fill="#fff" opacity="0.8"/><circle cx="280" cy="340" r="6" fill="#fff" opacity="0.9" filter="url(#ds)"/>
<text x="320" y="340" fill="#fff" font-size="22" font-weight="800" text-anchor="middle" font-family="Arial,sans-serif" filter="url(#ds)">Bamboo</text><text x="320" y="366" fill="#fff" font-size="22" font-weight="800" text-anchor="middle" font-family="Arial,sans-serif" filter="url(#ds)">Break</text>
</svg>