<svg xmlns="http://www.w3.org/2000/svg" width="640" height="400" viewBox="0 0 640 400">
<defs><linearGradient id="bgbamboomaze" x1="0" y1="0" x2="1" y2="1"><stop offset="0" stop-color="#1b5e20"/><stop offset=".6" stop-color="#2e7d32"/><stop offset="1" stop-color="#c8e6c9"/></linearGradient><filter id="ds"><feDropShadow dx="0" dy="2" stdDeviation="3" flood-opacity=".6"/></filter></defs>
<rect width="640" height="400" fill="url(#bgbamboomaze)" rx="12"/>
<circle cx="580" cy="350" r="80" fill="#66bb6a" opacity="0.08"/><circle cx="60" cy="360" r="50" fill="#66bb6a" opacity="0.08"/><circle cx="320" cy="380" r="60" fill="#66bb6a" opacity="0.08"/><circle cx="500" cy="50" r="40" fill="#66bb6a" opacity="0.08"/><circle cx="140" cy="30" r="30" fill="#66bb6a" opacity="0.08"/><circle cx="640" cy="0" r="90" fill="#66bb6a" opacity="0.08"/>
<circle cx="103" cy="97" r="2.6" fill="#a5d6a7" opacity="0.30"/><circle cx="200" cy="144" r="1.3" fill="#a5d6a7" opacity="0.54"/><circle cx="452" cy="14" r="1.6" fill="#a5d6a7" opacity="0.36"/><circle cx="35" cy="37" r="1.9" fill="#a5d6a7" opacity="0.51"/><circle cx="563" cy="16" r="2.6" fill="#a5d6a7" opacity="0.82"/><circle cx="424" cy="73" r="1.4" fill="#a5d6a7" opacity="0.66"/><circle cx="361" cy="45" r="1.8" fill="#a5d6a7" opacity="0.30"/><circle cx="524" cy="147" r="2.5" fill="#a5d6a7" opacity="0.51"/><circle cx="472" cy="136" r="1.5" fill="#a5d6a7" opacity="0.59"/><circle cx="492" cy="38" r="1.6" fill="#a5d6a7" opacity="0.41"/><circle cx="175" cy="107" r="2.1" fill="#a5d6a7" opacity="0.31"/><circle cx="134" cy="71" r="2.4" fill="#a5d6a7" opacity="0.55"/><circle cx="155" cy="93" r="2.6" fill="#a5d6a7" opacity="0.53"/><circle cx="424" cy="159" r="2.2" fill="#a5d6a7" opacity="0.31"/><circle cx="422" cy="38" r="2.4" fill="#a5d6a7" opacity="0.85"/><circle cx="411" cy="141" r="1.7" fill="#a5d6a7" opacity="0.73"/><circle cx="466" cy="12" r="2.9" fill="#a5d6a7" opacity="0.60"/><circle cx="127" cy="50" r="1.0" fill="#a5d6a7" opacity="0.30"/><circle cx="481" cy="149" r="1.0" fill="#a5d6a7" opacity="0.58"/>
<rect x="12" y="12" width="100" height="24" rx="12" fill="#37474f" opacity="0.9"/><text x="62" y="28" fill="#fff" font-size="11" font-weight="700" text-anchor="middle" font-family="Arial,sans-serif">MAZE</text>
<rect x="100" y="60" width="440" height="280" rx="8" fill="#0d1b2a" opacity="0.5"/><rect x="120" y="50" width="40" height="40" fill="#1b3a5c" opacity="0.7"/><rect x="160" y="50" width="40" height="40" fill="#1b3a5c" opacity="0.7"/><rect x="200" y="50" width="40" height="40" fill="#1b3a5c" opacity="0.7"/><rect x="240" y="50" width="40" height="40" fill="#1b3a5c" opacity="0.7"/><rect x="280" y="50" width="40" height="40" fill="#1b3a5c" opacity="0.7"/><rect x="320" y="50" width="40" height="40" fill="#1b3a5c" opacity="0.7"/><rect x="360" y="50" width="40" height="40" fill="#1b3a5c" opacity="0.7"/><rect x="400" y="50" width="40" height="40" fill="#1b3a5c" opacity="0.7"/><rect x="440" y="50" width="40" height="40" fill="#1b3a5c" opacity="0.7"/><rect x="480" y="50" width="40" height="40" fill="#1b3a5c" opacity="0.7"/><rect x="120" y="90" width="40" height="40" fill="#1b3a5c" opacity="0.7"/><rect x="480" y="90" width="40" height="40" fill="#1b3a5c" opacity="0.7"/><rect x="120" y="130" width="40" height="40" fill="#1b3a5c" opacity="0.7"/><rect x="200" y="130" width="40" height="40" fill="#1b3a5c" opacity="0.7"/><rect x="240" y="130" width="40" height="40" fill="#1b3a5c" opacity="0.7"/><rect x="280" y="130" width="40" height="40" fill="#1b3a5c" opacity="0.7"/><rect x="320" y="130" width="40" height="40" fill="#1b3a5c" opacity="0.7"/><rect x="400" y="130" width="40" height="40" fill="#1b3a5c" opacity="0.7"/><rect x="480" y="130" width="40" height="40" fill="#1b3a5c" opacity="0.7"/><rect x="120" y="170" width="40" height="40" fill="#1b3a5c" opacity="0.7"/><rect x="200" y="170" width="40" height="40" fill="#1b3a5c" opacity="0.7"/><rect x="400" y="170" width="40" height="40" fill="#1b3a5c" opacity="0.7"/><rect x="480" y="170" width="40" height="40" fill="#1b3a5c" opacity="0.7"/><rect x="120" y="210" width="40" height="40" fill="#1b3a5c" opacity="0.7"/><rect x="200" y="210" width="40" height="40" fill="#1b3a5c" opacity="0.7"/><rect x="280" y="210" width="40" height="40" fill="#1b3a5c" opacity="0.7"/><rect x="320" y="210" width="40" height="40" fill="#1b3a5c" opacity="0.7"/><rect x="360" y="210" width="40" height="40" fill="#1b3a5c" opacity="0.7"/><rect x="400" y="210" width="40" height="40" fill="#1b3a5c" opacity="0.7"/><rect x="480" y="210" width="40" height="40" fill="#1b3a5c" opacity="0.7"/><rect x="120" y="250" width="40" height="40" fill="#1b3a5c" opacity="0.7"/><rect x="280" y="250" width="40" height="40" fill="#1b3a5c" opacity="0.7"/><rect x="480" y="250" width="40" height="40" fill="#1b3a5c" opacity="0.7"/><rect x="120" y="290" width="40" height="40" fill="#1b3a5c" opacity="0.7"/><rect x="160" y="290" width="40" height="40" fill="#1b3a5c" opacity="0.7"/><rect x="200" y="290" width="40" height="40" fill="#1b3a5c" opacity="0.7"/><rect x="280" y="290" width="40" height="40" fill="#1b3a5c" opacity="0.7"/><rect x="360" y="290" width="40" height="40" fill="#1b3a5c" opacity="0.7"/><rect x="400" y="290" width="40" height="40" fill="#1b3a5c" opacity="0.7"/><rect x="480" y="290" width="40" height="40" fill="#1b3a5c" opacity="0.7"/><rect x="120" y="330" width="40" height="40" fill="#1b3a5c" opacity="0.7"/><rect x="280" y="330" width="40" height="40" fill="#1b3a5c" opacity="0.7"/><rect x="400" y="330" width="40" height="40" fill="#1b3a5c" opacity="0.7"/><rect x="480" y="330" width="40" height="40" fill="#1b3a5c" opacity="0.7"/><rect x="120" y="370" width="40" height="40" fill="#1b3a5c" opacity="0.7"/><rect x="200" y="370" width="40" height="40" fill="#1b3a5c" opacity="0.7"/><rect x="240" y="370" width="40" height="40" fill="#1b3a5c" opacity="0.7"/><rect x="280" y="370" width="40" height="40" fill="#1b3a5c" opacity="0.7"/><rect x="320" y="370" width="40" height="40" fill="#1b3a5c" opacity="0.7"/><rect x="480" y="370" width="40" height="40" fill="#1b3a5c" opacity="0.7"/><rect x="120" y="410" width="40" height="40" fill="#1b3a5c" opacity="0.7"/><rect x="160" y="410" width="40" height="40" fill="#1b3a5c" opacity="0.7"/><rect x="200" y="410" width="40" height="40" fill="#1b3a5c" opacity="0.7"/><rect x="240" y="410" width="40" height="40" fill="#1b3a5c" opacity="0.7"/><rect x="280" y="410" width="40" height="40" fill="#1b3a5c" opacity="0.7"/><rect x="320" y="410" width="40" height="40" fill="#1b3a5c" opacity="0.7"/><rect x="360" y="410" width="40" height="40" fill="#1b3a5c" opacity="0.7"/><rect x="400" y="410" width="40" height="40" fill="#1b3a5c" opacity="0.7"/><rect x="440" y="410" width="40" height="40" fill="#1b3a5c" opacity="0.7"/><rect x="480" y="410" width="40" height="40" fill="#1b3a5c" opacity="0.7"/><circle cx="140" cy="70" r="8" fill="#4fc3f7" filter="url(#ds)"/><circle cx="460" cy="390" r="8" fill="#ffd740" filter="url(#ds)"/>
<text x="320" y="340" fill="#fff" font-size="22" font-weight="800" text-anchor="middle" font-family="Arial,sans-serif" filter="url(#ds)">Bamboo</text><text x="320" y="366" fill="#fff" font-size="22" font-weight="800" text-anchor="middle" font-family="Arial,sans-serif" filter="url(#ds)">Maze</text>
</svg>