<svg xmlns="http://www.w3.org/2000/svg" width="640" height="400" viewBox="0 0 640 400">
<defs><linearGradient id="bgbeachballblitz" x1="0" y1="0" x2="1" y2="1"><stop offset="0" stop-color="#003300"/><stop offset=".6" stop-color="#006600"/><stop offset="1" stop-color="#ffe082"/></linearGradient><filter id="ds"><feDropShadow dx="0" dy="2" stdDeviation="3" flood-opacity=".6"/></filter></defs>
<rect width="640" height="400" fill="url(#bgbeachballblitz)" rx="12"/>
<circle cx="580" cy="350" r="80" fill="#ffab00" opacity="0.08"/><circle cx="60" cy="360" r="50" fill="#ffab00" opacity="0.08"/><circle cx="320" cy="380" r="60" fill="#ffab00" opacity="0.08"/><circle cx="500" cy="50" r="40" fill="#ffab00" opacity="0.08"/><circle cx="140" cy="30" r="30" fill="#ffab00" opacity="0.08"/><circle cx="640" cy="0" r="90" fill="#ffab00" opacity="0.08"/>
<circle cx="590" cy="12" r="2.3" fill="#ffe082" opacity="0.78"/><circle cx="303" cy="136" r="2.1" fill="#ffe082" opacity="0.84"/><circle cx="459" cy="16" r="1.8" fill="#ffe082" opacity="0.69"/><circle cx="302" cy="155" r="1.5" fill="#ffe082" opacity="0.51"/><circle cx="449" cy="34" r="2.9" fill="#ffe082" opacity="0.78"/><circle cx="337" cy="112" r="1.5" fill="#ffe082" opacity="0.38"/><circle cx="482" cy="20" r="1.8" fill="#ffe082" opacity="0.47"/><circle cx="575" cy="41" r="1.0" fill="#ffe082" opacity="0.77"/><circle cx="310" cy="16" r="2.2" fill="#ffe082" opacity="0.48"/><circle cx="85" cy="58" r="1.7" fill="#ffe082" opacity="0.54"/><circle cx="443" cy="58" r="1.2" fill="#ffe082" opacity="0.68"/><circle cx="525" cy="82" r="2.7" fill="#ffe082" opacity="0.62"/><circle cx="287" cy="90" r="1.8" fill="#ffe082" opacity="0.42"/><circle cx="323" cy="116" r="2.5" fill="#ffe082" opacity="0.69"/>
<rect x="12" y="12" width="100" height="24" rx="12" fill="#1b5e20" opacity="0.9"/><text x="62" y="28" fill="#fff" font-size="11" font-weight="700" text-anchor="middle" font-family="Arial,sans-serif">SPORTS</text>
<rect x="0" y="320" width="640" height="80" fill="#006600" opacity="0.3"/><line x1="0" y1="320" x2="640" y2="320" stroke="#fff" stroke-width="1" opacity="0.3"/><line x1="320" y1="320" x2="320" y2="400" stroke="#fff" stroke-width="1" stroke-dasharray="5,5" opacity="0.3"/><rect x="0" y="180" width="640" height="4" fill="#fff" opacity="0.4"/><polygon points="300,180 340,180 340,200 300,200" fill="none" stroke="#fff" stroke-width="1" opacity="0.3"/><rect x="270" y="176" width="100" height="4" fill="#fff" opacity="0.3"/><rect x="160" y="220" width="12" height="50" rx="4" fill="#ffab00" opacity="0.8"/><ellipse cx="166" cy="218" rx="14" ry="18" fill="#ffab00" opacity="0.8" filter="url(#ds)"/><rect x="460" y="230" width="12" height="50" rx="4" fill="#448aff" opacity="0.8"/><ellipse cx="466" cy="228" rx="14" ry="18" fill="#448aff" opacity="0.8" filter="url(#ds)"/><circle cx="320" cy="200" r="7" fill="#fff" opacity="0.9" filter="url(#ds)"/>
<text x="320" y="340" fill="#fff" font-size="22" font-weight="800" text-anchor="middle" font-family="Arial,sans-serif" filter="url(#ds)">Beach Ball</text><text x="320" y="366" fill="#fff" font-size="22" font-weight="800" text-anchor="middle" font-family="Arial,sans-serif" filter="url(#ds)">Blitz</text>
</svg>