<svg xmlns="http://www.w3.org/2000/svg" width="640" height="400" viewBox="0 0 640 400">
<defs><linearGradient id="bgbiscuitbrigadecheckers" x1="0" y1="0" x2="1" y2="1"><stop offset="0" stop-color="#1a0a2e"/><stop offset=".6" stop-color="#2d1b4e"/><stop offset="1" stop-color="#e8d5b7"/></linearGradient><filter id="ds"><feDropShadow dx="0" dy="2" stdDeviation="3" flood-opacity=".6"/></filter></defs>
<rect width="640" height="400" fill="url(#bgbiscuitbrigadecheckers)" rx="12"/>
<circle cx="580" cy="350" r="80" fill="#b8a07a" opacity="0.08"/><circle cx="60" cy="360" r="50" fill="#b8a07a" opacity="0.08"/><circle cx="320" cy="380" r="60" fill="#b8a07a" opacity="0.08"/><circle cx="500" cy="50" r="40" fill="#b8a07a" opacity="0.08"/><circle cx="140" cy="30" r="30" fill="#b8a07a" opacity="0.08"/><circle cx="640" cy="0" r="90" fill="#b8a07a" opacity="0.08"/>
<circle cx="373" cy="76" r="2.8" fill="#ffd700" opacity="0.67"/><circle cx="173" cy="56" r="1.7" fill="#ffd700" opacity="0.53"/><circle cx="452" cy="111" r="1.1" fill="#ffd700" opacity="0.85"/><circle cx="102" cy="80" r="1.5" fill="#ffd700" opacity="0.55"/><circle cx="598" cy="98" r="1.1" fill="#ffd700" opacity="0.65"/><circle cx="314" cy="117" r="1.7" fill="#ffd700" opacity="0.34"/><circle cx="281" cy="160" r="1.0" fill="#ffd700" opacity="0.49"/><circle cx="402" cy="32" r="2.9" fill="#ffd700" opacity="0.72"/><circle cx="524" cy="91" r="2.9" fill="#ffd700" opacity="0.69"/><circle cx="361" cy="69" r="2.4" fill="#ffd700" opacity="0.77"/><circle cx="506" cy="31" r="2.5" fill="#ffd700" opacity="0.79"/><circle cx="539" cy="34" r="1.5" fill="#ffd700" opacity="0.72"/><circle cx="212" cy="136" r="2.4" fill="#ffd700" opacity="0.40"/>
<rect x="12" y="12" width="100" height="24" rx="12" fill="#4a148c" opacity="0.9"/><text x="62" y="28" fill="#fff" font-size="11" font-weight="700" text-anchor="middle" font-family="Arial,sans-serif">BOARD</text>
<rect x="120" y="70" width="400" height="260" rx="8" fill="#2d1b4e" stroke="#e8d5b7" stroke-width="2" opacity="0.6"/><rect x="140" y="90" width="360" height="220" rx="4" fill="#1a0a2e" stroke="#e8d5b7" stroke-width="1" opacity="0.8"/><rect x="140" y="90" width="45.0" height="27.5" fill="#e8d5b7" opacity="0.15"/><rect x="230" y="90" width="45.0" height="27.5" fill="#e8d5b7" opacity="0.15"/><rect x="320" y="90" width="45.0" height="27.5" fill="#e8d5b7" opacity="0.15"/><rect x="410" y="90" width="45.0" height="27.5" fill="#e8d5b7" opacity="0.15"/><rect x="185" y="118" width="45.0" height="27.5" fill="#e8d5b7" opacity="0.15"/><rect x="275" y="118" width="45.0" height="27.5" fill="#e8d5b7" opacity="0.15"/><rect x="365" y="118" width="45.0" height="27.5" fill="#e8d5b7" opacity="0.15"/><rect x="455" y="118" width="45.0" height="27.5" fill="#e8d5b7" opacity="0.15"/><rect x="140" y="145" width="45.0" height="27.5" fill="#e8d5b7" opacity="0.15"/><rect x="230" y="145" width="45.0" height="27.5" fill="#e8d5b7" opacity="0.15"/><rect x="320" y="145" width="45.0" height="27.5" fill="#e8d5b7" opacity="0.15"/><rect x="410" y="145" width="45.0" height="27.5" fill="#e8d5b7" opacity="0.15"/><rect x="185" y="173" width="45.0" height="27.5" fill="#e8d5b7" opacity="0.15"/><rect x="275" y="173" width="45.0" height="27.5" fill="#e8d5b7" opacity="0.15"/><rect x="365" y="173" width="45.0" height="27.5" fill="#e8d5b7" opacity="0.15"/><rect x="455" y="173" width="45.0" height="27.5" fill="#e8d5b7" opacity="0.15"/><rect x="140" y="200" width="45.0" height="27.5" fill="#e8d5b7" opacity="0.15"/><rect x="230" y="200" width="45.0" height="27.5" fill="#e8d5b7" opacity="0.15"/><rect x="320" y="200" width="45.0" height="27.5" fill="#e8d5b7" opacity="0.15"/><rect x="410" y="200" width="45.0" height="27.5" fill="#e8d5b7" opacity="0.15"/><rect x="185" y="228" width="45.0" height="27.5" fill="#e8d5b7" opacity="0.15"/><rect x="275" y="228" width="45.0" height="27.5" fill="#e8d5b7" opacity="0.15"/><rect x="365" y="228" width="45.0" height="27.5" fill="#e8d5b7" opacity="0.15"/><rect x="455" y="228" width="45.0" height="27.5" fill="#e8d5b7" opacity="0.15"/><rect x="140" y="255" width="45.0" height="27.5" fill="#e8d5b7" opacity="0.15"/><rect x="230" y="255" width="45.0" height="27.5" fill="#e8d5b7" opacity="0.15"/><rect x="320" y="255" width="45.0" height="27.5" fill="#e8d5b7" opacity="0.15"/><rect x="410" y="255" width="45.0" height="27.5" fill="#e8d5b7" opacity="0.15"/><rect x="185" y="283" width="45.0" height="27.5" fill="#e8d5b7" opacity="0.15"/><rect x="275" y="283" width="45.0" height="27.5" fill="#e8d5b7" opacity="0.15"/><rect x="365" y="283" width="45.0" height="27.5" fill="#e8d5b7" opacity="0.15"/><rect x="455" y="283" width="45.0" height="27.5" fill="#e8d5b7" opacity="0.15"/><circle cx="163" cy="104" r="8" fill="#ef5350" opacity="0.8" filter="url(#ds)"/><circle cx="208" cy="104" r="8" fill="#ef5350" opacity="0.8" filter="url(#ds)"/><circle cx="253" cy="159" r="8" fill="#ef5350" opacity="0.8" filter="url(#ds)"/><circle cx="298" cy="159" r="8" fill="#ef5350" opacity="0.8" filter="url(#ds)"/><circle cx="343" cy="214" r="8" fill="#ef5350" opacity="0.8" filter="url(#ds)"/><circle cx="388" cy="214" r="8" fill="#ef5350" opacity="0.8" filter="url(#ds)"/><circle cx="433" cy="269" r="8" fill="#ef5350" opacity="0.8" filter="url(#ds)"/><circle cx="478" cy="269" r="8" fill="#ef5350" opacity="0.8" filter="url(#ds)"/><circle cx="208" cy="241" r="8" fill="#fff" opacity="0.8" filter="url(#ds)"/><circle cx="253" cy="241" r="8" fill="#fff" opacity="0.8" filter="url(#ds)"/><circle cx="298" cy="296" r="8" fill="#fff" opacity="0.8" filter="url(#ds)"/><circle cx="343" cy="296" r="8" fill="#fff" opacity="0.8" filter="url(#ds)"/><circle cx="388" cy="351" r="8" fill="#fff" opacity="0.8" filter="url(#ds)"/><circle cx="433" cy="351" r="8" fill="#fff" opacity="0.8" filter="url(#ds)"/><circle cx="478" cy="406" r="8" fill="#fff" opacity="0.8" filter="url(#ds)"/><circle cx="163" cy="406" r="8" fill="#fff" opacity="0.8" filter="url(#ds)"/>
<text x="320" y="340" fill="#fff" font-size="20" font-weight="800" text-anchor="middle" font-family="Arial,sans-serif" filter="url(#ds)">Biscuit Brigade</text><text x="320" y="364" fill="#fff" font-size="20" font-weight="800" text-anchor="middle" font-family="Arial,sans-serif" filter="url(#ds)">Checkers</text>
</svg>