<svg xmlns="http://www.w3.org/2000/svg" width="640" height="400" viewBox="0 0 640 400">
<defs><linearGradient id="bgbubblegumgalaxy" x1="0" y1="0" x2="1" y2="1"><stop offset="0" stop-color="#1a0033"/><stop offset=".6" stop-color="#4a0072"/><stop offset="1" stop-color="#ff80ab"/></linearGradient><filter id="ds"><feDropShadow dx="0" dy="2" stdDeviation="3" flood-opacity=".6"/></filter></defs>
<rect width="640" height="400" fill="url(#bgbubblegumgalaxy)" rx="12"/>
<circle cx="580" cy="350" r="80" fill="#ff4081" opacity="0.08"/><circle cx="60" cy="360" r="50" fill="#ff4081" opacity="0.08"/><circle cx="320" cy="380" r="60" fill="#ff4081" opacity="0.08"/><circle cx="500" cy="50" r="40" fill="#ff4081" opacity="0.08"/><circle cx="140" cy="30" r="30" fill="#ff4081" opacity="0.08"/><circle cx="640" cy="0" r="90" fill="#ff4081" opacity="0.08"/>
<circle cx="25" cy="102" r="1.8" fill="#f8bbd0" opacity="0.31"/><circle cx="57" cy="31" r="2.5" fill="#f8bbd0" opacity="0.70"/><circle cx="509" cy="115" r="1.1" fill="#f8bbd0" opacity="0.83"/><circle cx="180" cy="41" r="2.2" fill="#f8bbd0" opacity="0.49"/><circle cx="76" cy="70" r="2.9" fill="#f8bbd0" opacity="0.87"/><circle cx="145" cy="126" r="1.7" fill="#f8bbd0" opacity="0.67"/><circle cx="579" cy="69" r="2.3" fill="#f8bbd0" opacity="0.54"/><circle cx="46" cy="68" r="1.6" fill="#f8bbd0" opacity="0.72"/><circle cx="419" cy="58" r="1.6" fill="#f8bbd0" opacity="0.51"/><circle cx="102" cy="12" r="2.4" fill="#f8bbd0" opacity="0.83"/><circle cx="370" cy="142" r="2.5" fill="#f8bbd0" opacity="0.50"/><circle cx="291" cy="64" r="2.3" fill="#f8bbd0" opacity="0.38"/>
<rect x="12" y="12" width="100" height="24" rx="12" fill="#37474f" opacity="0.9"/><text x="62" y="28" fill="#fff" font-size="11" font-weight="700" text-anchor="middle" font-family="Arial,sans-serif">BUBBLE SHOOTER</text>
<rect x="100" y="60" width="440" height="280" rx="8" fill="#0d1b2a" opacity="0.5"/><rect x="50" y="200" width="120" height="40" rx="6" fill="#4fc3f7" opacity="0.8"/><rect x="140" y="190" width="60" height="60" rx="8" fill="#4fc3f7" opacity="0.6"/><circle cx="200" cy="120" r="18" fill="#ff5252" opacity="0.9" filter="url(#ds)"/><circle cx="300" cy="90" r="16" fill="#448aff" opacity="0.9" filter="url(#ds)"/><circle cx="420" cy="130" r="20" fill="#69f0ae" opacity="0.9" filter="url(#ds)"/><circle cx="510" cy="200" r="15" fill="#ffd740" opacity="0.9" filter="url(#ds)"/>
<text x="320" y="340" fill="#fff" font-size="22" font-weight="800" text-anchor="middle" font-family="Arial,sans-serif" filter="url(#ds)">Bubblegum</text><text x="320" y="366" fill="#fff" font-size="22" font-weight="800" text-anchor="middle" font-family="Arial,sans-serif" filter="url(#ds)">Galaxy</text>
</svg>