<svg xmlns="http://www.w3.org/2000/svg" width="640" height="400" viewBox="0 0 640 400">
<defs><linearGradient id="bgcandystarmemory" x1="0" y1="0" x2="1" y2="1"><stop offset="0" stop-color="#1a0033"/><stop offset=".6" stop-color="#4a0072"/><stop offset="1" stop-color="#ff80ab"/></linearGradient><filter id="ds"><feDropShadow dx="0" dy="2" stdDeviation="3" flood-opacity=".6"/></filter></defs>
<rect width="640" height="400" fill="url(#bgcandystarmemory)" rx="12"/>
<circle cx="580" cy="350" r="80" fill="#ff4081" opacity="0.08"/><circle cx="60" cy="360" r="50" fill="#ff4081" opacity="0.08"/><circle cx="320" cy="380" r="60" fill="#ff4081" opacity="0.08"/><circle cx="500" cy="50" r="40" fill="#ff4081" opacity="0.08"/><circle cx="140" cy="30" r="30" fill="#ff4081" opacity="0.08"/><circle cx="640" cy="0" r="90" fill="#ff4081" opacity="0.08"/>
<circle cx="129" cy="92" r="1.3" fill="#f8bbd0" opacity="0.77"/><circle cx="452" cy="95" r="1.9" fill="#f8bbd0" opacity="0.38"/><circle cx="353" cy="70" r="1.6" fill="#f8bbd0" opacity="0.89"/><circle cx="359" cy="39" r="2.2" fill="#f8bbd0" opacity="0.46"/><circle cx="465" cy="149" r="2.6" fill="#f8bbd0" opacity="0.46"/><circle cx="154" cy="103" r="1.5" fill="#f8bbd0" opacity="0.52"/><circle cx="343" cy="46" r="2.3" fill="#f8bbd0" opacity="0.47"/><circle cx="554" cy="113" r="1.1" fill="#f8bbd0" opacity="0.85"/><circle cx="346" cy="61" r="1.2" fill="#f8bbd0" opacity="0.31"/><circle cx="294" cy="43" r="1.1" fill="#f8bbd0" opacity="0.67"/><circle cx="57" cy="141" r="1.4" fill="#f8bbd0" opacity="0.79"/><circle cx="370" cy="24" r="1.2" fill="#f8bbd0" opacity="0.33"/><circle cx="198" cy="50" r="2.9" fill="#f8bbd0" opacity="0.71"/><circle cx="295" cy="32" r="1.6" fill="#f8bbd0" opacity="0.63"/><circle cx="334" cy="92" r="2.8" fill="#f8bbd0" opacity="0.31"/><circle cx="462" cy="140" r="2.5" fill="#f8bbd0" opacity="0.59"/>
<rect x="12" y="12" width="100" height="24" rx="12" fill="#4a148c" opacity="0.9"/><text x="62" y="28" fill="#fff" font-size="11" font-weight="700" text-anchor="middle" font-family="Arial,sans-serif">MEMORY</text>
<rect x="100" y="60" width="440" height="280" rx="8" fill="#0d1b2a" opacity="0.5"/><rect x="130" y="70" width="85" height="55" rx="6" fill="#1b3a5c" stroke="#4fc3f7" stroke-width="1.5" opacity="0.8"/><rect x="225" y="70" width="85" height="55" rx="6" fill="#1b3a5c" stroke="#4fc3f7" stroke-width="1.5" opacity="0.8"/><rect x="320" y="70" width="85" height="55" rx="6" fill="#1b3a5c" stroke="#4fc3f7" stroke-width="1.5" opacity="0.8"/><rect x="415" y="70" width="85" height="55" rx="6" fill="#1b3a5c" stroke="#4fc3f7" stroke-width="1.5" opacity="0.8"/><rect x="130" y="132" width="85" height="55" rx="6" fill="#1b3a5c" stroke="#4fc3f7" stroke-width="1.5" opacity="0.8"/><rect x="225" y="132" width="85" height="55" rx="6" fill="#1b3a5c" stroke="#4fc3f7" stroke-width="1.5" opacity="0.8"/><rect x="320" y="132" width="85" height="55" rx="6" fill="#1b3a5c" stroke="#4fc3f7" stroke-width="1.5" opacity="0.8"/><rect x="415" y="132" width="85" height="55" rx="6" fill="#1b3a5c" stroke="#4fc3f7" stroke-width="1.5" opacity="0.8"/><rect x="130" y="194" width="85" height="55" rx="6" fill="#1b3a5c" stroke="#4fc3f7" stroke-width="1.5" opacity="0.8"/><rect x="225" y="194" width="85" height="55" rx="6" fill="#1b3a5c" stroke="#4fc3f7" stroke-width="1.5" opacity="0.8"/><rect x="320" y="194" width="85" height="55" rx="6" fill="#1b3a5c" stroke="#4fc3f7" stroke-width="1.5" opacity="0.8"/><rect x="415" y="194" width="85" height="55" rx="6" fill="#1b3a5c" stroke="#4fc3f7" stroke-width="1.5" opacity="0.8"/><rect x="130" y="256" width="85" height="55" rx="6" fill="#1b3a5c" stroke="#4fc3f7" stroke-width="1.5" opacity="0.8"/><rect x="225" y="256" width="85" height="55" rx="6" fill="#1b3a5c" stroke="#4fc3f7" stroke-width="1.5" opacity="0.8"/><rect x="320" y="256" width="85" height="55" rx="6" fill="#1b3a5c" stroke="#4fc3f7" stroke-width="1.5" opacity="0.8"/><rect x="415" y="256" width="85" height="55" rx="6" fill="#1b3a5c" stroke="#4fc3f7" stroke-width="1.5" opacity="0.8"/><rect x="130" y="70" width="85" height="55" rx="6" fill="#4fc3f7" opacity="0.6"/><text x="172" y="102" fill="#fff" font-size="20" text-anchor="middle" font-family="Arial">★</text><rect x="225" y="132" width="85" height="55" rx="6" fill="#4fc3f7" opacity="0.6"/><text x="267" y="164" fill="#fff" font-size="20" text-anchor="middle" font-family="Arial">♥</text>
<text x="320" y="340" fill="#fff" font-size="22" font-weight="800" text-anchor="middle" font-family="Arial,sans-serif" filter="url(#ds)">Candy Star</text><text x="320" y="366" fill="#fff" font-size="22" font-weight="800" text-anchor="middle" font-family="Arial,sans-serif" filter="url(#ds)">Memory</text>
</svg>