<svg xmlns="http://www.w3.org/2000/svg" width="640" height="400" viewBox="0 0 640 400">
<defs><linearGradient id="bgcaramelpaddle" x1="0" y1="0" x2="1" y2="1"><stop offset="0" stop-color="#1a0033"/><stop offset=".6" stop-color="#4a0072"/><stop offset="1" stop-color="#ff80ab"/></linearGradient><filter id="ds"><feDropShadow dx="0" dy="2" stdDeviation="3" flood-opacity=".6"/></filter></defs>
<rect width="640" height="400" fill="url(#bgcaramelpaddle)" rx="12"/>
<circle cx="580" cy="350" r="80" fill="#ff4081" opacity="0.08"/><circle cx="60" cy="360" r="50" fill="#ff4081" opacity="0.08"/><circle cx="320" cy="380" r="60" fill="#ff4081" opacity="0.08"/><circle cx="500" cy="50" r="40" fill="#ff4081" opacity="0.08"/><circle cx="140" cy="30" r="30" fill="#ff4081" opacity="0.08"/><circle cx="640" cy="0" r="90" fill="#ff4081" opacity="0.08"/>
<circle cx="535" cy="130" r="2.3" fill="#f8bbd0" opacity="0.35"/><circle cx="277" cy="77" r="2.9" fill="#f8bbd0" opacity="0.63"/><circle cx="82" cy="22" r="2.8" fill="#f8bbd0" opacity="0.83"/><circle cx="536" cy="109" r="2.2" fill="#f8bbd0" opacity="0.44"/><circle cx="178" cy="109" r="2.7" fill="#f8bbd0" opacity="0.67"/><circle cx="296" cy="121" r="3.0" fill="#f8bbd0" opacity="0.61"/><circle cx="593" cy="65" r="2.5" fill="#f8bbd0" opacity="0.81"/><circle cx="226" cy="50" r="2.3" fill="#f8bbd0" opacity="0.67"/><circle cx="418" cy="158" r="2.2" fill="#f8bbd0" opacity="0.89"/><circle cx="147" cy="158" r="1.3" fill="#f8bbd0" opacity="0.51"/><circle cx="412" cy="120" r="2.6" fill="#f8bbd0" opacity="0.63"/><circle cx="376" cy="131" r="2.5" fill="#f8bbd0" opacity="0.39"/><circle cx="432" cy="71" r="1.5" fill="#f8bbd0" opacity="0.56"/><circle cx="106" cy="87" r="2.2" fill="#f8bbd0" opacity="0.63"/><circle cx="100" cy="139" r="2.8" fill="#f8bbd0" opacity="0.32"/><circle cx="295" cy="101" r="2.6" fill="#f8bbd0" opacity="0.58"/>
<rect x="12" y="12" width="100" height="24" rx="12" fill="#37474f" opacity="0.9"/><text x="62" y="28" fill="#fff" font-size="11" font-weight="700" text-anchor="middle" font-family="Arial,sans-serif">PONG</text>
<line x1="320" y1="80" x2="320" y2="320" stroke="#fff" stroke-width="2" stroke-dasharray="8,8" opacity="0.3"/><rect x="20" y="160" width="10" height="60" rx="4" fill="#fff" opacity="0.8" filter="url(#ds)"/><rect x="610" y="180" width="10" height="60" rx="4" fill="#fff" opacity="0.8" filter="url(#ds)"/><circle cx="320" cy="200" r="8" fill="#fff" opacity="0.9" filter="url(#ds)"/><text x="160" y="60" fill="#fff" font-size="28" text-anchor="middle" font-family="Arial" opacity="0.4">3</text><text x="480" y="60" fill="#fff" font-size="28" text-anchor="middle" font-family="Arial" opacity="0.4">2</text>
<text x="320" y="340" fill="#fff" font-size="22" font-weight="800" text-anchor="middle" font-family="Arial,sans-serif" filter="url(#ds)">Caramel</text><text x="320" y="366" fill="#fff" font-size="22" font-weight="800" text-anchor="middle" font-family="Arial,sans-serif" filter="url(#ds)">Paddle</text>
</svg>