<svg xmlns="http://www.w3.org/2000/svg" width="640" height="400" viewBox="0 0 640 400">
<defs><linearGradient id="bgcloudclimb" x1="0" y1="0" x2="1" y2="1"><stop offset="0" stop-color="#0d1b2a"/><stop offset=".6" stop-color="#1b3a5c"/><stop offset="1" stop-color="#e0f7fa"/></linearGradient><filter id="ds"><feDropShadow dx="0" dy="2" stdDeviation="3" flood-opacity=".6"/></filter></defs>
<rect width="640" height="400" fill="url(#bgcloudclimb)" rx="12"/>
<circle cx="580" cy="350" r="80" fill="#4fc3f7" opacity="0.08"/><circle cx="60" cy="360" r="50" fill="#4fc3f7" opacity="0.08"/><circle cx="320" cy="380" r="60" fill="#4fc3f7" opacity="0.08"/><circle cx="500" cy="50" r="40" fill="#4fc3f7" opacity="0.08"/><circle cx="140" cy="30" r="30" fill="#4fc3f7" opacity="0.08"/><circle cx="640" cy="0" r="90" fill="#4fc3f7" opacity="0.08"/>
<circle cx="376" cy="109" r="2.7" fill="#81d4fa" opacity="0.53"/><circle cx="74" cy="70" r="2.3" fill="#81d4fa" opacity="0.35"/><circle cx="131" cy="52" r="2.3" fill="#81d4fa" opacity="0.74"/><circle cx="329" cy="36" r="2.0" fill="#81d4fa" opacity="0.88"/><circle cx="22" cy="112" r="2.5" fill="#81d4fa" opacity="0.48"/><circle cx="335" cy="35" r="1.2" fill="#81d4fa" opacity="0.50"/><circle cx="249" cy="31" r="1.2" fill="#81d4fa" opacity="0.32"/><circle cx="233" cy="145" r="1.1" fill="#81d4fa" opacity="0.39"/><circle cx="89" cy="73" r="1.7" fill="#81d4fa" opacity="0.50"/><circle cx="574" cy="127" r="1.6" fill="#81d4fa" opacity="0.87"/><circle cx="339" cy="131" r="1.8" fill="#81d4fa" opacity="0.83"/><circle cx="351" cy="90" r="1.6" fill="#81d4fa" opacity="0.75"/><circle cx="321" cy="88" r="2.8" fill="#81d4fa" opacity="0.35"/><circle cx="75" cy="66" r="1.9" fill="#81d4fa" opacity="0.49"/><circle cx="535" cy="25" r="1.9" fill="#81d4fa" opacity="0.80"/><circle cx="324" cy="38" r="2.0" fill="#81d4fa" opacity="0.67"/><circle cx="45" cy="160" r="1.2" fill="#81d4fa" opacity="0.37"/>
<rect x="12" y="12" width="100" height="24" rx="12" fill="#37474f" opacity="0.9"/><text x="62" y="28" fill="#fff" font-size="11" font-weight="700" text-anchor="middle" font-family="Arial,sans-serif">CLIMBER</text>
<rect x="100" y="60" width="440" height="280" rx="8" fill="#0d1b2a" opacity="0.5"/><rect x="365" y="50" width="85" height="12" rx="4" fill="#448aff" opacity="0.7" filter="url(#ds)"/><rect x="246" y="92" width="91" height="12" rx="4" fill="#69f0ae" opacity="0.7" filter="url(#ds)"/><rect x="118" y="134" width="74" height="12" rx="4" fill="#448aff" opacity="0.7" filter="url(#ds)"/><rect x="188" y="176" width="78" height="12" rx="4" fill="#69f0ae" opacity="0.7" filter="url(#ds)"/><rect x="479" y="218" width="94" height="12" rx="4" fill="#448aff" opacity="0.7" filter="url(#ds)"/><rect x="371" y="260" width="74" height="12" rx="4" fill="#69f0ae" opacity="0.7" filter="url(#ds)"/><rect x="423" y="302" width="66" height="12" rx="4" fill="#448aff" opacity="0.7" filter="url(#ds)"/><rect x="138" y="344" width="96" height="12" rx="4" fill="#69f0ae" opacity="0.7" filter="url(#ds)"/><circle cx="320" cy="320" r="15" fill="#ff5252" opacity="0.9" filter="url(#ds)"/>
<text x="320" y="340" fill="#fff" font-size="22" font-weight="800" text-anchor="middle" font-family="Arial,sans-serif" filter="url(#ds)">Cloud</text><text x="320" y="366" fill="#fff" font-size="22" font-weight="800" text-anchor="middle" font-family="Arial,sans-serif" filter="url(#ds)">Climb</text>
</svg>