<svg xmlns="http://www.w3.org/2000/svg" width="640" height="400" viewBox="0 0 640 400">
<defs><linearGradient id="bgcoconutcannonade" x1="0" y1="0" x2="1" y2="1"><stop offset="0" stop-color="#003300"/><stop offset=".6" stop-color="#006600"/><stop offset="1" stop-color="#ffe082"/></linearGradient><filter id="ds"><feDropShadow dx="0" dy="2" stdDeviation="3" flood-opacity=".6"/></filter></defs>
<rect width="640" height="400" fill="url(#bgcoconutcannonade)" rx="12"/>
<circle cx="580" cy="350" r="80" fill="#ffab00" opacity="0.08"/><circle cx="60" cy="360" r="50" fill="#ffab00" opacity="0.08"/><circle cx="320" cy="380" r="60" fill="#ffab00" opacity="0.08"/><circle cx="500" cy="50" r="40" fill="#ffab00" opacity="0.08"/><circle cx="140" cy="30" r="30" fill="#ffab00" opacity="0.08"/><circle cx="640" cy="0" r="90" fill="#ffab00" opacity="0.08"/>
<circle cx="559" cy="72" r="1.0" fill="#ffe082" opacity="0.51"/><circle cx="240" cy="139" r="2.7" fill="#ffe082" opacity="0.87"/><circle cx="482" cy="148" r="2.1" fill="#ffe082" opacity="0.40"/><circle cx="582" cy="100" r="1.5" fill="#ffe082" opacity="0.63"/><circle cx="505" cy="21" r="2.6" fill="#ffe082" opacity="0.51"/><circle cx="513" cy="31" r="3.0" fill="#ffe082" opacity="0.65"/><circle cx="341" cy="137" r="2.2" fill="#ffe082" opacity="0.57"/><circle cx="323" cy="83" r="1.5" fill="#ffe082" opacity="0.59"/><circle cx="499" cy="41" r="3.0" fill="#ffe082" opacity="0.61"/><circle cx="284" cy="102" r="2.9" fill="#ffe082" opacity="0.79"/><circle cx="296" cy="115" r="2.4" fill="#ffe082" opacity="0.66"/><circle cx="303" cy="12" r="2.3" fill="#ffe082" opacity="0.53"/>
<rect x="12" y="12" width="100" height="24" rx="12" fill="#37474f" opacity="0.9"/><text x="62" y="28" fill="#fff" font-size="11" font-weight="700" text-anchor="middle" font-family="Arial,sans-serif">ARCHERY</text>
<circle cx="480" cy="180" r="60" fill="none" stroke="#e94560" stroke-width="3" opacity="0.5"/><circle cx="480" cy="180" r="40" fill="none" stroke="#fff" stroke-width="2" opacity="0.5"/><circle cx="480" cy="180" r="20" fill="none" stroke="#e94560" stroke-width="2" opacity="0.5"/><circle cx="480" cy="180" r="8" fill="#ef5350" opacity="0.8"/><line x1="100" y1="200" x2="468" y2="185" stroke="#ffab00" stroke-width="3" filter="url(#ds)"/><polygon points="468,185 480,180 468,175" fill="#ef5350"/><path d="M 100,200 Q 80,160 100,120" fill="none" stroke="#ffab00" stroke-width="3" opacity="0.8"/><line x1="100" y1="200" x2="100" y2="120" stroke="#ffab00" stroke-width="1.5" opacity="0.5"/>
<text x="320" y="340" fill="#fff" font-size="22" font-weight="800" text-anchor="middle" font-family="Arial,sans-serif" filter="url(#ds)">Coconut</text><text x="320" y="366" fill="#fff" font-size="22" font-weight="800" text-anchor="middle" font-family="Arial,sans-serif" filter="url(#ds)">Cannonade</text>
</svg>