<svg xmlns="http://www.w3.org/2000/svg" width="640" height="400" viewBox="0 0 640 400">
<defs><linearGradient id="bgcometcandyflap" x1="0" y1="0" x2="1" y2="1"><stop offset="0" stop-color="#1a0033"/><stop offset=".6" stop-color="#4a0072"/><stop offset="1" stop-color="#ff80ab"/></linearGradient><filter id="ds"><feDropShadow dx="0" dy="2" stdDeviation="3" flood-opacity=".6"/></filter></defs>
<rect width="640" height="400" fill="url(#bgcometcandyflap)" rx="12"/>
<circle cx="580" cy="350" r="80" fill="#ff4081" opacity="0.08"/><circle cx="60" cy="360" r="50" fill="#ff4081" opacity="0.08"/><circle cx="320" cy="380" r="60" fill="#ff4081" opacity="0.08"/><circle cx="500" cy="50" r="40" fill="#ff4081" opacity="0.08"/><circle cx="140" cy="30" r="30" fill="#ff4081" opacity="0.08"/><circle cx="640" cy="0" r="90" fill="#ff4081" opacity="0.08"/>
<circle cx="328" cy="125" r="2.8" fill="#f8bbd0" opacity="0.71"/><circle cx="126" cy="148" r="2.2" fill="#f8bbd0" opacity="0.60"/><circle cx="482" cy="27" r="2.4" fill="#f8bbd0" opacity="0.78"/><circle cx="363" cy="158" r="1.7" fill="#f8bbd0" opacity="0.33"/><circle cx="426" cy="61" r="2.7" fill="#f8bbd0" opacity="0.60"/><circle cx="280" cy="107" r="2.0" fill="#f8bbd0" opacity="0.48"/><circle cx="219" cy="116" r="1.3" fill="#f8bbd0" opacity="0.87"/><circle cx="29" cy="125" r="2.4" fill="#f8bbd0" opacity="0.83"/><circle cx="570" cy="20" r="2.0" fill="#f8bbd0" opacity="0.76"/><circle cx="32" cy="107" r="1.1" fill="#f8bbd0" opacity="0.65"/><circle cx="395" cy="25" r="2.5" fill="#f8bbd0" opacity="0.69"/><circle cx="177" cy="12" r="1.2" fill="#f8bbd0" opacity="0.32"/><circle cx="297" cy="126" r="1.8" fill="#f8bbd0" opacity="0.81"/><circle cx="178" cy="135" r="1.9" fill="#f8bbd0" opacity="0.39"/><circle cx="605" cy="103" r="1.3" fill="#f8bbd0" opacity="0.36"/><circle cx="410" cy="62" r="2.4" fill="#f8bbd0" opacity="0.89"/><circle cx="75" cy="69" r="2.0" fill="#f8bbd0" opacity="0.37"/><circle cx="271" cy="82" r="1.2" fill="#f8bbd0" opacity="0.86"/>
<rect x="12" y="12" width="100" height="24" rx="12" fill="#37474f" opacity="0.9"/><text x="62" y="28" fill="#fff" font-size="11" font-weight="700" text-anchor="middle" font-family="Arial,sans-serif">FLAPPY</text>
<rect x="180" y="60" width="50" height="140" rx="4" fill="#2e7d32" opacity="0.8"/><rect x="175" y="60" width="60" height="16" rx="4" fill="#388e3c" opacity="0.8"/><rect x="180" y="260" width="50" height="140" rx="4" fill="#2e7d32" opacity="0.8"/><rect x="175" y="384" width="60" height="16" rx="4" fill="#388e3c" opacity="0.8"/><rect x="400" y="40" width="50" height="100" rx="4" fill="#2e7d32" opacity="0.8"/><rect x="395" y="40" width="60" height="16" rx="4" fill="#388e3c" opacity="0.8"/><rect x="400" y="200" width="50" height="200" rx="4" fill="#2e7d32" opacity="0.8"/><rect x="395" y="384" width="60" height="16" rx="4" fill="#388e3c" opacity="0.8"/><circle cx="150" cy="190" r="18" fill="#ffd740" opacity="0.9" filter="url(#ds)"/><circle cx="145" cy="185" r="4" fill="#1a1a2e"/><polygon points="168,190 180,186 168,194" fill="#ffab00"/>
<text x="320" y="340" fill="#fff" font-size="20" font-weight="800" text-anchor="middle" font-family="Arial,sans-serif" filter="url(#ds)">Comet Candy</text><text x="320" y="364" fill="#fff" font-size="20" font-weight="800" text-anchor="middle" font-family="Arial,sans-serif" filter="url(#ds)">Flap</text>
</svg>