<svg xmlns="http://www.w3.org/2000/svg" width="640" height="400" viewBox="0 0 640 400">
<defs><linearGradient id="bgcoralrodreel" x1="0" y1="0" x2="1" y2="1"><stop offset="0" stop-color="#003300"/><stop offset=".6" stop-color="#006600"/><stop offset="1" stop-color="#ffe082"/></linearGradient><filter id="ds"><feDropShadow dx="0" dy="2" stdDeviation="3" flood-opacity=".6"/></filter></defs>
<rect width="640" height="400" fill="url(#bgcoralrodreel)" rx="12"/>
<circle cx="580" cy="350" r="80" fill="#ffab00" opacity="0.08"/><circle cx="60" cy="360" r="50" fill="#ffab00" opacity="0.08"/><circle cx="320" cy="380" r="60" fill="#ffab00" opacity="0.08"/><circle cx="500" cy="50" r="40" fill="#ffab00" opacity="0.08"/><circle cx="140" cy="30" r="30" fill="#ffab00" opacity="0.08"/><circle cx="640" cy="0" r="90" fill="#ffab00" opacity="0.08"/>
<circle cx="401" cy="148" r="2.0" fill="#ffe082" opacity="0.70"/><circle cx="461" cy="109" r="1.9" fill="#ffe082" opacity="0.87"/><circle cx="86" cy="25" r="2.9" fill="#ffe082" opacity="0.75"/><circle cx="502" cy="120" r="1.4" fill="#ffe082" opacity="0.47"/><circle cx="35" cy="136" r="1.8" fill="#ffe082" opacity="0.75"/><circle cx="42" cy="39" r="2.6" fill="#ffe082" opacity="0.52"/><circle cx="387" cy="89" r="1.9" fill="#ffe082" opacity="0.83"/><circle cx="182" cy="138" r="1.4" fill="#ffe082" opacity="0.85"/><circle cx="464" cy="132" r="2.5" fill="#ffe082" opacity="0.52"/><circle cx="466" cy="26" r="2.6" fill="#ffe082" opacity="0.54"/><circle cx="485" cy="89" r="2.1" fill="#ffe082" opacity="0.31"/><circle cx="365" cy="51" r="1.8" fill="#ffe082" opacity="0.82"/><circle cx="247" cy="99" r="1.4" fill="#ffe082" opacity="0.77"/><circle cx="273" cy="14" r="2.4" fill="#ffe082" opacity="0.83"/>
<rect x="12" y="12" width="100" height="24" rx="12" fill="#1b5e20" opacity="0.9"/><text x="62" y="28" fill="#fff" font-size="11" font-weight="700" text-anchor="middle" font-family="Arial,sans-serif">FISHING</text>
<rect x="0" y="280" width="640" height="120" fill="#006600" opacity="0.4"/><rect x="0" y="280" width="640" height="3" fill="#ffe082" opacity="0.6"/><ellipse cx="200" cy="340" rx="30" ry="12" fill="#ffab00" opacity="0.8" filter="url(#ds)"/><polygon points="170,340 150,328 150,352" fill="#ffab00" opacity="0.8"/><ellipse cx="400" cy="360" rx="25" ry="10" fill="#ff5252" opacity="0.7" filter="url(#ds)"/><polygon points="425,360 445,348 445,372" fill="#ff5252" opacity="0.7"/><ellipse cx="500" cy="320" rx="20" ry="8" fill="#448aff" opacity="0.6" filter="url(#ds)"/><polygon points="480,320 460,312 460,328" fill="#448aff" opacity="0.6"/><circle cx="300" cy="260" r="5" fill="#fff" opacity="0.9" filter="url(#ds)"/><line x1="300" y1="260" x2="300" y2="280" stroke="#fff" stroke-width="1" opacity="0.6"/><ellipse cx="300" cy="282" rx="20" ry="4" fill="none" stroke="#ffe082" stroke-width="1" opacity="0.4"/><ellipse cx="300" cy="282" rx="35" ry="7" fill="none" stroke="#ffe082" stroke-width="1" opacity="0.2"/>
<text x="320" y="340" fill="#fff" font-size="22" font-weight="800" text-anchor="middle" font-family="Arial,sans-serif" filter="url(#ds)">Coral Rod</text><text x="320" y="366" fill="#fff" font-size="22" font-weight="800" text-anchor="middle" font-family="Arial,sans-serif" filter="url(#ds)">&amp; Reel</text>
</svg>