<svg xmlns="http://www.w3.org/2000/svg" width="640" height="400" viewBox="0 0 640 400">
<defs><linearGradient id="bgcottoncloudserve" x1="0" y1="0" x2="1" y2="1"><stop offset="0" stop-color="#1a0033"/><stop offset=".6" stop-color="#4a0072"/><stop offset="1" stop-color="#ff80ab"/></linearGradient><filter id="ds"><feDropShadow dx="0" dy="2" stdDeviation="3" flood-opacity=".6"/></filter></defs>
<rect width="640" height="400" fill="url(#bgcottoncloudserve)" rx="12"/>
<circle cx="580" cy="350" r="80" fill="#ff4081" opacity="0.08"/><circle cx="60" cy="360" r="50" fill="#ff4081" opacity="0.08"/><circle cx="320" cy="380" r="60" fill="#ff4081" opacity="0.08"/><circle cx="500" cy="50" r="40" fill="#ff4081" opacity="0.08"/><circle cx="140" cy="30" r="30" fill="#ff4081" opacity="0.08"/><circle cx="640" cy="0" r="90" fill="#ff4081" opacity="0.08"/>
<circle cx="462" cy="92" r="2.6" fill="#f8bbd0" opacity="0.34"/><circle cx="282" cy="74" r="2.6" fill="#f8bbd0" opacity="0.71"/><circle cx="159" cy="48" r="2.5" fill="#f8bbd0" opacity="0.81"/><circle cx="186" cy="151" r="1.6" fill="#f8bbd0" opacity="0.66"/><circle cx="220" cy="46" r="1.0" fill="#f8bbd0" opacity="0.66"/><circle cx="49" cy="127" r="2.4" fill="#f8bbd0" opacity="0.62"/><circle cx="299" cy="107" r="2.7" fill="#f8bbd0" opacity="0.73"/><circle cx="387" cy="38" r="2.4" fill="#f8bbd0" opacity="0.38"/><circle cx="47" cy="26" r="2.6" fill="#f8bbd0" opacity="0.33"/><circle cx="555" cy="14" r="2.1" fill="#f8bbd0" opacity="0.40"/><circle cx="444" cy="41" r="2.4" fill="#f8bbd0" opacity="0.47"/><circle cx="584" cy="34" r="2.5" fill="#f8bbd0" opacity="0.50"/><circle cx="36" cy="23" r="2.5" fill="#f8bbd0" opacity="0.77"/><circle cx="300" cy="19" r="2.5" fill="#f8bbd0" opacity="0.81"/><circle cx="85" cy="78" r="1.1" fill="#f8bbd0" opacity="0.49"/><circle cx="126" cy="103" r="1.5" fill="#f8bbd0" opacity="0.68"/><circle cx="585" cy="101" r="2.4" fill="#f8bbd0" opacity="0.50"/>
<rect x="12" y="12" width="100" height="24" rx="12" fill="#37474f" opacity="0.9"/><text x="62" y="28" fill="#fff" font-size="11" font-weight="700" text-anchor="middle" font-family="Arial,sans-serif">SERVE</text>
<rect x="0" y="320" width="640" height="80" fill="#006600" opacity="0.3"/><line x1="0" y1="320" x2="640" y2="320" stroke="#fff" stroke-width="1" opacity="0.3"/><line x1="320" y1="320" x2="320" y2="400" stroke="#fff" stroke-width="1" stroke-dasharray="5,5" opacity="0.3"/><rect x="0" y="180" width="640" height="4" fill="#fff" opacity="0.4"/><polygon points="300,180 340,180 340,200 300,200" fill="none" stroke="#fff" stroke-width="1" opacity="0.3"/><rect x="270" y="176" width="100" height="4" fill="#fff" opacity="0.3"/><rect x="160" y="220" width="12" height="50" rx="4" fill="#ffab00" opacity="0.8"/><ellipse cx="166" cy="218" rx="14" ry="18" fill="#ffab00" opacity="0.8" filter="url(#ds)"/><rect x="460" y="230" width="12" height="50" rx="4" fill="#448aff" opacity="0.8"/><ellipse cx="466" cy="228" rx="14" ry="18" fill="#448aff" opacity="0.8" filter="url(#ds)"/><circle cx="320" cy="200" r="7" fill="#fff" opacity="0.9" filter="url(#ds)"/>
<text x="320" y="340" fill="#fff" font-size="20" font-weight="800" text-anchor="middle" font-family="Arial,sans-serif" filter="url(#ds)">Cotton Cloud</text><text x="320" y="364" fill="#fff" font-size="20" font-weight="800" text-anchor="middle" font-family="Arial,sans-serif" filter="url(#ds)">Serve</text>
</svg>