<svg xmlns="http://www.w3.org/2000/svg" width="640" height="400" viewBox="0 0 640 400">
<defs><linearGradient id="bgcrabpotclatter" x1="0" y1="0" x2="1" y2="1"><stop offset="0" stop-color="#003300"/><stop offset=".6" stop-color="#006600"/><stop offset="1" stop-color="#ffe082"/></linearGradient><filter id="ds"><feDropShadow dx="0" dy="2" stdDeviation="3" flood-opacity=".6"/></filter></defs>
<rect width="640" height="400" fill="url(#bgcrabpotclatter)" rx="12"/>
<circle cx="580" cy="350" r="80" fill="#ffab00" opacity="0.08"/><circle cx="60" cy="360" r="50" fill="#ffab00" opacity="0.08"/><circle cx="320" cy="380" r="60" fill="#ffab00" opacity="0.08"/><circle cx="500" cy="50" r="40" fill="#ffab00" opacity="0.08"/><circle cx="140" cy="30" r="30" fill="#ffab00" opacity="0.08"/><circle cx="640" cy="0" r="90" fill="#ffab00" opacity="0.08"/>
<circle cx="194" cy="145" r="2.5" fill="#ffe082" opacity="0.50"/><circle cx="100" cy="105" r="1.4" fill="#ffe082" opacity="0.45"/><circle cx="275" cy="62" r="2.1" fill="#ffe082" opacity="0.32"/><circle cx="104" cy="71" r="2.1" fill="#ffe082" opacity="0.32"/><circle cx="290" cy="67" r="3.0" fill="#ffe082" opacity="0.43"/><circle cx="578" cy="40" r="1.9" fill="#ffe082" opacity="0.39"/><circle cx="485" cy="148" r="2.8" fill="#ffe082" opacity="0.73"/><circle cx="455" cy="47" r="2.5" fill="#ffe082" opacity="0.65"/><circle cx="107" cy="97" r="1.4" fill="#ffe082" opacity="0.67"/><circle cx="90" cy="102" r="2.1" fill="#ffe082" opacity="0.37"/><circle cx="311" cy="97" r="1.9" fill="#ffe082" opacity="0.45"/><circle cx="343" cy="113" r="2.0" fill="#ffe082" opacity="0.87"/><circle cx="221" cy="157" r="2.3" fill="#ffe082" opacity="0.42"/><circle cx="598" cy="16" r="1.8" fill="#ffe082" opacity="0.78"/><circle cx="506" cy="52" r="1.8" fill="#ffe082" opacity="0.86"/>
<rect x="12" y="12" width="100" height="24" rx="12" fill="#37474f" opacity="0.9"/><text x="62" y="28" fill="#fff" font-size="11" font-weight="700" text-anchor="middle" font-family="Arial,sans-serif">WHACK</text>
<ellipse cx="150" cy="280" rx="60" ry="30" fill="#1a1a2e" opacity="0.7"/><ellipse cx="320" cy="260" rx="60" ry="30" fill="#1a1a2e" opacity="0.7"/><ellipse cx="490" cy="280" rx="60" ry="30" fill="#1a1a2e" opacity="0.7"/><ellipse cx="235" cy="320" rx="55" ry="27.5" fill="#1a1a2e" opacity="0.7"/><ellipse cx="405" cy="320" rx="55" ry="27.5" fill="#1a1a2e" opacity="0.7"/><circle cx="320" cy="230" r="25" fill="#fff" opacity="0.9" filter="url(#ds)"/><circle cx="312" cy="225" r="6" fill="#1a1a2e"/><circle cx="328" cy="225" r="6" fill="#1a1a2e"/><line x1="290" y1="210" x2="250" y2="190" stroke="#e94560" stroke-width="4" stroke-linecap="round" opacity="0.8"/>
<text x="320" y="340" fill="#fff" font-size="22" font-weight="800" text-anchor="middle" font-family="Arial,sans-serif" filter="url(#ds)">Crab Pot</text><text x="320" y="366" fill="#fff" font-size="22" font-weight="800" text-anchor="middle" font-family="Arial,sans-serif" filter="url(#ds)">Clatter</text>
</svg>