<svg xmlns="http://www.w3.org/2000/svg" width="640" height="400" viewBox="0 0 640 400">
<defs><linearGradient id="bgequilibrium" x1="0" y1="0" x2="1" y2="1"><stop offset="0" stop-color="#0d1b2a"/><stop offset=".6" stop-color="#1b3a5c"/><stop offset="1" stop-color="#e0f7fa"/></linearGradient><filter id="ds"><feDropShadow dx="0" dy="2" stdDeviation="3" flood-opacity=".6"/></filter></defs>
<rect width="640" height="400" fill="url(#bgequilibrium)" rx="12"/>
<circle cx="580" cy="350" r="80" fill="#4fc3f7" opacity="0.08"/><circle cx="60" cy="360" r="50" fill="#4fc3f7" opacity="0.08"/><circle cx="320" cy="380" r="60" fill="#4fc3f7" opacity="0.08"/><circle cx="500" cy="50" r="40" fill="#4fc3f7" opacity="0.08"/><circle cx="140" cy="30" r="30" fill="#4fc3f7" opacity="0.08"/><circle cx="640" cy="0" r="90" fill="#4fc3f7" opacity="0.08"/>
<circle cx="250" cy="44" r="1.1" fill="#81d4fa" opacity="0.46"/><circle cx="610" cy="108" r="1.4" fill="#81d4fa" opacity="0.68"/><circle cx="302" cy="56" r="3.0" fill="#81d4fa" opacity="0.53"/><circle cx="68" cy="41" r="1.3" fill="#81d4fa" opacity="0.50"/><circle cx="180" cy="105" r="1.9" fill="#81d4fa" opacity="0.73"/><circle cx="381" cy="56" r="2.6" fill="#81d4fa" opacity="0.83"/><circle cx="326" cy="152" r="2.6" fill="#81d4fa" opacity="0.34"/><circle cx="171" cy="23" r="2.8" fill="#81d4fa" opacity="0.90"/><circle cx="137" cy="134" r="2.0" fill="#81d4fa" opacity="0.63"/><circle cx="241" cy="11" r="2.9" fill="#81d4fa" opacity="0.69"/><circle cx="21" cy="138" r="2.2" fill="#81d4fa" opacity="0.43"/><circle cx="260" cy="27" r="2.1" fill="#81d4fa" opacity="0.37"/><circle cx="470" cy="70" r="1.4" fill="#81d4fa" opacity="0.49"/><circle cx="402" cy="144" r="1.7" fill="#81d4fa" opacity="0.86"/><circle cx="522" cy="53" r="2.3" fill="#81d4fa" opacity="0.78"/><circle cx="105" cy="41" r="2.4" fill="#81d4fa" opacity="0.85"/><circle cx="394" cy="78" r="2.0" fill="#81d4fa" opacity="0.45"/><circle cx="204" cy="153" r="2.7" fill="#81d4fa" opacity="0.53"/><circle cx="556" cy="23" r="1.1" fill="#81d4fa" opacity="0.52"/>
<rect x="12" y="12" width="100" height="24" rx="12" fill="#37474f" opacity="0.9"/><text x="62" y="28" fill="#fff" font-size="11" font-weight="700" text-anchor="middle" font-family="Arial,sans-serif">STACKER</text>
<rect x="100" y="60" width="440" height="280" rx="8" fill="#0d1b2a" opacity="0.5"/><rect x="240" y="50" width="160" height="22" rx="3" fill="#448aff" opacity="0.90" filter="url(#ds)"/><rect x="265" y="80" width="150" height="22" rx="3" fill="#e040fb" opacity="0.86" filter="url(#ds)"/><rect x="250" y="110" width="140" height="22" rx="3" fill="#448aff" opacity="0.82" filter="url(#ds)"/><rect x="275" y="140" width="130" height="22" rx="3" fill="#e040fb" opacity="0.78" filter="url(#ds)"/><rect x="260" y="170" width="120" height="22" rx="3" fill="#448aff" opacity="0.74" filter="url(#ds)"/><rect x="285" y="200" width="110" height="22" rx="3" fill="#e040fb" opacity="0.70" filter="url(#ds)"/><rect x="270" y="230" width="100" height="22" rx="3" fill="#448aff" opacity="0.66" filter="url(#ds)"/><rect x="295" y="260" width="90" height="22" rx="3" fill="#e040fb" opacity="0.62" filter="url(#ds)"/><rect x="280" y="290" width="80" height="22" rx="3" fill="#448aff" opacity="0.58" filter="url(#ds)"/><rect x="305" y="320" width="70" height="22" rx="3" fill="#e040fb" opacity="0.54" filter="url(#ds)"/>
<text x="320" y="360" fill="#fff" font-size="20" font-weight="800" text-anchor="middle" font-family="Arial,sans-serif" filter="url(#ds)">Equilibrium</text>
</svg>