<svg xmlns="http://www.w3.org/2000/svg" width="640" height="400" viewBox="0 0 640 400">
<defs><linearGradient id="bggummygalaxydash" x1="0" y1="0" x2="1" y2="1"><stop offset="0" stop-color="#1a0033"/><stop offset=".6" stop-color="#4a0072"/><stop offset="1" stop-color="#ff80ab"/></linearGradient><filter id="ds"><feDropShadow dx="0" dy="2" stdDeviation="3" flood-opacity=".6"/></filter></defs>
<rect width="640" height="400" fill="url(#bggummygalaxydash)" rx="12"/>
<circle cx="580" cy="350" r="80" fill="#ff4081" opacity="0.08"/><circle cx="60" cy="360" r="50" fill="#ff4081" opacity="0.08"/><circle cx="320" cy="380" r="60" fill="#ff4081" opacity="0.08"/><circle cx="500" cy="50" r="40" fill="#ff4081" opacity="0.08"/><circle cx="140" cy="30" r="30" fill="#ff4081" opacity="0.08"/><circle cx="640" cy="0" r="90" fill="#ff4081" opacity="0.08"/>
<circle cx="595" cy="133" r="1.0" fill="#f8bbd0" opacity="0.30"/><circle cx="395" cy="21" r="1.6" fill="#f8bbd0" opacity="0.64"/><circle cx="406" cy="47" r="2.4" fill="#f8bbd0" opacity="0.51"/><circle cx="292" cy="88" r="2.4" fill="#f8bbd0" opacity="0.46"/><circle cx="261" cy="149" r="1.1" fill="#f8bbd0" opacity="0.87"/><circle cx="408" cy="127" r="1.5" fill="#f8bbd0" opacity="0.38"/><circle cx="117" cy="135" r="1.2" fill="#f8bbd0" opacity="0.42"/><circle cx="569" cy="73" r="1.8" fill="#f8bbd0" opacity="0.68"/><circle cx="22" cy="100" r="2.8" fill="#f8bbd0" opacity="0.71"/><circle cx="81" cy="14" r="1.3" fill="#f8bbd0" opacity="0.77"/><circle cx="606" cy="19" r="2.4" fill="#f8bbd0" opacity="0.87"/><circle cx="391" cy="99" r="2.5" fill="#f8bbd0" opacity="0.51"/><circle cx="294" cy="29" r="2.3" fill="#f8bbd0" opacity="0.89"/><circle cx="234" cy="12" r="1.1" fill="#f8bbd0" opacity="0.36"/><circle cx="201" cy="140" r="1.0" fill="#f8bbd0" opacity="0.84"/><circle cx="48" cy="57" r="2.3" fill="#f8bbd0" opacity="0.60"/><circle cx="584" cy="30" r="1.4" fill="#f8bbd0" opacity="0.67"/><circle cx="159" cy="104" r="2.3" fill="#f8bbd0" opacity="0.55"/>
<rect x="12" y="12" width="100" height="24" rx="12" fill="#e65100" opacity="0.9"/><text x="62" y="28" fill="#fff" font-size="11" font-weight="700" text-anchor="middle" font-family="Arial,sans-serif">RUNNER</text>
<rect x="0" y="320" width="640" height="60" fill="#1a1a2e" opacity="0.6"/><line x1="0" y1="320" x2="640" y2="320" stroke="#e94560" stroke-width="2" opacity="0.5"/><rect x="180" y="280" width="20" height="40" rx="3" fill="#e94560" opacity="0.8" filter="url(#ds)"/><rect x="320" y="265" width="18" height="55" rx="3" fill="#f5c518" opacity="0.8" filter="url(#ds)"/><rect x="480" y="290" width="22" height="30" rx="3" fill="#e94560" opacity="0.8" filter="url(#ds)"/><rect x="550" y="275" width="16" height="45" rx="3" fill="#f5c518" opacity="0.8" filter="url(#ds)"/><circle cx="120" cy="295" r="20" fill="#fff" opacity="0.9" filter="url(#ds)"/><circle cx="115" cy="290" r="5" fill="#1a1a2e"/><circle cx="125" cy="290" r="5" fill="#1a1a2e"/><ellipse cx="120" cy="298" rx="4" ry="2" fill="#1a1a2e"/><text x="620" y="40" fill="#fff" font-size="14" text-anchor="end" font-family="Arial" opacity="0.8">HIGH 1337</text>
<text x="320" y="340" fill="#fff" font-size="20" font-weight="800" text-anchor="middle" font-family="Arial,sans-serif" filter="url(#ds)">Gummy Galaxy</text><text x="320" y="364" fill="#fff" font-size="20" font-weight="800" text-anchor="middle" font-family="Arial,sans-serif" filter="url(#ds)">Dash</text>
</svg>