<svg xmlns="http://www.w3.org/2000/svg" width="640" height="400" viewBox="0 0 640 400">
<defs><linearGradient id="bglabyrinthoflight" x1="0" y1="0" x2="1" y2="1"><stop offset="0" stop-color="#0d1b2a"/><stop offset=".6" stop-color="#1b3a5c"/><stop offset="1" stop-color="#e0f7fa"/></linearGradient><filter id="ds"><feDropShadow dx="0" dy="2" stdDeviation="3" flood-opacity=".6"/></filter></defs>
<rect width="640" height="400" fill="url(#bglabyrinthoflight)" rx="12"/>
<circle cx="580" cy="350" r="80" fill="#4fc3f7" opacity="0.08"/><circle cx="60" cy="360" r="50" fill="#4fc3f7" opacity="0.08"/><circle cx="320" cy="380" r="60" fill="#4fc3f7" opacity="0.08"/><circle cx="500" cy="50" r="40" fill="#4fc3f7" opacity="0.08"/><circle cx="140" cy="30" r="30" fill="#4fc3f7" opacity="0.08"/><circle cx="640" cy="0" r="90" fill="#4fc3f7" opacity="0.08"/>
<circle cx="383" cy="148" r="1.1" fill="#81d4fa" opacity="0.68"/><circle cx="489" cy="153" r="1.8" fill="#81d4fa" opacity="0.56"/><circle cx="160" cy="124" r="1.8" fill="#81d4fa" opacity="0.31"/><circle cx="562" cy="41" r="1.7" fill="#81d4fa" opacity="0.36"/><circle cx="519" cy="138" r="2.7" fill="#81d4fa" opacity="0.75"/><circle cx="617" cy="38" r="1.2" fill="#81d4fa" opacity="0.84"/><circle cx="423" cy="85" r="2.4" fill="#81d4fa" opacity="0.39"/><circle cx="24" cy="66" r="2.2" fill="#81d4fa" opacity="0.54"/><circle cx="470" cy="45" r="1.2" fill="#81d4fa" opacity="0.87"/><circle cx="419" cy="123" r="3.0" fill="#81d4fa" opacity="0.34"/><circle cx="253" cy="29" r="1.3" fill="#81d4fa" opacity="0.65"/><circle cx="67" cy="26" r="2.8" fill="#81d4fa" opacity="0.84"/><circle cx="377" cy="160" r="2.4" fill="#81d4fa" opacity="0.31"/><circle cx="164" cy="126" r="2.5" fill="#81d4fa" opacity="0.63"/>
<rect x="12" y="12" width="100" height="24" rx="12" fill="#37474f" opacity="0.9"/><text x="62" y="28" fill="#fff" font-size="11" font-weight="700" text-anchor="middle" font-family="Arial,sans-serif">MAZE</text>
<rect x="100" y="60" width="440" height="280" rx="8" fill="#0d1b2a" opacity="0.5"/><rect x="120" y="50" width="40" height="40" fill="#1b3a5c" opacity="0.7"/><rect x="160" y="50" width="40" height="40" fill="#1b3a5c" opacity="0.7"/><rect x="200" y="50" width="40" height="40" fill="#1b3a5c" opacity="0.7"/><rect x="240" y="50" width="40" height="40" fill="#1b3a5c" opacity="0.7"/><rect x="280" y="50" width="40" height="40" fill="#1b3a5c" opacity="0.7"/><rect x="320" y="50" width="40" height="40" fill="#1b3a5c" opacity="0.7"/><rect x="360" y="50" width="40" height="40" fill="#1b3a5c" opacity="0.7"/><rect x="400" y="50" width="40" height="40" fill="#1b3a5c" opacity="0.7"/><rect x="440" y="50" width="40" height="40" fill="#1b3a5c" opacity="0.7"/><rect x="480" y="50" width="40" height="40" fill="#1b3a5c" opacity="0.7"/><rect x="120" y="90" width="40" height="40" fill="#1b3a5c" opacity="0.7"/><rect x="480" y="90" width="40" height="40" fill="#1b3a5c" opacity="0.7"/><rect x="120" y="130" width="40" height="40" fill="#1b3a5c" opacity="0.7"/><rect x="200" y="130" width="40" height="40" fill="#1b3a5c" opacity="0.7"/><rect x="240" y="130" width="40" height="40" fill="#1b3a5c" opacity="0.7"/><rect x="280" y="130" width="40" height="40" fill="#1b3a5c" opacity="0.7"/><rect x="320" y="130" width="40" height="40" fill="#1b3a5c" opacity="0.7"/><rect x="400" y="130" width="40" height="40" fill="#1b3a5c" opacity="0.7"/><rect x="480" y="130" width="40" height="40" fill="#1b3a5c" opacity="0.7"/><rect x="120" y="170" width="40" height="40" fill="#1b3a5c" opacity="0.7"/><rect x="200" y="170" width="40" height="40" fill="#1b3a5c" opacity="0.7"/><rect x="400" y="170" width="40" height="40" fill="#1b3a5c" opacity="0.7"/><rect x="480" y="170" width="40" height="40" fill="#1b3a5c" opacity="0.7"/><rect x="120" y="210" width="40" height="40" fill="#1b3a5c" opacity="0.7"/><rect x="200" y="210" width="40" height="40" fill="#1b3a5c" opacity="0.7"/><rect x="280" y="210" width="40" height="40" fill="#1b3a5c" opacity="0.7"/><rect x="320" y="210" width="40" height="40" fill="#1b3a5c" opacity="0.7"/><rect x="360" y="210" width="40" height="40" fill="#1b3a5c" opacity="0.7"/><rect x="400" y="210" width="40" height="40" fill="#1b3a5c" opacity="0.7"/><rect x="480" y="210" width="40" height="40" fill="#1b3a5c" opacity="0.7"/><rect x="120" y="250" width="40" height="40" fill="#1b3a5c" opacity="0.7"/><rect x="280" y="250" width="40" height="40" fill="#1b3a5c" opacity="0.7"/><rect x="480" y="250" width="40" height="40" fill="#1b3a5c" opacity="0.7"/><rect x="120" y="290" width="40" height="40" fill="#1b3a5c" opacity="0.7"/><rect x="160" y="290" width="40" height="40" fill="#1b3a5c" opacity="0.7"/><rect x="200" y="290" width="40" height="40" fill="#1b3a5c" opacity="0.7"/><rect x="280" y="290" width="40" height="40" fill="#1b3a5c" opacity="0.7"/><rect x="360" y="290" width="40" height="40" fill="#1b3a5c" opacity="0.7"/><rect x="400" y="290" width="40" height="40" fill="#1b3a5c" opacity="0.7"/><rect x="480" y="290" width="40" height="40" fill="#1b3a5c" opacity="0.7"/><rect x="120" y="330" width="40" height="40" fill="#1b3a5c" opacity="0.7"/><rect x="280" y="330" width="40" height="40" fill="#1b3a5c" opacity="0.7"/><rect x="400" y="330" width="40" height="40" fill="#1b3a5c" opacity="0.7"/><rect x="480" y="330" width="40" height="40" fill="#1b3a5c" opacity="0.7"/><rect x="120" y="370" width="40" height="40" fill="#1b3a5c" opacity="0.7"/><rect x="200" y="370" width="40" height="40" fill="#1b3a5c" opacity="0.7"/><rect x="240" y="370" width="40" height="40" fill="#1b3a5c" opacity="0.7"/><rect x="280" y="370" width="40" height="40" fill="#1b3a5c" opacity="0.7"/><rect x="320" y="370" width="40" height="40" fill="#1b3a5c" opacity="0.7"/><rect x="480" y="370" width="40" height="40" fill="#1b3a5c" opacity="0.7"/><rect x="120" y="410" width="40" height="40" fill="#1b3a5c" opacity="0.7"/><rect x="160" y="410" width="40" height="40" fill="#1b3a5c" opacity="0.7"/><rect x="200" y="410" width="40" height="40" fill="#1b3a5c" opacity="0.7"/><rect x="240" y="410" width="40" height="40" fill="#1b3a5c" opacity="0.7"/><rect x="280" y="410" width="40" height="40" fill="#1b3a5c" opacity="0.7"/><rect x="320" y="410" width="40" height="40" fill="#1b3a5c" opacity="0.7"/><rect x="360" y="410" width="40" height="40" fill="#1b3a5c" opacity="0.7"/><rect x="400" y="410" width="40" height="40" fill="#1b3a5c" opacity="0.7"/><rect x="440" y="410" width="40" height="40" fill="#1b3a5c" opacity="0.7"/><rect x="480" y="410" width="40" height="40" fill="#1b3a5c" opacity="0.7"/><circle cx="140" cy="70" r="8" fill="#4fc3f7" filter="url(#ds)"/><circle cx="460" cy="390" r="8" fill="#ffd740" filter="url(#ds)"/>
<text x="320" y="340" fill="#fff" font-size="20" font-weight="800" text-anchor="middle" font-family="Arial,sans-serif" filter="url(#ds)">Labyrinth of</text><text x="320" y="364" fill="#fff" font-size="20" font-weight="800" text-anchor="middle" font-family="Arial,sans-serif" filter="url(#ds)">Light</text>
</svg>