<svg xmlns="http://www.w3.org/2000/svg" width="640" height="400" viewBox="0 0 640 400">
<defs><linearGradient id="bglicoricebreak" x1="0" y1="0" x2="1" y2="1"><stop offset="0" stop-color="#1a0033"/><stop offset=".6" stop-color="#4a0072"/><stop offset="1" stop-color="#ff80ab"/></linearGradient><filter id="ds"><feDropShadow dx="0" dy="2" stdDeviation="3" flood-opacity=".6"/></filter></defs>
<rect width="640" height="400" fill="url(#bglicoricebreak)" rx="12"/>
<circle cx="580" cy="350" r="80" fill="#ff4081" opacity="0.08"/><circle cx="60" cy="360" r="50" fill="#ff4081" opacity="0.08"/><circle cx="320" cy="380" r="60" fill="#ff4081" opacity="0.08"/><circle cx="500" cy="50" r="40" fill="#ff4081" opacity="0.08"/><circle cx="140" cy="30" r="30" fill="#ff4081" opacity="0.08"/><circle cx="640" cy="0" r="90" fill="#ff4081" opacity="0.08"/>
<circle cx="229" cy="105" r="1.8" fill="#f8bbd0" opacity="0.89"/><circle cx="338" cy="42" r="2.3" fill="#f8bbd0" opacity="0.31"/><circle cx="342" cy="51" r="1.1" fill="#f8bbd0" opacity="0.86"/><circle cx="117" cy="101" r="1.8" fill="#f8bbd0" opacity="0.86"/><circle cx="606" cy="90" r="2.8" fill="#f8bbd0" opacity="0.86"/><circle cx="607" cy="119" r="1.2" fill="#f8bbd0" opacity="0.53"/><circle cx="424" cy="26" r="1.8" fill="#f8bbd0" opacity="0.55"/><circle cx="450" cy="63" r="1.8" fill="#f8bbd0" opacity="0.69"/><circle cx="373" cy="30" r="2.4" fill="#f8bbd0" opacity="0.70"/><circle cx="169" cy="147" r="2.8" fill="#f8bbd0" opacity="0.51"/><circle cx="576" cy="108" r="1.4" fill="#f8bbd0" opacity="0.66"/><circle cx="197" cy="155" r="2.4" fill="#f8bbd0" opacity="0.59"/><circle cx="350" cy="47" r="1.6" fill="#f8bbd0" opacity="0.34"/><circle cx="599" cy="97" r="2.3" fill="#f8bbd0" opacity="0.57"/><circle cx="510" cy="83" r="1.1" fill="#f8bbd0" opacity="0.69"/><circle cx="417" cy="13" r="3.0" fill="#f8bbd0" opacity="0.73"/><circle cx="77" cy="109" r="1.7" fill="#f8bbd0" opacity="0.41"/><circle cx="58" cy="79" r="2.9" fill="#f8bbd0" opacity="0.33"/>
<rect x="12" y="12" width="100" height="24" rx="12" fill="#37474f" opacity="0.9"/><text x="62" y="28" fill="#fff" font-size="11" font-weight="700" text-anchor="middle" font-family="Arial,sans-serif">BREAKOUT</text>
<rect x="100" y="60" width="440" height="280" rx="8" fill="#0d1b2a" opacity="0.5"/><rect x="80" y="65" width="44" height="18" rx="3" fill="#ff5252" opacity="0.8"/><rect x="129" y="65" width="44" height="18" rx="3" fill="#ff5252" opacity="0.8"/><rect x="178" y="65" width="44" height="18" rx="3" fill="#ff5252" opacity="0.8"/><rect x="227" y="65" width="44" height="18" rx="3" fill="#ff5252" opacity="0.8"/><rect x="276" y="65" width="44" height="18" rx="3" fill="#ff5252" opacity="0.8"/><rect x="325" y="65" width="44" height="18" rx="3" fill="#ff5252" opacity="0.8"/><rect x="374" y="65" width="44" height="18" rx="3" fill="#ff5252" opacity="0.8"/><rect x="423" y="65" width="44" height="18" rx="3" fill="#ff5252" opacity="0.8"/><rect x="472" y="65" width="44" height="18" rx="3" fill="#ff5252" opacity="0.8"/><rect x="521" y="65" width="44" height="18" rx="3" fill="#ff5252" opacity="0.8"/><rect x="80" y="87" width="44" height="18" rx="3" fill="#ffd740" opacity="0.8"/><rect x="129" y="87" width="44" height="18" rx="3" fill="#ffd740" opacity="0.8"/><rect x="178" y="87" width="44" height="18" rx="3" fill="#ffd740" opacity="0.8"/><rect x="227" y="87" width="44" height="18" rx="3" fill="#ffd740" opacity="0.8"/><rect x="276" y="87" width="44" height="18" rx="3" fill="#ffd740" opacity="0.8"/><rect x="325" y="87" width="44" height="18" rx="3" fill="#ffd740" opacity="0.8"/><rect x="374" y="87" width="44" height="18" rx="3" fill="#ffd740" opacity="0.8"/><rect x="423" y="87" width="44" height="18" rx="3" fill="#ffd740" opacity="0.8"/><rect x="472" y="87" width="44" height="18" rx="3" fill="#ffd740" opacity="0.8"/><rect x="521" y="87" width="44" height="18" rx="3" fill="#ffd740" opacity="0.8"/><rect x="80" y="109" width="44" height="18" rx="3" fill="#448aff" opacity="0.8"/><rect x="129" y="109" width="44" height="18" rx="3" fill="#448aff" opacity="0.8"/><rect x="178" y="109" width="44" height="18" rx="3" fill="#448aff" opacity="0.8"/><rect x="227" y="109" width="44" height="18" rx="3" fill="#448aff" opacity="0.8"/><rect x="276" y="109" width="44" height="18" rx="3" fill="#448aff" opacity="0.8"/><rect x="325" y="109" width="44" height="18" rx="3" fill="#448aff" opacity="0.8"/><rect x="374" y="109" width="44" height="18" rx="3" fill="#448aff" opacity="0.8"/><rect x="423" y="109" width="44" height="18" rx="3" fill="#448aff" opacity="0.8"/><rect x="472" y="109" width="44" height="18" rx="3" fill="#448aff" opacity="0.8"/><rect x="521" y="109" width="44" height="18" rx="3" fill="#448aff" opacity="0.8"/><rect x="270" y="350" width="100" height="12" rx="4" fill="#fff" opacity="0.8"/><circle cx="280" cy="340" r="6" fill="#fff" opacity="0.9" filter="url(#ds)"/>
<text x="320" y="340" fill="#fff" font-size="22" font-weight="800" text-anchor="middle" font-family="Arial,sans-serif" filter="url(#ds)">Licorice</text><text x="320" y="366" fill="#fff" font-size="22" font-weight="800" text-anchor="middle" font-family="Arial,sans-serif" filter="url(#ds)">Break</text>
</svg>