<svg xmlns="http://www.w3.org/2000/svg" width="640" height="400" viewBox="0 0 640 400">
<defs><linearGradient id="bglollipopstack" x1="0" y1="0" x2="1" y2="1"><stop offset="0" stop-color="#1a0033"/><stop offset=".6" stop-color="#4a0072"/><stop offset="1" stop-color="#ff80ab"/></linearGradient><filter id="ds"><feDropShadow dx="0" dy="2" stdDeviation="3" flood-opacity=".6"/></filter></defs>
<rect width="640" height="400" fill="url(#bglollipopstack)" rx="12"/>
<circle cx="580" cy="350" r="80" fill="#ff4081" opacity="0.08"/><circle cx="60" cy="360" r="50" fill="#ff4081" opacity="0.08"/><circle cx="320" cy="380" r="60" fill="#ff4081" opacity="0.08"/><circle cx="500" cy="50" r="40" fill="#ff4081" opacity="0.08"/><circle cx="140" cy="30" r="30" fill="#ff4081" opacity="0.08"/><circle cx="640" cy="0" r="90" fill="#ff4081" opacity="0.08"/>
<circle cx="251" cy="159" r="1.4" fill="#f8bbd0" opacity="0.64"/><circle cx="259" cy="86" r="1.2" fill="#f8bbd0" opacity="0.44"/><circle cx="370" cy="47" r="2.7" fill="#f8bbd0" opacity="0.79"/><circle cx="526" cy="145" r="1.8" fill="#f8bbd0" opacity="0.73"/><circle cx="423" cy="52" r="1.9" fill="#f8bbd0" opacity="0.75"/><circle cx="185" cy="58" r="2.2" fill="#f8bbd0" opacity="0.68"/><circle cx="535" cy="143" r="1.4" fill="#f8bbd0" opacity="0.73"/><circle cx="209" cy="134" r="1.2" fill="#f8bbd0" opacity="0.40"/><circle cx="352" cy="113" r="1.8" fill="#f8bbd0" opacity="0.49"/><circle cx="462" cy="16" r="1.0" fill="#f8bbd0" opacity="0.42"/><circle cx="273" cy="98" r="1.0" fill="#f8bbd0" opacity="0.44"/><circle cx="415" cy="26" r="1.5" fill="#f8bbd0" opacity="0.46"/><circle cx="316" cy="10" r="2.2" fill="#f8bbd0" opacity="0.34"/>
<rect x="12" y="12" width="100" height="24" rx="12" fill="#37474f" opacity="0.9"/><text x="62" y="28" fill="#fff" font-size="11" font-weight="700" text-anchor="middle" font-family="Arial,sans-serif">STACKER</text>
<rect x="100" y="60" width="440" height="280" rx="8" fill="#0d1b2a" opacity="0.5"/><rect x="240" y="50" width="160" height="22" rx="3" fill="#448aff" opacity="0.90" filter="url(#ds)"/><rect x="265" y="80" width="150" height="22" rx="3" fill="#e040fb" opacity="0.86" filter="url(#ds)"/><rect x="250" y="110" width="140" height="22" rx="3" fill="#448aff" opacity="0.82" filter="url(#ds)"/><rect x="275" y="140" width="130" height="22" rx="3" fill="#e040fb" opacity="0.78" filter="url(#ds)"/><rect x="260" y="170" width="120" height="22" rx="3" fill="#448aff" opacity="0.74" filter="url(#ds)"/><rect x="285" y="200" width="110" height="22" rx="3" fill="#e040fb" opacity="0.70" filter="url(#ds)"/><rect x="270" y="230" width="100" height="22" rx="3" fill="#448aff" opacity="0.66" filter="url(#ds)"/><rect x="295" y="260" width="90" height="22" rx="3" fill="#e040fb" opacity="0.62" filter="url(#ds)"/><rect x="280" y="290" width="80" height="22" rx="3" fill="#448aff" opacity="0.58" filter="url(#ds)"/><rect x="305" y="320" width="70" height="22" rx="3" fill="#e040fb" opacity="0.54" filter="url(#ds)"/>
<text x="320" y="340" fill="#fff" font-size="22" font-weight="800" text-anchor="middle" font-family="Arial,sans-serif" filter="url(#ds)">Lollipop</text><text x="320" y="366" fill="#fff" font-size="22" font-weight="800" text-anchor="middle" font-family="Arial,sans-serif" filter="url(#ds)">Stack</text>
</svg>