<svg xmlns="http://www.w3.org/2000/svg" width="640" height="400" viewBox="0 0 640 400">
<defs><linearGradient id="bgmangrovemaze" x1="0" y1="0" x2="1" y2="1"><stop offset="0" stop-color="#003300"/><stop offset=".6" stop-color="#006600"/><stop offset="1" stop-color="#ffe082"/></linearGradient><filter id="ds"><feDropShadow dx="0" dy="2" stdDeviation="3" flood-opacity=".6"/></filter></defs>
<rect width="640" height="400" fill="url(#bgmangrovemaze)" rx="12"/>
<circle cx="580" cy="350" r="80" fill="#ffab00" opacity="0.08"/><circle cx="60" cy="360" r="50" fill="#ffab00" opacity="0.08"/><circle cx="320" cy="380" r="60" fill="#ffab00" opacity="0.08"/><circle cx="500" cy="50" r="40" fill="#ffab00" opacity="0.08"/><circle cx="140" cy="30" r="30" fill="#ffab00" opacity="0.08"/><circle cx="640" cy="0" r="90" fill="#ffab00" opacity="0.08"/>
<circle cx="32" cy="31" r="1.9" fill="#ffe082" opacity="0.86"/><circle cx="562" cy="28" r="1.0" fill="#ffe082" opacity="0.53"/><circle cx="50" cy="41" r="2.2" fill="#ffe082" opacity="0.72"/><circle cx="333" cy="41" r="1.6" fill="#ffe082" opacity="0.45"/><circle cx="223" cy="49" r="2.4" fill="#ffe082" opacity="0.46"/><circle cx="528" cy="128" r="1.6" fill="#ffe082" opacity="0.59"/><circle cx="581" cy="42" r="2.8" fill="#ffe082" opacity="0.78"/><circle cx="518" cy="16" r="1.5" fill="#ffe082" opacity="0.47"/><circle cx="437" cy="109" r="1.6" fill="#ffe082" opacity="0.30"/><circle cx="425" cy="11" r="1.1" fill="#ffe082" opacity="0.53"/><circle cx="44" cy="131" r="2.8" fill="#ffe082" opacity="0.68"/><circle cx="620" cy="153" r="1.7" fill="#ffe082" opacity="0.66"/>
<rect x="12" y="12" width="100" height="24" rx="12" fill="#37474f" opacity="0.9"/><text x="62" y="28" fill="#fff" font-size="11" font-weight="700" text-anchor="middle" font-family="Arial,sans-serif">SNAKE</text>
<rect x="140" y="70" width="16" height="16" fill="#1a1a2e" opacity="0.3"/><rect x="156" y="70" width="16" height="16" fill="#1a1a2e" opacity="0.2"/><rect x="172" y="70" width="16" height="16" fill="#1a1a2e" opacity="0.3"/><rect x="188" y="70" width="16" height="16" fill="#1a1a2e" opacity="0.2"/><rect x="204" y="70" width="16" height="16" fill="#1a1a2e" opacity="0.3"/><rect x="220" y="70" width="16" height="16" fill="#1a1a2e" opacity="0.2"/><rect x="236" y="70" width="16" height="16" fill="#1a1a2e" opacity="0.3"/><rect x="252" y="70" width="16" height="16" fill="#1a1a2e" opacity="0.2"/><rect x="220" y="182" width="16" height="16" rx="3" fill="#69f0ae" opacity="0.9" filter="url(#ds)"/><rect x="204" y="182" width="16" height="16" rx="3" fill="#4caf50" opacity="0.9" filter="url(#ds)"/><rect x="188" y="182" width="16" height="16" rx="3" fill="#4caf50" opacity="0.9" filter="url(#ds)"/><rect x="188" y="198" width="16" height="16" rx="3" fill="#4caf50" opacity="0.9" filter="url(#ds)"/><rect x="188" y="214" width="16" height="16" rx="3" fill="#4caf50" opacity="0.9" filter="url(#ds)"/><rect x="204" y="214" width="16" height="16" rx="3" fill="#4caf50" opacity="0.9" filter="url(#ds)"/><rect x="220" y="214" width="16" height="16" rx="3" fill="#4caf50" opacity="0.9" filter="url(#ds)"/><rect x="236" y="214" width="16" height="16" rx="3" fill="#4caf50" opacity="0.9" filter="url(#ds)"/><rect x="252" y="214" width="16" height="16" rx="3" fill="#4caf50" opacity="0.9" filter="url(#ds)"/><rect x="252" y="198" width="16" height="16" rx="3" fill="#4caf50" opacity="0.9" filter="url(#ds)"/><circle cx="308" cy="158" r="6" fill="#ef5350" opacity="0.9" filter="url(#ds)"/>
<text x="320" y="340" fill="#fff" font-size="22" font-weight="800" text-anchor="middle" font-family="Arial,sans-serif" filter="url(#ds)">Mangrove</text><text x="320" y="366" fill="#fff" font-size="22" font-weight="800" text-anchor="middle" font-family="Arial,sans-serif" filter="url(#ds)">Maze</text>
</svg>