<svg xmlns="http://www.w3.org/2000/svg" width="640" height="400" viewBox="0 0 640 400">
<defs><linearGradient id="bgmangomancalamarket" x1="0" y1="0" x2="1" y2="1"><stop offset="0" stop-color="#1a0a2e"/><stop offset=".6" stop-color="#2d1b4e"/><stop offset="1" stop-color="#e8d5b7"/></linearGradient><filter id="ds"><feDropShadow dx="0" dy="2" stdDeviation="3" flood-opacity=".6"/></filter></defs>
<rect width="640" height="400" fill="url(#bgmangomancalamarket)" rx="12"/>
<circle cx="580" cy="350" r="80" fill="#b8a07a" opacity="0.08"/><circle cx="60" cy="360" r="50" fill="#b8a07a" opacity="0.08"/><circle cx="320" cy="380" r="60" fill="#b8a07a" opacity="0.08"/><circle cx="500" cy="50" r="40" fill="#b8a07a" opacity="0.08"/><circle cx="140" cy="30" r="30" fill="#b8a07a" opacity="0.08"/><circle cx="640" cy="0" r="90" fill="#b8a07a" opacity="0.08"/>
<circle cx="157" cy="136" r="1.9" fill="#ffd700" opacity="0.85"/><circle cx="201" cy="144" r="2.2" fill="#ffd700" opacity="0.36"/><circle cx="239" cy="130" r="2.7" fill="#ffd700" opacity="0.71"/><circle cx="423" cy="65" r="2.3" fill="#ffd700" opacity="0.61"/><circle cx="54" cy="127" r="2.8" fill="#ffd700" opacity="0.90"/><circle cx="27" cy="17" r="1.4" fill="#ffd700" opacity="0.32"/><circle cx="205" cy="159" r="1.1" fill="#ffd700" opacity="0.52"/><circle cx="424" cy="105" r="1.7" fill="#ffd700" opacity="0.43"/><circle cx="508" cy="106" r="2.0" fill="#ffd700" opacity="0.80"/><circle cx="424" cy="37" r="1.0" fill="#ffd700" opacity="0.60"/><circle cx="221" cy="157" r="2.1" fill="#ffd700" opacity="0.85"/><circle cx="604" cy="112" r="1.3" fill="#ffd700" opacity="0.66"/><circle cx="566" cy="54" r="2.2" fill="#ffd700" opacity="0.84"/><circle cx="487" cy="76" r="1.3" fill="#ffd700" opacity="0.52"/><circle cx="280" cy="153" r="2.4" fill="#ffd700" opacity="0.43"/><circle cx="551" cy="59" r="2.7" fill="#ffd700" opacity="0.46"/><circle cx="236" cy="26" r="1.4" fill="#ffd700" opacity="0.46"/><circle cx="434" cy="122" r="1.1" fill="#ffd700" opacity="0.77"/><circle cx="224" cy="130" r="1.1" fill="#ffd700" opacity="0.35"/>
<rect x="12" y="12" width="100" height="24" rx="12" fill="#4a148c" opacity="0.9"/><text x="62" y="28" fill="#fff" font-size="11" font-weight="700" text-anchor="middle" font-family="Arial,sans-serif">BOARD</text>
<rect x="120" y="70" width="400" height="260" rx="8" fill="#2d1b4e" stroke="#e8d5b7" stroke-width="2" opacity="0.6"/><rect x="140" y="90" width="360" height="220" rx="4" fill="#1a0a2e" stroke="#e8d5b7" stroke-width="1" opacity="0.8"/><rect x="140" y="90" width="45.0" height="27.5" fill="#e8d5b7" opacity="0.15"/><rect x="230" y="90" width="45.0" height="27.5" fill="#e8d5b7" opacity="0.15"/><rect x="320" y="90" width="45.0" height="27.5" fill="#e8d5b7" opacity="0.15"/><rect x="410" y="90" width="45.0" height="27.5" fill="#e8d5b7" opacity="0.15"/><rect x="185" y="118" width="45.0" height="27.5" fill="#e8d5b7" opacity="0.15"/><rect x="275" y="118" width="45.0" height="27.5" fill="#e8d5b7" opacity="0.15"/><rect x="365" y="118" width="45.0" height="27.5" fill="#e8d5b7" opacity="0.15"/><rect x="455" y="118" width="45.0" height="27.5" fill="#e8d5b7" opacity="0.15"/><rect x="140" y="145" width="45.0" height="27.5" fill="#e8d5b7" opacity="0.15"/><rect x="230" y="145" width="45.0" height="27.5" fill="#e8d5b7" opacity="0.15"/><rect x="320" y="145" width="45.0" height="27.5" fill="#e8d5b7" opacity="0.15"/><rect x="410" y="145" width="45.0" height="27.5" fill="#e8d5b7" opacity="0.15"/><rect x="185" y="173" width="45.0" height="27.5" fill="#e8d5b7" opacity="0.15"/><rect x="275" y="173" width="45.0" height="27.5" fill="#e8d5b7" opacity="0.15"/><rect x="365" y="173" width="45.0" height="27.5" fill="#e8d5b7" opacity="0.15"/><rect x="455" y="173" width="45.0" height="27.5" fill="#e8d5b7" opacity="0.15"/><rect x="140" y="200" width="45.0" height="27.5" fill="#e8d5b7" opacity="0.15"/><rect x="230" y="200" width="45.0" height="27.5" fill="#e8d5b7" opacity="0.15"/><rect x="320" y="200" width="45.0" height="27.5" fill="#e8d5b7" opacity="0.15"/><rect x="410" y="200" width="45.0" height="27.5" fill="#e8d5b7" opacity="0.15"/><rect x="185" y="228" width="45.0" height="27.5" fill="#e8d5b7" opacity="0.15"/><rect x="275" y="228" width="45.0" height="27.5" fill="#e8d5b7" opacity="0.15"/><rect x="365" y="228" width="45.0" height="27.5" fill="#e8d5b7" opacity="0.15"/><rect x="455" y="228" width="45.0" height="27.5" fill="#e8d5b7" opacity="0.15"/><rect x="140" y="255" width="45.0" height="27.5" fill="#e8d5b7" opacity="0.15"/><rect x="230" y="255" width="45.0" height="27.5" fill="#e8d5b7" opacity="0.15"/><rect x="320" y="255" width="45.0" height="27.5" fill="#e8d5b7" opacity="0.15"/><rect x="410" y="255" width="45.0" height="27.5" fill="#e8d5b7" opacity="0.15"/><rect x="185" y="283" width="45.0" height="27.5" fill="#e8d5b7" opacity="0.15"/><rect x="275" y="283" width="45.0" height="27.5" fill="#e8d5b7" opacity="0.15"/><rect x="365" y="283" width="45.0" height="27.5" fill="#e8d5b7" opacity="0.15"/><rect x="455" y="283" width="45.0" height="27.5" fill="#e8d5b7" opacity="0.15"/>
<text x="320" y="340" fill="#fff" font-size="20" font-weight="800" text-anchor="middle" font-family="Arial,sans-serif" filter="url(#ds)">Mango Mancala</text><text x="320" y="364" fill="#fff" font-size="20" font-weight="800" text-anchor="middle" font-family="Arial,sans-serif" filter="url(#ds)">Market</text>
</svg>