<svg xmlns="http://www.w3.org/2000/svg" width="640" height="400" viewBox="0 0 640 400">
<defs><linearGradient id="bgmemorymosaic" x1="0" y1="0" x2="1" y2="1"><stop offset="0" stop-color="#0d1b2a"/><stop offset=".6" stop-color="#1b3a5c"/><stop offset="1" stop-color="#e0f7fa"/></linearGradient><filter id="ds"><feDropShadow dx="0" dy="2" stdDeviation="3" flood-opacity=".6"/></filter></defs>
<rect width="640" height="400" fill="url(#bgmemorymosaic)" rx="12"/>
<circle cx="580" cy="350" r="80" fill="#4fc3f7" opacity="0.08"/><circle cx="60" cy="360" r="50" fill="#4fc3f7" opacity="0.08"/><circle cx="320" cy="380" r="60" fill="#4fc3f7" opacity="0.08"/><circle cx="500" cy="50" r="40" fill="#4fc3f7" opacity="0.08"/><circle cx="140" cy="30" r="30" fill="#4fc3f7" opacity="0.08"/><circle cx="640" cy="0" r="90" fill="#4fc3f7" opacity="0.08"/>
<circle cx="422" cy="117" r="1.7" fill="#81d4fa" opacity="0.83"/><circle cx="489" cy="87" r="2.6" fill="#81d4fa" opacity="0.62"/><circle cx="41" cy="100" r="2.1" fill="#81d4fa" opacity="0.84"/><circle cx="436" cy="36" r="1.3" fill="#81d4fa" opacity="0.43"/><circle cx="455" cy="158" r="2.0" fill="#81d4fa" opacity="0.81"/><circle cx="105" cy="53" r="1.8" fill="#81d4fa" opacity="0.36"/><circle cx="576" cy="89" r="1.7" fill="#81d4fa" opacity="0.40"/><circle cx="512" cy="147" r="3.0" fill="#81d4fa" opacity="0.75"/><circle cx="34" cy="133" r="2.8" fill="#81d4fa" opacity="0.61"/><circle cx="130" cy="139" r="1.1" fill="#81d4fa" opacity="0.48"/><circle cx="484" cy="24" r="2.6" fill="#81d4fa" opacity="0.62"/><circle cx="550" cy="56" r="1.8" fill="#81d4fa" opacity="0.73"/><circle cx="587" cy="104" r="2.5" fill="#81d4fa" opacity="0.74"/><circle cx="234" cy="122" r="2.0" fill="#81d4fa" opacity="0.55"/><circle cx="226" cy="24" r="1.8" fill="#81d4fa" opacity="0.49"/><circle cx="502" cy="18" r="1.2" fill="#81d4fa" opacity="0.64"/><circle cx="178" cy="98" r="1.6" fill="#81d4fa" opacity="0.65"/>
<rect x="12" y="12" width="100" height="24" rx="12" fill="#4a148c" opacity="0.9"/><text x="62" y="28" fill="#fff" font-size="11" font-weight="700" text-anchor="middle" font-family="Arial,sans-serif">MEMORY</text>
<rect x="100" y="60" width="440" height="280" rx="8" fill="#0d1b2a" opacity="0.5"/><rect x="130" y="70" width="85" height="55" rx="6" fill="#1b3a5c" stroke="#4fc3f7" stroke-width="1.5" opacity="0.8"/><rect x="225" y="70" width="85" height="55" rx="6" fill="#1b3a5c" stroke="#4fc3f7" stroke-width="1.5" opacity="0.8"/><rect x="320" y="70" width="85" height="55" rx="6" fill="#1b3a5c" stroke="#4fc3f7" stroke-width="1.5" opacity="0.8"/><rect x="415" y="70" width="85" height="55" rx="6" fill="#1b3a5c" stroke="#4fc3f7" stroke-width="1.5" opacity="0.8"/><rect x="130" y="132" width="85" height="55" rx="6" fill="#1b3a5c" stroke="#4fc3f7" stroke-width="1.5" opacity="0.8"/><rect x="225" y="132" width="85" height="55" rx="6" fill="#1b3a5c" stroke="#4fc3f7" stroke-width="1.5" opacity="0.8"/><rect x="320" y="132" width="85" height="55" rx="6" fill="#1b3a5c" stroke="#4fc3f7" stroke-width="1.5" opacity="0.8"/><rect x="415" y="132" width="85" height="55" rx="6" fill="#1b3a5c" stroke="#4fc3f7" stroke-width="1.5" opacity="0.8"/><rect x="130" y="194" width="85" height="55" rx="6" fill="#1b3a5c" stroke="#4fc3f7" stroke-width="1.5" opacity="0.8"/><rect x="225" y="194" width="85" height="55" rx="6" fill="#1b3a5c" stroke="#4fc3f7" stroke-width="1.5" opacity="0.8"/><rect x="320" y="194" width="85" height="55" rx="6" fill="#1b3a5c" stroke="#4fc3f7" stroke-width="1.5" opacity="0.8"/><rect x="415" y="194" width="85" height="55" rx="6" fill="#1b3a5c" stroke="#4fc3f7" stroke-width="1.5" opacity="0.8"/><rect x="130" y="256" width="85" height="55" rx="6" fill="#1b3a5c" stroke="#4fc3f7" stroke-width="1.5" opacity="0.8"/><rect x="225" y="256" width="85" height="55" rx="6" fill="#1b3a5c" stroke="#4fc3f7" stroke-width="1.5" opacity="0.8"/><rect x="320" y="256" width="85" height="55" rx="6" fill="#1b3a5c" stroke="#4fc3f7" stroke-width="1.5" opacity="0.8"/><rect x="415" y="256" width="85" height="55" rx="6" fill="#1b3a5c" stroke="#4fc3f7" stroke-width="1.5" opacity="0.8"/><rect x="130" y="70" width="85" height="55" rx="6" fill="#4fc3f7" opacity="0.6"/><text x="172" y="102" fill="#fff" font-size="20" text-anchor="middle" font-family="Arial">★</text><rect x="225" y="132" width="85" height="55" rx="6" fill="#4fc3f7" opacity="0.6"/><text x="267" y="164" fill="#fff" font-size="20" text-anchor="middle" font-family="Arial">♥</text>
<text x="320" y="340" fill="#fff" font-size="22" font-weight="800" text-anchor="middle" font-family="Arial,sans-serif" filter="url(#ds)">Memory</text><text x="320" y="366" fill="#fff" font-size="22" font-weight="800" text-anchor="middle" font-family="Arial,sans-serif" filter="url(#ds)">Mosaic</text>
</svg>