<svg xmlns="http://www.w3.org/2000/svg" width="640" height="400" viewBox="0 0 640 400">
<defs><linearGradient id="bgmochibounce" x1="0" y1="0" x2="1" y2="1"><stop offset="0" stop-color="#1a237e"/><stop offset=".6" stop-color="#283593"/><stop offset="1" stop-color="#e8eaf6"/></linearGradient><filter id="ds"><feDropShadow dx="0" dy="2" stdDeviation="3" flood-opacity=".6"/></filter></defs>
<rect width="640" height="400" fill="url(#bgmochibounce)" rx="12"/>
<circle cx="580" cy="350" r="80" fill="#7986cb" opacity="0.08"/><circle cx="60" cy="360" r="50" fill="#7986cb" opacity="0.08"/><circle cx="320" cy="380" r="60" fill="#7986cb" opacity="0.08"/><circle cx="500" cy="50" r="40" fill="#7986cb" opacity="0.08"/><circle cx="140" cy="30" r="30" fill="#7986cb" opacity="0.08"/><circle cx="640" cy="0" r="90" fill="#7986cb" opacity="0.08"/>
<circle cx="175" cy="83" r="1.5" fill="#9fa8da" opacity="0.42"/><circle cx="393" cy="59" r="2.0" fill="#9fa8da" opacity="0.83"/><circle cx="427" cy="12" r="1.7" fill="#9fa8da" opacity="0.87"/><circle cx="506" cy="136" r="1.2" fill="#9fa8da" opacity="0.89"/><circle cx="62" cy="81" r="1.5" fill="#9fa8da" opacity="0.77"/><circle cx="468" cy="41" r="2.9" fill="#9fa8da" opacity="0.89"/><circle cx="607" cy="64" r="2.8" fill="#9fa8da" opacity="0.66"/><circle cx="118" cy="47" r="2.0" fill="#9fa8da" opacity="0.74"/><circle cx="98" cy="98" r="2.0" fill="#9fa8da" opacity="0.69"/><circle cx="344" cy="99" r="2.6" fill="#9fa8da" opacity="0.40"/><circle cx="422" cy="143" r="2.8" fill="#9fa8da" opacity="0.87"/><circle cx="38" cy="23" r="1.9" fill="#9fa8da" opacity="0.38"/><circle cx="197" cy="33" r="1.0" fill="#9fa8da" opacity="0.33"/><circle cx="456" cy="136" r="2.9" fill="#9fa8da" opacity="0.57"/><circle cx="455" cy="116" r="1.4" fill="#9fa8da" opacity="0.84"/>
<rect x="12" y="12" width="100" height="24" rx="12" fill="#37474f" opacity="0.9"/><text x="62" y="28" fill="#fff" font-size="11" font-weight="700" text-anchor="middle" font-family="Arial,sans-serif">CLIMBER</text>
<rect x="100" y="60" width="440" height="280" rx="8" fill="#0d1b2a" opacity="0.5"/><rect x="256" y="50" width="87" height="12" rx="4" fill="#448aff" opacity="0.7" filter="url(#ds)"/><rect x="91" y="92" width="79" height="12" rx="4" fill="#69f0ae" opacity="0.7" filter="url(#ds)"/><rect x="422" y="134" width="91" height="12" rx="4" fill="#448aff" opacity="0.7" filter="url(#ds)"/><rect x="298" y="176" width="100" height="12" rx="4" fill="#69f0ae" opacity="0.7" filter="url(#ds)"/><rect x="204" y="218" width="79" height="12" rx="4" fill="#448aff" opacity="0.7" filter="url(#ds)"/><rect x="234" y="260" width="67" height="12" rx="4" fill="#69f0ae" opacity="0.7" filter="url(#ds)"/><rect x="284" y="302" width="86" height="12" rx="4" fill="#448aff" opacity="0.7" filter="url(#ds)"/><rect x="290" y="344" width="62" height="12" rx="4" fill="#69f0ae" opacity="0.7" filter="url(#ds)"/><circle cx="320" cy="320" r="15" fill="#ff5252" opacity="0.9" filter="url(#ds)"/>
<text x="320" y="340" fill="#fff" font-size="22" font-weight="800" text-anchor="middle" font-family="Arial,sans-serif" filter="url(#ds)">Mochi</text><text x="320" y="366" fill="#fff" font-size="22" font-weight="800" text-anchor="middle" font-family="Arial,sans-serif" filter="url(#ds)">Bounce</text>
</svg>