<svg xmlns="http://www.w3.org/2000/svg" width="640" height="400" viewBox="0 0 640 400">
<defs><linearGradient id="bgmochitower" x1="0" y1="0" x2="1" y2="1"><stop offset="0" stop-color="#1a237e"/><stop offset=".6" stop-color="#283593"/><stop offset="1" stop-color="#e8eaf6"/></linearGradient><filter id="ds"><feDropShadow dx="0" dy="2" stdDeviation="3" flood-opacity=".6"/></filter></defs>
<rect width="640" height="400" fill="url(#bgmochitower)" rx="12"/>
<circle cx="580" cy="350" r="80" fill="#7986cb" opacity="0.08"/><circle cx="60" cy="360" r="50" fill="#7986cb" opacity="0.08"/><circle cx="320" cy="380" r="60" fill="#7986cb" opacity="0.08"/><circle cx="500" cy="50" r="40" fill="#7986cb" opacity="0.08"/><circle cx="140" cy="30" r="30" fill="#7986cb" opacity="0.08"/><circle cx="640" cy="0" r="90" fill="#7986cb" opacity="0.08"/>
<circle cx="580" cy="23" r="2.8" fill="#9fa8da" opacity="0.54"/><circle cx="61" cy="127" r="2.4" fill="#9fa8da" opacity="0.36"/><circle cx="309" cy="24" r="2.1" fill="#9fa8da" opacity="0.48"/><circle cx="175" cy="153" r="1.8" fill="#9fa8da" opacity="0.82"/><circle cx="122" cy="41" r="2.5" fill="#9fa8da" opacity="0.73"/><circle cx="193" cy="45" r="1.0" fill="#9fa8da" opacity="0.41"/><circle cx="98" cy="69" r="1.6" fill="#9fa8da" opacity="0.74"/><circle cx="614" cy="149" r="3.0" fill="#9fa8da" opacity="0.64"/><circle cx="568" cy="129" r="1.7" fill="#9fa8da" opacity="0.55"/><circle cx="321" cy="101" r="1.3" fill="#9fa8da" opacity="0.57"/><circle cx="404" cy="28" r="2.5" fill="#9fa8da" opacity="0.86"/><circle cx="251" cy="47" r="1.1" fill="#9fa8da" opacity="0.57"/><circle cx="53" cy="87" r="1.8" fill="#9fa8da" opacity="0.89"/><circle cx="271" cy="54" r="2.8" fill="#9fa8da" opacity="0.57"/><circle cx="537" cy="48" r="1.4" fill="#9fa8da" opacity="0.47"/><circle cx="324" cy="104" r="1.9" fill="#9fa8da" opacity="0.42"/><circle cx="276" cy="115" r="1.7" fill="#9fa8da" opacity="0.68"/><circle cx="272" cy="119" r="1.4" fill="#9fa8da" opacity="0.70"/>
<rect x="12" y="12" width="100" height="24" rx="12" fill="#37474f" opacity="0.9"/><text x="62" y="28" fill="#fff" font-size="11" font-weight="700" text-anchor="middle" font-family="Arial,sans-serif">TOWER DEFENSE</text>
<rect x="100" y="60" width="440" height="280" rx="8" fill="#0d1b2a" opacity="0.5"/><rect x="170" y="60" width="300" height="16" rx="4" fill="#4fc3f7" opacity="0.90" filter="url(#ds)"/><rect x="180" y="88" width="280" height="16" rx="4" fill="#ff5252" opacity="0.85" filter="url(#ds)"/><rect x="190" y="116" width="260" height="16" rx="4" fill="#4fc3f7" opacity="0.80" filter="url(#ds)"/><rect x="200" y="144" width="240" height="16" rx="4" fill="#ff5252" opacity="0.75" filter="url(#ds)"/><rect x="210" y="172" width="220" height="16" rx="4" fill="#4fc3f7" opacity="0.70" filter="url(#ds)"/><rect x="220" y="200" width="200" height="16" rx="4" fill="#ff5252" opacity="0.65" filter="url(#ds)"/><rect x="230" y="228" width="180" height="16" rx="4" fill="#4fc3f7" opacity="0.60" filter="url(#ds)"/><rect x="240" y="256" width="160" height="16" rx="4" fill="#ff5252" opacity="0.55" filter="url(#ds)"/><rect x="250" y="284" width="140" height="16" rx="4" fill="#4fc3f7" opacity="0.50" filter="url(#ds)"/><rect x="260" y="312" width="120" height="16" rx="4" fill="#ff5252" opacity="0.45" filter="url(#ds)"/><rect x="270" y="340" width="100" height="16" rx="4" fill="#4fc3f7" opacity="0.40" filter="url(#ds)"/><rect x="280" y="368" width="80" height="16" rx="4" fill="#ff5252" opacity="0.35" filter="url(#ds)"/><circle cx="320" cy="56" r="10" fill="#ffd740" opacity="0.9" filter="url(#ds)"/>
<text x="320" y="340" fill="#fff" font-size="22" font-weight="800" text-anchor="middle" font-family="Arial,sans-serif" filter="url(#ds)">Mochi</text><text x="320" y="366" fill="#fff" font-size="22" font-weight="800" text-anchor="middle" font-family="Arial,sans-serif" filter="url(#ds)">Tower</text>
</svg>