<svg xmlns="http://www.w3.org/2000/svg" width="640" height="400" viewBox="0 0 640 400">
<defs><linearGradient id="bgmochiglide" x1="0" y1="0" x2="1" y2="1"><stop offset="0" stop-color="#1a237e"/><stop offset=".6" stop-color="#283593"/><stop offset="1" stop-color="#e8eaf6"/></linearGradient><filter id="ds"><feDropShadow dx="0" dy="2" stdDeviation="3" flood-opacity=".6"/></filter></defs>
<rect width="640" height="400" fill="url(#bgmochiglide)" rx="12"/>
<circle cx="580" cy="350" r="80" fill="#7986cb" opacity="0.08"/><circle cx="60" cy="360" r="50" fill="#7986cb" opacity="0.08"/><circle cx="320" cy="380" r="60" fill="#7986cb" opacity="0.08"/><circle cx="500" cy="50" r="40" fill="#7986cb" opacity="0.08"/><circle cx="140" cy="30" r="30" fill="#7986cb" opacity="0.08"/><circle cx="640" cy="0" r="90" fill="#7986cb" opacity="0.08"/>
<circle cx="267" cy="116" r="1.7" fill="#9fa8da" opacity="0.85"/><circle cx="533" cy="104" r="2.1" fill="#9fa8da" opacity="0.42"/><circle cx="382" cy="40" r="2.8" fill="#9fa8da" opacity="0.55"/><circle cx="452" cy="90" r="2.3" fill="#9fa8da" opacity="0.89"/><circle cx="383" cy="110" r="2.7" fill="#9fa8da" opacity="0.70"/><circle cx="206" cy="100" r="2.7" fill="#9fa8da" opacity="0.62"/><circle cx="326" cy="29" r="2.8" fill="#9fa8da" opacity="0.62"/><circle cx="363" cy="98" r="1.9" fill="#9fa8da" opacity="0.66"/><circle cx="238" cy="133" r="2.2" fill="#9fa8da" opacity="0.51"/><circle cx="329" cy="20" r="2.5" fill="#9fa8da" opacity="0.72"/><circle cx="279" cy="52" r="2.0" fill="#9fa8da" opacity="0.72"/><circle cx="199" cy="53" r="2.6" fill="#9fa8da" opacity="0.63"/><circle cx="468" cy="89" r="2.4" fill="#9fa8da" opacity="0.81"/><circle cx="527" cy="125" r="2.9" fill="#9fa8da" opacity="0.51"/>
<rect x="12" y="12" width="100" height="24" rx="12" fill="#37474f" opacity="0.9"/><text x="62" y="28" fill="#fff" font-size="11" font-weight="700" text-anchor="middle" font-family="Arial,sans-serif">FLAPPY</text>
<rect x="180" y="60" width="50" height="140" rx="4" fill="#2e7d32" opacity="0.8"/><rect x="175" y="60" width="60" height="16" rx="4" fill="#388e3c" opacity="0.8"/><rect x="180" y="260" width="50" height="140" rx="4" fill="#2e7d32" opacity="0.8"/><rect x="175" y="384" width="60" height="16" rx="4" fill="#388e3c" opacity="0.8"/><rect x="400" y="40" width="50" height="100" rx="4" fill="#2e7d32" opacity="0.8"/><rect x="395" y="40" width="60" height="16" rx="4" fill="#388e3c" opacity="0.8"/><rect x="400" y="200" width="50" height="200" rx="4" fill="#2e7d32" opacity="0.8"/><rect x="395" y="384" width="60" height="16" rx="4" fill="#388e3c" opacity="0.8"/><circle cx="150" cy="190" r="18" fill="#ffd740" opacity="0.9" filter="url(#ds)"/><circle cx="145" cy="185" r="4" fill="#1a1a2e"/><polygon points="168,190 180,186 168,194" fill="#ffab00"/>
<text x="320" y="340" fill="#fff" font-size="22" font-weight="800" text-anchor="middle" font-family="Arial,sans-serif" filter="url(#ds)">Mochi</text><text x="320" y="366" fill="#fff" font-size="22" font-weight="800" text-anchor="middle" font-family="Arial,sans-serif" filter="url(#ds)">Glide</text>
</svg>