<svg xmlns="http://www.w3.org/2000/svg" width="640" height="400" viewBox="0 0 640 400">
<defs><linearGradient id="bgmochipaddle" x1="0" y1="0" x2="1" y2="1"><stop offset="0" stop-color="#1a237e"/><stop offset=".6" stop-color="#283593"/><stop offset="1" stop-color="#e8eaf6"/></linearGradient><filter id="ds"><feDropShadow dx="0" dy="2" stdDeviation="3" flood-opacity=".6"/></filter></defs>
<rect width="640" height="400" fill="url(#bgmochipaddle)" rx="12"/>
<circle cx="580" cy="350" r="80" fill="#7986cb" opacity="0.08"/><circle cx="60" cy="360" r="50" fill="#7986cb" opacity="0.08"/><circle cx="320" cy="380" r="60" fill="#7986cb" opacity="0.08"/><circle cx="500" cy="50" r="40" fill="#7986cb" opacity="0.08"/><circle cx="140" cy="30" r="30" fill="#7986cb" opacity="0.08"/><circle cx="640" cy="0" r="90" fill="#7986cb" opacity="0.08"/>
<circle cx="413" cy="104" r="3.0" fill="#9fa8da" opacity="0.82"/><circle cx="439" cy="57" r="2.0" fill="#9fa8da" opacity="0.39"/><circle cx="602" cy="96" r="1.4" fill="#9fa8da" opacity="0.85"/><circle cx="540" cy="141" r="1.9" fill="#9fa8da" opacity="0.49"/><circle cx="47" cy="152" r="1.2" fill="#9fa8da" opacity="0.76"/><circle cx="524" cy="16" r="2.2" fill="#9fa8da" opacity="0.39"/><circle cx="34" cy="89" r="1.3" fill="#9fa8da" opacity="0.73"/><circle cx="178" cy="14" r="2.8" fill="#9fa8da" opacity="0.59"/><circle cx="519" cy="66" r="1.3" fill="#9fa8da" opacity="0.59"/><circle cx="238" cy="60" r="1.2" fill="#9fa8da" opacity="0.87"/><circle cx="203" cy="53" r="1.7" fill="#9fa8da" opacity="0.88"/><circle cx="542" cy="146" r="2.7" fill="#9fa8da" opacity="0.68"/><circle cx="463" cy="118" r="2.0" fill="#9fa8da" opacity="0.90"/><circle cx="360" cy="120" r="2.9" fill="#9fa8da" opacity="0.65"/>
<rect x="12" y="12" width="100" height="24" rx="12" fill="#37474f" opacity="0.9"/><text x="62" y="28" fill="#fff" font-size="11" font-weight="700" text-anchor="middle" font-family="Arial,sans-serif">PONG</text>
<line x1="320" y1="80" x2="320" y2="320" stroke="#fff" stroke-width="2" stroke-dasharray="8,8" opacity="0.3"/><rect x="20" y="160" width="10" height="60" rx="4" fill="#fff" opacity="0.8" filter="url(#ds)"/><rect x="610" y="180" width="10" height="60" rx="4" fill="#fff" opacity="0.8" filter="url(#ds)"/><circle cx="320" cy="200" r="8" fill="#fff" opacity="0.9" filter="url(#ds)"/><text x="160" y="60" fill="#fff" font-size="28" text-anchor="middle" font-family="Arial" opacity="0.4">3</text><text x="480" y="60" fill="#fff" font-size="28" text-anchor="middle" font-family="Arial" opacity="0.4">2</text>
<text x="320" y="340" fill="#fff" font-size="22" font-weight="800" text-anchor="middle" font-family="Arial,sans-serif" filter="url(#ds)">Mochi</text><text x="320" y="366" fill="#fff" font-size="22" font-weight="800" text-anchor="middle" font-family="Arial,sans-serif" filter="url(#ds)">Paddle</text>
</svg>