<svg xmlns="http://www.w3.org/2000/svg" width="640" height="400" viewBox="0 0 640 400">
<defs><linearGradient id="bgmochipop" x1="0" y1="0" x2="1" y2="1"><stop offset="0" stop-color="#1a237e"/><stop offset=".6" stop-color="#283593"/><stop offset="1" stop-color="#e8eaf6"/></linearGradient><filter id="ds"><feDropShadow dx="0" dy="2" stdDeviation="3" flood-opacity=".6"/></filter></defs>
<rect width="640" height="400" fill="url(#bgmochipop)" rx="12"/>
<circle cx="580" cy="350" r="80" fill="#7986cb" opacity="0.08"/><circle cx="60" cy="360" r="50" fill="#7986cb" opacity="0.08"/><circle cx="320" cy="380" r="60" fill="#7986cb" opacity="0.08"/><circle cx="500" cy="50" r="40" fill="#7986cb" opacity="0.08"/><circle cx="140" cy="30" r="30" fill="#7986cb" opacity="0.08"/><circle cx="640" cy="0" r="90" fill="#7986cb" opacity="0.08"/>
<circle cx="354" cy="128" r="1.1" fill="#9fa8da" opacity="0.82"/><circle cx="515" cy="43" r="1.6" fill="#9fa8da" opacity="0.36"/><circle cx="551" cy="69" r="1.1" fill="#9fa8da" opacity="0.48"/><circle cx="260" cy="142" r="2.9" fill="#9fa8da" opacity="0.68"/><circle cx="349" cy="150" r="1.7" fill="#9fa8da" opacity="0.31"/><circle cx="465" cy="125" r="1.4" fill="#9fa8da" opacity="0.60"/><circle cx="344" cy="121" r="2.3" fill="#9fa8da" opacity="0.31"/><circle cx="585" cy="41" r="3.0" fill="#9fa8da" opacity="0.33"/><circle cx="556" cy="55" r="1.0" fill="#9fa8da" opacity="0.75"/><circle cx="189" cy="131" r="1.9" fill="#9fa8da" opacity="0.35"/><circle cx="606" cy="87" r="1.7" fill="#9fa8da" opacity="0.31"/><circle cx="587" cy="112" r="2.3" fill="#9fa8da" opacity="0.65"/>
<rect x="12" y="12" width="100" height="24" rx="12" fill="#37474f" opacity="0.9"/><text x="62" y="28" fill="#fff" font-size="11" font-weight="700" text-anchor="middle" font-family="Arial,sans-serif">WHACK</text>
<ellipse cx="150" cy="280" rx="60" ry="30" fill="#1a1a2e" opacity="0.7"/><ellipse cx="320" cy="260" rx="60" ry="30" fill="#1a1a2e" opacity="0.7"/><ellipse cx="490" cy="280" rx="60" ry="30" fill="#1a1a2e" opacity="0.7"/><ellipse cx="235" cy="320" rx="55" ry="27.5" fill="#1a1a2e" opacity="0.7"/><ellipse cx="405" cy="320" rx="55" ry="27.5" fill="#1a1a2e" opacity="0.7"/><circle cx="320" cy="230" r="25" fill="#fff" opacity="0.9" filter="url(#ds)"/><circle cx="312" cy="225" r="6" fill="#1a1a2e"/><circle cx="328" cy="225" r="6" fill="#1a1a2e"/><line x1="290" y1="210" x2="250" y2="190" stroke="#e94560" stroke-width="4" stroke-linecap="round" opacity="0.8"/>
<text x="320" y="340" fill="#fff" font-size="22" font-weight="800" text-anchor="middle" font-family="Arial,sans-serif" filter="url(#ds)">Mochi</text><text x="320" y="366" fill="#fff" font-size="22" font-weight="800" text-anchor="middle" font-family="Arial,sans-serif" filter="url(#ds)">Pop</text>
</svg>