<svg xmlns="http://www.w3.org/2000/svg" width="640" height="400" viewBox="0 0 640 400">
<defs><linearGradient id="bgmochimemory" x1="0" y1="0" x2="1" y2="1"><stop offset="0" stop-color="#1a237e"/><stop offset=".6" stop-color="#283593"/><stop offset="1" stop-color="#e8eaf6"/></linearGradient><filter id="ds"><feDropShadow dx="0" dy="2" stdDeviation="3" flood-opacity=".6"/></filter></defs>
<rect width="640" height="400" fill="url(#bgmochimemory)" rx="12"/>
<circle cx="580" cy="350" r="80" fill="#7986cb" opacity="0.08"/><circle cx="60" cy="360" r="50" fill="#7986cb" opacity="0.08"/><circle cx="320" cy="380" r="60" fill="#7986cb" opacity="0.08"/><circle cx="500" cy="50" r="40" fill="#7986cb" opacity="0.08"/><circle cx="140" cy="30" r="30" fill="#7986cb" opacity="0.08"/><circle cx="640" cy="0" r="90" fill="#7986cb" opacity="0.08"/>
<circle cx="516" cy="100" r="1.5" fill="#9fa8da" opacity="0.87"/><circle cx="302" cy="153" r="1.1" fill="#9fa8da" opacity="0.61"/><circle cx="378" cy="10" r="1.9" fill="#9fa8da" opacity="0.76"/><circle cx="553" cy="137" r="1.5" fill="#9fa8da" opacity="0.49"/><circle cx="153" cy="85" r="1.5" fill="#9fa8da" opacity="0.36"/><circle cx="582" cy="128" r="1.5" fill="#9fa8da" opacity="0.77"/><circle cx="616" cy="113" r="1.8" fill="#9fa8da" opacity="0.51"/><circle cx="73" cy="58" r="1.8" fill="#9fa8da" opacity="0.54"/><circle cx="146" cy="62" r="2.7" fill="#9fa8da" opacity="0.38"/><circle cx="241" cy="105" r="1.2" fill="#9fa8da" opacity="0.64"/><circle cx="337" cy="39" r="1.4" fill="#9fa8da" opacity="0.45"/><circle cx="51" cy="153" r="1.2" fill="#9fa8da" opacity="0.45"/><circle cx="244" cy="15" r="1.1" fill="#9fa8da" opacity="0.51"/><circle cx="562" cy="117" r="2.7" fill="#9fa8da" opacity="0.35"/>
<rect x="12" y="12" width="100" height="24" rx="12" fill="#4a148c" opacity="0.9"/><text x="62" y="28" fill="#fff" font-size="11" font-weight="700" text-anchor="middle" font-family="Arial,sans-serif">MEMORY</text>
<rect x="100" y="60" width="440" height="280" rx="8" fill="#0d1b2a" opacity="0.5"/><rect x="130" y="70" width="85" height="55" rx="6" fill="#1b3a5c" stroke="#4fc3f7" stroke-width="1.5" opacity="0.8"/><rect x="225" y="70" width="85" height="55" rx="6" fill="#1b3a5c" stroke="#4fc3f7" stroke-width="1.5" opacity="0.8"/><rect x="320" y="70" width="85" height="55" rx="6" fill="#1b3a5c" stroke="#4fc3f7" stroke-width="1.5" opacity="0.8"/><rect x="415" y="70" width="85" height="55" rx="6" fill="#1b3a5c" stroke="#4fc3f7" stroke-width="1.5" opacity="0.8"/><rect x="130" y="132" width="85" height="55" rx="6" fill="#1b3a5c" stroke="#4fc3f7" stroke-width="1.5" opacity="0.8"/><rect x="225" y="132" width="85" height="55" rx="6" fill="#1b3a5c" stroke="#4fc3f7" stroke-width="1.5" opacity="0.8"/><rect x="320" y="132" width="85" height="55" rx="6" fill="#1b3a5c" stroke="#4fc3f7" stroke-width="1.5" opacity="0.8"/><rect x="415" y="132" width="85" height="55" rx="6" fill="#1b3a5c" stroke="#4fc3f7" stroke-width="1.5" opacity="0.8"/><rect x="130" y="194" width="85" height="55" rx="6" fill="#1b3a5c" stroke="#4fc3f7" stroke-width="1.5" opacity="0.8"/><rect x="225" y="194" width="85" height="55" rx="6" fill="#1b3a5c" stroke="#4fc3f7" stroke-width="1.5" opacity="0.8"/><rect x="320" y="194" width="85" height="55" rx="6" fill="#1b3a5c" stroke="#4fc3f7" stroke-width="1.5" opacity="0.8"/><rect x="415" y="194" width="85" height="55" rx="6" fill="#1b3a5c" stroke="#4fc3f7" stroke-width="1.5" opacity="0.8"/><rect x="130" y="256" width="85" height="55" rx="6" fill="#1b3a5c" stroke="#4fc3f7" stroke-width="1.5" opacity="0.8"/><rect x="225" y="256" width="85" height="55" rx="6" fill="#1b3a5c" stroke="#4fc3f7" stroke-width="1.5" opacity="0.8"/><rect x="320" y="256" width="85" height="55" rx="6" fill="#1b3a5c" stroke="#4fc3f7" stroke-width="1.5" opacity="0.8"/><rect x="415" y="256" width="85" height="55" rx="6" fill="#1b3a5c" stroke="#4fc3f7" stroke-width="1.5" opacity="0.8"/><rect x="130" y="70" width="85" height="55" rx="6" fill="#4fc3f7" opacity="0.6"/><text x="172" y="102" fill="#fff" font-size="20" text-anchor="middle" font-family="Arial">★</text><rect x="225" y="132" width="85" height="55" rx="6" fill="#4fc3f7" opacity="0.6"/><text x="267" y="164" fill="#fff" font-size="20" text-anchor="middle" font-family="Arial">♥</text>
<text x="320" y="340" fill="#fff" font-size="22" font-weight="800" text-anchor="middle" font-family="Arial,sans-serif" filter="url(#ds)">Mochi</text><text x="320" y="366" fill="#fff" font-size="22" font-weight="800" text-anchor="middle" font-family="Arial,sans-serif" filter="url(#ds)">Memory</text>
</svg>