<svg xmlns="http://www.w3.org/2000/svg" width="640" height="400" viewBox="0 0 640 400">
<defs><linearGradient id="bgmochimatch" x1="0" y1="0" x2="1" y2="1"><stop offset="0" stop-color="#1a237e"/><stop offset=".6" stop-color="#283593"/><stop offset="1" stop-color="#e8eaf6"/></linearGradient><filter id="ds"><feDropShadow dx="0" dy="2" stdDeviation="3" flood-opacity=".6"/></filter></defs>
<rect width="640" height="400" fill="url(#bgmochimatch)" rx="12"/>
<circle cx="580" cy="350" r="80" fill="#7986cb" opacity="0.08"/><circle cx="60" cy="360" r="50" fill="#7986cb" opacity="0.08"/><circle cx="320" cy="380" r="60" fill="#7986cb" opacity="0.08"/><circle cx="500" cy="50" r="40" fill="#7986cb" opacity="0.08"/><circle cx="140" cy="30" r="30" fill="#7986cb" opacity="0.08"/><circle cx="640" cy="0" r="90" fill="#7986cb" opacity="0.08"/>
<circle cx="163" cy="136" r="1.2" fill="#9fa8da" opacity="0.62"/><circle cx="28" cy="41" r="1.1" fill="#9fa8da" opacity="0.33"/><circle cx="286" cy="80" r="1.6" fill="#9fa8da" opacity="0.31"/><circle cx="508" cy="105" r="1.2" fill="#9fa8da" opacity="0.80"/><circle cx="482" cy="134" r="1.2" fill="#9fa8da" opacity="0.63"/><circle cx="53" cy="43" r="2.5" fill="#9fa8da" opacity="0.41"/><circle cx="101" cy="80" r="2.0" fill="#9fa8da" opacity="0.69"/><circle cx="452" cy="89" r="2.6" fill="#9fa8da" opacity="0.85"/><circle cx="138" cy="127" r="1.8" fill="#9fa8da" opacity="0.75"/><circle cx="600" cy="26" r="2.2" fill="#9fa8da" opacity="0.33"/><circle cx="160" cy="50" r="1.4" fill="#9fa8da" opacity="0.42"/><circle cx="122" cy="106" r="1.3" fill="#9fa8da" opacity="0.32"/><circle cx="544" cy="72" r="1.2" fill="#9fa8da" opacity="0.87"/><circle cx="198" cy="96" r="1.5" fill="#9fa8da" opacity="0.53"/><circle cx="197" cy="149" r="2.7" fill="#9fa8da" opacity="0.58"/><circle cx="48" cy="74" r="2.0" fill="#9fa8da" opacity="0.49"/>
<rect x="12" y="12" width="100" height="24" rx="12" fill="#01579b" opacity="0.9"/><text x="62" y="28" fill="#fff" font-size="11" font-weight="700" text-anchor="middle" font-family="Arial,sans-serif">MATCH-3</text>
<rect x="100" y="60" width="440" height="280" rx="8" fill="#0d1b2a" opacity="0.5"/><circle cx="137" cy="94" r="16" fill="#ff5252" opacity="0.8" filter="url(#ds)"/><rect x="189" y="78" width="32" height="32" rx="4" fill="#448aff" opacity="0.8" filter="url(#ds)"/><polygon points="273,76 287,112 259,112" fill="#69f0ae" opacity="0.8" filter="url(#ds)"/><circle cx="341" cy="94" r="16" fill="#ffd740" opacity="0.8" filter="url(#ds)"/><rect x="393" y="78" width="32" height="32" rx="4" fill="#e040fb" opacity="0.8" filter="url(#ds)"/><polygon points="477,76 491,112 463,112" fill="#ff8a80" opacity="0.8" filter="url(#ds)"/><rect x="121" y="122" width="32" height="32" rx="4" fill="#448aff" opacity="0.8" filter="url(#ds)"/><polygon points="205,120 219,156 191,156" fill="#69f0ae" opacity="0.8" filter="url(#ds)"/><circle cx="273" cy="138" r="16" fill="#ffd740" opacity="0.8" filter="url(#ds)"/><rect x="325" y="122" width="32" height="32" rx="4" fill="#e040fb" opacity="0.8" filter="url(#ds)"/><polygon points="409,120 423,156 395,156" fill="#ff8a80" opacity="0.8" filter="url(#ds)"/><circle cx="477" cy="138" r="16" fill="#ff5252" opacity="0.8" filter="url(#ds)"/><polygon points="137,164 151,200 123,200" fill="#69f0ae" opacity="0.8" filter="url(#ds)"/><circle cx="205" cy="182" r="16" fill="#ffd740" opacity="0.8" filter="url(#ds)"/><rect x="257" y="166" width="32" height="32" rx="4" fill="#e040fb" opacity="0.8" filter="url(#ds)"/><polygon points="341,164 355,200 327,200" fill="#ff8a80" opacity="0.8" filter="url(#ds)"/><circle cx="409" cy="182" r="16" fill="#ff5252" opacity="0.8" filter="url(#ds)"/><rect x="461" y="166" width="32" height="32" rx="4" fill="#448aff" opacity="0.8" filter="url(#ds)"/><circle cx="137" cy="226" r="16" fill="#ffd740" opacity="0.8" filter="url(#ds)"/><rect x="189" y="210" width="32" height="32" rx="4" fill="#e040fb" opacity="0.8" filter="url(#ds)"/><polygon points="273,208 287,244 259,244" fill="#ff8a80" opacity="0.8" filter="url(#ds)"/><circle cx="341" cy="226" r="16" fill="#ff5252" opacity="0.8" filter="url(#ds)"/><rect x="393" y="210" width="32" height="32" rx="4" fill="#448aff" opacity="0.8" filter="url(#ds)"/><polygon points="477,208 491,244 463,244" fill="#69f0ae" opacity="0.8" filter="url(#ds)"/><rect x="121" y="254" width="32" height="32" rx="4" fill="#e040fb" opacity="0.8" filter="url(#ds)"/><polygon points="205,252 219,288 191,288" fill="#ff8a80" opacity="0.8" filter="url(#ds)"/><circle cx="273" cy="270" r="16" fill="#ff5252" opacity="0.8" filter="url(#ds)"/><rect x="325" y="254" width="32" height="32" rx="4" fill="#448aff" opacity="0.8" filter="url(#ds)"/><polygon points="409,252 423,288 395,288" fill="#69f0ae" opacity="0.8" filter="url(#ds)"/><circle cx="477" cy="270" r="16" fill="#ffd740" opacity="0.8" filter="url(#ds)"/><polygon points="137,296 151,332 123,332" fill="#ff8a80" opacity="0.8" filter="url(#ds)"/><circle cx="205" cy="314" r="16" fill="#ff5252" opacity="0.8" filter="url(#ds)"/><rect x="257" y="298" width="32" height="32" rx="4" fill="#448aff" opacity="0.8" filter="url(#ds)"/><polygon points="341,296 355,332 327,332" fill="#69f0ae" opacity="0.8" filter="url(#ds)"/><circle cx="409" cy="314" r="16" fill="#ffd740" opacity="0.8" filter="url(#ds)"/><rect x="461" y="298" width="32" height="32" rx="4" fill="#e040fb" opacity="0.8" filter="url(#ds)"/>
<text x="320" y="340" fill="#fff" font-size="22" font-weight="800" text-anchor="middle" font-family="Arial,sans-serif" filter="url(#ds)">Mochi</text><text x="320" y="366" fill="#fff" font-size="22" font-weight="800" text-anchor="middle" font-family="Arial,sans-serif" filter="url(#ds)">Match</text>
</svg>