<svg xmlns="http://www.w3.org/2000/svg" width="640" height="400" viewBox="0 0 640 400">
<defs><linearGradient id="bgmochimaker" x1="0" y1="0" x2="1" y2="1"><stop offset="0" stop-color="#1a237e"/><stop offset=".6" stop-color="#283593"/><stop offset="1" stop-color="#e8eaf6"/></linearGradient><filter id="ds"><feDropShadow dx="0" dy="2" stdDeviation="3" flood-opacity=".6"/></filter></defs>
<rect width="640" height="400" fill="url(#bgmochimaker)" rx="12"/>
<circle cx="580" cy="350" r="80" fill="#7986cb" opacity="0.08"/><circle cx="60" cy="360" r="50" fill="#7986cb" opacity="0.08"/><circle cx="320" cy="380" r="60" fill="#7986cb" opacity="0.08"/><circle cx="500" cy="50" r="40" fill="#7986cb" opacity="0.08"/><circle cx="140" cy="30" r="30" fill="#7986cb" opacity="0.08"/><circle cx="640" cy="0" r="90" fill="#7986cb" opacity="0.08"/>
<circle cx="439" cy="117" r="2.6" fill="#9fa8da" opacity="0.64"/><circle cx="205" cy="95" r="1.8" fill="#9fa8da" opacity="0.87"/><circle cx="583" cy="130" r="2.0" fill="#9fa8da" opacity="0.81"/><circle cx="551" cy="100" r="2.4" fill="#9fa8da" opacity="0.72"/><circle cx="390" cy="77" r="2.1" fill="#9fa8da" opacity="0.59"/><circle cx="387" cy="110" r="1.3" fill="#9fa8da" opacity="0.77"/><circle cx="602" cy="104" r="2.2" fill="#9fa8da" opacity="0.63"/><circle cx="465" cy="155" r="2.4" fill="#9fa8da" opacity="0.43"/><circle cx="515" cy="63" r="1.1" fill="#9fa8da" opacity="0.69"/><circle cx="349" cy="18" r="1.3" fill="#9fa8da" opacity="0.37"/><circle cx="40" cy="63" r="1.8" fill="#9fa8da" opacity="0.31"/><circle cx="444" cy="109" r="1.9" fill="#9fa8da" opacity="0.41"/><circle cx="460" cy="125" r="1.7" fill="#9fa8da" opacity="0.74"/><circle cx="199" cy="78" r="1.5" fill="#9fa8da" opacity="0.75"/><circle cx="239" cy="72" r="2.7" fill="#9fa8da" opacity="0.47"/><circle cx="147" cy="135" r="2.3" fill="#9fa8da" opacity="0.58"/>
<rect x="12" y="12" width="100" height="24" rx="12" fill="#37474f" opacity="0.9"/><text x="62" y="28" fill="#fff" font-size="11" font-weight="700" text-anchor="middle" font-family="Arial,sans-serif">IDLE CLICKER</text>
<rect x="120" y="80" width="400" height="240" rx="12" fill="#1a1a2e" opacity="0.5" stroke="#f5c518" stroke-width="1.5"/><text x="320" y="140" fill="#f5c518" font-size="28" text-anchor="middle" font-family="Arial" font-weight="700" filter="url(#ds)">1,337</text><text x="320" y="170" fill="#fff" font-size="12" text-anchor="middle" font-family="Arial" opacity="0.6">coins</text><rect x="220" y="200" width="200" height="60" rx="10" fill="#f5c518" opacity="0.8"/><text x="320" y="237" fill="#1a1a2e" font-size="18" text-anchor="middle" font-family="Arial" font-weight="700">COLLECT</text><text x="320" y="290" fill="#fff" font-size="11" text-anchor="middle" font-family="Arial" opacity="0.5">+10/s auto</text>
<text x="320" y="340" fill="#fff" font-size="22" font-weight="800" text-anchor="middle" font-family="Arial,sans-serif" filter="url(#ds)">Mochi</text><text x="320" y="366" fill="#fff" font-size="22" font-weight="800" text-anchor="middle" font-family="Arial,sans-serif" filter="url(#ds)">Maker</text>
</svg>