<svg xmlns="http://www.w3.org/2000/svg" width="640" height="400" viewBox="0 0 640 400">
<defs><linearGradient id="bgmochibreak" x1="0" y1="0" x2="1" y2="1"><stop offset="0" stop-color="#1a237e"/><stop offset=".6" stop-color="#283593"/><stop offset="1" stop-color="#e8eaf6"/></linearGradient><filter id="ds"><feDropShadow dx="0" dy="2" stdDeviation="3" flood-opacity=".6"/></filter></defs>
<rect width="640" height="400" fill="url(#bgmochibreak)" rx="12"/>
<circle cx="580" cy="350" r="80" fill="#7986cb" opacity="0.08"/><circle cx="60" cy="360" r="50" fill="#7986cb" opacity="0.08"/><circle cx="320" cy="380" r="60" fill="#7986cb" opacity="0.08"/><circle cx="500" cy="50" r="40" fill="#7986cb" opacity="0.08"/><circle cx="140" cy="30" r="30" fill="#7986cb" opacity="0.08"/><circle cx="640" cy="0" r="90" fill="#7986cb" opacity="0.08"/>
<circle cx="600" cy="119" r="2.7" fill="#9fa8da" opacity="0.62"/><circle cx="153" cy="86" r="1.9" fill="#9fa8da" opacity="0.69"/><circle cx="426" cy="35" r="2.7" fill="#9fa8da" opacity="0.73"/><circle cx="443" cy="148" r="2.8" fill="#9fa8da" opacity="0.65"/><circle cx="404" cy="55" r="2.0" fill="#9fa8da" opacity="0.55"/><circle cx="304" cy="20" r="2.1" fill="#9fa8da" opacity="0.43"/><circle cx="546" cy="124" r="2.0" fill="#9fa8da" opacity="0.37"/><circle cx="165" cy="70" r="2.8" fill="#9fa8da" opacity="0.40"/><circle cx="611" cy="66" r="1.5" fill="#9fa8da" opacity="0.85"/><circle cx="448" cy="68" r="2.2" fill="#9fa8da" opacity="0.33"/><circle cx="352" cy="13" r="2.5" fill="#9fa8da" opacity="0.46"/><circle cx="484" cy="46" r="2.3" fill="#9fa8da" opacity="0.81"/><circle cx="333" cy="80" r="2.1" fill="#9fa8da" opacity="0.88"/><circle cx="290" cy="15" r="1.9" fill="#9fa8da" opacity="0.55"/><circle cx="248" cy="65" r="1.4" fill="#9fa8da" opacity="0.32"/><circle cx="76" cy="64" r="1.6" fill="#9fa8da" opacity="0.90"/>
<rect x="12" y="12" width="100" height="24" rx="12" fill="#37474f" opacity="0.9"/><text x="62" y="28" fill="#fff" font-size="11" font-weight="700" text-anchor="middle" font-family="Arial,sans-serif">BREAKOUT</text>
<rect x="100" y="60" width="440" height="280" rx="8" fill="#0d1b2a" opacity="0.5"/><rect x="80" y="65" width="44" height="18" rx="3" fill="#ff5252" opacity="0.8"/><rect x="129" y="65" width="44" height="18" rx="3" fill="#ff5252" opacity="0.8"/><rect x="178" y="65" width="44" height="18" rx="3" fill="#ff5252" opacity="0.8"/><rect x="227" y="65" width="44" height="18" rx="3" fill="#ff5252" opacity="0.8"/><rect x="276" y="65" width="44" height="18" rx="3" fill="#ff5252" opacity="0.8"/><rect x="325" y="65" width="44" height="18" rx="3" fill="#ff5252" opacity="0.8"/><rect x="374" y="65" width="44" height="18" rx="3" fill="#ff5252" opacity="0.8"/><rect x="423" y="65" width="44" height="18" rx="3" fill="#ff5252" opacity="0.8"/><rect x="472" y="65" width="44" height="18" rx="3" fill="#ff5252" opacity="0.8"/><rect x="521" y="65" width="44" height="18" rx="3" fill="#ff5252" opacity="0.8"/><rect x="80" y="87" width="44" height="18" rx="3" fill="#ffd740" opacity="0.8"/><rect x="129" y="87" width="44" height="18" rx="3" fill="#ffd740" opacity="0.8"/><rect x="178" y="87" width="44" height="18" rx="3" fill="#ffd740" opacity="0.8"/><rect x="227" y="87" width="44" height="18" rx="3" fill="#ffd740" opacity="0.8"/><rect x="276" y="87" width="44" height="18" rx="3" fill="#ffd740" opacity="0.8"/><rect x="325" y="87" width="44" height="18" rx="3" fill="#ffd740" opacity="0.8"/><rect x="374" y="87" width="44" height="18" rx="3" fill="#ffd740" opacity="0.8"/><rect x="423" y="87" width="44" height="18" rx="3" fill="#ffd740" opacity="0.8"/><rect x="472" y="87" width="44" height="18" rx="3" fill="#ffd740" opacity="0.8"/><rect x="521" y="87" width="44" height="18" rx="3" fill="#ffd740" opacity="0.8"/><rect x="80" y="109" width="44" height="18" rx="3" fill="#448aff" opacity="0.8"/><rect x="129" y="109" width="44" height="18" rx="3" fill="#448aff" opacity="0.8"/><rect x="178" y="109" width="44" height="18" rx="3" fill="#448aff" opacity="0.8"/><rect x="227" y="109" width="44" height="18" rx="3" fill="#448aff" opacity="0.8"/><rect x="276" y="109" width="44" height="18" rx="3" fill="#448aff" opacity="0.8"/><rect x="325" y="109" width="44" height="18" rx="3" fill="#448aff" opacity="0.8"/><rect x="374" y="109" width="44" height="18" rx="3" fill="#448aff" opacity="0.8"/><rect x="423" y="109" width="44" height="18" rx="3" fill="#448aff" opacity="0.8"/><rect x="472" y="109" width="44" height="18" rx="3" fill="#448aff" opacity="0.8"/><rect x="521" y="109" width="44" height="18" rx="3" fill="#448aff" opacity="0.8"/><rect x="270" y="350" width="100" height="12" rx="4" fill="#fff" opacity="0.8"/><circle cx="280" cy="340" r="6" fill="#fff" opacity="0.9" filter="url(#ds)"/>
<text x="320" y="340" fill="#fff" font-size="22" font-weight="800" text-anchor="middle" font-family="Arial,sans-serif" filter="url(#ds)">Mochi</text><text x="320" y="366" fill="#fff" font-size="22" font-weight="800" text-anchor="middle" font-family="Arial,sans-serif" filter="url(#ds)">Break</text>
</svg>