<svg xmlns="http://www.w3.org/2000/svg" width="640" height="400" viewBox="0 0 640 400">
<defs><linearGradient id="bgmochimountain" x1="0" y1="0" x2="1" y2="1"><stop offset="0" stop-color="#1a237e"/><stop offset=".6" stop-color="#283593"/><stop offset="1" stop-color="#e8eaf6"/></linearGradient><filter id="ds"><feDropShadow dx="0" dy="2" stdDeviation="3" flood-opacity=".6"/></filter></defs>
<rect width="640" height="400" fill="url(#bgmochimountain)" rx="12"/>
<circle cx="580" cy="350" r="80" fill="#7986cb" opacity="0.08"/><circle cx="60" cy="360" r="50" fill="#7986cb" opacity="0.08"/><circle cx="320" cy="380" r="60" fill="#7986cb" opacity="0.08"/><circle cx="500" cy="50" r="40" fill="#7986cb" opacity="0.08"/><circle cx="140" cy="30" r="30" fill="#7986cb" opacity="0.08"/><circle cx="640" cy="0" r="90" fill="#7986cb" opacity="0.08"/>
<circle cx="441" cy="18" r="2.0" fill="#9fa8da" opacity="0.84"/><circle cx="398" cy="89" r="2.3" fill="#9fa8da" opacity="0.66"/><circle cx="203" cy="140" r="2.0" fill="#9fa8da" opacity="0.82"/><circle cx="520" cy="34" r="2.7" fill="#9fa8da" opacity="0.57"/><circle cx="456" cy="62" r="1.7" fill="#9fa8da" opacity="0.64"/><circle cx="357" cy="60" r="1.8" fill="#9fa8da" opacity="0.72"/><circle cx="363" cy="47" r="1.5" fill="#9fa8da" opacity="0.41"/><circle cx="328" cy="62" r="2.2" fill="#9fa8da" opacity="0.59"/><circle cx="121" cy="152" r="1.3" fill="#9fa8da" opacity="0.37"/><circle cx="552" cy="99" r="1.8" fill="#9fa8da" opacity="0.72"/><circle cx="454" cy="44" r="2.7" fill="#9fa8da" opacity="0.32"/><circle cx="172" cy="119" r="2.9" fill="#9fa8da" opacity="0.50"/><circle cx="444" cy="16" r="1.4" fill="#9fa8da" opacity="0.81"/><circle cx="468" cy="106" r="1.2" fill="#9fa8da" opacity="0.52"/>
<rect x="12" y="12" width="100" height="24" rx="12" fill="#e65100" opacity="0.9"/><text x="62" y="28" fill="#fff" font-size="11" font-weight="700" text-anchor="middle" font-family="Arial,sans-serif">PLATFORMER</text>
<rect x="30" y="310" width="120" height="16" rx="4" fill="#e65100" opacity="0.8" filter="url(#ds)"/><rect x="200" y="260" width="100" height="16" rx="4" fill="#f5c518" opacity="0.8" filter="url(#ds)"/><rect x="350" y="200" width="110" height="16" rx="4" fill="#e65100" opacity="0.8" filter="url(#ds)"/><rect x="500" y="270" width="90" height="16" rx="4" fill="#f5c518" opacity="0.8" filter="url(#ds)"/><rect x="150" y="140" width="80" height="16" rx="4" fill="#e65100" opacity="0.8" filter="url(#ds)"/><rect x="400" y="100" width="100" height="16" rx="4" fill="#f5c518" opacity="0.8" filter="url(#ds)"/><circle cx="260" cy="240" r="18" fill="#fff" opacity="0.9" filter="url(#ds)"/><circle cx="255" cy="235" r="5" fill="#1a1a2e"/><circle cx="265" cy="235" r="5" fill="#1a1a2e"/><circle cx="420" cy="180" r="7" fill="#ffd740" opacity="0.9" filter="url(#ds)"/><circle cx="460" cy="170" r="7" fill="#ffd740" opacity="0.9" filter="url(#ds)"/><circle cx="500" cy="180" r="7" fill="#ffd740" opacity="0.9" filter="url(#ds)"/><circle cx="180" cy="120" r="7" fill="#ffd740" opacity="0.9" filter="url(#ds)"/><circle cx="220" cy="110" r="7" fill="#ffd740" opacity="0.9" filter="url(#ds)"/>
<text x="320" y="340" fill="#fff" font-size="22" font-weight="800" text-anchor="middle" font-family="Arial,sans-serif" filter="url(#ds)">Mochi</text><text x="320" y="366" fill="#fff" font-size="22" font-weight="800" text-anchor="middle" font-family="Arial,sans-serif" filter="url(#ds)">Mountain</text>
</svg>