<svg xmlns="http://www.w3.org/2000/svg" width="640" height="400" viewBox="0 0 640 400">
<defs><linearGradient id="bgmoonflipgarden" x1="0" y1="0" x2="1" y2="1"><stop offset="0" stop-color="#1a0a2e"/><stop offset=".6" stop-color="#2d1b4e"/><stop offset="1" stop-color="#e8d5b7"/></linearGradient><filter id="ds"><feDropShadow dx="0" dy="2" stdDeviation="3" flood-opacity=".6"/></filter></defs>
<rect width="640" height="400" fill="url(#bgmoonflipgarden)" rx="12"/>
<circle cx="580" cy="350" r="80" fill="#b8a07a" opacity="0.08"/><circle cx="60" cy="360" r="50" fill="#b8a07a" opacity="0.08"/><circle cx="320" cy="380" r="60" fill="#b8a07a" opacity="0.08"/><circle cx="500" cy="50" r="40" fill="#b8a07a" opacity="0.08"/><circle cx="140" cy="30" r="30" fill="#b8a07a" opacity="0.08"/><circle cx="640" cy="0" r="90" fill="#b8a07a" opacity="0.08"/>
<circle cx="302" cy="151" r="2.0" fill="#ffd700" opacity="0.42"/><circle cx="462" cy="96" r="2.3" fill="#ffd700" opacity="0.80"/><circle cx="351" cy="108" r="1.3" fill="#ffd700" opacity="0.54"/><circle cx="402" cy="131" r="2.1" fill="#ffd700" opacity="0.86"/><circle cx="374" cy="120" r="1.4" fill="#ffd700" opacity="0.80"/><circle cx="591" cy="116" r="2.4" fill="#ffd700" opacity="0.31"/><circle cx="407" cy="57" r="1.6" fill="#ffd700" opacity="0.53"/><circle cx="65" cy="28" r="2.3" fill="#ffd700" opacity="0.65"/><circle cx="503" cy="144" r="2.6" fill="#ffd700" opacity="0.89"/><circle cx="415" cy="38" r="1.5" fill="#ffd700" opacity="0.80"/><circle cx="446" cy="93" r="1.5" fill="#ffd700" opacity="0.78"/><circle cx="230" cy="16" r="3.0" fill="#ffd700" opacity="0.87"/><circle cx="206" cy="127" r="1.0" fill="#ffd700" opacity="0.82"/><circle cx="315" cy="89" r="2.0" fill="#ffd700" opacity="0.43"/>
<rect x="12" y="12" width="100" height="24" rx="12" fill="#4a148c" opacity="0.9"/><text x="62" y="28" fill="#fff" font-size="11" font-weight="700" text-anchor="middle" font-family="Arial,sans-serif">STRATEGY</text>
<rect x="120" y="70" width="400" height="260" rx="8" fill="#2d1b4e" stroke="#e8d5b7" stroke-width="2" opacity="0.6"/><rect x="140" y="90" width="360" height="220" rx="4" fill="#1a0a2e" stroke="#e8d5b7" stroke-width="1" opacity="0.8"/><rect x="140" y="90" width="45.0" height="27.5" fill="#e8d5b7" opacity="0.15"/><rect x="230" y="90" width="45.0" height="27.5" fill="#e8d5b7" opacity="0.15"/><rect x="320" y="90" width="45.0" height="27.5" fill="#e8d5b7" opacity="0.15"/><rect x="410" y="90" width="45.0" height="27.5" fill="#e8d5b7" opacity="0.15"/><rect x="185" y="118" width="45.0" height="27.5" fill="#e8d5b7" opacity="0.15"/><rect x="275" y="118" width="45.0" height="27.5" fill="#e8d5b7" opacity="0.15"/><rect x="365" y="118" width="45.0" height="27.5" fill="#e8d5b7" opacity="0.15"/><rect x="455" y="118" width="45.0" height="27.5" fill="#e8d5b7" opacity="0.15"/><rect x="140" y="145" width="45.0" height="27.5" fill="#e8d5b7" opacity="0.15"/><rect x="230" y="145" width="45.0" height="27.5" fill="#e8d5b7" opacity="0.15"/><rect x="320" y="145" width="45.0" height="27.5" fill="#e8d5b7" opacity="0.15"/><rect x="410" y="145" width="45.0" height="27.5" fill="#e8d5b7" opacity="0.15"/><rect x="185" y="173" width="45.0" height="27.5" fill="#e8d5b7" opacity="0.15"/><rect x="275" y="173" width="45.0" height="27.5" fill="#e8d5b7" opacity="0.15"/><rect x="365" y="173" width="45.0" height="27.5" fill="#e8d5b7" opacity="0.15"/><rect x="455" y="173" width="45.0" height="27.5" fill="#e8d5b7" opacity="0.15"/><rect x="140" y="200" width="45.0" height="27.5" fill="#e8d5b7" opacity="0.15"/><rect x="230" y="200" width="45.0" height="27.5" fill="#e8d5b7" opacity="0.15"/><rect x="320" y="200" width="45.0" height="27.5" fill="#e8d5b7" opacity="0.15"/><rect x="410" y="200" width="45.0" height="27.5" fill="#e8d5b7" opacity="0.15"/><rect x="185" y="228" width="45.0" height="27.5" fill="#e8d5b7" opacity="0.15"/><rect x="275" y="228" width="45.0" height="27.5" fill="#e8d5b7" opacity="0.15"/><rect x="365" y="228" width="45.0" height="27.5" fill="#e8d5b7" opacity="0.15"/><rect x="455" y="228" width="45.0" height="27.5" fill="#e8d5b7" opacity="0.15"/><rect x="140" y="255" width="45.0" height="27.5" fill="#e8d5b7" opacity="0.15"/><rect x="230" y="255" width="45.0" height="27.5" fill="#e8d5b7" opacity="0.15"/><rect x="320" y="255" width="45.0" height="27.5" fill="#e8d5b7" opacity="0.15"/><rect x="410" y="255" width="45.0" height="27.5" fill="#e8d5b7" opacity="0.15"/><rect x="185" y="283" width="45.0" height="27.5" fill="#e8d5b7" opacity="0.15"/><rect x="275" y="283" width="45.0" height="27.5" fill="#e8d5b7" opacity="0.15"/><rect x="365" y="283" width="45.0" height="27.5" fill="#e8d5b7" opacity="0.15"/><rect x="455" y="283" width="45.0" height="27.5" fill="#e8d5b7" opacity="0.15"/>
<text x="320" y="340" fill="#fff" font-size="22" font-weight="800" text-anchor="middle" font-family="Arial,sans-serif" filter="url(#ds)">Moonflip</text><text x="320" y="366" fill="#fff" font-size="22" font-weight="800" text-anchor="middle" font-family="Arial,sans-serif" filter="url(#ds)">Garden</text>
</svg>