<svg xmlns="http://www.w3.org/2000/svg" width="640" height="400" viewBox="0 0 640 400">
<defs><linearGradient id="bgnebulanuggetblast" x1="0" y1="0" x2="1" y2="1"><stop offset="0" stop-color="#1a0033"/><stop offset=".6" stop-color="#4a0072"/><stop offset="1" stop-color="#ff80ab"/></linearGradient><filter id="ds"><feDropShadow dx="0" dy="2" stdDeviation="3" flood-opacity=".6"/></filter></defs>
<rect width="640" height="400" fill="url(#bgnebulanuggetblast)" rx="12"/>
<circle cx="580" cy="350" r="80" fill="#ff4081" opacity="0.08"/><circle cx="60" cy="360" r="50" fill="#ff4081" opacity="0.08"/><circle cx="320" cy="380" r="60" fill="#ff4081" opacity="0.08"/><circle cx="500" cy="50" r="40" fill="#ff4081" opacity="0.08"/><circle cx="140" cy="30" r="30" fill="#ff4081" opacity="0.08"/><circle cx="640" cy="0" r="90" fill="#ff4081" opacity="0.08"/>
<circle cx="432" cy="40" r="2.4" fill="#f8bbd0" opacity="0.66"/><circle cx="141" cy="57" r="1.1" fill="#f8bbd0" opacity="0.55"/><circle cx="132" cy="105" r="2.6" fill="#f8bbd0" opacity="0.56"/><circle cx="411" cy="59" r="2.3" fill="#f8bbd0" opacity="0.86"/><circle cx="552" cy="10" r="2.5" fill="#f8bbd0" opacity="0.68"/><circle cx="473" cy="112" r="2.1" fill="#f8bbd0" opacity="0.42"/><circle cx="539" cy="31" r="1.7" fill="#f8bbd0" opacity="0.52"/><circle cx="256" cy="115" r="2.1" fill="#f8bbd0" opacity="0.81"/><circle cx="294" cy="105" r="1.1" fill="#f8bbd0" opacity="0.56"/><circle cx="601" cy="122" r="2.3" fill="#f8bbd0" opacity="0.83"/><circle cx="129" cy="73" r="1.2" fill="#f8bbd0" opacity="0.33"/><circle cx="585" cy="26" r="2.0" fill="#f8bbd0" opacity="0.33"/>
<rect x="12" y="12" width="100" height="24" rx="12" fill="#880e4f" opacity="0.9"/><text x="62" y="28" fill="#fff" font-size="11" font-weight="700" text-anchor="middle" font-family="Arial,sans-serif">SHOOTER</text>
<polygon points="320,340 300,380 340,380" fill="#4fc3f7" opacity="0.9" filter="url(#ds)"/><rect x="85" y="50" width="30" height="20" rx="4" fill="#e94560" opacity="0.8" filter="url(#ds)"/><rect x="185" y="70" width="30" height="20" rx="4" fill="#ff5252" opacity="0.8" filter="url(#ds)"/><rect x="285" y="40" width="30" height="20" rx="4" fill="#e94560" opacity="0.8" filter="url(#ds)"/><rect x="385" y="60" width="30" height="20" rx="4" fill="#ff5252" opacity="0.8" filter="url(#ds)"/><rect x="485" y="50" width="30" height="20" rx="4" fill="#e94560" opacity="0.8" filter="url(#ds)"/><rect x="135" y="120" width="30" height="20" rx="4" fill="#ff5252" opacity="0.8" filter="url(#ds)"/><rect x="335" y="110" width="30" height="20" rx="4" fill="#e94560" opacity="0.8" filter="url(#ds)"/><rect x="435" y="130" width="30" height="20" rx="4" fill="#ff5252" opacity="0.8" filter="url(#ds)"/><line x1="320" y1="330" x2="320" y2="200" stroke="#ffd740" stroke-width="3" opacity="0.8"/><line x1="310" y1="320" x2="200" y2="140" stroke="#ffd740" stroke-width="2" opacity="0.6"/>
<text x="320" y="340" fill="#fff" font-size="20" font-weight="800" text-anchor="middle" font-family="Arial,sans-serif" filter="url(#ds)">Nebula Nugget</text><text x="320" y="364" fill="#fff" font-size="20" font-weight="800" text-anchor="middle" font-family="Arial,sans-serif" filter="url(#ds)">Blast</text>
</svg>