<svg xmlns="http://www.w3.org/2000/svg" width="640" height="400" viewBox="0 0 640 400">
<defs><linearGradient id="bgorbitpopper" x1="0" y1="0" x2="1" y2="1"><stop offset="0" stop-color="#0d1b2a"/><stop offset=".6" stop-color="#1b3a5c"/><stop offset="1" stop-color="#e0f7fa"/></linearGradient><filter id="ds"><feDropShadow dx="0" dy="2" stdDeviation="3" flood-opacity=".6"/></filter></defs>
<rect width="640" height="400" fill="url(#bgorbitpopper)" rx="12"/>
<circle cx="580" cy="350" r="80" fill="#4fc3f7" opacity="0.08"/><circle cx="60" cy="360" r="50" fill="#4fc3f7" opacity="0.08"/><circle cx="320" cy="380" r="60" fill="#4fc3f7" opacity="0.08"/><circle cx="500" cy="50" r="40" fill="#4fc3f7" opacity="0.08"/><circle cx="140" cy="30" r="30" fill="#4fc3f7" opacity="0.08"/><circle cx="640" cy="0" r="90" fill="#4fc3f7" opacity="0.08"/>
<circle cx="125" cy="145" r="1.3" fill="#81d4fa" opacity="0.54"/><circle cx="326" cy="79" r="1.7" fill="#81d4fa" opacity="0.37"/><circle cx="283" cy="100" r="1.4" fill="#81d4fa" opacity="0.34"/><circle cx="546" cy="91" r="2.0" fill="#81d4fa" opacity="0.49"/><circle cx="116" cy="98" r="2.2" fill="#81d4fa" opacity="0.42"/><circle cx="382" cy="137" r="2.4" fill="#81d4fa" opacity="0.66"/><circle cx="276" cy="58" r="1.3" fill="#81d4fa" opacity="0.85"/><circle cx="227" cy="132" r="2.9" fill="#81d4fa" opacity="0.50"/><circle cx="374" cy="90" r="2.9" fill="#81d4fa" opacity="0.47"/><circle cx="366" cy="95" r="2.2" fill="#81d4fa" opacity="0.48"/><circle cx="447" cy="100" r="2.8" fill="#81d4fa" opacity="0.71"/><circle cx="122" cy="125" r="2.2" fill="#81d4fa" opacity="0.57"/><circle cx="331" cy="103" r="2.6" fill="#81d4fa" opacity="0.42"/><circle cx="559" cy="140" r="1.6" fill="#81d4fa" opacity="0.54"/><circle cx="610" cy="56" r="1.2" fill="#81d4fa" opacity="0.48"/><circle cx="159" cy="146" r="1.3" fill="#81d4fa" opacity="0.68"/><circle cx="298" cy="34" r="1.9" fill="#81d4fa" opacity="0.82"/><circle cx="112" cy="131" r="1.6" fill="#81d4fa" opacity="0.69"/>
<rect x="12" y="12" width="100" height="24" rx="12" fill="#37474f" opacity="0.9"/><text x="62" y="28" fill="#fff" font-size="11" font-weight="700" text-anchor="middle" font-family="Arial,sans-serif">BUBBLE SHOOTER</text>
<rect x="100" y="60" width="440" height="280" rx="8" fill="#0d1b2a" opacity="0.5"/><rect x="50" y="200" width="120" height="40" rx="6" fill="#4fc3f7" opacity="0.8"/><rect x="140" y="190" width="60" height="60" rx="8" fill="#4fc3f7" opacity="0.6"/><circle cx="200" cy="120" r="18" fill="#ff5252" opacity="0.9" filter="url(#ds)"/><circle cx="300" cy="90" r="16" fill="#448aff" opacity="0.9" filter="url(#ds)"/><circle cx="420" cy="130" r="20" fill="#69f0ae" opacity="0.9" filter="url(#ds)"/><circle cx="510" cy="200" r="15" fill="#ffd740" opacity="0.9" filter="url(#ds)"/>
<text x="320" y="340" fill="#fff" font-size="22" font-weight="800" text-anchor="middle" font-family="Arial,sans-serif" filter="url(#ds)">Orbit</text><text x="320" y="366" fill="#fff" font-size="22" font-weight="800" text-anchor="middle" font-family="Arial,sans-serif" filter="url(#ds)">Popper</text>
</svg>