<svg xmlns="http://www.w3.org/2000/svg" width="640" height="400" viewBox="0 0 640 400">
<defs><linearGradient id="bgpalmspeedway" x1="0" y1="0" x2="1" y2="1"><stop offset="0" stop-color="#003300"/><stop offset=".6" stop-color="#006600"/><stop offset="1" stop-color="#ffe082"/></linearGradient><filter id="ds"><feDropShadow dx="0" dy="2" stdDeviation="3" flood-opacity=".6"/></filter></defs>
<rect width="640" height="400" fill="url(#bgpalmspeedway)" rx="12"/>
<circle cx="580" cy="350" r="80" fill="#ffab00" opacity="0.08"/><circle cx="60" cy="360" r="50" fill="#ffab00" opacity="0.08"/><circle cx="320" cy="380" r="60" fill="#ffab00" opacity="0.08"/><circle cx="500" cy="50" r="40" fill="#ffab00" opacity="0.08"/><circle cx="140" cy="30" r="30" fill="#ffab00" opacity="0.08"/><circle cx="640" cy="0" r="90" fill="#ffab00" opacity="0.08"/>
<circle cx="338" cy="90" r="1.9" fill="#ffe082" opacity="0.66"/><circle cx="522" cy="156" r="1.4" fill="#ffe082" opacity="0.79"/><circle cx="227" cy="15" r="1.6" fill="#ffe082" opacity="0.59"/><circle cx="507" cy="93" r="1.6" fill="#ffe082" opacity="0.45"/><circle cx="145" cy="134" r="1.3" fill="#ffe082" opacity="0.59"/><circle cx="395" cy="53" r="3.0" fill="#ffe082" opacity="0.54"/><circle cx="84" cy="16" r="2.2" fill="#ffe082" opacity="0.49"/><circle cx="346" cy="142" r="2.7" fill="#ffe082" opacity="0.63"/><circle cx="341" cy="75" r="2.4" fill="#ffe082" opacity="0.43"/><circle cx="76" cy="98" r="1.2" fill="#ffe082" opacity="0.86"/><circle cx="249" cy="40" r="1.9" fill="#ffe082" opacity="0.65"/><circle cx="59" cy="66" r="1.0" fill="#ffe082" opacity="0.39"/><circle cx="460" cy="93" r="1.7" fill="#ffe082" opacity="0.83"/><circle cx="434" cy="17" r="2.2" fill="#ffe082" opacity="0.40"/><circle cx="81" cy="127" r="1.9" fill="#ffe082" opacity="0.83"/><circle cx="315" cy="153" r="2.8" fill="#ffe082" opacity="0.61"/>
<rect x="12" y="12" width="100" height="24" rx="12" fill="#bf360c" opacity="0.9"/><text x="62" y="28" fill="#fff" font-size="11" font-weight="700" text-anchor="middle" font-family="Arial,sans-serif">RACING</text>
<rect x="0" y="100" width="640" height="200" fill="#333" opacity="0.6"/><line x1="0" y1="200" x2="640" y2="200" stroke="#fff" stroke-width="1" stroke-dasharray="20,15" opacity="0.4"/><rect x="80" y="140" width="80" height="35" rx="8" fill="#e94560" opacity="0.9" filter="url(#ds)"/><rect x="90" y="135" width="20" height="12" rx="4" fill="#e94560" opacity="0.7"/><rect x="280" y="180" width="75" height="35" rx="8" fill="#448aff" opacity="0.9" filter="url(#ds)"/><rect x="290" y="175" width="18" height="12" rx="4" fill="#448aff" opacity="0.7"/><rect x="480" y="130" width="85" height="35" rx="8" fill="#ffd740" opacity="0.9" filter="url(#ds)"/><rect x="490" y="125" width="22" height="12" rx="4" fill="#ffd740" opacity="0.7"/><rect x="50" y="30" width="100" height="30" rx="15" fill="#fff" opacity="0.1"/><rect x="400" y="20" width="120" height="25" rx="12" fill="#fff" opacity="0.08"/>
<text x="320" y="340" fill="#fff" font-size="22" font-weight="800" text-anchor="middle" font-family="Arial,sans-serif" filter="url(#ds)">Palm</text><text x="320" y="366" fill="#fff" font-size="22" font-weight="800" text-anchor="middle" font-family="Arial,sans-serif" filter="url(#ds)">Speedway</text>
</svg>