<svg xmlns="http://www.w3.org/2000/svg" width="640" height="400" viewBox="0 0 640 400">
<defs><linearGradient id="bgpandamemory" x1="0" y1="0" x2="1" y2="1"><stop offset="0" stop-color="#1b5e20"/><stop offset=".6" stop-color="#2e7d32"/><stop offset="1" stop-color="#c8e6c9"/></linearGradient><filter id="ds"><feDropShadow dx="0" dy="2" stdDeviation="3" flood-opacity=".6"/></filter></defs>
<rect width="640" height="400" fill="url(#bgpandamemory)" rx="12"/>
<circle cx="580" cy="350" r="80" fill="#66bb6a" opacity="0.08"/><circle cx="60" cy="360" r="50" fill="#66bb6a" opacity="0.08"/><circle cx="320" cy="380" r="60" fill="#66bb6a" opacity="0.08"/><circle cx="500" cy="50" r="40" fill="#66bb6a" opacity="0.08"/><circle cx="140" cy="30" r="30" fill="#66bb6a" opacity="0.08"/><circle cx="640" cy="0" r="90" fill="#66bb6a" opacity="0.08"/>
<circle cx="322" cy="21" r="2.5" fill="#a5d6a7" opacity="0.77"/><circle cx="481" cy="109" r="2.8" fill="#a5d6a7" opacity="0.80"/><circle cx="517" cy="26" r="2.9" fill="#a5d6a7" opacity="0.80"/><circle cx="503" cy="10" r="1.4" fill="#a5d6a7" opacity="0.81"/><circle cx="192" cy="107" r="3.0" fill="#a5d6a7" opacity="0.78"/><circle cx="371" cy="120" r="2.3" fill="#a5d6a7" opacity="0.44"/><circle cx="299" cy="63" r="2.3" fill="#a5d6a7" opacity="0.78"/><circle cx="356" cy="13" r="1.9" fill="#a5d6a7" opacity="0.56"/><circle cx="339" cy="67" r="2.3" fill="#a5d6a7" opacity="0.54"/><circle cx="528" cy="147" r="1.1" fill="#a5d6a7" opacity="0.43"/><circle cx="289" cy="53" r="2.4" fill="#a5d6a7" opacity="0.70"/><circle cx="119" cy="101" r="1.8" fill="#a5d6a7" opacity="0.49"/>
<rect x="12" y="12" width="100" height="24" rx="12" fill="#4a148c" opacity="0.9"/><text x="62" y="28" fill="#fff" font-size="11" font-weight="700" text-anchor="middle" font-family="Arial,sans-serif">MEMORY</text>
<rect x="100" y="60" width="440" height="280" rx="8" fill="#0d1b2a" opacity="0.5"/><rect x="130" y="70" width="85" height="55" rx="6" fill="#1b3a5c" stroke="#4fc3f7" stroke-width="1.5" opacity="0.8"/><rect x="225" y="70" width="85" height="55" rx="6" fill="#1b3a5c" stroke="#4fc3f7" stroke-width="1.5" opacity="0.8"/><rect x="320" y="70" width="85" height="55" rx="6" fill="#1b3a5c" stroke="#4fc3f7" stroke-width="1.5" opacity="0.8"/><rect x="415" y="70" width="85" height="55" rx="6" fill="#1b3a5c" stroke="#4fc3f7" stroke-width="1.5" opacity="0.8"/><rect x="130" y="132" width="85" height="55" rx="6" fill="#1b3a5c" stroke="#4fc3f7" stroke-width="1.5" opacity="0.8"/><rect x="225" y="132" width="85" height="55" rx="6" fill="#1b3a5c" stroke="#4fc3f7" stroke-width="1.5" opacity="0.8"/><rect x="320" y="132" width="85" height="55" rx="6" fill="#1b3a5c" stroke="#4fc3f7" stroke-width="1.5" opacity="0.8"/><rect x="415" y="132" width="85" height="55" rx="6" fill="#1b3a5c" stroke="#4fc3f7" stroke-width="1.5" opacity="0.8"/><rect x="130" y="194" width="85" height="55" rx="6" fill="#1b3a5c" stroke="#4fc3f7" stroke-width="1.5" opacity="0.8"/><rect x="225" y="194" width="85" height="55" rx="6" fill="#1b3a5c" stroke="#4fc3f7" stroke-width="1.5" opacity="0.8"/><rect x="320" y="194" width="85" height="55" rx="6" fill="#1b3a5c" stroke="#4fc3f7" stroke-width="1.5" opacity="0.8"/><rect x="415" y="194" width="85" height="55" rx="6" fill="#1b3a5c" stroke="#4fc3f7" stroke-width="1.5" opacity="0.8"/><rect x="130" y="256" width="85" height="55" rx="6" fill="#1b3a5c" stroke="#4fc3f7" stroke-width="1.5" opacity="0.8"/><rect x="225" y="256" width="85" height="55" rx="6" fill="#1b3a5c" stroke="#4fc3f7" stroke-width="1.5" opacity="0.8"/><rect x="320" y="256" width="85" height="55" rx="6" fill="#1b3a5c" stroke="#4fc3f7" stroke-width="1.5" opacity="0.8"/><rect x="415" y="256" width="85" height="55" rx="6" fill="#1b3a5c" stroke="#4fc3f7" stroke-width="1.5" opacity="0.8"/><rect x="130" y="70" width="85" height="55" rx="6" fill="#4fc3f7" opacity="0.6"/><text x="172" y="102" fill="#fff" font-size="20" text-anchor="middle" font-family="Arial">★</text><rect x="225" y="132" width="85" height="55" rx="6" fill="#4fc3f7" opacity="0.6"/><text x="267" y="164" fill="#fff" font-size="20" text-anchor="middle" font-family="Arial">♥</text>
<text x="320" y="340" fill="#fff" font-size="22" font-weight="800" text-anchor="middle" font-family="Arial,sans-serif" filter="url(#ds)">Panda</text><text x="320" y="366" fill="#fff" font-size="22" font-weight="800" text-anchor="middle" font-family="Arial,sans-serif" filter="url(#ds)">Memory</text>
</svg>