<svg xmlns="http://www.w3.org/2000/svg" width="640" height="400" viewBox="0 0 640 400">
<defs><linearGradient id="bgpandaglide" x1="0" y1="0" x2="1" y2="1"><stop offset="0" stop-color="#1b5e20"/><stop offset=".6" stop-color="#2e7d32"/><stop offset="1" stop-color="#c8e6c9"/></linearGradient><filter id="ds"><feDropShadow dx="0" dy="2" stdDeviation="3" flood-opacity=".6"/></filter></defs>
<rect width="640" height="400" fill="url(#bgpandaglide)" rx="12"/>
<circle cx="580" cy="350" r="80" fill="#66bb6a" opacity="0.08"/><circle cx="60" cy="360" r="50" fill="#66bb6a" opacity="0.08"/><circle cx="320" cy="380" r="60" fill="#66bb6a" opacity="0.08"/><circle cx="500" cy="50" r="40" fill="#66bb6a" opacity="0.08"/><circle cx="140" cy="30" r="30" fill="#66bb6a" opacity="0.08"/><circle cx="640" cy="0" r="90" fill="#66bb6a" opacity="0.08"/>
<circle cx="156" cy="86" r="1.7" fill="#a5d6a7" opacity="0.38"/><circle cx="310" cy="144" r="2.1" fill="#a5d6a7" opacity="0.81"/><circle cx="22" cy="158" r="2.9" fill="#a5d6a7" opacity="0.47"/><circle cx="332" cy="113" r="1.2" fill="#a5d6a7" opacity="0.87"/><circle cx="284" cy="44" r="2.2" fill="#a5d6a7" opacity="0.44"/><circle cx="196" cy="68" r="1.3" fill="#a5d6a7" opacity="0.50"/><circle cx="588" cy="148" r="3.0" fill="#a5d6a7" opacity="0.55"/><circle cx="179" cy="46" r="2.4" fill="#a5d6a7" opacity="0.42"/><circle cx="145" cy="67" r="1.9" fill="#a5d6a7" opacity="0.58"/><circle cx="209" cy="10" r="2.7" fill="#a5d6a7" opacity="0.38"/><circle cx="451" cy="146" r="2.0" fill="#a5d6a7" opacity="0.67"/><circle cx="213" cy="13" r="2.0" fill="#a5d6a7" opacity="0.58"/><circle cx="256" cy="106" r="1.0" fill="#a5d6a7" opacity="0.35"/><circle cx="165" cy="69" r="2.7" fill="#a5d6a7" opacity="0.33"/>
<rect x="12" y="12" width="100" height="24" rx="12" fill="#37474f" opacity="0.9"/><text x="62" y="28" fill="#fff" font-size="11" font-weight="700" text-anchor="middle" font-family="Arial,sans-serif">FLAPPY</text>
<rect x="180" y="60" width="50" height="140" rx="4" fill="#2e7d32" opacity="0.8"/><rect x="175" y="60" width="60" height="16" rx="4" fill="#388e3c" opacity="0.8"/><rect x="180" y="260" width="50" height="140" rx="4" fill="#2e7d32" opacity="0.8"/><rect x="175" y="384" width="60" height="16" rx="4" fill="#388e3c" opacity="0.8"/><rect x="400" y="40" width="50" height="100" rx="4" fill="#2e7d32" opacity="0.8"/><rect x="395" y="40" width="60" height="16" rx="4" fill="#388e3c" opacity="0.8"/><rect x="400" y="200" width="50" height="200" rx="4" fill="#2e7d32" opacity="0.8"/><rect x="395" y="384" width="60" height="16" rx="4" fill="#388e3c" opacity="0.8"/><circle cx="150" cy="190" r="18" fill="#ffd740" opacity="0.9" filter="url(#ds)"/><circle cx="145" cy="185" r="4" fill="#1a1a2e"/><polygon points="168,190 180,186 168,194" fill="#ffab00"/>
<text x="320" y="340" fill="#fff" font-size="22" font-weight="800" text-anchor="middle" font-family="Arial,sans-serif" filter="url(#ds)">Panda</text><text x="320" y="366" fill="#fff" font-size="22" font-weight="800" text-anchor="middle" font-family="Arial,sans-serif" filter="url(#ds)">Glide</text>
</svg>