<svg xmlns="http://www.w3.org/2000/svg" width="640" height="400" viewBox="0 0 640 400">
<defs><linearGradient id="bgpandabounce" x1="0" y1="0" x2="1" y2="1"><stop offset="0" stop-color="#1b5e20"/><stop offset=".6" stop-color="#2e7d32"/><stop offset="1" stop-color="#c8e6c9"/></linearGradient><filter id="ds"><feDropShadow dx="0" dy="2" stdDeviation="3" flood-opacity=".6"/></filter></defs>
<rect width="640" height="400" fill="url(#bgpandabounce)" rx="12"/>
<circle cx="580" cy="350" r="80" fill="#66bb6a" opacity="0.08"/><circle cx="60" cy="360" r="50" fill="#66bb6a" opacity="0.08"/><circle cx="320" cy="380" r="60" fill="#66bb6a" opacity="0.08"/><circle cx="500" cy="50" r="40" fill="#66bb6a" opacity="0.08"/><circle cx="140" cy="30" r="30" fill="#66bb6a" opacity="0.08"/><circle cx="640" cy="0" r="90" fill="#66bb6a" opacity="0.08"/>
<circle cx="583" cy="121" r="1.8" fill="#a5d6a7" opacity="0.44"/><circle cx="251" cy="28" r="1.1" fill="#a5d6a7" opacity="0.42"/><circle cx="218" cy="89" r="1.3" fill="#a5d6a7" opacity="0.46"/><circle cx="57" cy="60" r="2.0" fill="#a5d6a7" opacity="0.50"/><circle cx="258" cy="120" r="2.2" fill="#a5d6a7" opacity="0.38"/><circle cx="32" cy="79" r="3.0" fill="#a5d6a7" opacity="0.73"/><circle cx="217" cy="79" r="1.3" fill="#a5d6a7" opacity="0.60"/><circle cx="464" cy="41" r="2.3" fill="#a5d6a7" opacity="0.74"/><circle cx="45" cy="133" r="1.8" fill="#a5d6a7" opacity="0.88"/><circle cx="90" cy="110" r="2.5" fill="#a5d6a7" opacity="0.60"/><circle cx="499" cy="146" r="2.5" fill="#a5d6a7" opacity="0.69"/><circle cx="605" cy="128" r="1.0" fill="#a5d6a7" opacity="0.70"/><circle cx="186" cy="20" r="1.6" fill="#a5d6a7" opacity="0.69"/><circle cx="335" cy="52" r="2.4" fill="#a5d6a7" opacity="0.62"/>
<rect x="12" y="12" width="100" height="24" rx="12" fill="#37474f" opacity="0.9"/><text x="62" y="28" fill="#fff" font-size="11" font-weight="700" text-anchor="middle" font-family="Arial,sans-serif">CLIMBER</text>
<rect x="100" y="60" width="440" height="280" rx="8" fill="#0d1b2a" opacity="0.5"/><rect x="168" y="50" width="73" height="12" rx="4" fill="#448aff" opacity="0.7" filter="url(#ds)"/><rect x="157" y="92" width="87" height="12" rx="4" fill="#69f0ae" opacity="0.7" filter="url(#ds)"/><rect x="466" y="134" width="60" height="12" rx="4" fill="#448aff" opacity="0.7" filter="url(#ds)"/><rect x="414" y="176" width="81" height="12" rx="4" fill="#69f0ae" opacity="0.7" filter="url(#ds)"/><rect x="473" y="218" width="91" height="12" rx="4" fill="#448aff" opacity="0.7" filter="url(#ds)"/><rect x="444" y="260" width="69" height="12" rx="4" fill="#69f0ae" opacity="0.7" filter="url(#ds)"/><rect x="112" y="302" width="100" height="12" rx="4" fill="#448aff" opacity="0.7" filter="url(#ds)"/><rect x="176" y="344" width="64" height="12" rx="4" fill="#69f0ae" opacity="0.7" filter="url(#ds)"/><circle cx="320" cy="320" r="15" fill="#ff5252" opacity="0.9" filter="url(#ds)"/>
<text x="320" y="340" fill="#fff" font-size="22" font-weight="800" text-anchor="middle" font-family="Arial,sans-serif" filter="url(#ds)">Panda</text><text x="320" y="366" fill="#fff" font-size="22" font-weight="800" text-anchor="middle" font-family="Arial,sans-serif" filter="url(#ds)">Bounce</text>
</svg>