<svg xmlns="http://www.w3.org/2000/svg" width="640" height="400" viewBox="0 0 640 400">
<defs><linearGradient id="bgparrotpassage" x1="0" y1="0" x2="1" y2="1"><stop offset="0" stop-color="#003300"/><stop offset=".6" stop-color="#006600"/><stop offset="1" stop-color="#ffe082"/></linearGradient><filter id="ds"><feDropShadow dx="0" dy="2" stdDeviation="3" flood-opacity=".6"/></filter></defs>
<rect width="640" height="400" fill="url(#bgparrotpassage)" rx="12"/>
<circle cx="580" cy="350" r="80" fill="#ffab00" opacity="0.08"/><circle cx="60" cy="360" r="50" fill="#ffab00" opacity="0.08"/><circle cx="320" cy="380" r="60" fill="#ffab00" opacity="0.08"/><circle cx="500" cy="50" r="40" fill="#ffab00" opacity="0.08"/><circle cx="140" cy="30" r="30" fill="#ffab00" opacity="0.08"/><circle cx="640" cy="0" r="90" fill="#ffab00" opacity="0.08"/>
<circle cx="151" cy="100" r="1.2" fill="#ffe082" opacity="0.45"/><circle cx="521" cy="79" r="2.4" fill="#ffe082" opacity="0.38"/><circle cx="243" cy="38" r="2.1" fill="#ffe082" opacity="0.74"/><circle cx="72" cy="117" r="2.9" fill="#ffe082" opacity="0.37"/><circle cx="176" cy="23" r="1.7" fill="#ffe082" opacity="0.74"/><circle cx="107" cy="87" r="2.5" fill="#ffe082" opacity="0.57"/><circle cx="489" cy="78" r="1.0" fill="#ffe082" opacity="0.80"/><circle cx="99" cy="77" r="2.9" fill="#ffe082" opacity="0.48"/><circle cx="345" cy="18" r="2.5" fill="#ffe082" opacity="0.59"/><circle cx="500" cy="138" r="2.0" fill="#ffe082" opacity="0.84"/><circle cx="343" cy="51" r="2.1" fill="#ffe082" opacity="0.42"/><circle cx="377" cy="80" r="2.9" fill="#ffe082" opacity="0.43"/><circle cx="203" cy="145" r="1.0" fill="#ffe082" opacity="0.33"/><circle cx="37" cy="45" r="1.1" fill="#ffe082" opacity="0.76"/><circle cx="445" cy="85" r="2.9" fill="#ffe082" opacity="0.33"/><circle cx="58" cy="51" r="2.6" fill="#ffe082" opacity="0.58"/><circle cx="599" cy="112" r="2.2" fill="#ffe082" opacity="0.43"/>
<rect x="12" y="12" width="100" height="24" rx="12" fill="#37474f" opacity="0.9"/><text x="62" y="28" fill="#fff" font-size="11" font-weight="700" text-anchor="middle" font-family="Arial,sans-serif">FLAPPY</text>
<rect x="180" y="60" width="50" height="140" rx="4" fill="#2e7d32" opacity="0.8"/><rect x="175" y="60" width="60" height="16" rx="4" fill="#388e3c" opacity="0.8"/><rect x="180" y="260" width="50" height="140" rx="4" fill="#2e7d32" opacity="0.8"/><rect x="175" y="384" width="60" height="16" rx="4" fill="#388e3c" opacity="0.8"/><rect x="400" y="40" width="50" height="100" rx="4" fill="#2e7d32" opacity="0.8"/><rect x="395" y="40" width="60" height="16" rx="4" fill="#388e3c" opacity="0.8"/><rect x="400" y="200" width="50" height="200" rx="4" fill="#2e7d32" opacity="0.8"/><rect x="395" y="384" width="60" height="16" rx="4" fill="#388e3c" opacity="0.8"/><circle cx="150" cy="190" r="18" fill="#ffd740" opacity="0.9" filter="url(#ds)"/><circle cx="145" cy="185" r="4" fill="#1a1a2e"/><polygon points="168,190 180,186 168,194" fill="#ffab00"/>
<text x="320" y="340" fill="#fff" font-size="22" font-weight="800" text-anchor="middle" font-family="Arial,sans-serif" filter="url(#ds)">Parrot</text><text x="320" y="366" fill="#fff" font-size="22" font-weight="800" text-anchor="middle" font-family="Arial,sans-serif" filter="url(#ds)">Passage</text>
</svg>