<svg xmlns="http://www.w3.org/2000/svg" width="640" height="400" viewBox="0 0 640 400">
<defs><linearGradient id="bgpipedreamportal" x1="0" y1="0" x2="1" y2="1"><stop offset="0" stop-color="#0d1b2a"/><stop offset=".6" stop-color="#1b3a5c"/><stop offset="1" stop-color="#e0f7fa"/></linearGradient><filter id="ds"><feDropShadow dx="0" dy="2" stdDeviation="3" flood-opacity=".6"/></filter></defs>
<rect width="640" height="400" fill="url(#bgpipedreamportal)" rx="12"/>
<circle cx="580" cy="350" r="80" fill="#4fc3f7" opacity="0.08"/><circle cx="60" cy="360" r="50" fill="#4fc3f7" opacity="0.08"/><circle cx="320" cy="380" r="60" fill="#4fc3f7" opacity="0.08"/><circle cx="500" cy="50" r="40" fill="#4fc3f7" opacity="0.08"/><circle cx="140" cy="30" r="30" fill="#4fc3f7" opacity="0.08"/><circle cx="640" cy="0" r="90" fill="#4fc3f7" opacity="0.08"/>
<circle cx="143" cy="80" r="1.2" fill="#81d4fa" opacity="0.70"/><circle cx="306" cy="141" r="2.2" fill="#81d4fa" opacity="0.85"/><circle cx="272" cy="124" r="1.4" fill="#81d4fa" opacity="0.54"/><circle cx="128" cy="96" r="2.3" fill="#81d4fa" opacity="0.75"/><circle cx="467" cy="40" r="1.4" fill="#81d4fa" opacity="0.44"/><circle cx="56" cy="29" r="1.1" fill="#81d4fa" opacity="0.51"/><circle cx="605" cy="44" r="2.0" fill="#81d4fa" opacity="0.51"/><circle cx="442" cy="122" r="1.9" fill="#81d4fa" opacity="0.84"/><circle cx="425" cy="71" r="1.2" fill="#81d4fa" opacity="0.69"/><circle cx="479" cy="123" r="2.8" fill="#81d4fa" opacity="0.89"/><circle cx="325" cy="154" r="1.4" fill="#81d4fa" opacity="0.55"/><circle cx="542" cy="53" r="2.8" fill="#81d4fa" opacity="0.66"/><circle cx="220" cy="125" r="1.1" fill="#81d4fa" opacity="0.37"/><circle cx="39" cy="57" r="1.4" fill="#81d4fa" opacity="0.63"/><circle cx="578" cy="62" r="2.4" fill="#81d4fa" opacity="0.51"/><circle cx="199" cy="88" r="1.0" fill="#81d4fa" opacity="0.62"/>
<rect x="12" y="12" width="100" height="24" rx="12" fill="#37474f" opacity="0.9"/><text x="62" y="28" fill="#fff" font-size="11" font-weight="700" text-anchor="middle" font-family="Arial,sans-serif">PIPELINE</text>
<rect x="100" y="60" width="440" height="280" rx="8" fill="#0d1b2a" opacity="0.5"/><rect x="115" y="70" width="50" height="45" rx="4" fill="#0d1b2a" stroke="#4fc3f7" stroke-width="1.5" opacity="0.7"/><circle cx="140" cy="92" r="8" fill="#4fc3f7" opacity="0.4"/><rect x="175" y="70" width="50" height="45" rx="4" fill="#0d1b2a" stroke="#4fc3f7" stroke-width="1.5" opacity="0.7"/><circle cx="200" cy="92" r="8" fill="#4fc3f7" opacity="0.4"/><rect x="235" y="70" width="50" height="45" rx="4" fill="#0d1b2a" stroke="#4fc3f7" stroke-width="1.5" opacity="0.7"/><circle cx="260" cy="92" r="8" fill="#4fc3f7" opacity="0.4"/><rect x="295" y="70" width="50" height="45" rx="4" fill="#0d1b2a" stroke="#4fc3f7" stroke-width="1.5" opacity="0.7"/><circle cx="320" cy="92" r="8" fill="#4fc3f7" opacity="0.4"/><rect x="355" y="70" width="50" height="45" rx="4" fill="#0d1b2a" stroke="#4fc3f7" stroke-width="1.5" opacity="0.7"/><circle cx="380" cy="92" r="8" fill="#4fc3f7" opacity="0.4"/><rect x="415" y="70" width="50" height="45" rx="4" fill="#0d1b2a" stroke="#4fc3f7" stroke-width="1.5" opacity="0.7"/><circle cx="440" cy="92" r="8" fill="#4fc3f7" opacity="0.4"/><rect x="475" y="70" width="50" height="45" rx="4" fill="#0d1b2a" stroke="#4fc3f7" stroke-width="1.5" opacity="0.7"/><circle cx="500" cy="92" r="8" fill="#4fc3f7" opacity="0.4"/><rect x="115" y="125" width="50" height="45" rx="4" fill="#0d1b2a" stroke="#4fc3f7" stroke-width="1.5" opacity="0.7"/><circle cx="140" cy="147" r="8" fill="#4fc3f7" opacity="0.4"/><rect x="175" y="125" width="50" height="45" rx="4" fill="#0d1b2a" stroke="#4fc3f7" stroke-width="1.5" opacity="0.7"/><circle cx="200" cy="147" r="8" fill="#4fc3f7" opacity="0.4"/><rect x="235" y="125" width="50" height="45" rx="4" fill="#0d1b2a" stroke="#4fc3f7" stroke-width="1.5" opacity="0.7"/><circle cx="260" cy="147" r="8" fill="#4fc3f7" opacity="0.4"/><rect x="295" y="125" width="50" height="45" rx="4" fill="#0d1b2a" stroke="#4fc3f7" stroke-width="1.5" opacity="0.7"/><circle cx="320" cy="147" r="8" fill="#4fc3f7" opacity="0.4"/><rect x="355" y="125" width="50" height="45" rx="4" fill="#0d1b2a" stroke="#4fc3f7" stroke-width="1.5" opacity="0.7"/><circle cx="380" cy="147" r="8" fill="#4fc3f7" opacity="0.4"/><rect x="415" y="125" width="50" height="45" rx="4" fill="#0d1b2a" stroke="#4fc3f7" stroke-width="1.5" opacity="0.7"/><circle cx="440" cy="147" r="8" fill="#4fc3f7" opacity="0.4"/><rect x="475" y="125" width="50" height="45" rx="4" fill="#0d1b2a" stroke="#4fc3f7" stroke-width="1.5" opacity="0.7"/><circle cx="500" cy="147" r="8" fill="#4fc3f7" opacity="0.4"/><rect x="115" y="180" width="50" height="45" rx="4" fill="#0d1b2a" stroke="#4fc3f7" stroke-width="1.5" opacity="0.7"/><circle cx="140" cy="202" r="8" fill="#4fc3f7" opacity="0.4"/><rect x="175" y="180" width="50" height="45" rx="4" fill="#0d1b2a" stroke="#4fc3f7" stroke-width="1.5" opacity="0.7"/><circle cx="200" cy="202" r="8" fill="#4fc3f7" opacity="0.4"/><rect x="235" y="180" width="50" height="45" rx="4" fill="#0d1b2a" stroke="#4fc3f7" stroke-width="1.5" opacity="0.7"/><circle cx="260" cy="202" r="8" fill="#4fc3f7" opacity="0.4"/><rect x="295" y="180" width="50" height="45" rx="4" fill="#0d1b2a" stroke="#4fc3f7" stroke-width="1.5" opacity="0.7"/><circle cx="320" cy="202" r="8" fill="#4fc3f7" opacity="0.4"/><rect x="355" y="180" width="50" height="45" rx="4" fill="#0d1b2a" stroke="#4fc3f7" stroke-width="1.5" opacity="0.7"/><circle cx="380" cy="202" r="8" fill="#4fc3f7" opacity="0.4"/><rect x="415" y="180" width="50" height="45" rx="4" fill="#0d1b2a" stroke="#4fc3f7" stroke-width="1.5" opacity="0.7"/><circle cx="440" cy="202" r="8" fill="#4fc3f7" opacity="0.4"/><rect x="475" y="180" width="50" height="45" rx="4" fill="#0d1b2a" stroke="#4fc3f7" stroke-width="1.5" opacity="0.7"/><circle cx="500" cy="202" r="8" fill="#4fc3f7" opacity="0.4"/><rect x="115" y="235" width="50" height="45" rx="4" fill="#0d1b2a" stroke="#4fc3f7" stroke-width="1.5" opacity="0.7"/><circle cx="140" cy="257" r="8" fill="#4fc3f7" opacity="0.4"/><rect x="175" y="235" width="50" height="45" rx="4" fill="#0d1b2a" stroke="#4fc3f7" stroke-width="1.5" opacity="0.7"/><circle cx="200" cy="257" r="8" fill="#4fc3f7" opacity="0.4"/><rect x="235" y="235" width="50" height="45" rx="4" fill="#0d1b2a" stroke="#4fc3f7" stroke-width="1.5" opacity="0.7"/><circle cx="260" cy="257" r="8" fill="#4fc3f7" opacity="0.4"/><rect x="295" y="235" width="50" height="45" rx="4" fill="#0d1b2a" stroke="#4fc3f7" stroke-width="1.5" opacity="0.7"/><circle cx="320" cy="257" r="8" fill="#4fc3f7" opacity="0.4"/><rect x="355" y="235" width="50" height="45" rx="4" fill="#0d1b2a" stroke="#4fc3f7" stroke-width="1.5" opacity="0.7"/><circle cx="380" cy="257" r="8" fill="#4fc3f7" opacity="0.4"/><rect x="415" y="235" width="50" height="45" rx="4" fill="#0d1b2a" stroke="#4fc3f7" stroke-width="1.5" opacity="0.7"/><circle cx="440" cy="257" r="8" fill="#4fc3f7" opacity="0.4"/><rect x="475" y="235" width="50" height="45" rx="4" fill="#0d1b2a" stroke="#4fc3f7" stroke-width="1.5" opacity="0.7"/><circle cx="500" cy="257" r="8" fill="#4fc3f7" opacity="0.4"/><rect x="115" y="290" width="50" height="45" rx="4" fill="#0d1b2a" stroke="#4fc3f7" stroke-width="1.5" opacity="0.7"/><circle cx="140" cy="312" r="8" fill="#4fc3f7" opacity="0.4"/><rect x="175" y="290" width="50" height="45" rx="4" fill="#0d1b2a" stroke="#4fc3f7" stroke-width="1.5" opacity="0.7"/><circle cx="200" cy="312" r="8" fill="#4fc3f7" opacity="0.4"/><rect x="235" y="290" width="50" height="45" rx="4" fill="#0d1b2a" stroke="#4fc3f7" stroke-width="1.5" opacity="0.7"/><circle cx="260" cy="312" r="8" fill="#4fc3f7" opacity="0.4"/><rect x="295" y="290" width="50" height="45" rx="4" fill="#0d1b2a" stroke="#4fc3f7" stroke-width="1.5" opacity="0.7"/><circle cx="320" cy="312" r="8" fill="#4fc3f7" opacity="0.4"/><rect x="355" y="290" width="50" height="45" rx="4" fill="#0d1b2a" stroke="#4fc3f7" stroke-width="1.5" opacity="0.7"/><circle cx="380" cy="312" r="8" fill="#4fc3f7" opacity="0.4"/><rect x="415" y="290" width="50" height="45" rx="4" fill="#0d1b2a" stroke="#4fc3f7" stroke-width="1.5" opacity="0.7"/><circle cx="440" cy="312" r="8" fill="#4fc3f7" opacity="0.4"/><rect x="475" y="290" width="50" height="45" rx="4" fill="#0d1b2a" stroke="#4fc3f7" stroke-width="1.5" opacity="0.7"/><circle cx="500" cy="312" r="8" fill="#4fc3f7" opacity="0.4"/>
<text x="320" y="340" fill="#fff" font-size="22" font-weight="800" text-anchor="middle" font-family="Arial,sans-serif" filter="url(#ds)">Pipe Dream</text><text x="320" y="366" fill="#fff" font-size="22" font-weight="800" text-anchor="middle" font-family="Arial,sans-serif" filter="url(#ds)">Portal</text>
</svg>