<svg xmlns="http://www.w3.org/2000/svg" width="640" height="400" viewBox="0 0 640 400">
<defs><linearGradient id="bgpixelbearbounce" x1="0" y1="0" x2="1" y2="1"><stop offset="0" stop-color="#1a1a2e"/><stop offset=".6" stop-color="#16213e"/><stop offset="1" stop-color="#0f3460"/></linearGradient><filter id="ds"><feDropShadow dx="0" dy="2" stdDeviation="3" flood-opacity=".6"/></filter></defs>
<rect width="640" height="400" fill="url(#bgpixelbearbounce)" rx="12"/>
<circle cx="580" cy="350" r="80" fill="#e94560" opacity="0.08"/><circle cx="60" cy="360" r="50" fill="#e94560" opacity="0.08"/><circle cx="320" cy="380" r="60" fill="#e94560" opacity="0.08"/><circle cx="500" cy="50" r="40" fill="#e94560" opacity="0.08"/><circle cx="140" cy="30" r="30" fill="#e94560" opacity="0.08"/><circle cx="640" cy="0" r="90" fill="#e94560" opacity="0.08"/>
<circle cx="384" cy="38" r="2.7" fill="#f5c518" opacity="0.62"/><circle cx="70" cy="25" r="1.7" fill="#f5c518" opacity="0.75"/><circle cx="56" cy="17" r="1.2" fill="#f5c518" opacity="0.38"/><circle cx="507" cy="105" r="2.8" fill="#f5c518" opacity="0.82"/><circle cx="396" cy="55" r="2.9" fill="#f5c518" opacity="0.53"/><circle cx="467" cy="44" r="2.6" fill="#f5c518" opacity="0.40"/><circle cx="26" cy="140" r="1.8" fill="#f5c518" opacity="0.52"/><circle cx="37" cy="140" r="2.6" fill="#f5c518" opacity="0.89"/><circle cx="296" cy="151" r="2.2" fill="#f5c518" opacity="0.79"/><circle cx="125" cy="14" r="1.1" fill="#f5c518" opacity="0.74"/><circle cx="191" cy="128" r="2.8" fill="#f5c518" opacity="0.39"/><circle cx="317" cy="152" r="2.6" fill="#f5c518" opacity="0.33"/><circle cx="218" cy="144" r="1.9" fill="#f5c518" opacity="0.33"/><circle cx="24" cy="53" r="2.9" fill="#f5c518" opacity="0.77"/>
<rect x="12" y="12" width="100" height="24" rx="12" fill="#37474f" opacity="0.9"/><text x="62" y="28" fill="#fff" font-size="11" font-weight="700" text-anchor="middle" font-family="Arial,sans-serif">CLIMBER</text>
<rect x="100" y="60" width="440" height="280" rx="8" fill="#0d1b2a" opacity="0.5"/><rect x="109" y="50" width="97" height="12" rx="4" fill="#448aff" opacity="0.7" filter="url(#ds)"/><rect x="362" y="92" width="63" height="12" rx="4" fill="#69f0ae" opacity="0.7" filter="url(#ds)"/><rect x="298" y="134" width="66" height="12" rx="4" fill="#448aff" opacity="0.7" filter="url(#ds)"/><rect x="253" y="176" width="85" height="12" rx="4" fill="#69f0ae" opacity="0.7" filter="url(#ds)"/><rect x="410" y="218" width="74" height="12" rx="4" fill="#448aff" opacity="0.7" filter="url(#ds)"/><rect x="440" y="260" width="61" height="12" rx="4" fill="#69f0ae" opacity="0.7" filter="url(#ds)"/><rect x="155" y="302" width="98" height="12" rx="4" fill="#448aff" opacity="0.7" filter="url(#ds)"/><rect x="94" y="344" width="92" height="12" rx="4" fill="#69f0ae" opacity="0.7" filter="url(#ds)"/><circle cx="320" cy="320" r="15" fill="#ff5252" opacity="0.9" filter="url(#ds)"/>
<text x="320" y="340" fill="#fff" font-size="22" font-weight="800" text-anchor="middle" font-family="Arial,sans-serif" filter="url(#ds)">Pixel Bear</text><text x="320" y="366" fill="#fff" font-size="22" font-weight="800" text-anchor="middle" font-family="Arial,sans-serif" filter="url(#ds)">Bounce</text>
</svg>