<svg xmlns="http://www.w3.org/2000/svg" width="640" height="400" viewBox="0 0 640 400">
<defs><linearGradient id="bgpixelfoxmemory" x1="0" y1="0" x2="1" y2="1"><stop offset="0" stop-color="#1a1a2e"/><stop offset=".6" stop-color="#16213e"/><stop offset="1" stop-color="#0f3460"/></linearGradient><filter id="ds"><feDropShadow dx="0" dy="2" stdDeviation="3" flood-opacity=".6"/></filter></defs>
<rect width="640" height="400" fill="url(#bgpixelfoxmemory)" rx="12"/>
<circle cx="580" cy="350" r="80" fill="#e94560" opacity="0.08"/><circle cx="60" cy="360" r="50" fill="#e94560" opacity="0.08"/><circle cx="320" cy="380" r="60" fill="#e94560" opacity="0.08"/><circle cx="500" cy="50" r="40" fill="#e94560" opacity="0.08"/><circle cx="140" cy="30" r="30" fill="#e94560" opacity="0.08"/><circle cx="640" cy="0" r="90" fill="#e94560" opacity="0.08"/>
<circle cx="74" cy="123" r="1.6" fill="#f5c518" opacity="0.39"/><circle cx="40" cy="94" r="2.1" fill="#f5c518" opacity="0.64"/><circle cx="332" cy="108" r="2.5" fill="#f5c518" opacity="0.77"/><circle cx="263" cy="133" r="2.2" fill="#f5c518" opacity="0.31"/><circle cx="252" cy="13" r="2.3" fill="#f5c518" opacity="0.31"/><circle cx="497" cy="43" r="2.4" fill="#f5c518" opacity="0.32"/><circle cx="282" cy="98" r="1.9" fill="#f5c518" opacity="0.88"/><circle cx="163" cy="62" r="2.9" fill="#f5c518" opacity="0.59"/><circle cx="282" cy="112" r="1.9" fill="#f5c518" opacity="0.58"/><circle cx="169" cy="14" r="2.9" fill="#f5c518" opacity="0.69"/><circle cx="57" cy="120" r="1.8" fill="#f5c518" opacity="0.67"/><circle cx="337" cy="96" r="1.9" fill="#f5c518" opacity="0.86"/><circle cx="315" cy="21" r="2.3" fill="#f5c518" opacity="0.55"/><circle cx="198" cy="157" r="1.5" fill="#f5c518" opacity="0.66"/><circle cx="67" cy="75" r="1.1" fill="#f5c518" opacity="0.37"/><circle cx="60" cy="83" r="2.4" fill="#f5c518" opacity="0.65"/>
<rect x="12" y="12" width="100" height="24" rx="12" fill="#4a148c" opacity="0.9"/><text x="62" y="28" fill="#fff" font-size="11" font-weight="700" text-anchor="middle" font-family="Arial,sans-serif">MEMORY</text>
<rect x="100" y="60" width="440" height="280" rx="8" fill="#0d1b2a" opacity="0.5"/><rect x="130" y="70" width="85" height="55" rx="6" fill="#1b3a5c" stroke="#4fc3f7" stroke-width="1.5" opacity="0.8"/><rect x="225" y="70" width="85" height="55" rx="6" fill="#1b3a5c" stroke="#4fc3f7" stroke-width="1.5" opacity="0.8"/><rect x="320" y="70" width="85" height="55" rx="6" fill="#1b3a5c" stroke="#4fc3f7" stroke-width="1.5" opacity="0.8"/><rect x="415" y="70" width="85" height="55" rx="6" fill="#1b3a5c" stroke="#4fc3f7" stroke-width="1.5" opacity="0.8"/><rect x="130" y="132" width="85" height="55" rx="6" fill="#1b3a5c" stroke="#4fc3f7" stroke-width="1.5" opacity="0.8"/><rect x="225" y="132" width="85" height="55" rx="6" fill="#1b3a5c" stroke="#4fc3f7" stroke-width="1.5" opacity="0.8"/><rect x="320" y="132" width="85" height="55" rx="6" fill="#1b3a5c" stroke="#4fc3f7" stroke-width="1.5" opacity="0.8"/><rect x="415" y="132" width="85" height="55" rx="6" fill="#1b3a5c" stroke="#4fc3f7" stroke-width="1.5" opacity="0.8"/><rect x="130" y="194" width="85" height="55" rx="6" fill="#1b3a5c" stroke="#4fc3f7" stroke-width="1.5" opacity="0.8"/><rect x="225" y="194" width="85" height="55" rx="6" fill="#1b3a5c" stroke="#4fc3f7" stroke-width="1.5" opacity="0.8"/><rect x="320" y="194" width="85" height="55" rx="6" fill="#1b3a5c" stroke="#4fc3f7" stroke-width="1.5" opacity="0.8"/><rect x="415" y="194" width="85" height="55" rx="6" fill="#1b3a5c" stroke="#4fc3f7" stroke-width="1.5" opacity="0.8"/><rect x="130" y="256" width="85" height="55" rx="6" fill="#1b3a5c" stroke="#4fc3f7" stroke-width="1.5" opacity="0.8"/><rect x="225" y="256" width="85" height="55" rx="6" fill="#1b3a5c" stroke="#4fc3f7" stroke-width="1.5" opacity="0.8"/><rect x="320" y="256" width="85" height="55" rx="6" fill="#1b3a5c" stroke="#4fc3f7" stroke-width="1.5" opacity="0.8"/><rect x="415" y="256" width="85" height="55" rx="6" fill="#1b3a5c" stroke="#4fc3f7" stroke-width="1.5" opacity="0.8"/><rect x="130" y="70" width="85" height="55" rx="6" fill="#4fc3f7" opacity="0.6"/><text x="172" y="102" fill="#fff" font-size="20" text-anchor="middle" font-family="Arial">★</text><rect x="225" y="132" width="85" height="55" rx="6" fill="#4fc3f7" opacity="0.6"/><text x="267" y="164" fill="#fff" font-size="20" text-anchor="middle" font-family="Arial">♥</text>
<text x="320" y="340" fill="#fff" font-size="22" font-weight="800" text-anchor="middle" font-family="Arial,sans-serif" filter="url(#ds)">Pixel Fox</text><text x="320" y="366" fill="#fff" font-size="22" font-weight="800" text-anchor="middle" font-family="Arial,sans-serif" filter="url(#ds)">Memory</text>
</svg>