<svg xmlns="http://www.w3.org/2000/svg" width="640" height="400" viewBox="0 0 640 400">
<defs><linearGradient id="bgpixelpandaparkour" x1="0" y1="0" x2="1" y2="1"><stop offset="0" stop-color="#1a1a2e"/><stop offset=".6" stop-color="#16213e"/><stop offset="1" stop-color="#0f3460"/></linearGradient><filter id="ds"><feDropShadow dx="0" dy="2" stdDeviation="3" flood-opacity=".6"/></filter></defs>
<rect width="640" height="400" fill="url(#bgpixelpandaparkour)" rx="12"/>
<circle cx="580" cy="350" r="80" fill="#e94560" opacity="0.08"/><circle cx="60" cy="360" r="50" fill="#e94560" opacity="0.08"/><circle cx="320" cy="380" r="60" fill="#e94560" opacity="0.08"/><circle cx="500" cy="50" r="40" fill="#e94560" opacity="0.08"/><circle cx="140" cy="30" r="30" fill="#e94560" opacity="0.08"/><circle cx="640" cy="0" r="90" fill="#e94560" opacity="0.08"/>
<circle cx="420" cy="81" r="2.2" fill="#f5c518" opacity="0.66"/><circle cx="602" cy="149" r="1.4" fill="#f5c518" opacity="0.73"/><circle cx="128" cy="118" r="2.9" fill="#f5c518" opacity="0.79"/><circle cx="467" cy="13" r="1.8" fill="#f5c518" opacity="0.46"/><circle cx="250" cy="39" r="1.6" fill="#f5c518" opacity="0.74"/><circle cx="323" cy="34" r="2.7" fill="#f5c518" opacity="0.46"/><circle cx="95" cy="127" r="1.7" fill="#f5c518" opacity="0.49"/><circle cx="601" cy="65" r="1.5" fill="#f5c518" opacity="0.68"/><circle cx="236" cy="47" r="2.3" fill="#f5c518" opacity="0.56"/><circle cx="559" cy="141" r="1.8" fill="#f5c518" opacity="0.60"/><circle cx="545" cy="119" r="2.4" fill="#f5c518" opacity="0.38"/><circle cx="583" cy="135" r="2.7" fill="#f5c518" opacity="0.52"/><circle cx="379" cy="54" r="2.7" fill="#f5c518" opacity="0.38"/><circle cx="442" cy="32" r="2.2" fill="#f5c518" opacity="0.67"/><circle cx="366" cy="154" r="2.8" fill="#f5c518" opacity="0.32"/><circle cx="244" cy="74" r="1.2" fill="#f5c518" opacity="0.80"/><circle cx="536" cy="50" r="2.9" fill="#f5c518" opacity="0.44"/><circle cx="283" cy="107" r="1.8" fill="#f5c518" opacity="0.38"/>
<rect x="12" y="12" width="100" height="24" rx="12" fill="#e65100" opacity="0.9"/><text x="62" y="28" fill="#fff" font-size="11" font-weight="700" text-anchor="middle" font-family="Arial,sans-serif">PLATFORMER</text>
<rect x="30" y="310" width="120" height="16" rx="4" fill="#e65100" opacity="0.8" filter="url(#ds)"/><rect x="200" y="260" width="100" height="16" rx="4" fill="#f5c518" opacity="0.8" filter="url(#ds)"/><rect x="350" y="200" width="110" height="16" rx="4" fill="#e65100" opacity="0.8" filter="url(#ds)"/><rect x="500" y="270" width="90" height="16" rx="4" fill="#f5c518" opacity="0.8" filter="url(#ds)"/><rect x="150" y="140" width="80" height="16" rx="4" fill="#e65100" opacity="0.8" filter="url(#ds)"/><rect x="400" y="100" width="100" height="16" rx="4" fill="#f5c518" opacity="0.8" filter="url(#ds)"/><circle cx="260" cy="240" r="18" fill="#fff" opacity="0.9" filter="url(#ds)"/><circle cx="255" cy="235" r="5" fill="#1a1a2e"/><circle cx="265" cy="235" r="5" fill="#1a1a2e"/><circle cx="420" cy="180" r="7" fill="#ffd740" opacity="0.9" filter="url(#ds)"/><circle cx="460" cy="170" r="7" fill="#ffd740" opacity="0.9" filter="url(#ds)"/><circle cx="500" cy="180" r="7" fill="#ffd740" opacity="0.9" filter="url(#ds)"/><circle cx="180" cy="120" r="7" fill="#ffd740" opacity="0.9" filter="url(#ds)"/><circle cx="220" cy="110" r="7" fill="#ffd740" opacity="0.9" filter="url(#ds)"/>
<text x="320" y="340" fill="#fff" font-size="20" font-weight="800" text-anchor="middle" font-family="Arial,sans-serif" filter="url(#ds)">Pixel Panda</text><text x="320" y="364" fill="#fff" font-size="20" font-weight="800" text-anchor="middle" font-family="Arial,sans-serif" filter="url(#ds)">Parkour</text>
</svg>