<svg xmlns="http://www.w3.org/2000/svg" width="640" height="400" viewBox="0 0 640 400">
<defs><linearGradient id="bgpixelprawnbrickbash" x1="0" y1="0" x2="1" y2="1"><stop offset="0" stop-color="#1a1a2e"/><stop offset=".6" stop-color="#16213e"/><stop offset="1" stop-color="#0f3460"/></linearGradient><filter id="ds"><feDropShadow dx="0" dy="2" stdDeviation="3" flood-opacity=".6"/></filter></defs>
<rect width="640" height="400" fill="url(#bgpixelprawnbrickbash)" rx="12"/>
<circle cx="580" cy="350" r="80" fill="#e94560" opacity="0.08"/><circle cx="60" cy="360" r="50" fill="#e94560" opacity="0.08"/><circle cx="320" cy="380" r="60" fill="#e94560" opacity="0.08"/><circle cx="500" cy="50" r="40" fill="#e94560" opacity="0.08"/><circle cx="140" cy="30" r="30" fill="#e94560" opacity="0.08"/><circle cx="640" cy="0" r="90" fill="#e94560" opacity="0.08"/>
<circle cx="40" cy="34" r="1.2" fill="#f5c518" opacity="0.39"/><circle cx="137" cy="52" r="1.8" fill="#f5c518" opacity="0.47"/><circle cx="575" cy="118" r="1.7" fill="#f5c518" opacity="0.90"/><circle cx="558" cy="13" r="1.6" fill="#f5c518" opacity="0.33"/><circle cx="230" cy="81" r="1.2" fill="#f5c518" opacity="0.46"/><circle cx="128" cy="103" r="1.5" fill="#f5c518" opacity="0.86"/><circle cx="544" cy="151" r="1.2" fill="#f5c518" opacity="0.59"/><circle cx="271" cy="108" r="1.7" fill="#f5c518" opacity="0.84"/><circle cx="273" cy="37" r="1.2" fill="#f5c518" opacity="0.85"/><circle cx="471" cy="31" r="2.9" fill="#f5c518" opacity="0.33"/><circle cx="330" cy="28" r="1.9" fill="#f5c518" opacity="0.87"/><circle cx="528" cy="100" r="1.2" fill="#f5c518" opacity="0.32"/><circle cx="120" cy="76" r="1.0" fill="#f5c518" opacity="0.71"/><circle cx="567" cy="40" r="2.0" fill="#f5c518" opacity="0.58"/><circle cx="500" cy="76" r="1.9" fill="#f5c518" opacity="0.50"/><circle cx="125" cy="39" r="2.6" fill="#f5c518" opacity="0.75"/>
<rect x="12" y="12" width="100" height="24" rx="12" fill="#37474f" opacity="0.9"/><text x="62" y="28" fill="#fff" font-size="11" font-weight="700" text-anchor="middle" font-family="Arial,sans-serif">BREAKOUT</text>
<rect x="100" y="60" width="440" height="280" rx="8" fill="#0d1b2a" opacity="0.5"/><rect x="80" y="65" width="44" height="18" rx="3" fill="#ff5252" opacity="0.8"/><rect x="129" y="65" width="44" height="18" rx="3" fill="#ff5252" opacity="0.8"/><rect x="178" y="65" width="44" height="18" rx="3" fill="#ff5252" opacity="0.8"/><rect x="227" y="65" width="44" height="18" rx="3" fill="#ff5252" opacity="0.8"/><rect x="276" y="65" width="44" height="18" rx="3" fill="#ff5252" opacity="0.8"/><rect x="325" y="65" width="44" height="18" rx="3" fill="#ff5252" opacity="0.8"/><rect x="374" y="65" width="44" height="18" rx="3" fill="#ff5252" opacity="0.8"/><rect x="423" y="65" width="44" height="18" rx="3" fill="#ff5252" opacity="0.8"/><rect x="472" y="65" width="44" height="18" rx="3" fill="#ff5252" opacity="0.8"/><rect x="521" y="65" width="44" height="18" rx="3" fill="#ff5252" opacity="0.8"/><rect x="80" y="87" width="44" height="18" rx="3" fill="#ffd740" opacity="0.8"/><rect x="129" y="87" width="44" height="18" rx="3" fill="#ffd740" opacity="0.8"/><rect x="178" y="87" width="44" height="18" rx="3" fill="#ffd740" opacity="0.8"/><rect x="227" y="87" width="44" height="18" rx="3" fill="#ffd740" opacity="0.8"/><rect x="276" y="87" width="44" height="18" rx="3" fill="#ffd740" opacity="0.8"/><rect x="325" y="87" width="44" height="18" rx="3" fill="#ffd740" opacity="0.8"/><rect x="374" y="87" width="44" height="18" rx="3" fill="#ffd740" opacity="0.8"/><rect x="423" y="87" width="44" height="18" rx="3" fill="#ffd740" opacity="0.8"/><rect x="472" y="87" width="44" height="18" rx="3" fill="#ffd740" opacity="0.8"/><rect x="521" y="87" width="44" height="18" rx="3" fill="#ffd740" opacity="0.8"/><rect x="80" y="109" width="44" height="18" rx="3" fill="#448aff" opacity="0.8"/><rect x="129" y="109" width="44" height="18" rx="3" fill="#448aff" opacity="0.8"/><rect x="178" y="109" width="44" height="18" rx="3" fill="#448aff" opacity="0.8"/><rect x="227" y="109" width="44" height="18" rx="3" fill="#448aff" opacity="0.8"/><rect x="276" y="109" width="44" height="18" rx="3" fill="#448aff" opacity="0.8"/><rect x="325" y="109" width="44" height="18" rx="3" fill="#448aff" opacity="0.8"/><rect x="374" y="109" width="44" height="18" rx="3" fill="#448aff" opacity="0.8"/><rect x="423" y="109" width="44" height="18" rx="3" fill="#448aff" opacity="0.8"/><rect x="472" y="109" width="44" height="18" rx="3" fill="#448aff" opacity="0.8"/><rect x="521" y="109" width="44" height="18" rx="3" fill="#448aff" opacity="0.8"/><rect x="270" y="350" width="100" height="12" rx="4" fill="#fff" opacity="0.8"/><circle cx="280" cy="340" r="6" fill="#fff" opacity="0.9" filter="url(#ds)"/>
<text x="320" y="340" fill="#fff" font-size="20" font-weight="800" text-anchor="middle" font-family="Arial,sans-serif" filter="url(#ds)">Pixel Prawn</text><text x="320" y="364" fill="#fff" font-size="20" font-weight="800" text-anchor="middle" font-family="Arial,sans-serif" filter="url(#ds)">Brick Bash</text>
</svg>