<svg xmlns="http://www.w3.org/2000/svg" width="640" height="400" viewBox="0 0 640 400">
<defs><linearGradient id="bgpixelbunnystack" x1="0" y1="0" x2="1" y2="1"><stop offset="0" stop-color="#1a1a2e"/><stop offset=".6" stop-color="#16213e"/><stop offset="1" stop-color="#0f3460"/></linearGradient><filter id="ds"><feDropShadow dx="0" dy="2" stdDeviation="3" flood-opacity=".6"/></filter></defs>
<rect width="640" height="400" fill="url(#bgpixelbunnystack)" rx="12"/>
<circle cx="580" cy="350" r="80" fill="#e94560" opacity="0.08"/><circle cx="60" cy="360" r="50" fill="#e94560" opacity="0.08"/><circle cx="320" cy="380" r="60" fill="#e94560" opacity="0.08"/><circle cx="500" cy="50" r="40" fill="#e94560" opacity="0.08"/><circle cx="140" cy="30" r="30" fill="#e94560" opacity="0.08"/><circle cx="640" cy="0" r="90" fill="#e94560" opacity="0.08"/>
<circle cx="41" cy="157" r="1.1" fill="#f5c518" opacity="0.37"/><circle cx="409" cy="99" r="2.5" fill="#f5c518" opacity="0.30"/><circle cx="167" cy="21" r="1.0" fill="#f5c518" opacity="0.86"/><circle cx="195" cy="54" r="1.3" fill="#f5c518" opacity="0.87"/><circle cx="301" cy="91" r="2.1" fill="#f5c518" opacity="0.73"/><circle cx="508" cy="89" r="1.6" fill="#f5c518" opacity="0.42"/><circle cx="66" cy="41" r="1.8" fill="#f5c518" opacity="0.73"/><circle cx="389" cy="76" r="2.8" fill="#f5c518" opacity="0.35"/><circle cx="176" cy="144" r="2.7" fill="#f5c518" opacity="0.63"/><circle cx="309" cy="72" r="2.9" fill="#f5c518" opacity="0.70"/><circle cx="512" cy="46" r="1.6" fill="#f5c518" opacity="0.53"/><circle cx="156" cy="86" r="1.4" fill="#f5c518" opacity="0.55"/><circle cx="413" cy="56" r="2.5" fill="#f5c518" opacity="0.55"/><circle cx="141" cy="146" r="1.8" fill="#f5c518" opacity="0.34"/><circle cx="110" cy="46" r="1.5" fill="#f5c518" opacity="0.64"/><circle cx="586" cy="42" r="2.3" fill="#f5c518" opacity="0.55"/>
<rect x="12" y="12" width="100" height="24" rx="12" fill="#37474f" opacity="0.9"/><text x="62" y="28" fill="#fff" font-size="11" font-weight="700" text-anchor="middle" font-family="Arial,sans-serif">STACKER</text>
<rect x="100" y="60" width="440" height="280" rx="8" fill="#0d1b2a" opacity="0.5"/><rect x="240" y="50" width="160" height="22" rx="3" fill="#448aff" opacity="0.90" filter="url(#ds)"/><rect x="265" y="80" width="150" height="22" rx="3" fill="#e040fb" opacity="0.86" filter="url(#ds)"/><rect x="250" y="110" width="140" height="22" rx="3" fill="#448aff" opacity="0.82" filter="url(#ds)"/><rect x="275" y="140" width="130" height="22" rx="3" fill="#e040fb" opacity="0.78" filter="url(#ds)"/><rect x="260" y="170" width="120" height="22" rx="3" fill="#448aff" opacity="0.74" filter="url(#ds)"/><rect x="285" y="200" width="110" height="22" rx="3" fill="#e040fb" opacity="0.70" filter="url(#ds)"/><rect x="270" y="230" width="100" height="22" rx="3" fill="#448aff" opacity="0.66" filter="url(#ds)"/><rect x="295" y="260" width="90" height="22" rx="3" fill="#e040fb" opacity="0.62" filter="url(#ds)"/><rect x="280" y="290" width="80" height="22" rx="3" fill="#448aff" opacity="0.58" filter="url(#ds)"/><rect x="305" y="320" width="70" height="22" rx="3" fill="#e040fb" opacity="0.54" filter="url(#ds)"/>
<text x="320" y="340" fill="#fff" font-size="20" font-weight="800" text-anchor="middle" font-family="Arial,sans-serif" filter="url(#ds)">Pixel Bunny</text><text x="320" y="364" fill="#fff" font-size="20" font-weight="800" text-anchor="middle" font-family="Arial,sans-serif" filter="url(#ds)">Stack</text>
</svg>