<svg xmlns="http://www.w3.org/2000/svg" width="640" height="400" viewBox="0 0 640 400">
<defs><linearGradient id="bgpixelbunnyblast" x1="0" y1="0" x2="1" y2="1"><stop offset="0" stop-color="#1a1a2e"/><stop offset=".6" stop-color="#16213e"/><stop offset="1" stop-color="#0f3460"/></linearGradient><filter id="ds"><feDropShadow dx="0" dy="2" stdDeviation="3" flood-opacity=".6"/></filter></defs>
<rect width="640" height="400" fill="url(#bgpixelbunnyblast)" rx="12"/>
<circle cx="580" cy="350" r="80" fill="#e94560" opacity="0.08"/><circle cx="60" cy="360" r="50" fill="#e94560" opacity="0.08"/><circle cx="320" cy="380" r="60" fill="#e94560" opacity="0.08"/><circle cx="500" cy="50" r="40" fill="#e94560" opacity="0.08"/><circle cx="140" cy="30" r="30" fill="#e94560" opacity="0.08"/><circle cx="640" cy="0" r="90" fill="#e94560" opacity="0.08"/>
<circle cx="428" cy="128" r="1.2" fill="#f5c518" opacity="0.67"/><circle cx="81" cy="156" r="2.4" fill="#f5c518" opacity="0.60"/><circle cx="576" cy="51" r="1.9" fill="#f5c518" opacity="0.73"/><circle cx="88" cy="23" r="2.7" fill="#f5c518" opacity="0.53"/><circle cx="538" cy="106" r="1.7" fill="#f5c518" opacity="0.62"/><circle cx="226" cy="152" r="1.0" fill="#f5c518" opacity="0.70"/><circle cx="28" cy="150" r="2.5" fill="#f5c518" opacity="0.60"/><circle cx="482" cy="108" r="1.3" fill="#f5c518" opacity="0.57"/><circle cx="56" cy="111" r="1.5" fill="#f5c518" opacity="0.47"/><circle cx="554" cy="93" r="2.5" fill="#f5c518" opacity="0.66"/><circle cx="145" cy="12" r="2.8" fill="#f5c518" opacity="0.35"/><circle cx="63" cy="112" r="1.9" fill="#f5c518" opacity="0.54"/><circle cx="299" cy="133" r="2.5" fill="#f5c518" opacity="0.59"/><circle cx="503" cy="93" r="2.7" fill="#f5c518" opacity="0.90"/><circle cx="516" cy="51" r="2.0" fill="#f5c518" opacity="0.75"/>
<rect x="12" y="12" width="100" height="24" rx="12" fill="#880e4f" opacity="0.9"/><text x="62" y="28" fill="#fff" font-size="11" font-weight="700" text-anchor="middle" font-family="Arial,sans-serif">SHOOTER</text>
<polygon points="320,340 300,380 340,380" fill="#4fc3f7" opacity="0.9" filter="url(#ds)"/><rect x="85" y="50" width="30" height="20" rx="4" fill="#e94560" opacity="0.8" filter="url(#ds)"/><rect x="185" y="70" width="30" height="20" rx="4" fill="#ff5252" opacity="0.8" filter="url(#ds)"/><rect x="285" y="40" width="30" height="20" rx="4" fill="#e94560" opacity="0.8" filter="url(#ds)"/><rect x="385" y="60" width="30" height="20" rx="4" fill="#ff5252" opacity="0.8" filter="url(#ds)"/><rect x="485" y="50" width="30" height="20" rx="4" fill="#e94560" opacity="0.8" filter="url(#ds)"/><rect x="135" y="120" width="30" height="20" rx="4" fill="#ff5252" opacity="0.8" filter="url(#ds)"/><rect x="335" y="110" width="30" height="20" rx="4" fill="#e94560" opacity="0.8" filter="url(#ds)"/><rect x="435" y="130" width="30" height="20" rx="4" fill="#ff5252" opacity="0.8" filter="url(#ds)"/><line x1="320" y1="330" x2="320" y2="200" stroke="#ffd740" stroke-width="3" opacity="0.8"/><line x1="310" y1="320" x2="200" y2="140" stroke="#ffd740" stroke-width="2" opacity="0.6"/>
<text x="320" y="340" fill="#fff" font-size="20" font-weight="800" text-anchor="middle" font-family="Arial,sans-serif" filter="url(#ds)">Pixel Bunny</text><text x="320" y="364" fill="#fff" font-size="20" font-weight="800" text-anchor="middle" font-family="Arial,sans-serif" filter="url(#ds)">Blast</text>
</svg>