<svg xmlns="http://www.w3.org/2000/svg" width="640" height="400" viewBox="0 0 640 400">
<defs><linearGradient id="bgpixelpandaidle" x1="0" y1="0" x2="1" y2="1"><stop offset="0" stop-color="#1a1a2e"/><stop offset=".6" stop-color="#16213e"/><stop offset="1" stop-color="#0f3460"/></linearGradient><filter id="ds"><feDropShadow dx="0" dy="2" stdDeviation="3" flood-opacity=".6"/></filter></defs>
<rect width="640" height="400" fill="url(#bgpixelpandaidle)" rx="12"/>
<circle cx="580" cy="350" r="80" fill="#e94560" opacity="0.08"/><circle cx="60" cy="360" r="50" fill="#e94560" opacity="0.08"/><circle cx="320" cy="380" r="60" fill="#e94560" opacity="0.08"/><circle cx="500" cy="50" r="40" fill="#e94560" opacity="0.08"/><circle cx="140" cy="30" r="30" fill="#e94560" opacity="0.08"/><circle cx="640" cy="0" r="90" fill="#e94560" opacity="0.08"/>
<circle cx="370" cy="78" r="2.2" fill="#f5c518" opacity="0.55"/><circle cx="65" cy="22" r="1.5" fill="#f5c518" opacity="0.57"/><circle cx="197" cy="42" r="1.5" fill="#f5c518" opacity="0.47"/><circle cx="231" cy="143" r="1.8" fill="#f5c518" opacity="0.80"/><circle cx="474" cy="85" r="2.1" fill="#f5c518" opacity="0.81"/><circle cx="153" cy="13" r="1.8" fill="#f5c518" opacity="0.74"/><circle cx="548" cy="126" r="1.8" fill="#f5c518" opacity="0.49"/><circle cx="156" cy="153" r="1.6" fill="#f5c518" opacity="0.51"/><circle cx="586" cy="134" r="3.0" fill="#f5c518" opacity="0.57"/><circle cx="581" cy="147" r="2.5" fill="#f5c518" opacity="0.88"/><circle cx="128" cy="101" r="1.6" fill="#f5c518" opacity="0.71"/><circle cx="526" cy="78" r="1.1" fill="#f5c518" opacity="0.80"/><circle cx="287" cy="152" r="1.4" fill="#f5c518" opacity="0.61"/><circle cx="583" cy="136" r="1.8" fill="#f5c518" opacity="0.33"/><circle cx="87" cy="151" r="2.8" fill="#f5c518" opacity="0.46"/><circle cx="549" cy="87" r="2.0" fill="#f5c518" opacity="0.60"/><circle cx="110" cy="54" r="1.8" fill="#f5c518" opacity="0.73"/>
<rect x="12" y="12" width="100" height="24" rx="12" fill="#37474f" opacity="0.9"/><text x="62" y="28" fill="#fff" font-size="11" font-weight="700" text-anchor="middle" font-family="Arial,sans-serif">IDLE CLICKER</text>
<rect x="120" y="80" width="400" height="240" rx="12" fill="#1a1a2e" opacity="0.5" stroke="#f5c518" stroke-width="1.5"/><text x="320" y="140" fill="#f5c518" font-size="28" text-anchor="middle" font-family="Arial" font-weight="700" filter="url(#ds)">1,337</text><text x="320" y="170" fill="#fff" font-size="12" text-anchor="middle" font-family="Arial" opacity="0.6">coins</text><rect x="220" y="200" width="200" height="60" rx="10" fill="#f5c518" opacity="0.8"/><text x="320" y="237" fill="#1a1a2e" font-size="18" text-anchor="middle" font-family="Arial" font-weight="700">COLLECT</text><text x="320" y="290" fill="#fff" font-size="11" text-anchor="middle" font-family="Arial" opacity="0.5">+10/s auto</text>
<text x="320" y="340" fill="#fff" font-size="20" font-weight="800" text-anchor="middle" font-family="Arial,sans-serif" filter="url(#ds)">Pixel Panda</text><text x="320" y="364" fill="#fff" font-size="20" font-weight="800" text-anchor="middle" font-family="Arial,sans-serif" filter="url(#ds)">Idle</text>
</svg>