<svg xmlns="http://www.w3.org/2000/svg" width="640" height="400" viewBox="0 0 640 400">
<defs><linearGradient id="bgpixelbearserpent" x1="0" y1="0" x2="1" y2="1"><stop offset="0" stop-color="#1a1a2e"/><stop offset=".6" stop-color="#16213e"/><stop offset="1" stop-color="#0f3460"/></linearGradient><filter id="ds"><feDropShadow dx="0" dy="2" stdDeviation="3" flood-opacity=".6"/></filter></defs>
<rect width="640" height="400" fill="url(#bgpixelbearserpent)" rx="12"/>
<circle cx="580" cy="350" r="80" fill="#e94560" opacity="0.08"/><circle cx="60" cy="360" r="50" fill="#e94560" opacity="0.08"/><circle cx="320" cy="380" r="60" fill="#e94560" opacity="0.08"/><circle cx="500" cy="50" r="40" fill="#e94560" opacity="0.08"/><circle cx="140" cy="30" r="30" fill="#e94560" opacity="0.08"/><circle cx="640" cy="0" r="90" fill="#e94560" opacity="0.08"/>
<circle cx="391" cy="153" r="2.4" fill="#f5c518" opacity="0.49"/><circle cx="198" cy="112" r="2.1" fill="#f5c518" opacity="0.53"/><circle cx="523" cy="82" r="2.0" fill="#f5c518" opacity="0.57"/><circle cx="326" cy="145" r="2.3" fill="#f5c518" opacity="0.78"/><circle cx="194" cy="53" r="1.6" fill="#f5c518" opacity="0.42"/><circle cx="614" cy="132" r="1.1" fill="#f5c518" opacity="0.90"/><circle cx="407" cy="21" r="1.8" fill="#f5c518" opacity="0.65"/><circle cx="316" cy="68" r="2.7" fill="#f5c518" opacity="0.62"/><circle cx="565" cy="27" r="1.4" fill="#f5c518" opacity="0.64"/><circle cx="80" cy="69" r="2.1" fill="#f5c518" opacity="0.73"/><circle cx="190" cy="42" r="1.3" fill="#f5c518" opacity="0.80"/><circle cx="275" cy="132" r="1.7" fill="#f5c518" opacity="0.54"/><circle cx="570" cy="92" r="2.4" fill="#f5c518" opacity="0.61"/><circle cx="533" cy="150" r="2.5" fill="#f5c518" opacity="0.39"/><circle cx="453" cy="112" r="1.1" fill="#f5c518" opacity="0.59"/><circle cx="67" cy="114" r="1.6" fill="#f5c518" opacity="0.32"/>
<rect x="12" y="12" width="100" height="24" rx="12" fill="#37474f" opacity="0.9"/><text x="62" y="28" fill="#fff" font-size="11" font-weight="700" text-anchor="middle" font-family="Arial,sans-serif">SNAKE</text>
<rect x="140" y="70" width="16" height="16" fill="#1a1a2e" opacity="0.3"/><rect x="156" y="70" width="16" height="16" fill="#1a1a2e" opacity="0.2"/><rect x="172" y="70" width="16" height="16" fill="#1a1a2e" opacity="0.3"/><rect x="188" y="70" width="16" height="16" fill="#1a1a2e" opacity="0.2"/><rect x="204" y="70" width="16" height="16" fill="#1a1a2e" opacity="0.3"/><rect x="220" y="70" width="16" height="16" fill="#1a1a2e" opacity="0.2"/><rect x="236" y="70" width="16" height="16" fill="#1a1a2e" opacity="0.3"/><rect x="252" y="70" width="16" height="16" fill="#1a1a2e" opacity="0.2"/><rect x="220" y="182" width="16" height="16" rx="3" fill="#69f0ae" opacity="0.9" filter="url(#ds)"/><rect x="204" y="182" width="16" height="16" rx="3" fill="#4caf50" opacity="0.9" filter="url(#ds)"/><rect x="188" y="182" width="16" height="16" rx="3" fill="#4caf50" opacity="0.9" filter="url(#ds)"/><rect x="188" y="198" width="16" height="16" rx="3" fill="#4caf50" opacity="0.9" filter="url(#ds)"/><rect x="188" y="214" width="16" height="16" rx="3" fill="#4caf50" opacity="0.9" filter="url(#ds)"/><rect x="204" y="214" width="16" height="16" rx="3" fill="#4caf50" opacity="0.9" filter="url(#ds)"/><rect x="220" y="214" width="16" height="16" rx="3" fill="#4caf50" opacity="0.9" filter="url(#ds)"/><rect x="236" y="214" width="16" height="16" rx="3" fill="#4caf50" opacity="0.9" filter="url(#ds)"/><rect x="252" y="214" width="16" height="16" rx="3" fill="#4caf50" opacity="0.9" filter="url(#ds)"/><rect x="252" y="198" width="16" height="16" rx="3" fill="#4caf50" opacity="0.9" filter="url(#ds)"/><circle cx="308" cy="158" r="6" fill="#ef5350" opacity="0.9" filter="url(#ds)"/>
<text x="320" y="340" fill="#fff" font-size="22" font-weight="800" text-anchor="middle" font-family="Arial,sans-serif" filter="url(#ds)">Pixel Bear</text><text x="320" y="366" fill="#fff" font-size="22" font-weight="800" text-anchor="middle" font-family="Arial,sans-serif" filter="url(#ds)">Serpent</text>
</svg>