<svg xmlns="http://www.w3.org/2000/svg" width="640" height="400" viewBox="0 0 640 400">
<defs><linearGradient id="bgpixelpandatower" x1="0" y1="0" x2="1" y2="1"><stop offset="0" stop-color="#1a1a2e"/><stop offset=".6" stop-color="#16213e"/><stop offset="1" stop-color="#0f3460"/></linearGradient><filter id="ds"><feDropShadow dx="0" dy="2" stdDeviation="3" flood-opacity=".6"/></filter></defs>
<rect width="640" height="400" fill="url(#bgpixelpandatower)" rx="12"/>
<circle cx="580" cy="350" r="80" fill="#e94560" opacity="0.08"/><circle cx="60" cy="360" r="50" fill="#e94560" opacity="0.08"/><circle cx="320" cy="380" r="60" fill="#e94560" opacity="0.08"/><circle cx="500" cy="50" r="40" fill="#e94560" opacity="0.08"/><circle cx="140" cy="30" r="30" fill="#e94560" opacity="0.08"/><circle cx="640" cy="0" r="90" fill="#e94560" opacity="0.08"/>
<circle cx="397" cy="35" r="2.9" fill="#f5c518" opacity="0.75"/><circle cx="107" cy="112" r="2.7" fill="#f5c518" opacity="0.42"/><circle cx="418" cy="37" r="1.2" fill="#f5c518" opacity="0.55"/><circle cx="464" cy="57" r="1.7" fill="#f5c518" opacity="0.38"/><circle cx="32" cy="74" r="1.3" fill="#f5c518" opacity="0.52"/><circle cx="342" cy="25" r="1.8" fill="#f5c518" opacity="0.84"/><circle cx="346" cy="128" r="2.7" fill="#f5c518" opacity="0.89"/><circle cx="182" cy="28" r="1.3" fill="#f5c518" opacity="0.35"/><circle cx="194" cy="124" r="2.3" fill="#f5c518" opacity="0.76"/><circle cx="487" cy="67" r="2.9" fill="#f5c518" opacity="0.42"/><circle cx="564" cy="83" r="2.3" fill="#f5c518" opacity="0.75"/><circle cx="25" cy="68" r="1.0" fill="#f5c518" opacity="0.68"/><circle cx="138" cy="38" r="1.2" fill="#f5c518" opacity="0.57"/><circle cx="73" cy="67" r="2.9" fill="#f5c518" opacity="0.32"/><circle cx="426" cy="125" r="1.0" fill="#f5c518" opacity="0.56"/><circle cx="365" cy="93" r="1.9" fill="#f5c518" opacity="0.88"/><circle cx="605" cy="35" r="1.2" fill="#f5c518" opacity="0.55"/>
<rect x="12" y="12" width="100" height="24" rx="12" fill="#37474f" opacity="0.9"/><text x="62" y="28" fill="#fff" font-size="11" font-weight="700" text-anchor="middle" font-family="Arial,sans-serif">TOWER DEFENSE</text>
<rect x="100" y="60" width="440" height="280" rx="8" fill="#0d1b2a" opacity="0.5"/><rect x="170" y="60" width="300" height="16" rx="4" fill="#4fc3f7" opacity="0.90" filter="url(#ds)"/><rect x="180" y="88" width="280" height="16" rx="4" fill="#ff5252" opacity="0.85" filter="url(#ds)"/><rect x="190" y="116" width="260" height="16" rx="4" fill="#4fc3f7" opacity="0.80" filter="url(#ds)"/><rect x="200" y="144" width="240" height="16" rx="4" fill="#ff5252" opacity="0.75" filter="url(#ds)"/><rect x="210" y="172" width="220" height="16" rx="4" fill="#4fc3f7" opacity="0.70" filter="url(#ds)"/><rect x="220" y="200" width="200" height="16" rx="4" fill="#ff5252" opacity="0.65" filter="url(#ds)"/><rect x="230" y="228" width="180" height="16" rx="4" fill="#4fc3f7" opacity="0.60" filter="url(#ds)"/><rect x="240" y="256" width="160" height="16" rx="4" fill="#ff5252" opacity="0.55" filter="url(#ds)"/><rect x="250" y="284" width="140" height="16" rx="4" fill="#4fc3f7" opacity="0.50" filter="url(#ds)"/><rect x="260" y="312" width="120" height="16" rx="4" fill="#ff5252" opacity="0.45" filter="url(#ds)"/><rect x="270" y="340" width="100" height="16" rx="4" fill="#4fc3f7" opacity="0.40" filter="url(#ds)"/><rect x="280" y="368" width="80" height="16" rx="4" fill="#ff5252" opacity="0.35" filter="url(#ds)"/><circle cx="320" cy="56" r="10" fill="#ffd740" opacity="0.9" filter="url(#ds)"/>
<text x="320" y="340" fill="#fff" font-size="20" font-weight="800" text-anchor="middle" font-family="Arial,sans-serif" filter="url(#ds)">Pixel Panda</text><text x="320" y="364" fill="#fff" font-size="20" font-weight="800" text-anchor="middle" font-family="Arial,sans-serif" filter="url(#ds)">Tower</text>
</svg>