<svg xmlns="http://www.w3.org/2000/svg" width="640" height="400" viewBox="0 0 640 400">
<defs><linearGradient id="bgpixelfoxspeedrun" x1="0" y1="0" x2="1" y2="1"><stop offset="0" stop-color="#1a1a2e"/><stop offset=".6" stop-color="#16213e"/><stop offset="1" stop-color="#0f3460"/></linearGradient><filter id="ds"><feDropShadow dx="0" dy="2" stdDeviation="3" flood-opacity=".6"/></filter></defs>
<rect width="640" height="400" fill="url(#bgpixelfoxspeedrun)" rx="12"/>
<circle cx="580" cy="350" r="80" fill="#e94560" opacity="0.08"/><circle cx="60" cy="360" r="50" fill="#e94560" opacity="0.08"/><circle cx="320" cy="380" r="60" fill="#e94560" opacity="0.08"/><circle cx="500" cy="50" r="40" fill="#e94560" opacity="0.08"/><circle cx="140" cy="30" r="30" fill="#e94560" opacity="0.08"/><circle cx="640" cy="0" r="90" fill="#e94560" opacity="0.08"/>
<circle cx="484" cy="57" r="1.3" fill="#f5c518" opacity="0.82"/><circle cx="610" cy="111" r="2.5" fill="#f5c518" opacity="0.54"/><circle cx="55" cy="50" r="2.5" fill="#f5c518" opacity="0.45"/><circle cx="28" cy="39" r="1.8" fill="#f5c518" opacity="0.75"/><circle cx="459" cy="17" r="1.5" fill="#f5c518" opacity="0.41"/><circle cx="221" cy="50" r="1.3" fill="#f5c518" opacity="0.79"/><circle cx="128" cy="126" r="2.8" fill="#f5c518" opacity="0.68"/><circle cx="122" cy="79" r="2.2" fill="#f5c518" opacity="0.86"/><circle cx="567" cy="118" r="2.7" fill="#f5c518" opacity="0.73"/><circle cx="297" cy="15" r="2.7" fill="#f5c518" opacity="0.56"/><circle cx="600" cy="64" r="2.3" fill="#f5c518" opacity="0.52"/><circle cx="307" cy="82" r="2.3" fill="#f5c518" opacity="0.34"/><circle cx="289" cy="133" r="3.0" fill="#f5c518" opacity="0.51"/><circle cx="182" cy="67" r="1.5" fill="#f5c518" opacity="0.82"/><circle cx="168" cy="121" r="2.8" fill="#f5c518" opacity="0.75"/><circle cx="144" cy="17" r="2.0" fill="#f5c518" opacity="0.40"/>
<rect x="12" y="12" width="100" height="24" rx="12" fill="#e65100" opacity="0.9"/><text x="62" y="28" fill="#fff" font-size="11" font-weight="700" text-anchor="middle" font-family="Arial,sans-serif">RUNNER</text>
<rect x="0" y="320" width="640" height="60" fill="#1a1a2e" opacity="0.6"/><line x1="0" y1="320" x2="640" y2="320" stroke="#e94560" stroke-width="2" opacity="0.5"/><rect x="180" y="280" width="20" height="40" rx="3" fill="#e94560" opacity="0.8" filter="url(#ds)"/><rect x="320" y="265" width="18" height="55" rx="3" fill="#f5c518" opacity="0.8" filter="url(#ds)"/><rect x="480" y="290" width="22" height="30" rx="3" fill="#e94560" opacity="0.8" filter="url(#ds)"/><rect x="550" y="275" width="16" height="45" rx="3" fill="#f5c518" opacity="0.8" filter="url(#ds)"/><circle cx="120" cy="295" r="20" fill="#fff" opacity="0.9" filter="url(#ds)"/><circle cx="115" cy="290" r="5" fill="#1a1a2e"/><circle cx="125" cy="290" r="5" fill="#1a1a2e"/><ellipse cx="120" cy="298" rx="4" ry="2" fill="#1a1a2e"/><text x="620" y="40" fill="#fff" font-size="14" text-anchor="end" font-family="Arial" opacity="0.8">HIGH 1337</text>
<text x="320" y="340" fill="#fff" font-size="22" font-weight="800" text-anchor="middle" font-family="Arial,sans-serif" filter="url(#ds)">Pixel Fox</text><text x="320" y="366" fill="#fff" font-size="22" font-weight="800" text-anchor="middle" font-family="Arial,sans-serif" filter="url(#ds)">Speedrun</text>
</svg>