<svg xmlns="http://www.w3.org/2000/svg" width="640" height="400" viewBox="0 0 640 400">
<defs><linearGradient id="bgpixelraccoondig" x1="0" y1="0" x2="1" y2="1"><stop offset="0" stop-color="#1a1a2e"/><stop offset=".6" stop-color="#16213e"/><stop offset="1" stop-color="#0f3460"/></linearGradient><filter id="ds"><feDropShadow dx="0" dy="2" stdDeviation="3" flood-opacity=".6"/></filter></defs>
<rect width="640" height="400" fill="url(#bgpixelraccoondig)" rx="12"/>
<circle cx="580" cy="350" r="80" fill="#e94560" opacity="0.08"/><circle cx="60" cy="360" r="50" fill="#e94560" opacity="0.08"/><circle cx="320" cy="380" r="60" fill="#e94560" opacity="0.08"/><circle cx="500" cy="50" r="40" fill="#e94560" opacity="0.08"/><circle cx="140" cy="30" r="30" fill="#e94560" opacity="0.08"/><circle cx="640" cy="0" r="90" fill="#e94560" opacity="0.08"/>
<circle cx="458" cy="12" r="1.9" fill="#f5c518" opacity="0.45"/><circle cx="122" cy="84" r="1.8" fill="#f5c518" opacity="0.86"/><circle cx="601" cy="83" r="2.2" fill="#f5c518" opacity="0.41"/><circle cx="153" cy="155" r="2.7" fill="#f5c518" opacity="0.51"/><circle cx="247" cy="57" r="1.8" fill="#f5c518" opacity="0.77"/><circle cx="144" cy="151" r="1.9" fill="#f5c518" opacity="0.73"/><circle cx="137" cy="140" r="1.3" fill="#f5c518" opacity="0.82"/><circle cx="200" cy="67" r="2.7" fill="#f5c518" opacity="0.72"/><circle cx="593" cy="135" r="1.6" fill="#f5c518" opacity="0.77"/><circle cx="577" cy="86" r="2.9" fill="#f5c518" opacity="0.46"/><circle cx="160" cy="93" r="1.9" fill="#f5c518" opacity="0.51"/><circle cx="81" cy="71" r="2.0" fill="#f5c518" opacity="0.38"/><circle cx="581" cy="87" r="2.6" fill="#f5c518" opacity="0.32"/><circle cx="173" cy="60" r="1.9" fill="#f5c518" opacity="0.63"/><circle cx="242" cy="121" r="1.7" fill="#f5c518" opacity="0.54"/><circle cx="258" cy="71" r="2.5" fill="#f5c518" opacity="0.44"/><circle cx="273" cy="53" r="1.8" fill="#f5c518" opacity="0.60"/><circle cx="176" cy="126" r="1.1" fill="#f5c518" opacity="0.55"/><circle cx="553" cy="50" r="1.8" fill="#f5c518" opacity="0.40"/>
<rect x="12" y="12" width="100" height="24" rx="12" fill="#37474f" opacity="0.9"/><text x="62" y="28" fill="#fff" font-size="11" font-weight="700" text-anchor="middle" font-family="Arial,sans-serif">WHACK</text>
<ellipse cx="150" cy="280" rx="60" ry="30" fill="#1a1a2e" opacity="0.7"/><ellipse cx="320" cy="260" rx="60" ry="30" fill="#1a1a2e" opacity="0.7"/><ellipse cx="490" cy="280" rx="60" ry="30" fill="#1a1a2e" opacity="0.7"/><ellipse cx="235" cy="320" rx="55" ry="27.5" fill="#1a1a2e" opacity="0.7"/><ellipse cx="405" cy="320" rx="55" ry="27.5" fill="#1a1a2e" opacity="0.7"/><circle cx="320" cy="230" r="25" fill="#fff" opacity="0.9" filter="url(#ds)"/><circle cx="312" cy="225" r="6" fill="#1a1a2e"/><circle cx="328" cy="225" r="6" fill="#1a1a2e"/><line x1="290" y1="210" x2="250" y2="190" stroke="#e94560" stroke-width="4" stroke-linecap="round" opacity="0.8"/>
<text x="320" y="340" fill="#fff" font-size="20" font-weight="800" text-anchor="middle" font-family="Arial,sans-serif" filter="url(#ds)">Pixel Raccoon</text><text x="320" y="364" fill="#fff" font-size="20" font-weight="800" text-anchor="middle" font-family="Arial,sans-serif" filter="url(#ds)">Dig</text>
</svg>