<svg xmlns="http://www.w3.org/2000/svg" width="640" height="400" viewBox="0 0 640 400">
<defs><linearGradient id="bgpixelraccoonmaze" x1="0" y1="0" x2="1" y2="1"><stop offset="0" stop-color="#1a1a2e"/><stop offset=".6" stop-color="#16213e"/><stop offset="1" stop-color="#0f3460"/></linearGradient><filter id="ds"><feDropShadow dx="0" dy="2" stdDeviation="3" flood-opacity=".6"/></filter></defs>
<rect width="640" height="400" fill="url(#bgpixelraccoonmaze)" rx="12"/>
<circle cx="580" cy="350" r="80" fill="#e94560" opacity="0.08"/><circle cx="60" cy="360" r="50" fill="#e94560" opacity="0.08"/><circle cx="320" cy="380" r="60" fill="#e94560" opacity="0.08"/><circle cx="500" cy="50" r="40" fill="#e94560" opacity="0.08"/><circle cx="140" cy="30" r="30" fill="#e94560" opacity="0.08"/><circle cx="640" cy="0" r="90" fill="#e94560" opacity="0.08"/>
<circle cx="215" cy="64" r="1.6" fill="#f5c518" opacity="0.89"/><circle cx="156" cy="60" r="1.4" fill="#f5c518" opacity="0.83"/><circle cx="506" cy="46" r="2.8" fill="#f5c518" opacity="0.65"/><circle cx="33" cy="101" r="1.5" fill="#f5c518" opacity="0.58"/><circle cx="467" cy="85" r="1.7" fill="#f5c518" opacity="0.72"/><circle cx="504" cy="68" r="1.9" fill="#f5c518" opacity="0.88"/><circle cx="91" cy="32" r="2.9" fill="#f5c518" opacity="0.61"/><circle cx="132" cy="73" r="2.6" fill="#f5c518" opacity="0.53"/><circle cx="506" cy="46" r="1.5" fill="#f5c518" opacity="0.59"/><circle cx="617" cy="135" r="1.2" fill="#f5c518" opacity="0.51"/><circle cx="513" cy="123" r="1.7" fill="#f5c518" opacity="0.52"/><circle cx="405" cy="132" r="2.3" fill="#f5c518" opacity="0.65"/><circle cx="367" cy="131" r="1.4" fill="#f5c518" opacity="0.46"/>
<rect x="12" y="12" width="100" height="24" rx="12" fill="#37474f" opacity="0.9"/><text x="62" y="28" fill="#fff" font-size="11" font-weight="700" text-anchor="middle" font-family="Arial,sans-serif">MAZE</text>
<rect x="100" y="60" width="440" height="280" rx="8" fill="#0d1b2a" opacity="0.5"/><rect x="120" y="50" width="40" height="40" fill="#1b3a5c" opacity="0.7"/><rect x="160" y="50" width="40" height="40" fill="#1b3a5c" opacity="0.7"/><rect x="200" y="50" width="40" height="40" fill="#1b3a5c" opacity="0.7"/><rect x="240" y="50" width="40" height="40" fill="#1b3a5c" opacity="0.7"/><rect x="280" y="50" width="40" height="40" fill="#1b3a5c" opacity="0.7"/><rect x="320" y="50" width="40" height="40" fill="#1b3a5c" opacity="0.7"/><rect x="360" y="50" width="40" height="40" fill="#1b3a5c" opacity="0.7"/><rect x="400" y="50" width="40" height="40" fill="#1b3a5c" opacity="0.7"/><rect x="440" y="50" width="40" height="40" fill="#1b3a5c" opacity="0.7"/><rect x="480" y="50" width="40" height="40" fill="#1b3a5c" opacity="0.7"/><rect x="120" y="90" width="40" height="40" fill="#1b3a5c" opacity="0.7"/><rect x="480" y="90" width="40" height="40" fill="#1b3a5c" opacity="0.7"/><rect x="120" y="130" width="40" height="40" fill="#1b3a5c" opacity="0.7"/><rect x="200" y="130" width="40" height="40" fill="#1b3a5c" opacity="0.7"/><rect x="240" y="130" width="40" height="40" fill="#1b3a5c" opacity="0.7"/><rect x="280" y="130" width="40" height="40" fill="#1b3a5c" opacity="0.7"/><rect x="320" y="130" width="40" height="40" fill="#1b3a5c" opacity="0.7"/><rect x="400" y="130" width="40" height="40" fill="#1b3a5c" opacity="0.7"/><rect x="480" y="130" width="40" height="40" fill="#1b3a5c" opacity="0.7"/><rect x="120" y="170" width="40" height="40" fill="#1b3a5c" opacity="0.7"/><rect x="200" y="170" width="40" height="40" fill="#1b3a5c" opacity="0.7"/><rect x="400" y="170" width="40" height="40" fill="#1b3a5c" opacity="0.7"/><rect x="480" y="170" width="40" height="40" fill="#1b3a5c" opacity="0.7"/><rect x="120" y="210" width="40" height="40" fill="#1b3a5c" opacity="0.7"/><rect x="200" y="210" width="40" height="40" fill="#1b3a5c" opacity="0.7"/><rect x="280" y="210" width="40" height="40" fill="#1b3a5c" opacity="0.7"/><rect x="320" y="210" width="40" height="40" fill="#1b3a5c" opacity="0.7"/><rect x="360" y="210" width="40" height="40" fill="#1b3a5c" opacity="0.7"/><rect x="400" y="210" width="40" height="40" fill="#1b3a5c" opacity="0.7"/><rect x="480" y="210" width="40" height="40" fill="#1b3a5c" opacity="0.7"/><rect x="120" y="250" width="40" height="40" fill="#1b3a5c" opacity="0.7"/><rect x="280" y="250" width="40" height="40" fill="#1b3a5c" opacity="0.7"/><rect x="480" y="250" width="40" height="40" fill="#1b3a5c" opacity="0.7"/><rect x="120" y="290" width="40" height="40" fill="#1b3a5c" opacity="0.7"/><rect x="160" y="290" width="40" height="40" fill="#1b3a5c" opacity="0.7"/><rect x="200" y="290" width="40" height="40" fill="#1b3a5c" opacity="0.7"/><rect x="280" y="290" width="40" height="40" fill="#1b3a5c" opacity="0.7"/><rect x="360" y="290" width="40" height="40" fill="#1b3a5c" opacity="0.7"/><rect x="400" y="290" width="40" height="40" fill="#1b3a5c" opacity="0.7"/><rect x="480" y="290" width="40" height="40" fill="#1b3a5c" opacity="0.7"/><rect x="120" y="330" width="40" height="40" fill="#1b3a5c" opacity="0.7"/><rect x="280" y="330" width="40" height="40" fill="#1b3a5c" opacity="0.7"/><rect x="400" y="330" width="40" height="40" fill="#1b3a5c" opacity="0.7"/><rect x="480" y="330" width="40" height="40" fill="#1b3a5c" opacity="0.7"/><rect x="120" y="370" width="40" height="40" fill="#1b3a5c" opacity="0.7"/><rect x="200" y="370" width="40" height="40" fill="#1b3a5c" opacity="0.7"/><rect x="240" y="370" width="40" height="40" fill="#1b3a5c" opacity="0.7"/><rect x="280" y="370" width="40" height="40" fill="#1b3a5c" opacity="0.7"/><rect x="320" y="370" width="40" height="40" fill="#1b3a5c" opacity="0.7"/><rect x="480" y="370" width="40" height="40" fill="#1b3a5c" opacity="0.7"/><rect x="120" y="410" width="40" height="40" fill="#1b3a5c" opacity="0.7"/><rect x="160" y="410" width="40" height="40" fill="#1b3a5c" opacity="0.7"/><rect x="200" y="410" width="40" height="40" fill="#1b3a5c" opacity="0.7"/><rect x="240" y="410" width="40" height="40" fill="#1b3a5c" opacity="0.7"/><rect x="280" y="410" width="40" height="40" fill="#1b3a5c" opacity="0.7"/><rect x="320" y="410" width="40" height="40" fill="#1b3a5c" opacity="0.7"/><rect x="360" y="410" width="40" height="40" fill="#1b3a5c" opacity="0.7"/><rect x="400" y="410" width="40" height="40" fill="#1b3a5c" opacity="0.7"/><rect x="440" y="410" width="40" height="40" fill="#1b3a5c" opacity="0.7"/><rect x="480" y="410" width="40" height="40" fill="#1b3a5c" opacity="0.7"/><circle cx="140" cy="70" r="8" fill="#4fc3f7" filter="url(#ds)"/><circle cx="460" cy="390" r="8" fill="#ffd740" filter="url(#ds)"/>
<text x="320" y="340" fill="#fff" font-size="20" font-weight="800" text-anchor="middle" font-family="Arial,sans-serif" filter="url(#ds)">Pixel Raccoon</text><text x="320" y="364" fill="#fff" font-size="20" font-weight="800" text-anchor="middle" font-family="Arial,sans-serif" filter="url(#ds)">Maze</text>
</svg>