<svg xmlns="http://www.w3.org/2000/svg" width="640" height="400" viewBox="0 0 640 400">
<defs><linearGradient id="bgprismpath" x1="0" y1="0" x2="1" y2="1"><stop offset="0" stop-color="#0d1b2a"/><stop offset=".6" stop-color="#1b3a5c"/><stop offset="1" stop-color="#e0f7fa"/></linearGradient><filter id="ds"><feDropShadow dx="0" dy="2" stdDeviation="3" flood-opacity=".6"/></filter></defs>
<rect width="640" height="400" fill="url(#bgprismpath)" rx="12"/>
<circle cx="580" cy="350" r="80" fill="#4fc3f7" opacity="0.08"/><circle cx="60" cy="360" r="50" fill="#4fc3f7" opacity="0.08"/><circle cx="320" cy="380" r="60" fill="#4fc3f7" opacity="0.08"/><circle cx="500" cy="50" r="40" fill="#4fc3f7" opacity="0.08"/><circle cx="140" cy="30" r="30" fill="#4fc3f7" opacity="0.08"/><circle cx="640" cy="0" r="90" fill="#4fc3f7" opacity="0.08"/>
<circle cx="158" cy="157" r="1.8" fill="#81d4fa" opacity="0.60"/><circle cx="71" cy="160" r="2.5" fill="#81d4fa" opacity="0.52"/><circle cx="529" cy="71" r="1.8" fill="#81d4fa" opacity="0.45"/><circle cx="46" cy="23" r="1.0" fill="#81d4fa" opacity="0.88"/><circle cx="321" cy="89" r="2.2" fill="#81d4fa" opacity="0.37"/><circle cx="335" cy="13" r="2.9" fill="#81d4fa" opacity="0.78"/><circle cx="440" cy="152" r="1.7" fill="#81d4fa" opacity="0.55"/><circle cx="174" cy="75" r="1.8" fill="#81d4fa" opacity="0.59"/><circle cx="53" cy="61" r="1.2" fill="#81d4fa" opacity="0.31"/><circle cx="246" cy="49" r="1.9" fill="#81d4fa" opacity="0.69"/><circle cx="214" cy="156" r="2.7" fill="#81d4fa" opacity="0.59"/><circle cx="398" cy="134" r="2.9" fill="#81d4fa" opacity="0.44"/><circle cx="97" cy="100" r="2.5" fill="#81d4fa" opacity="0.68"/><circle cx="42" cy="12" r="2.8" fill="#81d4fa" opacity="0.72"/><circle cx="111" cy="149" r="1.7" fill="#81d4fa" opacity="0.39"/><circle cx="238" cy="128" r="2.3" fill="#81d4fa" opacity="0.82"/><circle cx="582" cy="99" r="1.8" fill="#81d4fa" opacity="0.77"/>
<rect x="12" y="12" width="100" height="24" rx="12" fill="#37474f" opacity="0.9"/><text x="62" y="28" fill="#fff" font-size="11" font-weight="700" text-anchor="middle" font-family="Arial,sans-serif">SNAKE</text>
<rect x="140" y="70" width="16" height="16" fill="#1a1a2e" opacity="0.3"/><rect x="156" y="70" width="16" height="16" fill="#1a1a2e" opacity="0.2"/><rect x="172" y="70" width="16" height="16" fill="#1a1a2e" opacity="0.3"/><rect x="188" y="70" width="16" height="16" fill="#1a1a2e" opacity="0.2"/><rect x="204" y="70" width="16" height="16" fill="#1a1a2e" opacity="0.3"/><rect x="220" y="70" width="16" height="16" fill="#1a1a2e" opacity="0.2"/><rect x="236" y="70" width="16" height="16" fill="#1a1a2e" opacity="0.3"/><rect x="252" y="70" width="16" height="16" fill="#1a1a2e" opacity="0.2"/><rect x="220" y="182" width="16" height="16" rx="3" fill="#69f0ae" opacity="0.9" filter="url(#ds)"/><rect x="204" y="182" width="16" height="16" rx="3" fill="#4caf50" opacity="0.9" filter="url(#ds)"/><rect x="188" y="182" width="16" height="16" rx="3" fill="#4caf50" opacity="0.9" filter="url(#ds)"/><rect x="188" y="198" width="16" height="16" rx="3" fill="#4caf50" opacity="0.9" filter="url(#ds)"/><rect x="188" y="214" width="16" height="16" rx="3" fill="#4caf50" opacity="0.9" filter="url(#ds)"/><rect x="204" y="214" width="16" height="16" rx="3" fill="#4caf50" opacity="0.9" filter="url(#ds)"/><rect x="220" y="214" width="16" height="16" rx="3" fill="#4caf50" opacity="0.9" filter="url(#ds)"/><rect x="236" y="214" width="16" height="16" rx="3" fill="#4caf50" opacity="0.9" filter="url(#ds)"/><rect x="252" y="214" width="16" height="16" rx="3" fill="#4caf50" opacity="0.9" filter="url(#ds)"/><rect x="252" y="198" width="16" height="16" rx="3" fill="#4caf50" opacity="0.9" filter="url(#ds)"/><circle cx="308" cy="158" r="6" fill="#ef5350" opacity="0.9" filter="url(#ds)"/>
<text x="320" y="340" fill="#fff" font-size="22" font-weight="800" text-anchor="middle" font-family="Arial,sans-serif" filter="url(#ds)">Prism</text><text x="320" y="366" fill="#fff" font-size="22" font-weight="800" text-anchor="middle" font-family="Arial,sans-serif" filter="url(#ds)">Path</text>
</svg>