<svg xmlns="http://www.w3.org/2000/svg" width="640" height="400" viewBox="0 0 640 400">
<defs><linearGradient id="bgriddlebrick" x1="0" y1="0" x2="1" y2="1"><stop offset="0" stop-color="#0d1b2a"/><stop offset=".6" stop-color="#1b3a5c"/><stop offset="1" stop-color="#e0f7fa"/></linearGradient><filter id="ds"><feDropShadow dx="0" dy="2" stdDeviation="3" flood-opacity=".6"/></filter></defs>
<rect width="640" height="400" fill="url(#bgriddlebrick)" rx="12"/>
<circle cx="580" cy="350" r="80" fill="#4fc3f7" opacity="0.08"/><circle cx="60" cy="360" r="50" fill="#4fc3f7" opacity="0.08"/><circle cx="320" cy="380" r="60" fill="#4fc3f7" opacity="0.08"/><circle cx="500" cy="50" r="40" fill="#4fc3f7" opacity="0.08"/><circle cx="140" cy="30" r="30" fill="#4fc3f7" opacity="0.08"/><circle cx="640" cy="0" r="90" fill="#4fc3f7" opacity="0.08"/>
<circle cx="465" cy="144" r="1.9" fill="#81d4fa" opacity="0.71"/><circle cx="48" cy="56" r="2.5" fill="#81d4fa" opacity="0.56"/><circle cx="430" cy="73" r="2.4" fill="#81d4fa" opacity="0.85"/><circle cx="460" cy="137" r="2.7" fill="#81d4fa" opacity="0.50"/><circle cx="308" cy="80" r="2.2" fill="#81d4fa" opacity="0.36"/><circle cx="117" cy="48" r="1.7" fill="#81d4fa" opacity="0.37"/><circle cx="47" cy="120" r="1.9" fill="#81d4fa" opacity="0.45"/><circle cx="328" cy="123" r="2.0" fill="#81d4fa" opacity="0.64"/><circle cx="296" cy="49" r="1.8" fill="#81d4fa" opacity="0.61"/><circle cx="122" cy="117" r="3.0" fill="#81d4fa" opacity="0.80"/><circle cx="145" cy="14" r="1.4" fill="#81d4fa" opacity="0.45"/><circle cx="538" cy="105" r="1.5" fill="#81d4fa" opacity="0.34"/><circle cx="597" cy="81" r="3.0" fill="#81d4fa" opacity="0.58"/><circle cx="407" cy="137" r="1.3" fill="#81d4fa" opacity="0.54"/><circle cx="505" cy="80" r="1.4" fill="#81d4fa" opacity="0.36"/><circle cx="137" cy="104" r="1.5" fill="#81d4fa" opacity="0.68"/><circle cx="408" cy="110" r="1.2" fill="#81d4fa" opacity="0.88"/><circle cx="90" cy="160" r="2.2" fill="#81d4fa" opacity="0.34"/>
<rect x="12" y="12" width="100" height="24" rx="12" fill="#37474f" opacity="0.9"/><text x="62" y="28" fill="#fff" font-size="11" font-weight="700" text-anchor="middle" font-family="Arial,sans-serif">BREAKOUT</text>
<rect x="100" y="60" width="440" height="280" rx="8" fill="#0d1b2a" opacity="0.5"/><rect x="80" y="65" width="44" height="18" rx="3" fill="#ff5252" opacity="0.8"/><rect x="129" y="65" width="44" height="18" rx="3" fill="#ff5252" opacity="0.8"/><rect x="178" y="65" width="44" height="18" rx="3" fill="#ff5252" opacity="0.8"/><rect x="227" y="65" width="44" height="18" rx="3" fill="#ff5252" opacity="0.8"/><rect x="276" y="65" width="44" height="18" rx="3" fill="#ff5252" opacity="0.8"/><rect x="325" y="65" width="44" height="18" rx="3" fill="#ff5252" opacity="0.8"/><rect x="374" y="65" width="44" height="18" rx="3" fill="#ff5252" opacity="0.8"/><rect x="423" y="65" width="44" height="18" rx="3" fill="#ff5252" opacity="0.8"/><rect x="472" y="65" width="44" height="18" rx="3" fill="#ff5252" opacity="0.8"/><rect x="521" y="65" width="44" height="18" rx="3" fill="#ff5252" opacity="0.8"/><rect x="80" y="87" width="44" height="18" rx="3" fill="#ffd740" opacity="0.8"/><rect x="129" y="87" width="44" height="18" rx="3" fill="#ffd740" opacity="0.8"/><rect x="178" y="87" width="44" height="18" rx="3" fill="#ffd740" opacity="0.8"/><rect x="227" y="87" width="44" height="18" rx="3" fill="#ffd740" opacity="0.8"/><rect x="276" y="87" width="44" height="18" rx="3" fill="#ffd740" opacity="0.8"/><rect x="325" y="87" width="44" height="18" rx="3" fill="#ffd740" opacity="0.8"/><rect x="374" y="87" width="44" height="18" rx="3" fill="#ffd740" opacity="0.8"/><rect x="423" y="87" width="44" height="18" rx="3" fill="#ffd740" opacity="0.8"/><rect x="472" y="87" width="44" height="18" rx="3" fill="#ffd740" opacity="0.8"/><rect x="521" y="87" width="44" height="18" rx="3" fill="#ffd740" opacity="0.8"/><rect x="80" y="109" width="44" height="18" rx="3" fill="#448aff" opacity="0.8"/><rect x="129" y="109" width="44" height="18" rx="3" fill="#448aff" opacity="0.8"/><rect x="178" y="109" width="44" height="18" rx="3" fill="#448aff" opacity="0.8"/><rect x="227" y="109" width="44" height="18" rx="3" fill="#448aff" opacity="0.8"/><rect x="276" y="109" width="44" height="18" rx="3" fill="#448aff" opacity="0.8"/><rect x="325" y="109" width="44" height="18" rx="3" fill="#448aff" opacity="0.8"/><rect x="374" y="109" width="44" height="18" rx="3" fill="#448aff" opacity="0.8"/><rect x="423" y="109" width="44" height="18" rx="3" fill="#448aff" opacity="0.8"/><rect x="472" y="109" width="44" height="18" rx="3" fill="#448aff" opacity="0.8"/><rect x="521" y="109" width="44" height="18" rx="3" fill="#448aff" opacity="0.8"/><rect x="270" y="350" width="100" height="12" rx="4" fill="#fff" opacity="0.8"/><circle cx="280" cy="340" r="6" fill="#fff" opacity="0.9" filter="url(#ds)"/>
<text x="320" y="340" fill="#fff" font-size="22" font-weight="800" text-anchor="middle" font-family="Arial,sans-serif" filter="url(#ds)">Riddle</text><text x="320" y="366" fill="#fff" font-size="22" font-weight="800" text-anchor="middle" font-family="Arial,sans-serif" filter="url(#ds)">Brick</text>
</svg>