<svg xmlns="http://www.w3.org/2000/svg" width="640" height="400" viewBox="0 0 640 400">
<defs><linearGradient id="bgrunecannon" x1="0" y1="0" x2="1" y2="1"><stop offset="0" stop-color="#0d1b2a"/><stop offset=".6" stop-color="#1b3a5c"/><stop offset="1" stop-color="#e0f7fa"/></linearGradient><filter id="ds"><feDropShadow dx="0" dy="2" stdDeviation="3" flood-opacity=".6"/></filter></defs>
<rect width="640" height="400" fill="url(#bgrunecannon)" rx="12"/>
<circle cx="580" cy="350" r="80" fill="#4fc3f7" opacity="0.08"/><circle cx="60" cy="360" r="50" fill="#4fc3f7" opacity="0.08"/><circle cx="320" cy="380" r="60" fill="#4fc3f7" opacity="0.08"/><circle cx="500" cy="50" r="40" fill="#4fc3f7" opacity="0.08"/><circle cx="140" cy="30" r="30" fill="#4fc3f7" opacity="0.08"/><circle cx="640" cy="0" r="90" fill="#4fc3f7" opacity="0.08"/>
<circle cx="419" cy="83" r="1.7" fill="#81d4fa" opacity="0.46"/><circle cx="483" cy="39" r="1.7" fill="#81d4fa" opacity="0.36"/><circle cx="360" cy="95" r="2.1" fill="#81d4fa" opacity="0.60"/><circle cx="273" cy="140" r="3.0" fill="#81d4fa" opacity="0.73"/><circle cx="106" cy="122" r="2.6" fill="#81d4fa" opacity="0.86"/><circle cx="523" cy="76" r="2.0" fill="#81d4fa" opacity="0.88"/><circle cx="28" cy="101" r="2.7" fill="#81d4fa" opacity="0.88"/><circle cx="425" cy="62" r="1.5" fill="#81d4fa" opacity="0.78"/><circle cx="439" cy="132" r="2.8" fill="#81d4fa" opacity="0.57"/><circle cx="482" cy="152" r="2.0" fill="#81d4fa" opacity="0.39"/><circle cx="318" cy="100" r="2.2" fill="#81d4fa" opacity="0.35"/><circle cx="400" cy="145" r="2.9" fill="#81d4fa" opacity="0.46"/><circle cx="87" cy="12" r="1.8" fill="#81d4fa" opacity="0.86"/><circle cx="481" cy="121" r="2.6" fill="#81d4fa" opacity="0.55"/><circle cx="135" cy="62" r="2.9" fill="#81d4fa" opacity="0.37"/><circle cx="392" cy="29" r="2.8" fill="#81d4fa" opacity="0.41"/><circle cx="157" cy="46" r="2.1" fill="#81d4fa" opacity="0.49"/>
<rect x="12" y="12" width="100" height="24" rx="12" fill="#37474f" opacity="0.9"/><text x="62" y="28" fill="#fff" font-size="11" font-weight="700" text-anchor="middle" font-family="Arial,sans-serif">CANNON</text>
<rect x="100" y="60" width="440" height="280" rx="8" fill="#0d1b2a" opacity="0.5"/><rect x="50" y="200" width="120" height="40" rx="6" fill="#4fc3f7" opacity="0.8"/><rect x="140" y="190" width="60" height="60" rx="8" fill="#4fc3f7" opacity="0.6"/><circle cx="200" cy="120" r="18" fill="#ff5252" opacity="0.9" filter="url(#ds)"/><circle cx="300" cy="90" r="16" fill="#448aff" opacity="0.9" filter="url(#ds)"/><circle cx="420" cy="130" r="20" fill="#69f0ae" opacity="0.9" filter="url(#ds)"/><circle cx="510" cy="200" r="15" fill="#ffd740" opacity="0.9" filter="url(#ds)"/>
<text x="320" y="340" fill="#fff" font-size="22" font-weight="800" text-anchor="middle" font-family="Arial,sans-serif" filter="url(#ds)">Rune</text><text x="320" y="366" fill="#fff" font-size="22" font-weight="800" text-anchor="middle" font-family="Arial,sans-serif" filter="url(#ds)">Cannon</text>
</svg>