<svg xmlns="http://www.w3.org/2000/svg" width="640" height="400" viewBox="0 0 640 400">
<defs><linearGradient id="bgspiralspire" x1="0" y1="0" x2="1" y2="1"><stop offset="0" stop-color="#0d1b2a"/><stop offset=".6" stop-color="#1b3a5c"/><stop offset="1" stop-color="#e0f7fa"/></linearGradient><filter id="ds"><feDropShadow dx="0" dy="2" stdDeviation="3" flood-opacity=".6"/></filter></defs>
<rect width="640" height="400" fill="url(#bgspiralspire)" rx="12"/>
<circle cx="580" cy="350" r="80" fill="#4fc3f7" opacity="0.08"/><circle cx="60" cy="360" r="50" fill="#4fc3f7" opacity="0.08"/><circle cx="320" cy="380" r="60" fill="#4fc3f7" opacity="0.08"/><circle cx="500" cy="50" r="40" fill="#4fc3f7" opacity="0.08"/><circle cx="140" cy="30" r="30" fill="#4fc3f7" opacity="0.08"/><circle cx="640" cy="0" r="90" fill="#4fc3f7" opacity="0.08"/>
<circle cx="109" cy="149" r="1.2" fill="#81d4fa" opacity="0.71"/><circle cx="21" cy="30" r="1.8" fill="#81d4fa" opacity="0.80"/><circle cx="511" cy="140" r="2.2" fill="#81d4fa" opacity="0.68"/><circle cx="598" cy="59" r="1.1" fill="#81d4fa" opacity="0.40"/><circle cx="209" cy="94" r="2.3" fill="#81d4fa" opacity="0.50"/><circle cx="241" cy="105" r="1.4" fill="#81d4fa" opacity="0.44"/><circle cx="605" cy="47" r="1.6" fill="#81d4fa" opacity="0.44"/><circle cx="293" cy="102" r="2.5" fill="#81d4fa" opacity="0.59"/><circle cx="441" cy="143" r="2.2" fill="#81d4fa" opacity="0.80"/><circle cx="115" cy="150" r="1.2" fill="#81d4fa" opacity="0.46"/><circle cx="136" cy="94" r="2.9" fill="#81d4fa" opacity="0.56"/><circle cx="140" cy="18" r="1.1" fill="#81d4fa" opacity="0.61"/><circle cx="149" cy="58" r="1.4" fill="#81d4fa" opacity="0.35"/>
<rect x="12" y="12" width="100" height="24" rx="12" fill="#37474f" opacity="0.9"/><text x="62" y="28" fill="#fff" font-size="11" font-weight="700" text-anchor="middle" font-family="Arial,sans-serif">HELIX</text>
<rect x="100" y="60" width="440" height="280" rx="8" fill="#0d1b2a" opacity="0.5"/><rect x="170" y="60" width="300" height="16" rx="4" fill="#4fc3f7" opacity="0.90" filter="url(#ds)"/><rect x="180" y="88" width="280" height="16" rx="4" fill="#ff5252" opacity="0.85" filter="url(#ds)"/><rect x="190" y="116" width="260" height="16" rx="4" fill="#4fc3f7" opacity="0.80" filter="url(#ds)"/><rect x="200" y="144" width="240" height="16" rx="4" fill="#ff5252" opacity="0.75" filter="url(#ds)"/><rect x="210" y="172" width="220" height="16" rx="4" fill="#4fc3f7" opacity="0.70" filter="url(#ds)"/><rect x="220" y="200" width="200" height="16" rx="4" fill="#ff5252" opacity="0.65" filter="url(#ds)"/><rect x="230" y="228" width="180" height="16" rx="4" fill="#4fc3f7" opacity="0.60" filter="url(#ds)"/><rect x="240" y="256" width="160" height="16" rx="4" fill="#ff5252" opacity="0.55" filter="url(#ds)"/><rect x="250" y="284" width="140" height="16" rx="4" fill="#4fc3f7" opacity="0.50" filter="url(#ds)"/><rect x="260" y="312" width="120" height="16" rx="4" fill="#ff5252" opacity="0.45" filter="url(#ds)"/><rect x="270" y="340" width="100" height="16" rx="4" fill="#4fc3f7" opacity="0.40" filter="url(#ds)"/><rect x="280" y="368" width="80" height="16" rx="4" fill="#ff5252" opacity="0.35" filter="url(#ds)"/><circle cx="320" cy="56" r="10" fill="#ffd740" opacity="0.9" filter="url(#ds)"/>
<text x="320" y="340" fill="#fff" font-size="22" font-weight="800" text-anchor="middle" font-family="Arial,sans-serif" filter="url(#ds)">Spiral</text><text x="320" y="366" fill="#fff" font-size="22" font-weight="800" text-anchor="middle" font-family="Arial,sans-serif" filter="url(#ds)">Spire</text>
</svg>