<svg xmlns="http://www.w3.org/2000/svg" width="640" height="400" viewBox="0 0 640 400">
<defs><linearGradient id="bgstarstackfour" x1="0" y1="0" x2="1" y2="1"><stop offset="0" stop-color="#1a0a2e"/><stop offset=".6" stop-color="#2d1b4e"/><stop offset="1" stop-color="#e8d5b7"/></linearGradient><filter id="ds"><feDropShadow dx="0" dy="2" stdDeviation="3" flood-opacity=".6"/></filter></defs>
<rect width="640" height="400" fill="url(#bgstarstackfour)" rx="12"/>
<circle cx="580" cy="350" r="80" fill="#b8a07a" opacity="0.08"/><circle cx="60" cy="360" r="50" fill="#b8a07a" opacity="0.08"/><circle cx="320" cy="380" r="60" fill="#b8a07a" opacity="0.08"/><circle cx="500" cy="50" r="40" fill="#b8a07a" opacity="0.08"/><circle cx="140" cy="30" r="30" fill="#b8a07a" opacity="0.08"/><circle cx="640" cy="0" r="90" fill="#b8a07a" opacity="0.08"/>
<circle cx="559" cy="82" r="1.1" fill="#ffd700" opacity="0.35"/><circle cx="465" cy="43" r="1.2" fill="#ffd700" opacity="0.69"/><circle cx="71" cy="11" r="2.4" fill="#ffd700" opacity="0.63"/><circle cx="132" cy="121" r="3.0" fill="#ffd700" opacity="0.51"/><circle cx="618" cy="49" r="2.2" fill="#ffd700" opacity="0.50"/><circle cx="361" cy="61" r="1.9" fill="#ffd700" opacity="0.69"/><circle cx="340" cy="24" r="2.8" fill="#ffd700" opacity="0.52"/><circle cx="98" cy="59" r="2.8" fill="#ffd700" opacity="0.60"/><circle cx="475" cy="131" r="1.2" fill="#ffd700" opacity="0.86"/><circle cx="99" cy="153" r="1.5" fill="#ffd700" opacity="0.56"/><circle cx="38" cy="21" r="2.9" fill="#ffd700" opacity="0.66"/><circle cx="394" cy="71" r="1.8" fill="#ffd700" opacity="0.68"/><circle cx="513" cy="133" r="1.2" fill="#ffd700" opacity="0.60"/><circle cx="347" cy="118" r="1.3" fill="#ffd700" opacity="0.43"/><circle cx="190" cy="145" r="2.7" fill="#ffd700" opacity="0.70"/>
<rect x="12" y="12" width="100" height="24" rx="12" fill="#4a148c" opacity="0.9"/><text x="62" y="28" fill="#fff" font-size="11" font-weight="700" text-anchor="middle" font-family="Arial,sans-serif">BOARD</text>
<rect x="120" y="70" width="400" height="260" rx="8" fill="#2d1b4e" stroke="#e8d5b7" stroke-width="2" opacity="0.6"/><rect x="140" y="90" width="360" height="220" rx="4" fill="#1a0a2e" stroke="#e8d5b7" stroke-width="1" opacity="0.8"/><rect x="140" y="90" width="45.0" height="27.5" fill="#e8d5b7" opacity="0.15"/><rect x="230" y="90" width="45.0" height="27.5" fill="#e8d5b7" opacity="0.15"/><rect x="320" y="90" width="45.0" height="27.5" fill="#e8d5b7" opacity="0.15"/><rect x="410" y="90" width="45.0" height="27.5" fill="#e8d5b7" opacity="0.15"/><rect x="185" y="118" width="45.0" height="27.5" fill="#e8d5b7" opacity="0.15"/><rect x="275" y="118" width="45.0" height="27.5" fill="#e8d5b7" opacity="0.15"/><rect x="365" y="118" width="45.0" height="27.5" fill="#e8d5b7" opacity="0.15"/><rect x="455" y="118" width="45.0" height="27.5" fill="#e8d5b7" opacity="0.15"/><rect x="140" y="145" width="45.0" height="27.5" fill="#e8d5b7" opacity="0.15"/><rect x="230" y="145" width="45.0" height="27.5" fill="#e8d5b7" opacity="0.15"/><rect x="320" y="145" width="45.0" height="27.5" fill="#e8d5b7" opacity="0.15"/><rect x="410" y="145" width="45.0" height="27.5" fill="#e8d5b7" opacity="0.15"/><rect x="185" y="173" width="45.0" height="27.5" fill="#e8d5b7" opacity="0.15"/><rect x="275" y="173" width="45.0" height="27.5" fill="#e8d5b7" opacity="0.15"/><rect x="365" y="173" width="45.0" height="27.5" fill="#e8d5b7" opacity="0.15"/><rect x="455" y="173" width="45.0" height="27.5" fill="#e8d5b7" opacity="0.15"/><rect x="140" y="200" width="45.0" height="27.5" fill="#e8d5b7" opacity="0.15"/><rect x="230" y="200" width="45.0" height="27.5" fill="#e8d5b7" opacity="0.15"/><rect x="320" y="200" width="45.0" height="27.5" fill="#e8d5b7" opacity="0.15"/><rect x="410" y="200" width="45.0" height="27.5" fill="#e8d5b7" opacity="0.15"/><rect x="185" y="228" width="45.0" height="27.5" fill="#e8d5b7" opacity="0.15"/><rect x="275" y="228" width="45.0" height="27.5" fill="#e8d5b7" opacity="0.15"/><rect x="365" y="228" width="45.0" height="27.5" fill="#e8d5b7" opacity="0.15"/><rect x="455" y="228" width="45.0" height="27.5" fill="#e8d5b7" opacity="0.15"/><rect x="140" y="255" width="45.0" height="27.5" fill="#e8d5b7" opacity="0.15"/><rect x="230" y="255" width="45.0" height="27.5" fill="#e8d5b7" opacity="0.15"/><rect x="320" y="255" width="45.0" height="27.5" fill="#e8d5b7" opacity="0.15"/><rect x="410" y="255" width="45.0" height="27.5" fill="#e8d5b7" opacity="0.15"/><rect x="185" y="283" width="45.0" height="27.5" fill="#e8d5b7" opacity="0.15"/><rect x="275" y="283" width="45.0" height="27.5" fill="#e8d5b7" opacity="0.15"/><rect x="365" y="283" width="45.0" height="27.5" fill="#e8d5b7" opacity="0.15"/><rect x="455" y="283" width="45.0" height="27.5" fill="#e8d5b7" opacity="0.15"/><circle cx="155" cy="105" r="14" fill="#1a0a2e" stroke="#e8d5b7" stroke-width="1.5" opacity="0.8"/><circle cx="207" cy="105" r="14" fill="#1a0a2e" stroke="#e8d5b7" stroke-width="1.5" opacity="0.8"/><circle cx="259" cy="105" r="14" fill="#1a0a2e" stroke="#e8d5b7" stroke-width="1.5" opacity="0.8"/><circle cx="311" cy="105" r="14" fill="#1a0a2e" stroke="#e8d5b7" stroke-width="1.5" opacity="0.8"/><circle cx="363" cy="105" r="14" fill="#1a0a2e" stroke="#e8d5b7" stroke-width="1.5" opacity="0.8"/><circle cx="415" cy="105" r="14" fill="#1a0a2e" stroke="#e8d5b7" stroke-width="1.5" opacity="0.8"/><circle cx="467" cy="105" r="14" fill="#1a0a2e" stroke="#e8d5b7" stroke-width="1.5" opacity="0.8"/><circle cx="155" cy="143" r="14" fill="#1a0a2e" stroke="#e8d5b7" stroke-width="1.5" opacity="0.8"/><circle cx="207" cy="143" r="14" fill="#1a0a2e" stroke="#e8d5b7" stroke-width="1.5" opacity="0.8"/><circle cx="259" cy="143" r="14" fill="#1a0a2e" stroke="#e8d5b7" stroke-width="1.5" opacity="0.8"/><circle cx="311" cy="143" r="14" fill="#1a0a2e" stroke="#e8d5b7" stroke-width="1.5" opacity="0.8"/><circle cx="363" cy="143" r="14" fill="#1a0a2e" stroke="#e8d5b7" stroke-width="1.5" opacity="0.8"/><circle cx="415" cy="143" r="14" fill="#1a0a2e" stroke="#e8d5b7" stroke-width="1.5" opacity="0.8"/><circle cx="467" cy="143" r="14" fill="#1a0a2e" stroke="#e8d5b7" stroke-width="1.5" opacity="0.8"/><circle cx="155" cy="181" r="14" fill="#1a0a2e" stroke="#e8d5b7" stroke-width="1.5" opacity="0.8"/><circle cx="207" cy="181" r="14" fill="#1a0a2e" stroke="#e8d5b7" stroke-width="1.5" opacity="0.8"/><circle cx="259" cy="181" r="14" fill="#1a0a2e" stroke="#e8d5b7" stroke-width="1.5" opacity="0.8"/><circle cx="311" cy="181" r="14" fill="#1a0a2e" stroke="#e8d5b7" stroke-width="1.5" opacity="0.8"/><circle cx="363" cy="181" r="14" fill="#1a0a2e" stroke="#e8d5b7" stroke-width="1.5" opacity="0.8"/><circle cx="415" cy="181" r="14" fill="#1a0a2e" stroke="#e8d5b7" stroke-width="1.5" opacity="0.8"/><circle cx="467" cy="181" r="14" fill="#1a0a2e" stroke="#e8d5b7" stroke-width="1.5" opacity="0.8"/><circle cx="155" cy="219" r="14" fill="#1a0a2e" stroke="#e8d5b7" stroke-width="1.5" opacity="0.8"/><circle cx="207" cy="219" r="14" fill="#1a0a2e" stroke="#e8d5b7" stroke-width="1.5" opacity="0.8"/><circle cx="259" cy="219" r="14" fill="#1a0a2e" stroke="#e8d5b7" stroke-width="1.5" opacity="0.8"/><circle cx="311" cy="219" r="14" fill="#1a0a2e" stroke="#e8d5b7" stroke-width="1.5" opacity="0.8"/><circle cx="363" cy="219" r="14" fill="#1a0a2e" stroke="#e8d5b7" stroke-width="1.5" opacity="0.8"/><circle cx="415" cy="219" r="14" fill="#1a0a2e" stroke="#e8d5b7" stroke-width="1.5" opacity="0.8"/><circle cx="467" cy="219" r="14" fill="#1a0a2e" stroke="#e8d5b7" stroke-width="1.5" opacity="0.8"/><circle cx="155" cy="257" r="14" fill="#1a0a2e" stroke="#e8d5b7" stroke-width="1.5" opacity="0.8"/><circle cx="207" cy="257" r="14" fill="#1a0a2e" stroke="#e8d5b7" stroke-width="1.5" opacity="0.8"/><circle cx="259" cy="257" r="14" fill="#1a0a2e" stroke="#e8d5b7" stroke-width="1.5" opacity="0.8"/><circle cx="311" cy="257" r="14" fill="#1a0a2e" stroke="#e8d5b7" stroke-width="1.5" opacity="0.8"/><circle cx="363" cy="257" r="14" fill="#1a0a2e" stroke="#e8d5b7" stroke-width="1.5" opacity="0.8"/><circle cx="415" cy="257" r="14" fill="#1a0a2e" stroke="#e8d5b7" stroke-width="1.5" opacity="0.8"/><circle cx="467" cy="257" r="14" fill="#1a0a2e" stroke="#e8d5b7" stroke-width="1.5" opacity="0.8"/><circle cx="155" cy="295" r="14" fill="#1a0a2e" stroke="#e8d5b7" stroke-width="1.5" opacity="0.8"/><circle cx="207" cy="295" r="14" fill="#1a0a2e" stroke="#e8d5b7" stroke-width="1.5" opacity="0.8"/><circle cx="259" cy="295" r="14" fill="#1a0a2e" stroke="#e8d5b7" stroke-width="1.5" opacity="0.8"/><circle cx="311" cy="295" r="14" fill="#1a0a2e" stroke="#e8d5b7" stroke-width="1.5" opacity="0.8"/><circle cx="363" cy="295" r="14" fill="#1a0a2e" stroke="#e8d5b7" stroke-width="1.5" opacity="0.8"/><circle cx="415" cy="295" r="14" fill="#1a0a2e" stroke="#e8d5b7" stroke-width="1.5" opacity="0.8"/><circle cx="467" cy="295" r="14" fill="#1a0a2e" stroke="#e8d5b7" stroke-width="1.5" opacity="0.8"/><circle cx="259" cy="143" r="13" fill="#ffd700" opacity="0.9" filter="url(#ds)"/><circle cx="311" cy="105" r="13" fill="#ff4081" opacity="0.9" filter="url(#ds)"/><circle cx="259" cy="181" r="13" fill="#ffd700" opacity="0.9" filter="url(#ds)"/><circle cx="207" cy="143" r="13" fill="#ff4081" opacity="0.9" filter="url(#ds)"/>
<text x="320" y="340" fill="#fff" font-size="22" font-weight="800" text-anchor="middle" font-family="Arial,sans-serif" filter="url(#ds)">Starstack</text><text x="320" y="366" fill="#fff" font-size="22" font-weight="800" text-anchor="middle" font-family="Arial,sans-serif" filter="url(#ds)">Four</text>
</svg>