<svg xmlns="http://www.w3.org/2000/svg" width="640" height="400" viewBox="0 0 640 400">
<defs><linearGradient id="bgsugarpopwhack" x1="0" y1="0" x2="1" y2="1"><stop offset="0" stop-color="#1a0033"/><stop offset=".6" stop-color="#4a0072"/><stop offset="1" stop-color="#ff80ab"/></linearGradient><filter id="ds"><feDropShadow dx="0" dy="2" stdDeviation="3" flood-opacity=".6"/></filter></defs>
<rect width="640" height="400" fill="url(#bgsugarpopwhack)" rx="12"/>
<circle cx="580" cy="350" r="80" fill="#ff4081" opacity="0.08"/><circle cx="60" cy="360" r="50" fill="#ff4081" opacity="0.08"/><circle cx="320" cy="380" r="60" fill="#ff4081" opacity="0.08"/><circle cx="500" cy="50" r="40" fill="#ff4081" opacity="0.08"/><circle cx="140" cy="30" r="30" fill="#ff4081" opacity="0.08"/><circle cx="640" cy="0" r="90" fill="#ff4081" opacity="0.08"/>
<circle cx="62" cy="118" r="2.0" fill="#f8bbd0" opacity="0.47"/><circle cx="513" cy="24" r="1.2" fill="#f8bbd0" opacity="0.62"/><circle cx="114" cy="101" r="1.0" fill="#f8bbd0" opacity="0.87"/><circle cx="366" cy="31" r="2.0" fill="#f8bbd0" opacity="0.50"/><circle cx="427" cy="112" r="1.9" fill="#f8bbd0" opacity="0.78"/><circle cx="290" cy="11" r="1.9" fill="#f8bbd0" opacity="0.44"/><circle cx="334" cy="18" r="1.9" fill="#f8bbd0" opacity="0.69"/><circle cx="385" cy="71" r="2.5" fill="#f8bbd0" opacity="0.82"/><circle cx="260" cy="87" r="1.5" fill="#f8bbd0" opacity="0.89"/><circle cx="596" cy="107" r="3.0" fill="#f8bbd0" opacity="0.74"/><circle cx="56" cy="44" r="1.4" fill="#f8bbd0" opacity="0.70"/><circle cx="587" cy="63" r="2.8" fill="#f8bbd0" opacity="0.43"/><circle cx="167" cy="90" r="1.1" fill="#f8bbd0" opacity="0.35"/>
<rect x="12" y="12" width="100" height="24" rx="12" fill="#37474f" opacity="0.9"/><text x="62" y="28" fill="#fff" font-size="11" font-weight="700" text-anchor="middle" font-family="Arial,sans-serif">WHACK</text>
<ellipse cx="150" cy="280" rx="60" ry="30" fill="#1a1a2e" opacity="0.7"/><ellipse cx="320" cy="260" rx="60" ry="30" fill="#1a1a2e" opacity="0.7"/><ellipse cx="490" cy="280" rx="60" ry="30" fill="#1a1a2e" opacity="0.7"/><ellipse cx="235" cy="320" rx="55" ry="27.5" fill="#1a1a2e" opacity="0.7"/><ellipse cx="405" cy="320" rx="55" ry="27.5" fill="#1a1a2e" opacity="0.7"/><circle cx="320" cy="230" r="25" fill="#fff" opacity="0.9" filter="url(#ds)"/><circle cx="312" cy="225" r="6" fill="#1a1a2e"/><circle cx="328" cy="225" r="6" fill="#1a1a2e"/><line x1="290" y1="210" x2="250" y2="190" stroke="#e94560" stroke-width="4" stroke-linecap="round" opacity="0.8"/>
<text x="320" y="340" fill="#fff" font-size="22" font-weight="800" text-anchor="middle" font-family="Arial,sans-serif" filter="url(#ds)">Sugar Pop</text><text x="320" y="366" fill="#fff" font-size="22" font-weight="800" text-anchor="middle" font-family="Arial,sans-serif" filter="url(#ds)">Whack</text>
</svg>