<svg xmlns="http://www.w3.org/2000/svg" width="640" height="400" viewBox="0 0 640 400">
<defs><linearGradient id="bgsurfsidesprint" x1="0" y1="0" x2="1" y2="1"><stop offset="0" stop-color="#003300"/><stop offset=".6" stop-color="#006600"/><stop offset="1" stop-color="#ffe082"/></linearGradient><filter id="ds"><feDropShadow dx="0" dy="2" stdDeviation="3" flood-opacity=".6"/></filter></defs>
<rect width="640" height="400" fill="url(#bgsurfsidesprint)" rx="12"/>
<circle cx="580" cy="350" r="80" fill="#ffab00" opacity="0.08"/><circle cx="60" cy="360" r="50" fill="#ffab00" opacity="0.08"/><circle cx="320" cy="380" r="60" fill="#ffab00" opacity="0.08"/><circle cx="500" cy="50" r="40" fill="#ffab00" opacity="0.08"/><circle cx="140" cy="30" r="30" fill="#ffab00" opacity="0.08"/><circle cx="640" cy="0" r="90" fill="#ffab00" opacity="0.08"/>
<circle cx="161" cy="112" r="2.7" fill="#ffe082" opacity="0.69"/><circle cx="185" cy="137" r="1.6" fill="#ffe082" opacity="0.75"/><circle cx="357" cy="144" r="2.4" fill="#ffe082" opacity="0.73"/><circle cx="239" cy="18" r="1.3" fill="#ffe082" opacity="0.59"/><circle cx="248" cy="114" r="1.7" fill="#ffe082" opacity="0.36"/><circle cx="346" cy="111" r="1.7" fill="#ffe082" opacity="0.67"/><circle cx="62" cy="85" r="1.3" fill="#ffe082" opacity="0.55"/><circle cx="203" cy="14" r="2.6" fill="#ffe082" opacity="0.74"/><circle cx="454" cy="43" r="1.9" fill="#ffe082" opacity="0.54"/><circle cx="259" cy="11" r="2.8" fill="#ffe082" opacity="0.30"/><circle cx="150" cy="85" r="2.3" fill="#ffe082" opacity="0.39"/><circle cx="182" cy="111" r="2.9" fill="#ffe082" opacity="0.65"/><circle cx="75" cy="18" r="2.3" fill="#ffe082" opacity="0.44"/><circle cx="357" cy="91" r="2.8" fill="#ffe082" opacity="0.68"/><circle cx="575" cy="56" r="1.2" fill="#ffe082" opacity="0.31"/><circle cx="459" cy="139" r="2.0" fill="#ffe082" opacity="0.43"/><circle cx="335" cy="84" r="2.4" fill="#ffe082" opacity="0.90"/><circle cx="37" cy="135" r="1.1" fill="#ffe082" opacity="0.56"/>
<rect x="12" y="12" width="100" height="24" rx="12" fill="#e65100" opacity="0.9"/><text x="62" y="28" fill="#fff" font-size="11" font-weight="700" text-anchor="middle" font-family="Arial,sans-serif">RUNNER</text>
<rect x="0" y="320" width="640" height="60" fill="#1a1a2e" opacity="0.6"/><line x1="0" y1="320" x2="640" y2="320" stroke="#e94560" stroke-width="2" opacity="0.5"/><rect x="180" y="280" width="20" height="40" rx="3" fill="#e94560" opacity="0.8" filter="url(#ds)"/><rect x="320" y="265" width="18" height="55" rx="3" fill="#f5c518" opacity="0.8" filter="url(#ds)"/><rect x="480" y="290" width="22" height="30" rx="3" fill="#e94560" opacity="0.8" filter="url(#ds)"/><rect x="550" y="275" width="16" height="45" rx="3" fill="#f5c518" opacity="0.8" filter="url(#ds)"/><circle cx="120" cy="295" r="20" fill="#fff" opacity="0.9" filter="url(#ds)"/><circle cx="115" cy="290" r="5" fill="#1a1a2e"/><circle cx="125" cy="290" r="5" fill="#1a1a2e"/><ellipse cx="120" cy="298" rx="4" ry="2" fill="#1a1a2e"/><text x="620" y="40" fill="#fff" font-size="14" text-anchor="end" font-family="Arial" opacity="0.8">HIGH 1337</text>
<text x="320" y="340" fill="#fff" font-size="22" font-weight="800" text-anchor="middle" font-family="Arial,sans-serif" filter="url(#ds)">Surfside</text><text x="320" y="366" fill="#fff" font-size="22" font-weight="800" text-anchor="middle" font-family="Arial,sans-serif" filter="url(#ds)">Sprint</text>
</svg>