<svg xmlns="http://www.w3.org/2000/svg" viewBox="0 0 640 400"><defs><linearGradient id="bg" x1="0" x2="1" y1="0" y2="1"><stop stop-color="#ff4f9a"/><stop offset=".55" stop-color="#ffd166"/><stop offset="1" stop-color="#8a5cff"/></linearGradient><filter id="s"><feDropShadow dx="0" dy="12" stdDeviation="12" flood-color="#24123b" flood-opacity=".35"/></filter></defs><rect width="640" height="400" rx="42" fill="url(#bg)"/><circle cx="88" cy="80" r="72" fill="#fff" opacity=".18"/><circle cx="560" cy="70" r="56" fill="#fff" opacity=".18"/><path d="M500 165l12 24 27 4-20 19 5 27-24-13-24 13 5-27-20-19 27-4z" fill="#fff" opacity=".28"/><g filter="url(#s)"><circle cx="320" cy="175" r="88" fill="#fff2df" stroke="#fff" stroke-width="10"/><path d="M284 95c28-34 71-29 90-8-48 5-66 20-79 58z" fill="#49c873" stroke="#178a42" stroke-width="6"/><circle cx="292" cy="164" r="10" fill="#292347"/><circle cx="345" cy="164" r="10" fill="#292347"/><path d="M305 198c18 17 40 17 58 0" stroke="#292347" stroke-width="8" fill="none" stroke-linecap="round"/></g><text x="320" y="315" text-anchor="middle" font-family="Arial Rounded MT Bold,Arial" font-weight="900" font-size="44" fill="#fff" stroke="#4d277e" stroke-width="6" paint-order="stroke">The Sleepy</text><text x="320" y="360" text-anchor="middle" font-family="Arial Rounded MT Bold,Arial" font-weight="900" font-size="32" fill="#fff" stroke="#4d277e" stroke-width="5" paint-order="stroke">Sloth Ski Resort</text><rect x="24" y="24" width="142" height="42" rx="21" fill="#fff" opacity=".9"/><text x="95" y="53" font-family="Arial" font-weight="800" font-size="19" fill="#4d277e" text-anchor="middle">Management</text></svg>