<svg xmlns="http://www.w3.org/2000/svg" width="640" height="400" viewBox="0 0 640 400">
<defs><linearGradient id="bgtikitorchtray" x1="0" y1="0" x2="1" y2="1"><stop offset="0" stop-color="#003300"/><stop offset=".6" stop-color="#006600"/><stop offset="1" stop-color="#ffe082"/></linearGradient><filter id="ds"><feDropShadow dx="0" dy="2" stdDeviation="3" flood-opacity=".6"/></filter></defs>
<rect width="640" height="400" fill="url(#bgtikitorchtray)" rx="12"/>
<circle cx="580" cy="350" r="80" fill="#ffab00" opacity="0.08"/><circle cx="60" cy="360" r="50" fill="#ffab00" opacity="0.08"/><circle cx="320" cy="380" r="60" fill="#ffab00" opacity="0.08"/><circle cx="500" cy="50" r="40" fill="#ffab00" opacity="0.08"/><circle cx="140" cy="30" r="30" fill="#ffab00" opacity="0.08"/><circle cx="640" cy="0" r="90" fill="#ffab00" opacity="0.08"/>
<circle cx="470" cy="10" r="2.5" fill="#ffe082" opacity="0.75"/><circle cx="96" cy="24" r="1.2" fill="#ffe082" opacity="0.36"/><circle cx="319" cy="57" r="1.0" fill="#ffe082" opacity="0.75"/><circle cx="86" cy="87" r="1.1" fill="#ffe082" opacity="0.45"/><circle cx="481" cy="44" r="1.1" fill="#ffe082" opacity="0.49"/><circle cx="384" cy="60" r="1.3" fill="#ffe082" opacity="0.41"/><circle cx="363" cy="156" r="1.7" fill="#ffe082" opacity="0.34"/><circle cx="435" cy="143" r="1.6" fill="#ffe082" opacity="0.84"/><circle cx="335" cy="140" r="1.3" fill="#ffe082" opacity="0.45"/><circle cx="470" cy="89" r="2.4" fill="#ffe082" opacity="0.64"/><circle cx="49" cy="109" r="2.0" fill="#ffe082" opacity="0.78"/><circle cx="494" cy="98" r="1.5" fill="#ffe082" opacity="0.76"/><circle cx="468" cy="27" r="2.2" fill="#ffe082" opacity="0.69"/><circle cx="541" cy="18" r="2.2" fill="#ffe082" opacity="0.41"/><circle cx="215" cy="103" r="1.2" fill="#ffe082" opacity="0.68"/>
<rect x="12" y="12" width="100" height="24" rx="12" fill="#37474f" opacity="0.9"/><text x="62" y="28" fill="#fff" font-size="11" font-weight="700" text-anchor="middle" font-family="Arial,sans-serif">SERVE</text>
<rect x="0" y="320" width="640" height="80" fill="#006600" opacity="0.3"/><line x1="0" y1="320" x2="640" y2="320" stroke="#fff" stroke-width="1" opacity="0.3"/><line x1="320" y1="320" x2="320" y2="400" stroke="#fff" stroke-width="1" stroke-dasharray="5,5" opacity="0.3"/><rect x="0" y="180" width="640" height="4" fill="#fff" opacity="0.4"/><polygon points="300,180 340,180 340,200 300,200" fill="none" stroke="#fff" stroke-width="1" opacity="0.3"/><rect x="270" y="176" width="100" height="4" fill="#fff" opacity="0.3"/><rect x="160" y="220" width="12" height="50" rx="4" fill="#ffab00" opacity="0.8"/><ellipse cx="166" cy="218" rx="14" ry="18" fill="#ffab00" opacity="0.8" filter="url(#ds)"/><rect x="460" y="230" width="12" height="50" rx="4" fill="#448aff" opacity="0.8"/><ellipse cx="466" cy="228" rx="14" ry="18" fill="#448aff" opacity="0.8" filter="url(#ds)"/><circle cx="320" cy="200" r="7" fill="#fff" opacity="0.9" filter="url(#ds)"/>
<text x="320" y="340" fill="#fff" font-size="22" font-weight="800" text-anchor="middle" font-family="Arial,sans-serif" filter="url(#ds)">Tiki Torch</text><text x="320" y="366" fill="#fff" font-size="22" font-weight="800" text-anchor="middle" font-family="Arial,sans-serif" filter="url(#ds)">Tray</text>
</svg>