<svg xmlns="http://www.w3.org/2000/svg" width="640" height="400" viewBox="0 0 640 400">
<defs><linearGradient id="bgtropicaltrek" x1="0" y1="0" x2="1" y2="1"><stop offset="0" stop-color="#003300"/><stop offset=".6" stop-color="#006600"/><stop offset="1" stop-color="#ffe082"/></linearGradient><filter id="ds"><feDropShadow dx="0" dy="2" stdDeviation="3" flood-opacity=".6"/></filter></defs>
<rect width="640" height="400" fill="url(#bgtropicaltrek)" rx="12"/>
<circle cx="580" cy="350" r="80" fill="#ffab00" opacity="0.08"/><circle cx="60" cy="360" r="50" fill="#ffab00" opacity="0.08"/><circle cx="320" cy="380" r="60" fill="#ffab00" opacity="0.08"/><circle cx="500" cy="50" r="40" fill="#ffab00" opacity="0.08"/><circle cx="140" cy="30" r="30" fill="#ffab00" opacity="0.08"/><circle cx="640" cy="0" r="90" fill="#ffab00" opacity="0.08"/>
<circle cx="172" cy="28" r="2.8" fill="#ffe082" opacity="0.47"/><circle cx="478" cy="12" r="1.4" fill="#ffe082" opacity="0.48"/><circle cx="288" cy="95" r="2.6" fill="#ffe082" opacity="0.48"/><circle cx="545" cy="42" r="2.2" fill="#ffe082" opacity="0.38"/><circle cx="473" cy="26" r="1.7" fill="#ffe082" opacity="0.44"/><circle cx="152" cy="125" r="2.3" fill="#ffe082" opacity="0.37"/><circle cx="55" cy="109" r="1.3" fill="#ffe082" opacity="0.52"/><circle cx="217" cy="110" r="2.9" fill="#ffe082" opacity="0.70"/><circle cx="62" cy="132" r="2.6" fill="#ffe082" opacity="0.80"/><circle cx="43" cy="107" r="1.9" fill="#ffe082" opacity="0.87"/><circle cx="594" cy="118" r="1.6" fill="#ffe082" opacity="0.50"/><circle cx="163" cy="22" r="2.5" fill="#ffe082" opacity="0.64"/><circle cx="141" cy="21" r="2.8" fill="#ffe082" opacity="0.80"/><circle cx="50" cy="56" r="2.6" fill="#ffe082" opacity="0.59"/><circle cx="140" cy="94" r="2.1" fill="#ffe082" opacity="0.57"/><circle cx="491" cy="54" r="1.9" fill="#ffe082" opacity="0.76"/><circle cx="329" cy="100" r="1.4" fill="#ffe082" opacity="0.33"/><circle cx="246" cy="45" r="2.3" fill="#ffe082" opacity="0.86"/><circle cx="589" cy="145" r="1.9" fill="#ffe082" opacity="0.66"/>
<rect x="12" y="12" width="100" height="24" rx="12" fill="#e65100" opacity="0.9"/><text x="62" y="28" fill="#fff" font-size="11" font-weight="700" text-anchor="middle" font-family="Arial,sans-serif">PLATFORMER</text>
<rect x="30" y="310" width="120" height="16" rx="4" fill="#e65100" opacity="0.8" filter="url(#ds)"/><rect x="200" y="260" width="100" height="16" rx="4" fill="#f5c518" opacity="0.8" filter="url(#ds)"/><rect x="350" y="200" width="110" height="16" rx="4" fill="#e65100" opacity="0.8" filter="url(#ds)"/><rect x="500" y="270" width="90" height="16" rx="4" fill="#f5c518" opacity="0.8" filter="url(#ds)"/><rect x="150" y="140" width="80" height="16" rx="4" fill="#e65100" opacity="0.8" filter="url(#ds)"/><rect x="400" y="100" width="100" height="16" rx="4" fill="#f5c518" opacity="0.8" filter="url(#ds)"/><circle cx="260" cy="240" r="18" fill="#fff" opacity="0.9" filter="url(#ds)"/><circle cx="255" cy="235" r="5" fill="#1a1a2e"/><circle cx="265" cy="235" r="5" fill="#1a1a2e"/><circle cx="420" cy="180" r="7" fill="#ffd740" opacity="0.9" filter="url(#ds)"/><circle cx="460" cy="170" r="7" fill="#ffd740" opacity="0.9" filter="url(#ds)"/><circle cx="500" cy="180" r="7" fill="#ffd740" opacity="0.9" filter="url(#ds)"/><circle cx="180" cy="120" r="7" fill="#ffd740" opacity="0.9" filter="url(#ds)"/><circle cx="220" cy="110" r="7" fill="#ffd740" opacity="0.9" filter="url(#ds)"/>
<text x="320" y="340" fill="#fff" font-size="22" font-weight="800" text-anchor="middle" font-family="Arial,sans-serif" filter="url(#ds)">Tropical</text><text x="320" y="366" fill="#fff" font-size="22" font-weight="800" text-anchor="middle" font-family="Arial,sans-serif" filter="url(#ds)">Trek</text>
</svg>