<svg xmlns="http://www.w3.org/2000/svg" width="640" height="400" viewBox="0 0 640 400">
<defs><linearGradient id="bgvolcanoescape" x1="0" y1="0" x2="1" y2="1"><stop offset="0" stop-color="#003300"/><stop offset=".6" stop-color="#006600"/><stop offset="1" stop-color="#ffe082"/></linearGradient><filter id="ds"><feDropShadow dx="0" dy="2" stdDeviation="3" flood-opacity=".6"/></filter></defs>
<rect width="640" height="400" fill="url(#bgvolcanoescape)" rx="12"/>
<circle cx="580" cy="350" r="80" fill="#ffab00" opacity="0.08"/><circle cx="60" cy="360" r="50" fill="#ffab00" opacity="0.08"/><circle cx="320" cy="380" r="60" fill="#ffab00" opacity="0.08"/><circle cx="500" cy="50" r="40" fill="#ffab00" opacity="0.08"/><circle cx="140" cy="30" r="30" fill="#ffab00" opacity="0.08"/><circle cx="640" cy="0" r="90" fill="#ffab00" opacity="0.08"/>
<circle cx="162" cy="116" r="1.5" fill="#ffe082" opacity="0.31"/><circle cx="601" cy="34" r="1.9" fill="#ffe082" opacity="0.87"/><circle cx="123" cy="83" r="2.9" fill="#ffe082" opacity="0.62"/><circle cx="513" cy="121" r="2.1" fill="#ffe082" opacity="0.42"/><circle cx="579" cy="13" r="2.8" fill="#ffe082" opacity="0.48"/><circle cx="141" cy="78" r="2.6" fill="#ffe082" opacity="0.42"/><circle cx="84" cy="44" r="1.1" fill="#ffe082" opacity="0.89"/><circle cx="60" cy="19" r="2.0" fill="#ffe082" opacity="0.86"/><circle cx="227" cy="30" r="2.0" fill="#ffe082" opacity="0.41"/><circle cx="92" cy="12" r="2.9" fill="#ffe082" opacity="0.59"/><circle cx="390" cy="46" r="1.8" fill="#ffe082" opacity="0.47"/><circle cx="372" cy="156" r="2.8" fill="#ffe082" opacity="0.58"/><circle cx="535" cy="88" r="2.2" fill="#ffe082" opacity="0.84"/><circle cx="134" cy="52" r="1.1" fill="#ffe082" opacity="0.59"/><circle cx="389" cy="91" r="1.5" fill="#ffe082" opacity="0.78"/><circle cx="129" cy="49" r="1.9" fill="#ffe082" opacity="0.69"/>
<rect x="12" y="12" width="100" height="24" rx="12" fill="#37474f" opacity="0.9"/><text x="62" y="28" fill="#fff" font-size="11" font-weight="700" text-anchor="middle" font-family="Arial,sans-serif">MAZE</text>
<rect x="100" y="60" width="440" height="280" rx="8" fill="#0d1b2a" opacity="0.5"/><rect x="120" y="50" width="40" height="40" fill="#1b3a5c" opacity="0.7"/><rect x="160" y="50" width="40" height="40" fill="#1b3a5c" opacity="0.7"/><rect x="200" y="50" width="40" height="40" fill="#1b3a5c" opacity="0.7"/><rect x="240" y="50" width="40" height="40" fill="#1b3a5c" opacity="0.7"/><rect x="280" y="50" width="40" height="40" fill="#1b3a5c" opacity="0.7"/><rect x="320" y="50" width="40" height="40" fill="#1b3a5c" opacity="0.7"/><rect x="360" y="50" width="40" height="40" fill="#1b3a5c" opacity="0.7"/><rect x="400" y="50" width="40" height="40" fill="#1b3a5c" opacity="0.7"/><rect x="440" y="50" width="40" height="40" fill="#1b3a5c" opacity="0.7"/><rect x="480" y="50" width="40" height="40" fill="#1b3a5c" opacity="0.7"/><rect x="120" y="90" width="40" height="40" fill="#1b3a5c" opacity="0.7"/><rect x="480" y="90" width="40" height="40" fill="#1b3a5c" opacity="0.7"/><rect x="120" y="130" width="40" height="40" fill="#1b3a5c" opacity="0.7"/><rect x="200" y="130" width="40" height="40" fill="#1b3a5c" opacity="0.7"/><rect x="240" y="130" width="40" height="40" fill="#1b3a5c" opacity="0.7"/><rect x="280" y="130" width="40" height="40" fill="#1b3a5c" opacity="0.7"/><rect x="320" y="130" width="40" height="40" fill="#1b3a5c" opacity="0.7"/><rect x="400" y="130" width="40" height="40" fill="#1b3a5c" opacity="0.7"/><rect x="480" y="130" width="40" height="40" fill="#1b3a5c" opacity="0.7"/><rect x="120" y="170" width="40" height="40" fill="#1b3a5c" opacity="0.7"/><rect x="200" y="170" width="40" height="40" fill="#1b3a5c" opacity="0.7"/><rect x="400" y="170" width="40" height="40" fill="#1b3a5c" opacity="0.7"/><rect x="480" y="170" width="40" height="40" fill="#1b3a5c" opacity="0.7"/><rect x="120" y="210" width="40" height="40" fill="#1b3a5c" opacity="0.7"/><rect x="200" y="210" width="40" height="40" fill="#1b3a5c" opacity="0.7"/><rect x="280" y="210" width="40" height="40" fill="#1b3a5c" opacity="0.7"/><rect x="320" y="210" width="40" height="40" fill="#1b3a5c" opacity="0.7"/><rect x="360" y="210" width="40" height="40" fill="#1b3a5c" opacity="0.7"/><rect x="400" y="210" width="40" height="40" fill="#1b3a5c" opacity="0.7"/><rect x="480" y="210" width="40" height="40" fill="#1b3a5c" opacity="0.7"/><rect x="120" y="250" width="40" height="40" fill="#1b3a5c" opacity="0.7"/><rect x="280" y="250" width="40" height="40" fill="#1b3a5c" opacity="0.7"/><rect x="480" y="250" width="40" height="40" fill="#1b3a5c" opacity="0.7"/><rect x="120" y="290" width="40" height="40" fill="#1b3a5c" opacity="0.7"/><rect x="160" y="290" width="40" height="40" fill="#1b3a5c" opacity="0.7"/><rect x="200" y="290" width="40" height="40" fill="#1b3a5c" opacity="0.7"/><rect x="280" y="290" width="40" height="40" fill="#1b3a5c" opacity="0.7"/><rect x="360" y="290" width="40" height="40" fill="#1b3a5c" opacity="0.7"/><rect x="400" y="290" width="40" height="40" fill="#1b3a5c" opacity="0.7"/><rect x="480" y="290" width="40" height="40" fill="#1b3a5c" opacity="0.7"/><rect x="120" y="330" width="40" height="40" fill="#1b3a5c" opacity="0.7"/><rect x="280" y="330" width="40" height="40" fill="#1b3a5c" opacity="0.7"/><rect x="400" y="330" width="40" height="40" fill="#1b3a5c" opacity="0.7"/><rect x="480" y="330" width="40" height="40" fill="#1b3a5c" opacity="0.7"/><rect x="120" y="370" width="40" height="40" fill="#1b3a5c" opacity="0.7"/><rect x="200" y="370" width="40" height="40" fill="#1b3a5c" opacity="0.7"/><rect x="240" y="370" width="40" height="40" fill="#1b3a5c" opacity="0.7"/><rect x="280" y="370" width="40" height="40" fill="#1b3a5c" opacity="0.7"/><rect x="320" y="370" width="40" height="40" fill="#1b3a5c" opacity="0.7"/><rect x="480" y="370" width="40" height="40" fill="#1b3a5c" opacity="0.7"/><rect x="120" y="410" width="40" height="40" fill="#1b3a5c" opacity="0.7"/><rect x="160" y="410" width="40" height="40" fill="#1b3a5c" opacity="0.7"/><rect x="200" y="410" width="40" height="40" fill="#1b3a5c" opacity="0.7"/><rect x="240" y="410" width="40" height="40" fill="#1b3a5c" opacity="0.7"/><rect x="280" y="410" width="40" height="40" fill="#1b3a5c" opacity="0.7"/><rect x="320" y="410" width="40" height="40" fill="#1b3a5c" opacity="0.7"/><rect x="360" y="410" width="40" height="40" fill="#1b3a5c" opacity="0.7"/><rect x="400" y="410" width="40" height="40" fill="#1b3a5c" opacity="0.7"/><rect x="440" y="410" width="40" height="40" fill="#1b3a5c" opacity="0.7"/><rect x="480" y="410" width="40" height="40" fill="#1b3a5c" opacity="0.7"/><circle cx="140" cy="70" r="8" fill="#4fc3f7" filter="url(#ds)"/><circle cx="460" cy="390" r="8" fill="#ffd740" filter="url(#ds)"/>
<text x="320" y="340" fill="#fff" font-size="22" font-weight="800" text-anchor="middle" font-family="Arial,sans-serif" filter="url(#ds)">Volcano</text><text x="320" y="366" fill="#fff" font-size="22" font-weight="800" text-anchor="middle" font-family="Arial,sans-serif" filter="url(#ds)">Escape</text>
</svg>