<svg xmlns="http://www.w3.org/2000/svg" width="640" height="400" viewBox="0 0 640 400">
<defs><linearGradient id="bgwavepaddle" x1="0" y1="0" x2="1" y2="1"><stop offset="0" stop-color="#003300"/><stop offset=".6" stop-color="#006600"/><stop offset="1" stop-color="#ffe082"/></linearGradient><filter id="ds"><feDropShadow dx="0" dy="2" stdDeviation="3" flood-opacity=".6"/></filter></defs>
<rect width="640" height="400" fill="url(#bgwavepaddle)" rx="12"/>
<circle cx="580" cy="350" r="80" fill="#ffab00" opacity="0.08"/><circle cx="60" cy="360" r="50" fill="#ffab00" opacity="0.08"/><circle cx="320" cy="380" r="60" fill="#ffab00" opacity="0.08"/><circle cx="500" cy="50" r="40" fill="#ffab00" opacity="0.08"/><circle cx="140" cy="30" r="30" fill="#ffab00" opacity="0.08"/><circle cx="640" cy="0" r="90" fill="#ffab00" opacity="0.08"/>
<circle cx="317" cy="156" r="2.2" fill="#ffe082" opacity="0.34"/><circle cx="422" cy="79" r="3.0" fill="#ffe082" opacity="0.33"/><circle cx="90" cy="133" r="1.5" fill="#ffe082" opacity="0.73"/><circle cx="287" cy="157" r="1.6" fill="#ffe082" opacity="0.88"/><circle cx="254" cy="17" r="2.1" fill="#ffe082" opacity="0.64"/><circle cx="305" cy="21" r="1.1" fill="#ffe082" opacity="0.68"/><circle cx="166" cy="53" r="1.7" fill="#ffe082" opacity="0.33"/><circle cx="281" cy="64" r="2.7" fill="#ffe082" opacity="0.43"/><circle cx="315" cy="12" r="2.1" fill="#ffe082" opacity="0.51"/><circle cx="235" cy="90" r="1.2" fill="#ffe082" opacity="0.82"/><circle cx="283" cy="149" r="2.5" fill="#ffe082" opacity="0.41"/><circle cx="383" cy="130" r="2.2" fill="#ffe082" opacity="0.81"/>
<rect x="12" y="12" width="100" height="24" rx="12" fill="#37474f" opacity="0.9"/><text x="62" y="28" fill="#fff" font-size="11" font-weight="700" text-anchor="middle" font-family="Arial,sans-serif">PONG</text>
<line x1="320" y1="80" x2="320" y2="320" stroke="#fff" stroke-width="2" stroke-dasharray="8,8" opacity="0.3"/><rect x="20" y="160" width="10" height="60" rx="4" fill="#fff" opacity="0.8" filter="url(#ds)"/><rect x="610" y="180" width="10" height="60" rx="4" fill="#fff" opacity="0.8" filter="url(#ds)"/><circle cx="320" cy="200" r="8" fill="#fff" opacity="0.9" filter="url(#ds)"/><text x="160" y="60" fill="#fff" font-size="28" text-anchor="middle" font-family="Arial" opacity="0.4">3</text><text x="480" y="60" fill="#fff" font-size="28" text-anchor="middle" font-family="Arial" opacity="0.4">2</text>
<text x="320" y="340" fill="#fff" font-size="22" font-weight="800" text-anchor="middle" font-family="Arial,sans-serif" filter="url(#ds)">Wave</text><text x="320" y="366" fill="#fff" font-size="22" font-weight="800" text-anchor="middle" font-family="Arial,sans-serif" filter="url(#ds)">Paddle</text>
</svg>