<svg xmlns="http://www.w3.org/2000/svg" viewBox="0 0 320 480">
<defs>
<linearGradient id="b" x1="0" y1="0" x2="1" y2="1"><stop offset="0%" stop-color="hsl(90,40%,35%)"/><stop offset="100%" stop-color="hsl(90,40%,25%)"/></linearGradient>
<linearGradient id="g" x1=".5" y1="0" x2=".5" y2="1"><stop offset="0%" stop-color="#e8f5e9" stop-opacity=".12"/><stop offset="100%" stop-color="#e8f5e9" stop-opacity="0"/></linearGradient>
<pattern id="scan" width="4" height="4" patternUnits="userSpaceOnUse"><rect width="4" height="2" fill="#000" opacity=".04"/></pattern>
<pattern id="grid" width="16" height="16" patternUnits="userSpaceOnUse"><rect width="16" height="16" fill="none" stroke="#e8f5e9" stroke-width=".3" opacity=".04"/></pattern>
</defs>
<rect width="320" height="480" rx="16" fill="url(#b)"/>
<rect width="320" height="480" rx="16" fill="url(#scan)"/>
<rect x="8" y="8" width="304" height="464" rx="12" fill="url(#grid)"/>
<rect x="8" y="8" width="304" height="464" rx="12" fill="none" stroke="#e8f5e9" stroke-width="1" opacity=".2"/>
<rect x="0" y="0" width="320" height="240" fill="url(#g)"/>
<text x="160" y="48" text-anchor="middle" fill="#e8f5e9" font-size="10" font-weight="700" font-family="monospace" opacity=".6" letter-spacing="3">PANDA KINGDOM</text>
<g transform="translate(0,20)"><rect x="148" y="150" width="4" height="4" fill="#e8f5e9" opacity="0.1"/><rect x="156" y="150" width="4" height="4" fill="#e8f5e9" opacity="0.1"/><rect x="164" y="150" width="4" height="4" fill="#e8f5e9" opacity="0.1"/><rect x="152" y="140" width="4" height="4" fill="#e8f5e9" opacity="0.08"/><rect x="160" y="140" width="4" height="4" fill="#e8f5e9" opacity="0.08"/><rect x="154" y="166" width="12" height="14" fill="#e8f5e9" opacity="0.35"/><rect x="148" y="160" width="24" height="6" fill="#e8f5e9" opacity="0.4"/><rect x="152" y="156" width="4" height="4" fill="#e8f5e9" opacity="0.6"/><rect x="164" y="156" width="4" height="4" fill="#e8f5e9" opacity="0.6"/><rect x="144" y="148" width="8" height="4" fill="#e8f5e9" opacity="0.4"/><rect x="168" y="148" width="8" height="4" fill="#e8f5e9" opacity="0.35"/></g>
<text x="160" y="290" text-anchor="middle" fill="#e8f5e9" font-size="18" font-weight="700" font-family="monospace">Bamboo Pop</text>
<text x="160" y="312" text-anchor="middle" fill="#c8e6c9" font-size="11" font-family="monospace" letter-spacing="1">Whack</text>
<line x1="80" y1="330" x2="240" y2="330" stroke="#e8f5e9" stroke-width=".5" opacity=".15"/>
<text x="160" y="420" text-anchor="middle" fill="#c8e6c9" font-size="11" font-family="monospace">Bamboo Whacker</text>
<text x="160" y="450" text-anchor="middle" fill="#e8f5e9" font-size="9" font-family="monospace" opacity=".35" letter-spacing="2">MOCHI MANGO ARCADE</text>
<rect x="16" y="16" width="2" height="2" fill="#e8f5e9" opacity=".15"/><rect x="302" y="16" width="2" height="2" fill="#e8f5e9" opacity=".15"/>
<rect x="16" y="462" width="2" height="2" fill="#e8f5e9" opacity=".15"/><rect x="302" y="462" width="2" height="2" fill="#e8f5e9" opacity=".15"/>
</svg>