<svg xmlns="http://www.w3.org/2000/svg" viewBox="0 0 320 480">
<defs>
<linearGradient id="b" x1="0" y1="0" x2="1" y2="1"><stop offset="0%" stop-color="hsl(330,40%,35%)"/><stop offset="100%" stop-color="hsl(330,40%,25%)"/></linearGradient>
<linearGradient id="g" x1=".5" y1="0" x2=".5" y2="1"><stop offset="0%" stop-color="#e8f5e9" stop-opacity=".12"/><stop offset="100%" stop-color="#e8f5e9" stop-opacity="0"/></linearGradient>
</defs>
<rect width="320" height="480" rx="16" fill="url(#b)"/>
<rect x="8" y="8" width="304" height="464" rx="12" fill="none" stroke="#e8f5e9" stroke-width="1" opacity=".15"/>
<rect x="0" y="0" width="320" height="240" fill="url(#g)"/>
<text x="160" y="48" text-anchor="middle" fill="#e8f5e9" font-size="11" font-weight="600" font-family="Outfit,sans-serif" opacity=".45" letter-spacing="4">PANDA KINGDOM</text>
<g transform="translate(0,20)"><rect x="125" y="130" width="70" height="70" rx="4" fill="ACCENT" opacity=".03" stroke="ACCENT" stroke-width="1.5" opacity=".25"/><line x1="145" y1="130" x2="145" y2="155" stroke="ACCENT" stroke-width="2.5" opacity=".3" stroke-linecap="round"/><line x1="165" y1="155" x2="165" y2="175" stroke="ACCENT" stroke-width="2.5" opacity=".25" stroke-linecap="round"/><line x1="125" y1="165" x2="145" y2="165" stroke="ACCENT" stroke-width="2.5" opacity=".2" stroke-linecap="round"/><circle cx="190" cy="185" r="4" fill="#fff" opacity=".6"/><circle cx="135" cy="140" r="3" fill="#fff" opacity=".5"/></g>
<text x="160" y="288" text-anchor="middle" fill="#e8f5e9" font-size="19" font-weight="700" font-family="Fredoka,Outfit,sans-serif">Bamboo Maze</text>
<text x="160" y="312" text-anchor="middle" fill="#c8e6c9" font-size="12" font-family="Outfit,sans-serif" letter-spacing="1">Maze</text>
<line x1="80" y1="330" x2="240" y2="330" stroke="#e8f5e9" stroke-width=".5" opacity=".1"/>
<text x="160" y="420" text-anchor="middle" fill="#c8e6c9" font-size="12" font-family="Outfit,sans-serif">Panda Explorer</text>
<text x="160" y="450" text-anchor="middle" fill="#e8f5e9" font-size="10" font-family="Outfit,sans-serif" opacity=".35" letter-spacing="2">MOCHI MANGO ARCADE</text>
<circle cx="16" cy="16" r="1.5" fill="#e8f5e9" opacity=".1"/><circle cx="304" cy="16" r="1.5" fill="#e8f5e9" opacity=".1"/>
<circle cx="16" cy="464" r="1.5" fill="#e8f5e9" opacity=".1"/><circle cx="304" cy="464" r="1.5" fill="#e8f5e9" opacity=".1"/>
</svg>