<svg xmlns="http://www.w3.org/2000/svg" viewBox="0 0 320 480">
<defs>
<linearGradient id="b" x1="0" y1="0" x2="1" y2="1"><stop offset="0%" stop-color="hsl(270,40%,35%)"/><stop offset="100%" stop-color="hsl(270,40%,25%)"/></linearGradient>
<linearGradient id="g" x1=".5" y1="0" x2=".5" y2="1"><stop offset="0%" stop-color="#e8f5e9" stop-opacity=".12"/><stop offset="100%" stop-color="#e8f5e9" stop-opacity="0"/></linearGradient>
</defs>
<rect width="320" height="480" rx="16" fill="url(#b)"/>
<rect x="8" y="8" width="304" height="464" rx="12" fill="none" stroke="#e8f5e9" stroke-width="1" opacity=".15"/>
<rect x="0" y="0" width="320" height="240" fill="url(#g)"/>
<text x="160" y="48" text-anchor="middle" fill="#e8f5e9" font-size="11" font-weight="600" font-family="Outfit,sans-serif" opacity=".45" letter-spacing="4">PANDA KINGDOM</text>
<g transform="translate(0,20)"><rect x="115" y="115" width="90" height="6" rx="2" fill="ACCENT" opacity.2/><rect x="120" y="125" width="80" height="6" rx="2" fill="ACCENT" opacity.17/><rect x="125" y="135" width="70" height="6" rx="2" fill="ACCENT" opacity.14/><rect x="130" y="145" width="60" height="6" rx="2" fill="ACCENT" opacity.11/><rect x="135" y="200" width="50" height="10" rx="5" fill="#fff" opacity=".6"/><circle cx="160" cy="185" r="6" fill="#fff" opacity=".7"/></g>
<text x="160" y="288" text-anchor="middle" fill="#e8f5e9" font-size="19" font-weight="700" font-family="Fredoka,Outfit,sans-serif">Bamboo Break</text>
<text x="160" y="312" text-anchor="middle" fill="#c8e6c9" font-size="12" font-family="Outfit,sans-serif" letter-spacing="1">Breakout</text>
<line x1="80" y1="330" x2="240" y2="330" stroke="#e8f5e9" stroke-width=".5" opacity=".1"/>
<text x="160" y="420" text-anchor="middle" fill="#c8e6c9" font-size="12" font-family="Outfit,sans-serif">Panda Breaker</text>
<text x="160" y="450" text-anchor="middle" fill="#e8f5e9" font-size="10" font-family="Outfit,sans-serif" opacity=".35" letter-spacing="2">MOCHI MANGO ARCADE</text>
<circle cx="16" cy="16" r="1.5" fill="#e8f5e9" opacity=".1"/><circle cx="304" cy="16" r="1.5" fill="#e8f5e9" opacity=".1"/>
<circle cx="16" cy="464" r="1.5" fill="#e8f5e9" opacity=".1"/><circle cx="304" cy="464" r="1.5" fill="#e8f5e9" opacity=".1"/>
</svg>