<svg xmlns="http://www.w3.org/2000/svg" viewBox="0 0 320 480">
<defs>
<linearGradient id="b" x1="0" y1="0" x2="1" y2="1"><stop offset="0%" stop-color="hsl(150,40%,35%)"/><stop offset="100%" stop-color="hsl(150,40%,25%)"/></linearGradient>
<linearGradient id="g" x1=".5" y1="0" x2=".5" y2="1"><stop offset="0%" stop-color="#e8f5e9" stop-opacity=".12"/><stop offset="100%" stop-color="#e8f5e9" stop-opacity="0"/></linearGradient>
</defs>
<rect width="320" height="480" rx="16" fill="url(#b)"/>
<rect x="8" y="8" width="304" height="464" rx="12" fill="none" stroke="#e8f5e9" stroke-width="1" opacity=".15"/>
<rect x="0" y="0" width="320" height="240" fill="url(#g)"/>
<text x="160" y="48" text-anchor="middle" fill="#e8f5e9" font-size="11" font-weight="600" font-family="Outfit,sans-serif" opacity=".45" letter-spacing="4">PANDA KINGDOM</text>
<g transform="translate(0,20)"><rect x="140" y="150" width="8" height="30" rx="3" fill="ACCENT" opacity.35"/><rect x="172" y="150" width="8" height="30" rx="3" fill="ACCENT" opacity=".3"/><rect x="156" y="175" width="8" height="30" rx="3" fill="ACCENT" opacity=".25"/><circle cx="155" cy="145" r="6" fill="ACCENT" opacity.45/><circle cx="165" cy="145" r="6" fill="ACCENT" opacity.4/><circle cx="160" cy="170" r="8" fill="ACCENT" opacity.5/><circle cx="157" cy="167" r="1.5" fill="ACCENT" opacity.7/><circle cx="163" cy="167" r="1.5" fill="ACCENT" opacity.7/></g>
<text x="160" y="288" text-anchor="middle" fill="#e8f5e9" font-size="19" font-weight="700" font-family="Fredoka,Outfit,sans-serif">Panda Merge</text>
<text x="160" y="312" text-anchor="middle" fill="#c8e6c9" font-size="12" font-family="Outfit,sans-serif" letter-spacing="1">Merge</text>
<line x1="80" y1="330" x2="240" y2="330" stroke="#e8f5e9" stroke-width=".5" opacity=".1"/>
<text x="160" y="420" text-anchor="middle" fill="#c8e6c9" font-size="12" font-family="Outfit,sans-serif">Panda Alchemist</text>
<text x="160" y="450" text-anchor="middle" fill="#e8f5e9" font-size="10" font-family="Outfit,sans-serif" opacity=".35" letter-spacing="2">MOCHI MANGO ARCADE</text>
<circle cx="16" cy="16" r="1.5" fill="#e8f5e9" opacity=".1"/><circle cx="304" cy="16" r="1.5" fill="#e8f5e9" opacity=".1"/>
<circle cx="16" cy="464" r="1.5" fill="#e8f5e9" opacity=".1"/><circle cx="304" cy="464" r="1.5" fill="#e8f5e9" opacity=".1"/>
</svg>