<svg xmlns="http://www.w3.org/2000/svg" viewBox="0 0 320 480">
<defs>
<linearGradient id="b" x1="0" y1="0" x2="1" y2="1"><stop offset="0%" stop-color="hsl(300,40%,35%)"/><stop offset="100%" stop-color="hsl(300,40%,25%)"/></linearGradient>
<linearGradient id="g" x1=".5" y1="0" x2=".5" y2="1"><stop offset="0%" stop-color="#e8f5e9" stop-opacity=".12"/><stop offset="100%" stop-color="#e8f5e9" stop-opacity="0"/></linearGradient>
</defs>
<rect width="320" height="480" rx="16" fill="url(#b)"/>
<rect x="8" y="8" width="304" height="464" rx="12" fill="none" stroke="#e8f5e9" stroke-width="1" opacity=".15"/>
<rect x="0" y="0" width="320" height="240" fill="url(#g)"/>
<text x="160" y="48" text-anchor="middle" fill="#e8f5e9" font-size="11" font-weight="600" font-family="Outfit,sans-serif" opacity=".45" letter-spacing="4">PANDA KINGDOM</text>
<g transform="translate(0,20)"><ellipse cx="160" cy="140" r="15" fill="#fff" opacity=".8"/><path d="M150 148 Q160 165 170 148" fill="ACCENT" opacity=".2"/><rect x="120" y="190" width="28" height="5" rx="2.5" fill="ACCENT" opacity.3/><rect x="170" y="180" width="32" height="5" rx="2.5" fill="ACCENT" opacity.25/><rect x="105" y="170" width="24" height="5" rx="2.5" fill="ACCENT" opacity.2/><rect x="195" y="165" width="22" height="5" rx="2.5" fill="ACCENT" opacity.15/><circle cx="156" cy="136" r="2" fill="#333"/><circle cx="164" cy="136" r="2" fill="#333"/><ellipse cx="160" cy="143" rx="3" ry="1.5" fill="#555" opacity=".5"/></g>
<text x="160" y="288" text-anchor="middle" fill="#e8f5e9" font-size="19" font-weight="700" font-family="Fredoka,Outfit,sans-serif">Panda Bounce</text>
<text x="160" y="312" text-anchor="middle" fill="#c8e6c9" font-size="12" font-family="Outfit,sans-serif" letter-spacing="1">Climber</text>
<line x1="80" y1="330" x2="240" y2="330" stroke="#e8f5e9" stroke-width=".5" opacity=".1"/>
<text x="160" y="420" text-anchor="middle" fill="#c8e6c9" font-size="12" font-family="Outfit,sans-serif">Panda Bouncer</text>
<text x="160" y="450" text-anchor="middle" fill="#e8f5e9" font-size="10" font-family="Outfit,sans-serif" opacity=".35" letter-spacing="2">MOCHI MANGO ARCADE</text>
<circle cx="16" cy="16" r="1.5" fill="#e8f5e9" opacity=".1"/><circle cx="304" cy="16" r="1.5" fill="#e8f5e9" opacity=".1"/>
<circle cx="16" cy="464" r="1.5" fill="#e8f5e9" opacity=".1"/><circle cx="304" cy="464" r="1.5" fill="#e8f5e9" opacity=".1"/>
</svg>