<svg xmlns="http://www.w3.org/2000/svg" viewBox="0 0 320 480">
<defs>
<linearGradient id="b" x1="0" y1="0" x2="1" y2="1"><stop offset="0%" stop-color="hsl(67.5,40%,35%)"/><stop offset="100%" stop-color="hsl(67.5,40%,25%)"/></linearGradient>
<linearGradient id="g" x1=".5" y1="0" x2=".5" y2="1"><stop offset="0%" stop-color="#f0c987" stop-opacity=".12"/><stop offset="100%" stop-color="#f0c987" stop-opacity="0"/></linearGradient>
</defs>
<rect width="320" height="480" rx="16" fill="url(#b)"/>
<rect x="8" y="8" width="304" height="464" rx="12" fill="none" stroke="#f0c987" stroke-width="1" opacity=".15"/>
<rect x="0" y="0" width="320" height="240" fill="url(#g)"/>
<text x="160" y="48" text-anchor="middle" fill="#f0c987" font-size="11" font-weight="600" font-family="Outfit,sans-serif" opacity=".45" letter-spacing="4">TABLETOP KINGDOM</text>
<g transform="translate(0,20)"><rect x="125" y="125" width="70" height="70" rx="4" fill="#f0c987" opacity=".05" stroke="#f0c987" stroke-width="1" opacity=".3"/><rect x="125" y="125" width="35" height="35" fill="#f0c987" opacity=".08"/><rect x="160" y="125" width="35" height="35" fill="#f0c987" opacity=".1"/><rect x="125" y="160" width="35" height="35" fill="#f0c987" opacity=".1"/><rect x="160" y="160" width="35" height="35" fill="#f0c987" opacity=".08"/><circle cx="142" cy="142" r="4" fill="#f0c987" opacity=".5"/><circle cx="177" cy="177" r="4" fill="#f0c987" opacity=".5"/><circle cx="142" cy="177" r="3" fill="#f0c987" opacity=".4"/><circle cx="177" cy="142" r="3" fill="#f0c987" opacity=".4"/></g>
<text x="160" y="288" text-anchor="middle" fill="#f0c987" font-size="19" font-weight="700" font-family="Fredoka,Outfit,sans-serif">Starstack Four</text>
<text x="160" y="312" text-anchor="middle" fill="#c4a87c" font-size="12" font-family="Outfit,sans-serif" letter-spacing="1">Board</text>
<line x1="80" y1="330" x2="240" y2="330" stroke="#f0c987" stroke-width=".5" opacity=".1"/>
<text x="160" y="420" text-anchor="middle" fill="#c4a87c" font-size="12" font-family="Outfit,sans-serif">Stella Stacker</text>
<text x="160" y="450" text-anchor="middle" fill="#f0c987" font-size="10" font-family="Outfit,sans-serif" opacity=".35" letter-spacing="2">MOCHI MANGO ARCADE</text>
<circle cx="16" cy="16" r="1.5" fill="#f0c987" opacity=".1"/><circle cx="304" cy="16" r="1.5" fill="#f0c987" opacity=".1"/>
<circle cx="16" cy="464" r="1.5" fill="#f0c987" opacity=".1"/><circle cx="304" cy="464" r="1.5" fill="#f0c987" opacity=".1"/>
</svg>